G75*
G70*
%OFA0B0*%
%FSLAX24Y24*%
%IPPOS*%
%LPD*%
%AMOC8*
5,1,8,0,0,1.08239X$1,22.5*
%
%ADD10C,0.0050*%
%ADD11C,0.0100*%
%ADD12C,0.0070*%
%ADD13C,0.0120*%
%ADD14C,0.0200*%
D10*
X015700Y014707D02*
X016050Y014457D01*
X016101Y014456D02*
X016102Y014480D01*
X016100Y014503D01*
X016096Y014526D01*
X016088Y014548D01*
X016078Y014569D01*
X016066Y014589D01*
X016051Y014607D01*
X016050Y014907D02*
X016200Y014207D01*
X016200Y013957D02*
X016300Y013657D01*
X016250Y013707D02*
X016300Y013307D01*
X016300Y013157D02*
X016250Y012407D01*
X016300Y012407D02*
X016350Y012307D01*
X016300Y012057D01*
X016300Y012357D01*
X016300Y012407D01*
X016300Y012607D01*
X016300Y012707D01*
X016350Y012607D02*
X016300Y013007D01*
X016300Y012357D02*
X016301Y012322D01*
X016306Y012288D01*
X016313Y012254D01*
X016322Y012221D01*
X016335Y012188D01*
X016350Y012157D01*
X016350Y012107D02*
X016300Y011757D01*
X016300Y012057D01*
X016300Y011757D02*
X016300Y011407D01*
X016250Y011207D01*
X016300Y011057D02*
X016300Y011407D01*
X016349Y012107D02*
X016357Y012170D01*
X016360Y012233D01*
X016359Y012296D01*
X016355Y012359D01*
X016347Y012422D01*
X016335Y012485D01*
X016319Y012546D01*
X016299Y012606D01*
X016150Y014207D02*
X016153Y014235D01*
X016154Y014263D01*
X016151Y014291D01*
X016145Y014319D01*
X016136Y014346D01*
X016124Y014371D01*
X016109Y014396D01*
X016092Y014418D01*
X016072Y014438D01*
X016050Y014456D01*
X012950Y016137D02*
X012950Y016217D01*
X012920Y016327D02*
X012880Y016357D01*
X012900Y016357D02*
X012850Y016407D01*
X012850Y016387D02*
X012870Y016377D01*
X012800Y016387D02*
X012760Y016387D01*
X012450Y016006D02*
X012418Y016024D01*
X012388Y016045D01*
X012360Y016069D01*
X012335Y016095D01*
X012312Y016124D01*
X012292Y016155D01*
X012274Y016187D01*
X012261Y016221D01*
X012250Y016256D01*
X012250Y016257D02*
X012248Y016274D01*
X012249Y016290D01*
X012254Y016307D01*
X012262Y016321D01*
X012273Y016334D01*
X012287Y016344D01*
X012302Y016351D01*
X012318Y016355D01*
X012335Y016355D01*
X012352Y016351D01*
X012367Y016344D01*
X012380Y016334D01*
X012392Y016322D01*
X012400Y016307D01*
X012900Y017357D02*
X012967Y017337D01*
X013033Y017313D01*
X013098Y017285D01*
X013161Y017255D01*
X013223Y017221D01*
X013283Y017184D01*
X013340Y017144D01*
X013396Y017101D01*
X013449Y017056D01*
X013500Y017007D01*
X013700Y016807D01*
X013450Y017407D02*
X013300Y017657D01*
X013284Y017681D01*
X013266Y017703D01*
X013246Y017723D01*
X013224Y017741D01*
X013200Y017757D01*
X012950Y017807D02*
X012750Y017907D01*
X013550Y017957D02*
X013575Y017995D01*
X013596Y018034D01*
X013615Y018076D01*
X013630Y018118D01*
X013642Y018162D01*
X013650Y018207D01*
X013700Y018307D01*
X013450Y018256D02*
X013486Y018266D01*
X013521Y018280D01*
X013554Y018296D01*
X013586Y018316D01*
X013616Y018338D01*
X013643Y018364D01*
X013668Y018392D01*
X013690Y018422D01*
X013709Y018454D01*
X013725Y018487D01*
X013738Y018522D01*
X013748Y018559D01*
X013754Y018595D01*
X013756Y018633D01*
X013755Y018670D01*
X013750Y018707D01*
X013750Y018607D02*
X013754Y018563D01*
X013755Y018519D01*
X013751Y018475D01*
X013744Y018431D01*
X013733Y018389D01*
X013718Y018347D01*
X013700Y018307D01*
X013549Y017957D02*
X013524Y017924D01*
X013495Y017893D01*
X013464Y017865D01*
X013430Y017840D01*
X013394Y017818D01*
X013357Y017799D01*
X013318Y017783D01*
X013277Y017771D01*
X013236Y017763D01*
X013194Y017758D01*
X013152Y017757D01*
X013110Y017760D01*
X013069Y017766D01*
X013028Y017776D01*
X012988Y017790D01*
X012950Y017807D01*
X012200Y017427D02*
X011980Y017207D01*
X012200Y016987D01*
X012200Y017057D01*
X012050Y017207D01*
X012200Y017357D01*
X012200Y017427D01*
X012200Y017357D02*
X012200Y017307D01*
X012100Y017207D01*
X012200Y017107D01*
X012200Y017057D01*
X012200Y017206D02*
X012227Y017207D01*
X012254Y017203D01*
X012280Y017196D01*
X012304Y017185D01*
X012327Y017171D01*
X012347Y017153D01*
X012365Y017133D01*
X012379Y017110D01*
X012390Y017086D01*
X012397Y017060D01*
X012401Y017033D01*
X012400Y017006D01*
X012500Y016957D02*
X012250Y016757D01*
X012260Y016747D02*
X012310Y016777D01*
X012360Y016807D02*
X012250Y016727D01*
X012230Y016717D02*
X012120Y016667D01*
X012140Y016677D02*
X012020Y016627D01*
X012030Y016637D02*
X012160Y016687D01*
X013450Y017407D02*
X013482Y017352D01*
X013511Y017295D01*
X013537Y017237D01*
X013561Y017178D01*
X013582Y017118D01*
X013600Y017057D01*
X012950Y016507D02*
X012920Y016437D01*
X012913Y016416D01*
X012910Y016396D01*
X012909Y016374D01*
X012912Y016353D01*
X012919Y016333D01*
X012928Y016314D01*
X012940Y016297D01*
X012950Y016267D02*
X012944Y016289D01*
X012934Y016310D01*
X012921Y016329D01*
X012905Y016346D01*
X012887Y016360D01*
X012867Y016372D01*
X012845Y016380D01*
X012823Y016385D01*
X012800Y016387D01*
X012850Y016357D02*
X012871Y016348D01*
X012890Y016336D01*
X012908Y016321D01*
X012922Y016303D01*
X012934Y016283D01*
X012943Y016262D01*
X012948Y016240D01*
X012950Y016217D01*
X012900Y016356D02*
X012918Y016335D01*
X012934Y016312D01*
X012946Y016287D01*
X012954Y016261D01*
X012959Y016234D01*
X012961Y016206D01*
X012959Y016179D01*
X012953Y016152D01*
X012944Y016126D01*
X012931Y016101D01*
X012915Y016079D01*
X012896Y016058D01*
X012875Y016041D01*
X012852Y016026D01*
X012827Y016014D01*
X012800Y016006D01*
X012550Y015957D02*
X012450Y016007D01*
X012450Y015557D02*
X012475Y015556D01*
X012500Y015557D01*
X012700Y016397D02*
X012750Y016386D01*
X012800Y016372D01*
X012850Y016357D01*
X012730Y016986D02*
X012693Y016989D01*
X012655Y016988D01*
X012618Y016985D01*
X012581Y016978D01*
X012545Y016969D01*
X012510Y016956D01*
X012510Y016957D02*
X012496Y016949D01*
X012482Y016940D01*
X012471Y016929D01*
X012460Y016917D01*
X012550Y016707D02*
X012450Y016607D01*
X012500Y016607D01*
X012550Y016607D01*
X012600Y016607D01*
X012650Y016607D01*
X012550Y016707D01*
X012970Y016757D02*
X012974Y016719D01*
X012975Y016681D01*
X012972Y016643D01*
X012966Y016606D01*
X012956Y016569D01*
X012943Y016533D01*
X012927Y016499D01*
X012907Y016466D01*
X012885Y016436D01*
X012860Y016407D01*
X012950Y016507D02*
X012936Y016482D01*
X012918Y016459D01*
X012898Y016439D01*
X012875Y016422D01*
X012850Y016409D01*
X012823Y016398D01*
X012795Y016392D01*
X012767Y016389D01*
X012738Y016390D01*
X012710Y016395D01*
X012683Y016404D01*
X012657Y016417D01*
X012633Y016432D01*
X012611Y016451D01*
X012593Y016473D01*
X012577Y016497D01*
X012565Y016523D01*
X012556Y016550D01*
X012551Y016578D01*
X012550Y016607D01*
X012550Y016657D02*
X012500Y016607D01*
X012550Y016657D02*
X012600Y016607D01*
X012950Y016507D02*
X012964Y016540D01*
X012975Y016574D01*
X012983Y016608D01*
X012987Y016644D01*
X012988Y016679D01*
X012985Y016715D01*
X012979Y016750D01*
X012970Y016784D01*
X012957Y016817D01*
X012941Y016849D01*
X012923Y016880D01*
X012901Y016908D01*
X012877Y016934D01*
X012850Y016957D01*
X012824Y016975D01*
X012797Y016990D01*
X012768Y017002D01*
X012737Y017011D01*
X012706Y017016D01*
X012675Y017018D01*
X012644Y017016D01*
X012613Y017011D01*
X012582Y017002D01*
X012553Y016990D01*
X012526Y016975D01*
X012500Y016957D01*
X012359Y017116D02*
X012351Y017136D01*
X012339Y017153D01*
X012325Y017169D01*
X012309Y017183D01*
X012291Y017193D01*
X012271Y017201D01*
X012251Y017205D01*
X012230Y017206D01*
X012200Y017207D02*
X012200Y017157D01*
X012150Y017207D01*
X012200Y017257D01*
X012200Y017307D01*
X012200Y017257D02*
X012200Y017207D01*
X012200Y017157D02*
X012200Y017107D01*
X012460Y016916D02*
X012439Y016885D01*
X012416Y016856D01*
X012389Y016830D01*
X012360Y016806D01*
X012230Y016716D02*
X012258Y016731D01*
X012285Y016748D01*
X012309Y016769D01*
X012331Y016792D01*
X012350Y016817D01*
X012367Y016844D01*
X012380Y016872D01*
X012390Y016902D01*
X012397Y016933D01*
X012401Y016965D01*
X012401Y016996D01*
X012400Y017007D02*
X012395Y016975D01*
X012387Y016943D01*
X012376Y016913D01*
X012361Y016883D01*
X012343Y016856D01*
X012323Y016830D01*
X012300Y016807D01*
X012310Y016837D02*
X012329Y016863D01*
X012345Y016892D01*
X012358Y016922D01*
X012367Y016954D01*
X012373Y016986D01*
X012375Y017019D01*
X012373Y017052D01*
X012368Y017085D01*
X012359Y017116D01*
X012060Y017207D02*
X012000Y017207D01*
X012310Y016777D02*
X012344Y016800D01*
X012377Y016825D01*
X012407Y016853D01*
X012435Y016884D01*
X012460Y016917D01*
X012730Y016987D02*
X012762Y016981D01*
X012793Y016972D01*
X012823Y016959D01*
X012851Y016943D01*
X012877Y016923D01*
X012900Y016901D01*
X012921Y016876D01*
X012939Y016848D01*
X012953Y016819D01*
X012963Y016789D01*
X012970Y016757D01*
X012370Y016907D02*
X012357Y016874D01*
X012341Y016843D01*
X012323Y016814D01*
X012301Y016786D01*
X012277Y016761D01*
X012251Y016738D01*
X012222Y016718D01*
X012192Y016701D01*
X012160Y016687D01*
X011650Y016557D02*
X011450Y016557D01*
X011390Y016567D02*
X011230Y016557D01*
X009800Y017207D02*
X009823Y017282D01*
X009850Y017357D01*
X009850Y016187D02*
X009916Y016179D01*
X009983Y016174D01*
X010050Y016172D01*
X010117Y016174D01*
X010184Y016179D01*
X010250Y016187D01*
X010250Y016177D02*
X010270Y016177D01*
X010250Y016177D02*
X010190Y016177D01*
X010220Y016217D02*
X010240Y016297D01*
X010260Y016307D02*
X010260Y016267D01*
X010250Y016257D02*
X010300Y016807D01*
X010310Y016807D02*
X010300Y016877D01*
X010300Y016897D01*
X010290Y016937D01*
X010280Y016967D01*
X010260Y016927D02*
X010230Y016997D01*
X010210Y017007D02*
X010160Y017047D01*
X010130Y017067D01*
X010230Y017016D02*
X010239Y017004D01*
X010245Y016991D01*
X010250Y016976D01*
X010300Y016887D02*
X010310Y016757D01*
X010300Y016747D02*
X010300Y016877D01*
X009860Y017007D02*
X009844Y016975D01*
X009833Y016941D01*
X009825Y016906D01*
X009821Y016870D01*
X009821Y016834D01*
X009825Y016798D01*
X009833Y016763D01*
X009844Y016729D01*
X009860Y016697D01*
X009880Y016677D01*
X009900Y016657D01*
X009860Y016697D02*
X009850Y016707D01*
X009631Y016237D02*
X009668Y016220D01*
X009708Y016207D01*
X009748Y016197D01*
X009789Y016190D01*
X009831Y016187D01*
X009850Y016187D02*
X009720Y016207D01*
X009710Y016207D02*
X009870Y016177D01*
X009890Y016187D02*
X009660Y016227D01*
X009630Y016237D02*
X009590Y016257D01*
X009690Y016217D02*
X009760Y016197D01*
X009750Y016197D02*
X009930Y016177D01*
X009930Y016187D02*
X010020Y016177D01*
X010240Y016207D02*
X009790Y016207D01*
X009750Y016207D01*
X010240Y016227D02*
X010253Y016266D01*
X010263Y016306D01*
X010270Y016347D01*
X010280Y016417D01*
X010260Y016267D02*
X010262Y016249D01*
X010267Y016233D01*
X010275Y016217D01*
X010286Y016203D01*
X010300Y016192D01*
X010316Y016184D01*
X010332Y016179D01*
X010350Y016177D01*
X010250Y016207D02*
X010240Y016207D01*
X010250Y016207D02*
X010277Y016206D01*
X010303Y016201D01*
X010329Y016194D01*
X010354Y016184D01*
X010378Y016172D01*
X010400Y016157D01*
X010250Y016207D02*
X010249Y016232D01*
X010250Y016257D01*
X010401Y016157D02*
X010424Y016142D01*
X010449Y016130D01*
X010475Y016121D01*
X010503Y016116D01*
X010530Y016114D01*
X010558Y016116D01*
X010585Y016122D01*
X010611Y016131D01*
X010636Y016143D01*
X010659Y016158D01*
X010680Y016177D01*
X010699Y016198D01*
X010714Y016221D01*
X010726Y016246D01*
X010735Y016272D01*
X010741Y016299D01*
X010743Y016327D01*
X010741Y016354D01*
X010736Y016382D01*
X010727Y016408D01*
X010715Y016433D01*
X010700Y016456D01*
X010550Y016307D02*
X010575Y016290D01*
X010602Y016277D01*
X010631Y016267D01*
X010660Y016260D01*
X010690Y016257D01*
X010720Y016258D01*
X010750Y016262D01*
X010779Y016270D01*
X010807Y016281D01*
X010834Y016296D01*
X010858Y016313D01*
X010880Y016334D01*
X010900Y016357D01*
X010700Y016456D02*
X010686Y016471D01*
X010670Y016483D01*
X010651Y016492D01*
X010632Y016498D01*
X010611Y016499D01*
X010591Y016497D01*
X010572Y016490D01*
X010554Y016481D01*
X010538Y016468D01*
X010525Y016452D01*
X010516Y016434D01*
X010509Y016415D01*
X010507Y016395D01*
X010508Y016374D01*
X010514Y016355D01*
X010523Y016336D01*
X010535Y016320D01*
X010550Y016306D01*
X010490Y016117D02*
X010464Y016126D01*
X010440Y016137D01*
X010430Y016137D02*
X010408Y016151D01*
X010384Y016162D01*
X010359Y016171D01*
X010333Y016176D01*
X010307Y016178D01*
X010280Y016177D01*
X010270Y016176D02*
X010305Y016174D01*
X010340Y016170D01*
X010374Y016161D01*
X010408Y016150D01*
X010440Y016136D01*
X009790Y016207D02*
X009753Y016209D01*
X009717Y016214D01*
X009681Y016224D01*
X009646Y016236D01*
X009613Y016252D01*
X009581Y016272D01*
X009552Y016294D01*
X009525Y016319D01*
X009500Y016347D01*
X009450Y016467D02*
X009460Y016527D01*
X010320Y016637D02*
X010323Y016689D01*
X010322Y016742D01*
X010318Y016794D01*
X010311Y016846D01*
X010300Y016897D01*
X010230Y016997D02*
X010222Y017012D01*
X010212Y017026D01*
X010199Y017039D01*
X010185Y017049D01*
X010170Y017057D01*
X010250Y016177D02*
X010187Y016167D01*
X010124Y016161D01*
X010060Y016159D01*
X009996Y016161D01*
X009933Y016167D01*
X009870Y016177D01*
X009880Y016677D02*
X009853Y016695D01*
X009825Y016710D01*
X009795Y016722D01*
X009764Y016731D01*
X009732Y016736D01*
X009700Y016737D01*
X010310Y016837D02*
X010306Y016871D01*
X010299Y016904D01*
X010290Y016937D01*
X009840Y016997D02*
X009826Y016968D01*
X009815Y016939D01*
X009808Y016908D01*
X009804Y016877D01*
X009805Y016845D01*
X009808Y016814D01*
X009816Y016784D01*
X009827Y016754D01*
X009841Y016726D01*
X009859Y016700D01*
X009880Y016676D01*
X009980Y017086D02*
X010019Y017088D01*
X010058Y017086D01*
X010096Y017080D01*
X010134Y017070D01*
X010170Y017056D01*
X010160Y017047D02*
X010141Y017061D01*
X010120Y017072D01*
X010097Y017080D01*
X010074Y017085D01*
X010050Y017087D01*
X009760Y016196D02*
X009822Y016181D01*
X009886Y016169D01*
X009949Y016160D01*
X010014Y016156D01*
X010078Y016155D01*
X010143Y016158D01*
X010207Y016166D01*
X010270Y016176D01*
X009750Y016207D02*
X009717Y016209D01*
X009685Y016214D01*
X009654Y016223D01*
X009624Y016234D01*
X009595Y016250D01*
X009568Y016268D01*
X009543Y016288D01*
X009520Y016312D01*
X009500Y016338D01*
X009483Y016365D01*
X009468Y016395D01*
X009458Y016425D01*
X009450Y016457D01*
X009460Y016527D02*
X009455Y016500D01*
X009454Y016473D01*
X009456Y016446D01*
X009462Y016419D01*
X009472Y016393D01*
X009484Y016369D01*
X009500Y016347D01*
X009500Y016637D02*
X009519Y016659D01*
X009540Y016678D01*
X009563Y016696D01*
X009589Y016710D01*
X009615Y016721D01*
X009643Y016730D01*
X009671Y016735D01*
X009700Y016737D01*
X009851Y016707D02*
X009825Y016723D01*
X009798Y016736D01*
X009769Y016746D01*
X009740Y016753D01*
X009710Y016756D01*
X009679Y016755D01*
X009649Y016751D01*
X009620Y016743D01*
X009592Y016732D01*
X009565Y016717D01*
X009541Y016700D01*
X009518Y016679D01*
X009498Y016657D01*
X009481Y016631D01*
X009468Y016605D01*
X009457Y016576D01*
X009450Y016547D01*
X009446Y016517D01*
X009446Y016486D01*
X009450Y016456D01*
X010221Y016226D02*
X010245Y016281D01*
X010266Y016336D01*
X010284Y016393D01*
X010298Y016451D01*
X010309Y016510D01*
X010316Y016569D01*
X010320Y016628D01*
X010321Y016688D01*
X010318Y016747D01*
X010311Y016806D01*
X010300Y016886D02*
X010296Y016917D01*
X010288Y016946D01*
X010277Y016974D01*
X010263Y017001D01*
X010245Y017026D01*
X010225Y017049D01*
X010202Y017069D01*
X010176Y017086D01*
X010149Y017100D01*
X010121Y017110D01*
X010091Y017117D01*
X010061Y017121D01*
X010030Y017120D01*
X010000Y017117D01*
X009980Y017086D02*
X009959Y017083D01*
X009939Y017076D01*
X009919Y017067D01*
X009902Y017055D01*
X009886Y017041D01*
X009872Y017025D01*
X009861Y017007D01*
X009839Y016997D02*
X009855Y017020D01*
X009873Y017041D01*
X009895Y017060D01*
X009918Y017075D01*
X009943Y017088D01*
X009970Y017097D01*
X010100Y017107D02*
X010070Y017114D01*
X010040Y017118D01*
X010009Y017117D01*
X009979Y017113D01*
X009950Y017105D01*
X009921Y017094D01*
X009895Y017079D01*
X009870Y017061D01*
X009848Y017040D01*
X009829Y017016D01*
X009812Y016990D01*
X009800Y016962D01*
X009790Y016933D01*
X009785Y016903D01*
X009783Y016873D01*
X009785Y016842D01*
X009791Y016812D01*
X009801Y016783D01*
X009814Y016756D01*
X009830Y016730D01*
X009850Y016706D01*
X010300Y016807D02*
X010301Y016839D01*
X010298Y016872D01*
X010292Y016904D01*
X010282Y016935D01*
X010269Y016964D01*
X010253Y016992D01*
X010233Y017018D01*
X010211Y017042D01*
X010186Y017063D01*
X010159Y017081D01*
X010130Y017095D01*
X010100Y017107D01*
X010020Y016177D02*
X010085Y016172D01*
X010150Y016170D01*
X010215Y016172D01*
X010280Y016177D01*
X009670Y016737D02*
X009642Y016730D01*
X009615Y016721D01*
X009589Y016708D01*
X009565Y016693D01*
X009542Y016675D01*
X009522Y016655D01*
X009504Y016632D01*
X009489Y016608D01*
X009476Y016582D01*
X009467Y016555D01*
X009460Y016527D01*
X009500Y016636D02*
X009483Y016611D01*
X009469Y016583D01*
X009458Y016554D01*
X009451Y016524D01*
X009447Y016493D01*
X009448Y016462D01*
X009452Y016431D01*
X009459Y016401D01*
X009471Y016372D01*
X009485Y016345D01*
X009503Y016320D01*
X009524Y016297D01*
X009547Y016276D01*
X009573Y016259D01*
X009601Y016245D01*
X009630Y016234D01*
X009660Y016227D01*
X009200Y016607D02*
X007950Y015757D01*
X008550Y016107D02*
X008750Y016007D01*
X010241Y016297D02*
X010257Y016371D01*
X010270Y016446D01*
X010279Y016522D01*
X010284Y016598D01*
X010285Y016674D01*
X010282Y016750D01*
X010275Y016826D01*
X010265Y016902D01*
X010251Y016977D01*
X010230Y017017D02*
X010210Y017038D01*
X010188Y017056D01*
X010164Y017072D01*
X010138Y017085D01*
X010111Y017095D01*
X010083Y017102D01*
X010055Y017105D01*
X010026Y017106D01*
X009998Y017103D01*
X009970Y017097D01*
X010160Y017047D02*
X010185Y017028D01*
X010207Y017006D01*
X010227Y016982D01*
X010243Y016955D01*
X010256Y016927D01*
X010265Y016897D01*
X010270Y016867D01*
X010950Y016957D02*
X011050Y017057D01*
X011200Y017207D01*
X011200Y017257D02*
X011250Y017307D01*
X011249Y017307D02*
X011267Y017327D01*
X011282Y017349D01*
X011294Y017374D01*
X011302Y017399D01*
X011307Y017426D01*
X011308Y017453D01*
X011305Y017480D01*
X011299Y017506D01*
X011300Y017506D02*
X011299Y017515D01*
X011301Y017524D01*
X011305Y017531D01*
X011312Y017537D01*
X011321Y017540D01*
X011329Y017540D01*
X011338Y017537D01*
X011345Y017531D01*
X011349Y017524D01*
X011351Y017515D01*
X011350Y017506D01*
X011350Y017557D02*
X011350Y017607D01*
X011350Y017507D02*
X011344Y017494D01*
X011336Y017481D01*
X011326Y017471D01*
X011313Y017463D01*
X011300Y017457D01*
X011650Y016557D02*
X011709Y016559D01*
X011768Y016564D01*
X011827Y016573D01*
X011885Y016586D01*
X011942Y016602D01*
X011998Y016622D01*
X012053Y016645D01*
X012106Y016671D01*
X012158Y016700D01*
X012207Y016733D01*
X012255Y016769D01*
X012300Y016807D01*
X012310Y016837D02*
X012278Y016800D01*
X012244Y016766D01*
X012208Y016734D01*
X012169Y016705D01*
X012129Y016678D01*
X012086Y016655D01*
X012043Y016634D01*
X011998Y016616D01*
X011951Y016602D01*
X011904Y016591D01*
X011857Y016583D01*
X011808Y016578D01*
X011760Y016577D01*
X011650Y016507D02*
X011672Y016497D01*
X011692Y016483D01*
X011710Y016467D01*
X011726Y016448D01*
X011738Y016427D01*
X011747Y016405D01*
X011752Y016381D01*
X011754Y016357D01*
X011752Y016333D01*
X011747Y016309D01*
X011738Y016287D01*
X011726Y016266D01*
X011710Y016247D01*
X011692Y016231D01*
X011672Y016217D01*
X011650Y016207D01*
X011600Y016157D01*
X011550Y016157D01*
X011550Y016107D01*
X011750Y016107D01*
X011700Y016157D01*
X011650Y016207D01*
X011600Y016257D01*
X011550Y016307D01*
X011550Y016157D01*
X011600Y016157D02*
X011700Y016157D01*
X011600Y016157D02*
X011600Y016257D01*
X011250Y016557D02*
X011209Y016551D01*
X011168Y016541D01*
X011129Y016528D01*
X011091Y016512D01*
X011054Y016493D01*
X011019Y016471D01*
X010986Y016446D01*
X010955Y016419D01*
X010926Y016389D01*
X010900Y016357D01*
X011250Y016557D02*
X011308Y016561D01*
X011366Y016562D01*
X011424Y016558D01*
X011482Y016551D01*
X011539Y016540D01*
X011595Y016525D01*
X011650Y016507D01*
X011350Y017607D02*
X011351Y017642D01*
X011356Y017676D01*
X011363Y017710D01*
X011372Y017743D01*
X011385Y017776D01*
X011400Y017807D01*
X011415Y017838D01*
X011428Y017871D01*
X011437Y017904D01*
X011444Y017938D01*
X011449Y017972D01*
X011450Y018007D01*
X011300Y018457D02*
X011250Y018607D01*
X009850Y018207D02*
X009819Y018292D01*
X009792Y018379D01*
X009769Y018467D01*
X009750Y018556D01*
X009800Y018357D02*
X009850Y018157D01*
X009900Y018057D02*
X009850Y018307D01*
X011300Y018456D02*
X011321Y018385D01*
X011339Y018313D01*
X011354Y018241D01*
X011365Y018168D01*
X011372Y018094D01*
X011376Y018020D01*
X011375Y017946D01*
X011372Y017872D01*
X011364Y017798D01*
X011353Y017725D01*
X011338Y017652D01*
X011320Y017580D01*
X011298Y017509D01*
X011272Y017440D01*
X011243Y017372D01*
X011211Y017305D01*
X011175Y017240D01*
X011136Y017177D01*
X011095Y017116D01*
X011050Y017057D01*
X011200Y017207D02*
X011229Y017238D01*
X011255Y017270D01*
X011279Y017305D01*
X011301Y017341D01*
X011320Y017378D01*
X011336Y017417D01*
X011350Y017457D01*
X010270Y016177D02*
X010202Y016171D01*
X010134Y016168D01*
X010066Y016168D01*
X009998Y016171D01*
X009930Y016177D01*
X009150Y015907D02*
X009091Y015911D01*
X009032Y015918D01*
X008973Y015929D01*
X008916Y015943D01*
X008859Y015961D01*
X008804Y015982D01*
X008750Y016007D01*
X010220Y016217D02*
X010241Y016291D01*
X010259Y016366D01*
X010274Y016441D01*
X010285Y016517D01*
X010293Y016593D01*
X010298Y016670D01*
X010300Y016747D01*
X009800Y017207D02*
X009784Y017156D01*
X009765Y017107D01*
X009743Y017058D01*
X009718Y017012D01*
X009689Y016967D01*
X009659Y016923D01*
X009625Y016882D01*
X009589Y016843D01*
X009550Y016807D01*
X009850Y017357D02*
X009873Y017420D01*
X009892Y017484D01*
X009907Y017549D01*
X009918Y017615D01*
X009926Y017682D01*
X009930Y017749D01*
X009930Y017815D01*
X009926Y017882D01*
X009918Y017949D01*
X009907Y018015D01*
X009892Y018080D01*
X009873Y018144D01*
X009850Y018207D01*
X009250Y018357D02*
X009100Y018607D01*
X009250Y018357D02*
X009255Y018345D01*
X009257Y018332D01*
X009255Y018319D01*
X009250Y018307D01*
X011400Y018607D02*
X011420Y018503D01*
X011434Y018398D01*
X011444Y018293D01*
X011449Y018187D01*
X011450Y018082D01*
X011445Y017976D01*
X011435Y017871D01*
X011421Y017766D01*
X011402Y017662D01*
X011378Y017559D01*
X011350Y017457D01*
X010240Y016207D02*
X010138Y016196D01*
X010035Y016189D01*
X009933Y016186D01*
X009830Y016187D01*
X008700Y009006D02*
X008439Y009002D01*
X008178Y009010D01*
X007917Y009030D01*
X007658Y009062D01*
X007400Y009106D01*
X007150Y009207D02*
X006900Y009307D01*
X006600Y009457D01*
X006650Y009407D02*
X006900Y009307D01*
X006650Y009407D02*
X006590Y009433D01*
X006532Y009462D01*
X006476Y009495D01*
X006422Y009531D01*
X006370Y009570D01*
X006321Y009612D01*
X006274Y009657D01*
X006230Y009704D01*
X006188Y009755D01*
X006150Y009807D01*
X005800Y010807D02*
X005800Y010957D01*
X006150Y009807D02*
X006199Y009754D01*
X006249Y009704D01*
X006302Y009655D01*
X006358Y009610D01*
X006416Y009567D01*
X006475Y009528D01*
X006537Y009491D01*
X006600Y009457D01*
X006600Y009407D02*
X006532Y009449D01*
X006466Y009495D01*
X006402Y009544D01*
X006341Y009596D01*
X006282Y009651D01*
X006227Y009709D01*
X006174Y009770D01*
X006124Y009833D01*
X006078Y009898D01*
X006034Y009966D01*
X005995Y010036D01*
X005958Y010108D01*
X005925Y010181D01*
X005896Y010256D01*
X005871Y010332D01*
X005849Y010409D01*
X005832Y010488D01*
X005818Y010567D01*
X005808Y010647D01*
X005802Y010727D01*
X005800Y010807D01*
X006600Y009407D02*
X006665Y009371D01*
X006732Y009337D01*
X006800Y009307D01*
X007750Y009007D02*
X007812Y008991D01*
X007874Y008977D01*
X007937Y008966D01*
X008000Y008957D01*
X008650Y009006D02*
X008667Y009004D01*
X008683Y009004D01*
X008700Y009006D01*
X008750Y009057D02*
X009300Y009157D01*
X009150Y009107D02*
X008900Y009057D01*
X008950Y009057D01*
X008900Y009057D02*
X008800Y009057D01*
X010200Y009557D02*
X010236Y009492D01*
X010270Y009425D01*
X010300Y009357D01*
X010350Y009407D01*
X010300Y009457D01*
X010250Y009557D01*
X010250Y009607D02*
X010241Y009613D01*
X010230Y009617D01*
X010220Y009617D01*
X010209Y009613D01*
X010200Y009607D01*
X010100Y009807D01*
X010050Y009807D02*
X009750Y010357D01*
X010200Y009407D02*
X010154Y009371D01*
X010106Y009338D01*
X010055Y009308D01*
X010003Y009281D01*
X009950Y009257D01*
X009900Y009257D02*
X009950Y009357D01*
X010000Y009307D02*
X010150Y009457D01*
X010150Y009507D02*
X010200Y009557D01*
X010200Y009607D02*
X010150Y009557D01*
X010000Y009807D01*
X010050Y009757D02*
X010050Y009657D01*
X010100Y009657D02*
X010050Y009507D01*
X010100Y009557D01*
X010050Y009557D02*
X010000Y009507D01*
X010050Y009607D01*
X010150Y009607D02*
X010100Y009707D01*
X010200Y009657D02*
X010191Y009663D01*
X010180Y009667D01*
X010170Y009667D01*
X010159Y009663D01*
X010150Y009657D01*
X010144Y009648D01*
X010140Y009637D01*
X010140Y009627D01*
X010144Y009616D01*
X010150Y009607D01*
X010159Y009601D01*
X010170Y009597D01*
X010180Y009597D01*
X010191Y009601D01*
X010200Y009607D01*
X010200Y009657D02*
X010250Y009607D01*
X010200Y009507D01*
X010200Y009457D02*
X010250Y009507D01*
X010250Y009557D02*
X010259Y009562D01*
X010270Y009565D01*
X010280Y009565D01*
X010291Y009562D01*
X010300Y009557D01*
X010350Y009457D02*
X010350Y009407D01*
X010350Y009357D01*
X010451Y009356D02*
X010450Y009375D01*
X010447Y009393D01*
X010440Y009410D01*
X010431Y009425D01*
X010419Y009439D01*
X010405Y009451D01*
X010389Y009459D01*
X010371Y009465D01*
X010353Y009468D01*
X010335Y009467D01*
X010317Y009464D01*
X010300Y009457D01*
X010250Y009507D02*
X010269Y009512D01*
X010288Y009515D01*
X010307Y009514D01*
X010326Y009510D01*
X010344Y009502D01*
X010360Y009491D01*
X010374Y009478D01*
X010385Y009462D01*
X010393Y009445D01*
X010398Y009426D01*
X010400Y009407D01*
X010400Y009307D01*
X010350Y009307D02*
X010450Y009257D01*
X010500Y009257D01*
X010550Y009307D02*
X010450Y009357D01*
X010441Y009353D01*
X010431Y009352D01*
X010421Y009354D01*
X010413Y009360D01*
X010407Y009368D01*
X010403Y009377D01*
X010403Y009387D01*
X010407Y009396D01*
X010413Y009404D01*
X010421Y009410D01*
X010431Y009412D01*
X010441Y009411D01*
X010450Y009407D01*
X010600Y009307D01*
X010650Y009157D02*
X010900Y009057D01*
X011100Y009007D02*
X011700Y008857D01*
X011550Y008907D02*
X011250Y008957D01*
X011550Y008907D02*
X011900Y008857D01*
X012900Y008757D02*
X012950Y008757D01*
X013900Y015807D02*
X013529Y015874D01*
X013156Y015924D01*
X012780Y015957D01*
X012404Y015974D01*
X012027Y015974D01*
X011650Y015957D01*
X011950Y015507D02*
X012020Y015525D01*
X012091Y015540D01*
X012162Y015551D01*
X012234Y015558D01*
X012306Y015562D01*
X012378Y015561D01*
X012450Y015557D01*
X011150Y009057D02*
X011392Y008978D01*
X011638Y008911D01*
X011887Y008856D01*
X012138Y008813D01*
X012391Y008782D01*
X012645Y008763D01*
X012900Y008757D01*
X012600Y015957D02*
X012800Y016007D01*
X014000Y016507D02*
X013953Y016540D01*
X013907Y016576D01*
X013864Y016615D01*
X013824Y016656D01*
X013785Y016699D01*
X013750Y016745D01*
X013717Y016793D01*
X013688Y016843D01*
X013661Y016894D01*
X013637Y016947D01*
X013617Y017001D01*
X013600Y017057D01*
X015550Y019407D02*
X015585Y019393D01*
X015618Y019377D01*
X015650Y019357D01*
X015700Y019357D02*
X015900Y019357D01*
X015900Y019407D02*
X016000Y019457D01*
X015950Y019457D02*
X016050Y019557D01*
X016150Y019557D02*
X016000Y019407D01*
X015950Y019407D02*
X015800Y019357D01*
X015850Y019356D02*
X015830Y019344D01*
X015808Y019335D01*
X015785Y019329D01*
X015762Y019325D01*
X015738Y019325D01*
X015715Y019329D01*
X015692Y019335D01*
X015670Y019344D01*
X015650Y019356D01*
X015600Y019357D02*
X015350Y019557D01*
X015400Y019557D02*
X015500Y019457D01*
X015600Y019407D02*
X015613Y019393D01*
X015628Y019380D01*
X015644Y019370D01*
X015662Y019363D01*
X015681Y019358D01*
X015700Y019357D01*
X015600Y019357D02*
X015624Y019340D01*
X015649Y019325D01*
X015676Y019313D01*
X015704Y019305D01*
X015733Y019299D01*
X015762Y019296D01*
X015792Y019297D01*
X015821Y019300D01*
X015850Y019307D01*
X016001Y019406D02*
X015977Y019385D01*
X015951Y019367D01*
X015924Y019351D01*
X015895Y019339D01*
X015865Y019329D01*
X015834Y019323D01*
X015802Y019320D01*
X015771Y019321D01*
X015739Y019325D01*
X015708Y019332D01*
X015679Y019343D01*
X015650Y019356D01*
X015550Y019457D02*
X015574Y019436D01*
X015599Y019417D01*
X015627Y019402D01*
X015657Y019390D01*
X015687Y019381D01*
X015718Y019376D01*
X015750Y019374D01*
X015782Y019376D01*
X015813Y019381D01*
X015843Y019390D01*
X015873Y019402D01*
X015901Y019417D01*
X015926Y019436D01*
X015950Y019457D01*
X015800Y019357D02*
X015763Y019354D01*
X015726Y019355D01*
X015689Y019358D01*
X015653Y019366D01*
X015617Y019376D01*
X015583Y019390D01*
X015550Y019407D01*
X015800Y019357D02*
X015833Y019372D01*
X015865Y019389D01*
X015895Y019410D01*
X015924Y019432D01*
X015950Y019457D01*
X015900Y019407D02*
X015867Y019393D01*
X015832Y019381D01*
X015797Y019373D01*
X015761Y019368D01*
X015725Y019366D01*
X015689Y019368D01*
X015653Y019373D01*
X015618Y019381D01*
X015583Y019393D01*
X015550Y019407D01*
X015850Y019307D02*
X015891Y019320D01*
X015931Y019337D01*
X015970Y019357D01*
X016007Y019379D01*
X016041Y019405D01*
X016074Y019433D01*
X016105Y019464D01*
X016133Y019497D01*
X016158Y019532D01*
X016181Y019568D01*
X016201Y019607D01*
X015550Y019406D02*
X015497Y019439D01*
X015446Y019475D01*
X015397Y019514D01*
X015350Y019556D01*
X015850Y019357D02*
X015911Y019401D01*
X015969Y019448D01*
X016026Y019497D01*
X016080Y019549D01*
X016131Y019603D01*
X016181Y019660D01*
X016227Y019719D01*
X016271Y019780D01*
X016312Y019842D01*
X016350Y019907D01*
X015350Y019557D02*
X015289Y019618D01*
X015230Y019683D01*
X015175Y019750D01*
X015123Y019820D01*
X015074Y019892D01*
X015029Y019966D01*
X014987Y020043D01*
X014950Y020121D01*
X014916Y020202D01*
X014886Y020283D01*
X014860Y020367D01*
X014838Y020451D01*
X014820Y020536D01*
X014806Y020622D01*
X014797Y020709D01*
X014791Y020796D01*
X014790Y020883D01*
X014793Y020970D01*
X014800Y021057D01*
X016600Y020607D02*
X016581Y020516D01*
X016559Y020427D01*
X016531Y020338D01*
X016500Y020251D01*
X016465Y020165D01*
X016426Y020081D01*
X016383Y019999D01*
X016336Y019919D01*
X016286Y019842D01*
X016232Y019766D01*
X016175Y019694D01*
X016114Y019624D01*
X016050Y019557D01*
X011900Y018907D02*
X011802Y019076D01*
X011710Y019250D01*
X011627Y019427D01*
X011550Y019607D01*
X011350Y020107D01*
X010050Y019506D02*
X010065Y019442D01*
X010083Y019379D01*
X010106Y019317D01*
X010131Y019256D01*
X010161Y019197D01*
X010193Y019139D01*
X010229Y019084D01*
X010268Y019031D01*
X010311Y018980D01*
X010356Y018932D01*
X010404Y018887D01*
X010454Y018844D01*
X010507Y018805D01*
X010562Y018768D01*
X010619Y018735D01*
X010678Y018705D01*
X010738Y018679D01*
X010800Y018656D01*
X010949Y018657D02*
X010901Y018654D01*
X010852Y018655D01*
X010804Y018659D01*
X010756Y018666D01*
X010708Y018677D01*
X010662Y018691D01*
X010616Y018708D01*
X010572Y018728D01*
X010529Y018752D01*
X010489Y018778D01*
X010450Y018807D01*
X010950Y019306D02*
X010962Y019301D01*
X010975Y019299D01*
X010988Y019301D01*
X011000Y019306D01*
X009100Y018607D02*
X009057Y018682D01*
X009017Y018760D01*
X008982Y018840D01*
X008951Y018921D01*
X008923Y019004D01*
X008900Y019087D01*
X008880Y019172D01*
X008865Y019258D01*
X008854Y019345D01*
X008848Y019431D01*
X008845Y019519D01*
X008847Y019606D01*
X008853Y019692D01*
X008863Y019779D01*
X008877Y019865D01*
X008896Y019950D01*
X008919Y020034D01*
X008946Y020117D01*
X008976Y020198D01*
X009011Y020278D01*
X009050Y020356D01*
X009050Y020407D02*
X009450Y019857D01*
X008500Y018857D02*
X008450Y018901D01*
X008402Y018948D01*
X008357Y018997D01*
X008314Y019049D01*
X008274Y019102D01*
X008237Y019158D01*
X008202Y019216D01*
X008171Y019275D01*
X008143Y019336D01*
X008118Y019398D01*
X008096Y019461D01*
X008077Y019526D01*
X008062Y019591D01*
X008050Y019657D01*
X008450Y019607D02*
X008500Y019407D01*
X008550Y019057D02*
X008600Y018907D01*
X008600Y018757D02*
X008800Y018557D01*
X008829Y018526D01*
X008855Y018494D01*
X008879Y018459D01*
X008901Y018423D01*
X008920Y018386D01*
X008936Y018347D01*
X008950Y018307D01*
X009799Y018107D02*
X009813Y018034D01*
X009823Y017960D01*
X009830Y017886D01*
X009832Y017811D01*
X009831Y017737D01*
X009825Y017662D01*
X009816Y017588D01*
X009803Y017515D01*
X009787Y017442D01*
X009766Y017371D01*
X009742Y017300D01*
X009714Y017231D01*
X009683Y017163D01*
X009649Y017097D01*
X009611Y017033D01*
X009569Y016971D01*
X009525Y016911D01*
X009477Y016854D01*
X009427Y016799D01*
X009374Y016747D01*
X009318Y016697D01*
X009260Y016651D01*
X009200Y016607D01*
X009850Y018307D02*
X009831Y018396D01*
X009807Y018484D01*
X009781Y018571D01*
X009750Y018657D01*
X009500Y019207D02*
X009491Y019201D01*
X009480Y019198D01*
X009470Y019198D01*
X009459Y019201D01*
X009450Y019207D01*
X008550Y019057D02*
X008533Y019115D01*
X008519Y019175D01*
X008509Y019235D01*
X008502Y019296D01*
X008500Y019357D01*
X009400Y019657D02*
X009375Y019727D01*
X009346Y019796D01*
X009314Y019864D01*
X009279Y019930D01*
X009241Y019994D01*
X009200Y020057D01*
X009150Y020107D01*
X009200Y020057D02*
X009050Y020157D01*
X009300Y019657D01*
X009400Y019657D02*
X009450Y019507D01*
X009700Y019557D02*
X009650Y019707D01*
X008500Y019407D02*
X008517Y019345D01*
X008537Y019284D01*
X008561Y019225D01*
X008587Y019166D01*
X008617Y019110D01*
X008649Y019054D01*
X008684Y019001D01*
X008722Y018949D01*
X008762Y018899D01*
X008805Y018852D01*
X008850Y018807D01*
X009150Y019557D02*
X009000Y019807D01*
X009150Y020057D02*
X009134Y020081D01*
X009117Y020103D01*
X009096Y020124D01*
X009074Y020141D01*
X009050Y020157D01*
X009072Y020153D01*
X009094Y020145D01*
X009114Y020135D01*
X009133Y020122D01*
X009150Y020107D01*
X009350Y020407D02*
X009350Y022357D01*
X009350Y022257D02*
X009400Y020457D01*
X009350Y020407D01*
X009050Y020407D02*
X009034Y020430D01*
X009021Y020455D01*
X009009Y020481D01*
X009000Y020507D01*
X008500Y020557D02*
X008502Y020597D01*
X008506Y020637D01*
X008514Y020676D01*
X008526Y020715D01*
X008540Y020753D01*
X008557Y020789D01*
X008577Y020824D01*
X008600Y020857D01*
X008500Y020557D02*
X008500Y020407D01*
X009100Y020707D02*
X009100Y020757D01*
X009100Y021957D01*
X009100Y022057D01*
X009150Y021857D02*
X009150Y020807D01*
X009148Y020794D01*
X009143Y020782D01*
X009135Y020772D01*
X009125Y020764D01*
X009113Y020759D01*
X009100Y020757D01*
X010000Y021007D02*
X010000Y021857D01*
X016700Y022006D02*
X016704Y021725D01*
X016696Y021444D01*
X016676Y021163D01*
X016644Y020884D01*
X016600Y020606D01*
X015400Y019557D02*
X015313Y019648D01*
X015231Y019742D01*
X015153Y019841D01*
X015081Y019943D01*
X015013Y020048D01*
X014950Y020157D01*
X016350Y019906D02*
X016409Y020017D01*
X016463Y020131D01*
X016512Y020247D01*
X016555Y020365D01*
X016593Y020486D01*
X016625Y020607D01*
X016652Y020730D01*
X016673Y020854D01*
X016688Y020979D01*
X016698Y021105D01*
X016702Y021230D01*
X016700Y021356D01*
X011999Y017906D02*
X011793Y018141D01*
X011598Y018385D01*
X011414Y018638D01*
X011242Y018899D01*
X011083Y019167D01*
X010936Y019443D01*
X010801Y019725D01*
X010681Y020013D01*
X010573Y020306D01*
X010479Y020604D01*
X010399Y020907D01*
X009150Y019557D02*
X009186Y019501D01*
X009224Y019446D01*
X009264Y019394D01*
X009307Y019344D01*
X009353Y019296D01*
X009400Y019250D01*
X009450Y019206D01*
X010050Y019507D02*
X010000Y019757D01*
X009650Y019707D02*
X009618Y019795D01*
X009582Y019881D01*
X009542Y019966D01*
X009499Y020048D01*
X009451Y020129D01*
X009400Y020207D01*
X008000Y020957D02*
X007900Y021557D01*
X008750Y021257D02*
X008744Y021203D01*
X008734Y021150D01*
X008721Y021097D01*
X008704Y021046D01*
X008683Y020996D01*
X008659Y020948D01*
X008631Y020901D01*
X008600Y020857D01*
X008050Y021207D02*
X008150Y021857D01*
X008350Y009007D02*
X008400Y009007D01*
X010100Y009657D02*
X010141Y009621D01*
X010179Y009583D01*
X010214Y009542D01*
X010246Y009499D01*
X010275Y009454D01*
X010300Y009407D01*
X010200Y009407D02*
X010000Y009307D01*
X010000Y009457D02*
X010150Y009557D01*
X010100Y009507D01*
X009750Y009307D01*
X009800Y009307D02*
X009833Y009320D01*
X009864Y009336D01*
X009894Y009355D01*
X009922Y009377D01*
X009947Y009401D01*
X009970Y009428D01*
X009991Y009457D01*
X010009Y009487D01*
X010023Y009519D01*
X010035Y009553D01*
X010043Y009587D01*
X010048Y009622D01*
X010050Y009657D01*
X010100Y009557D02*
X010117Y009576D01*
X010130Y009597D01*
X010141Y009620D01*
X010148Y009644D01*
X010152Y009669D01*
X010152Y009695D01*
X010148Y009720D01*
X010141Y009744D01*
X010130Y009767D01*
X010117Y009788D01*
X010100Y009807D01*
X010200Y009457D02*
X010150Y009407D01*
X010150Y009507D02*
X010129Y009498D01*
X010110Y009487D01*
X010092Y009473D01*
X010077Y009456D01*
X010064Y009438D01*
X010054Y009417D01*
X010047Y009396D01*
X010043Y009374D01*
X010042Y009351D01*
X010045Y009329D01*
X010050Y009307D01*
X010300Y009356D02*
X010310Y009335D01*
X010324Y009315D01*
X010341Y009298D01*
X010360Y009283D01*
X010380Y009272D01*
X010403Y009263D01*
X010426Y009258D01*
X010450Y009256D01*
X010350Y009307D02*
X010319Y009325D01*
X010290Y009346D01*
X010263Y009370D01*
X010239Y009397D01*
X010218Y009426D01*
X010200Y009457D01*
X010000Y009507D02*
X009981Y009474D01*
X009959Y009443D01*
X009934Y009415D01*
X009907Y009389D01*
X009876Y009367D01*
X009844Y009348D01*
X009810Y009332D01*
X009774Y009320D01*
X009737Y009311D01*
X009700Y009307D01*
X010200Y009407D02*
X010235Y009438D01*
X010269Y009472D01*
X010300Y009507D01*
X010000Y009507D02*
X009962Y009472D01*
X009923Y009438D01*
X009881Y009407D01*
X009838Y009378D01*
X009793Y009352D01*
X009747Y009328D01*
X009700Y009307D01*
X009750Y009257D02*
X009814Y009291D01*
X009876Y009327D01*
X009935Y009368D01*
X009993Y009411D01*
X010048Y009458D01*
X010100Y009507D01*
X010050Y009507D02*
X009998Y009458D01*
X009943Y009411D01*
X009885Y009368D01*
X009826Y009327D01*
X009764Y009291D01*
X009700Y009257D01*
X010050Y007757D02*
X010000Y007357D01*
X012650Y008757D02*
X012775Y008759D01*
X012900Y008757D01*
X007050Y014907D02*
X007251Y015123D01*
X007462Y015330D01*
X007681Y015528D01*
X007910Y015715D01*
X008146Y015892D01*
X008390Y016058D01*
X008642Y016213D01*
X008900Y016357D01*
X008300Y015956D02*
X008359Y015931D01*
X008417Y015901D01*
X008474Y015869D01*
X008528Y015833D01*
X008580Y015794D01*
X008629Y015752D01*
X008676Y015707D01*
X008720Y015659D01*
X008762Y015609D01*
X008800Y015557D01*
X009950Y009257D02*
X009705Y009165D01*
X009457Y009085D01*
X009205Y009015D01*
X008950Y008957D01*
X009400Y009107D02*
X009464Y009128D01*
X009527Y009152D01*
X009589Y009178D01*
X009650Y009207D01*
X009750Y010356D02*
X009726Y010404D01*
X009705Y010452D01*
X009687Y010502D01*
X009672Y010553D01*
X009659Y010604D01*
X009650Y010656D01*
X005499Y011857D02*
X005528Y012081D01*
X005568Y012304D01*
X005618Y012524D01*
X005679Y012742D01*
X005749Y012957D01*
X009200Y014807D02*
X009133Y014964D01*
X009060Y015117D01*
X008979Y015268D01*
X008893Y015414D01*
X008800Y015557D01*
X009700Y009306D02*
X009505Y009230D01*
X009307Y009162D01*
X009107Y009102D01*
X008904Y009050D01*
X008700Y009006D01*
X006200Y013907D02*
X006353Y014148D01*
X006517Y014381D01*
X006693Y014606D01*
X006878Y014822D01*
X007074Y015029D01*
X007280Y015227D01*
X007495Y015414D01*
X007718Y015591D01*
X007950Y015757D01*
X010251Y009557D02*
X010056Y009431D01*
X009856Y009315D01*
X009651Y009207D01*
X010900Y009057D02*
X010949Y009039D01*
X010999Y009022D01*
X011050Y009007D01*
X010100Y009707D02*
X010071Y009768D01*
X010045Y009830D01*
X010021Y009893D01*
X010000Y009957D01*
X005750Y012956D02*
X005825Y013153D01*
X005907Y013347D01*
X005998Y013537D01*
X006095Y013724D01*
X006200Y013906D01*
X009200Y014807D02*
X009259Y014648D01*
X009311Y014485D01*
X009355Y014321D01*
X009391Y014154D01*
X009419Y013986D01*
X009438Y013817D01*
X009450Y013648D01*
X009454Y013477D01*
X009450Y013307D01*
X009400Y012307D01*
X010300Y009557D02*
X010203Y009484D01*
X010102Y009415D01*
X009997Y009352D01*
X009890Y009294D01*
X009780Y009240D01*
X009668Y009193D01*
X009554Y009150D01*
X009437Y009113D01*
X009320Y009082D01*
X009200Y009057D01*
X009400Y009056D02*
X009312Y009029D01*
X009223Y009005D01*
X009133Y008985D01*
X009042Y008969D01*
X008950Y008956D01*
X008700Y009007D02*
X008810Y009013D01*
X008919Y009025D01*
X009028Y009043D01*
X009136Y009065D01*
X009243Y009093D01*
X009348Y009126D01*
X009452Y009164D01*
X009553Y009207D01*
X009653Y009254D01*
X009750Y009307D01*
X015251Y008106D02*
X015349Y008247D01*
X015442Y008392D01*
X015528Y008541D01*
X015609Y008693D01*
X015683Y008848D01*
X015751Y009007D01*
X005600Y007907D02*
X005512Y008403D01*
X005447Y008903D01*
X005406Y009404D01*
X005388Y009908D01*
X005393Y010411D01*
X005423Y010914D01*
X005475Y011415D01*
X005551Y011913D01*
X005650Y012407D01*
X015900Y009706D02*
X016020Y010189D01*
X016119Y010678D01*
X016194Y011170D01*
X016247Y011665D01*
X016277Y012162D01*
X016285Y012660D01*
X016269Y013157D01*
X016230Y013654D01*
X016169Y014148D01*
X016085Y014639D01*
X015978Y015125D01*
X015850Y015606D01*
X012200Y008807D02*
X011956Y008844D01*
X011713Y008892D01*
X011473Y008952D01*
X011236Y009024D01*
X011003Y009107D01*
X010774Y009202D01*
X010550Y009307D01*
X012500Y015557D02*
X012724Y015571D01*
X012949Y015575D01*
X013175Y015568D01*
X013399Y015552D01*
X013623Y015524D01*
X013845Y015487D01*
X014065Y015439D01*
X014282Y015381D01*
X014497Y015314D01*
X014708Y015236D01*
X014916Y015149D01*
X015119Y015052D01*
X015318Y014946D01*
X015511Y014831D01*
X015699Y014707D01*
X009400Y012656D02*
X009379Y012446D01*
X009367Y012234D01*
X009366Y012022D01*
X009374Y011810D01*
X009393Y011599D01*
X009422Y011389D01*
X009461Y011181D01*
X009509Y010975D01*
X009567Y010771D01*
X009635Y010570D01*
X009713Y010373D01*
X009800Y010180D01*
X009895Y009991D01*
X010000Y009806D01*
X005650Y012407D02*
X005708Y012635D01*
X005776Y012860D01*
X005856Y013082D01*
X005946Y013299D01*
X006047Y013512D01*
X006158Y013720D01*
X006279Y013922D01*
X006410Y014117D01*
X006550Y014306D01*
X009400Y009057D02*
X009603Y009131D01*
X009804Y009214D01*
X010000Y009307D01*
X010600Y009307D02*
X010681Y009256D01*
X010764Y009208D01*
X010849Y009165D01*
X010936Y009125D01*
X011025Y009089D01*
X011115Y009058D01*
X011207Y009030D01*
X011300Y009007D01*
X011150Y009056D02*
X011046Y009096D01*
X010944Y009140D01*
X010844Y009189D01*
X010747Y009244D01*
X010652Y009302D01*
X010561Y009365D01*
X010473Y009433D01*
X010387Y009505D01*
X010306Y009580D01*
X010228Y009660D01*
X010154Y009743D01*
X010085Y009829D01*
X010019Y009919D01*
X009958Y010012D01*
X009901Y010108D01*
X009849Y010206D01*
X008900Y009057D02*
X008776Y009035D01*
X008651Y009020D01*
X008526Y009010D01*
X008400Y009007D01*
X005650Y007407D02*
X005650Y007307D01*
X005650Y007407D02*
X005648Y007508D01*
X005642Y007608D01*
X005632Y007708D01*
X005618Y007808D01*
X005600Y007907D01*
X014500Y006806D02*
X014732Y007138D01*
X014948Y007480D01*
X015148Y007832D01*
X015333Y008192D01*
X015500Y008561D01*
X015651Y008936D01*
X015784Y009318D01*
X015900Y009706D01*
X011950Y015507D02*
X011757Y015446D01*
X011567Y015376D01*
X011380Y015297D01*
X011197Y015210D01*
X011018Y015115D01*
X010843Y015012D01*
X010674Y014901D01*
X010509Y014783D01*
X010350Y014657D01*
X008950Y008956D02*
X008760Y008940D01*
X008570Y008931D01*
X008380Y008931D01*
X008190Y008940D01*
X008000Y008956D01*
X009650Y009256D02*
X009770Y009317D01*
X009887Y009384D01*
X010000Y009456D01*
X011390Y016567D02*
X011575Y016575D01*
X011760Y016577D01*
X012350Y018857D02*
X012372Y018802D01*
X012398Y018748D01*
X012427Y018696D01*
X012459Y018646D01*
X012494Y018598D01*
X012532Y018552D01*
X012573Y018509D01*
X012617Y018469D01*
X012663Y018431D01*
X012711Y018396D01*
X012761Y018365D01*
X012813Y018336D01*
X012867Y018311D01*
X012923Y018289D01*
X012979Y018271D01*
X013037Y018256D01*
X013095Y018245D01*
X013154Y018238D01*
X013214Y018234D01*
X013273Y018235D01*
X013332Y018238D01*
X013391Y018246D01*
X013450Y018257D01*
X012900Y017357D02*
X012814Y017383D01*
X012731Y017413D01*
X012648Y017446D01*
X012567Y017483D01*
X012488Y017524D01*
X012411Y017569D01*
X012336Y017617D01*
X012264Y017669D01*
X012194Y017724D01*
X012126Y017782D01*
X012062Y017843D01*
X012000Y017907D01*
X008049Y019657D02*
X008020Y019877D01*
X008001Y020099D01*
X007991Y020321D01*
X007991Y020543D01*
X008001Y020765D01*
X008020Y020987D01*
X008049Y021207D01*
X009150Y021857D02*
X009149Y021876D01*
X009144Y021895D01*
X009137Y021913D01*
X009127Y021929D01*
X009114Y021944D01*
X009100Y021957D01*
X009650Y022307D02*
X009600Y022657D01*
X010000Y022807D02*
X010000Y023407D01*
X010002Y023465D01*
X010006Y023523D01*
X010014Y023581D01*
X010025Y023638D01*
X010039Y023694D01*
X010057Y023749D01*
X010077Y023804D01*
X010100Y023857D01*
X015150Y023057D02*
X015208Y023314D01*
X015255Y023573D01*
X015291Y023833D01*
X015314Y024096D01*
X015325Y024358D01*
X015324Y024622D01*
X015311Y024884D01*
X015286Y025146D01*
X015250Y025407D01*
X016950Y025157D02*
X016959Y025032D01*
X016962Y024907D01*
X016959Y024782D01*
X016950Y024657D01*
X016850Y023607D01*
X016900Y024107D02*
X016901Y024098D01*
X016904Y024089D01*
X016911Y024082D01*
X016920Y024078D01*
X016930Y024078D01*
X016939Y024082D01*
X016946Y024089D01*
X016949Y024098D01*
X016950Y024107D01*
X016900Y024107D02*
X016950Y024407D01*
X015350Y024157D02*
X015300Y023857D01*
X015250Y023707D02*
X015300Y024307D01*
X010451Y018807D02*
X010265Y018963D01*
X010087Y019127D01*
X009916Y019299D01*
X009753Y019478D01*
X009598Y019664D01*
X009451Y019857D01*
X009550Y016807D02*
X009429Y016705D01*
X009303Y016609D01*
X009173Y016518D01*
X009038Y016434D01*
X008900Y016357D01*
X009200Y009056D02*
X008998Y009023D01*
X008796Y009000D01*
X008592Y008987D01*
X008388Y008983D01*
X008185Y008989D01*
X007981Y009006D01*
X007779Y009032D01*
X007578Y009067D01*
X007380Y009113D01*
X007183Y009168D01*
X006990Y009233D01*
X006800Y009306D01*
X007300Y009157D02*
X007428Y009118D01*
X007557Y009085D01*
X007688Y009058D01*
X007820Y009037D01*
X007952Y009021D01*
X008086Y009012D01*
X008219Y009009D01*
X008352Y009012D01*
X008486Y009021D01*
X008618Y009036D01*
X008750Y009057D01*
X016250Y011106D02*
X016294Y011290D01*
X016329Y011476D01*
X016355Y011663D01*
X016372Y011852D01*
X016380Y012040D01*
X016379Y012229D01*
X016369Y012418D01*
X016350Y012606D01*
X009750Y013856D02*
X009672Y013662D01*
X009603Y013464D01*
X009544Y013263D01*
X009495Y013060D01*
X009455Y012854D01*
X009426Y012647D01*
X009406Y012439D01*
X009397Y012230D01*
X009398Y012020D01*
X009408Y011811D01*
X009429Y011603D01*
X009460Y011396D01*
X009501Y011190D01*
X009552Y010987D01*
X009612Y010787D01*
X009682Y010590D01*
X009762Y010396D01*
X009850Y010206D01*
X009400Y009107D02*
X009235Y009061D01*
X009068Y009023D01*
X008899Y008993D01*
X008729Y008971D01*
X008558Y008957D01*
X008387Y008952D01*
X008216Y008955D01*
X008045Y008967D01*
X007875Y008986D01*
X007706Y009014D01*
X007539Y009050D01*
X007373Y009095D01*
X007210Y009147D01*
X007049Y009207D01*
X016250Y010856D02*
X016308Y011262D01*
X016346Y011670D01*
X016364Y012080D01*
X016363Y012490D01*
X016341Y012899D01*
X016300Y013307D01*
X016050Y014606D02*
X015915Y014743D01*
X015774Y014874D01*
X015627Y014998D01*
X015474Y015115D01*
X015316Y015224D01*
X015152Y015326D01*
X014984Y015420D01*
X014812Y015505D01*
X014636Y015583D01*
X014456Y015652D01*
X014273Y015712D01*
X014088Y015763D01*
X013900Y015806D01*
X010350Y014657D02*
X010273Y014591D01*
X010200Y014522D01*
X010131Y014449D01*
X010064Y014372D01*
X010002Y014293D01*
X009943Y014211D01*
X009889Y014126D01*
X009838Y014039D01*
X009792Y013949D01*
X009749Y013857D01*
X009650Y009257D02*
X009476Y009178D01*
X009300Y009107D01*
X011701Y008857D02*
X011856Y008822D01*
X012014Y008794D01*
X012172Y008774D01*
X012331Y008761D01*
X012491Y008755D01*
X012650Y008757D01*
X006550Y014307D02*
X006795Y014610D01*
X007050Y014907D01*
X016199Y014207D02*
X016276Y013807D01*
X016333Y013403D01*
X016373Y012998D01*
X016393Y012591D01*
X016396Y012183D01*
X016379Y011776D01*
X016344Y011370D01*
X016290Y010967D01*
X016218Y010566D01*
X016128Y010168D01*
X016019Y009776D01*
X015893Y009388D01*
X015749Y009007D01*
X009399Y012657D02*
X009449Y013007D01*
X011050Y009007D02*
X011186Y008973D01*
X011323Y008945D01*
X011461Y008923D01*
X011600Y008907D01*
X011350Y008957D02*
X011197Y008997D01*
X011046Y009044D01*
X010897Y009098D01*
X010750Y009157D01*
X009650Y018807D02*
X009547Y019095D01*
X009431Y019379D01*
X009300Y019657D01*
X010000Y021007D02*
X010002Y020910D01*
X010009Y020814D01*
X010021Y020717D01*
X010037Y020622D01*
X010058Y020527D01*
X010084Y020434D01*
X010114Y020342D01*
X010149Y020251D01*
X010187Y020163D01*
X010230Y020076D01*
X010278Y019991D01*
X010329Y019909D01*
X010384Y019830D01*
X010443Y019753D01*
X010506Y019679D01*
X010572Y019608D01*
X010642Y019541D01*
X010714Y019477D01*
X010790Y019416D01*
X010869Y019360D01*
X010950Y019307D01*
X011350Y020107D02*
X011313Y020204D01*
X011282Y020302D01*
X011254Y020402D01*
X011232Y020503D01*
X011213Y020604D01*
X011200Y020707D01*
X008800Y022657D02*
X008700Y022807D01*
X008681Y022837D01*
X008666Y022869D01*
X008654Y022902D01*
X008646Y022937D01*
X008641Y022972D01*
X008639Y023007D01*
X008641Y023042D01*
X008646Y023077D01*
X008654Y023112D01*
X008666Y023145D01*
X008681Y023177D01*
X008700Y023207D01*
X008718Y023237D01*
X008733Y023269D01*
X008744Y023302D01*
X008752Y023336D01*
X008756Y023371D01*
X008757Y023406D01*
X008754Y023441D01*
X008747Y023475D01*
X008737Y023509D01*
X008724Y023541D01*
X008707Y023572D01*
X008687Y023601D01*
X008664Y023628D01*
X008639Y023652D01*
X008611Y023673D01*
X008582Y023692D01*
X008550Y023707D01*
X008100Y022807D02*
X008150Y022557D01*
X009150Y023157D02*
X009194Y023049D01*
X009232Y022940D01*
X009265Y022829D01*
X009293Y022716D01*
X009316Y022602D01*
X009333Y022488D01*
X009344Y022372D01*
X009350Y022256D01*
X009600Y022657D02*
X009589Y022751D01*
X009582Y022846D01*
X009579Y022942D01*
X009580Y023037D01*
X009586Y023132D01*
X009596Y023227D01*
X009610Y023321D01*
X009628Y023414D01*
X009650Y023507D01*
X015300Y024307D02*
X015311Y024483D01*
X015314Y024658D01*
X015309Y024834D01*
X015297Y025009D01*
X015277Y025184D01*
X015250Y025357D01*
X016500Y027656D02*
X016452Y027770D01*
X016398Y027881D01*
X016339Y027989D01*
X016275Y028094D01*
X016206Y028197D01*
X016132Y028296D01*
X016054Y028391D01*
X015971Y028482D01*
X015884Y028570D01*
X015794Y028653D01*
X015699Y028732D01*
X015600Y028806D01*
X015650Y028707D02*
X015850Y028507D01*
X016100Y028207D01*
X016100Y028257D02*
X016250Y027957D01*
X016300Y028007D02*
X016050Y028357D01*
X015900Y028507D02*
X015800Y028607D01*
X015750Y028607D02*
X015450Y028857D01*
X015300Y028907D02*
X014850Y029107D01*
X015100Y029057D02*
X015200Y028957D01*
X015209Y028951D01*
X015220Y028947D01*
X015230Y028947D01*
X015241Y028951D01*
X015250Y028957D01*
X014400Y029257D02*
X013950Y029307D01*
X013900Y029307D02*
X013850Y029307D01*
X013700Y029257D02*
X013300Y029207D01*
X012500Y029356D02*
X012484Y029393D01*
X012470Y029430D01*
X012459Y029468D01*
X012450Y029506D01*
X012500Y029357D02*
X012900Y028507D01*
X013350Y029707D02*
X013312Y029745D01*
X013273Y029782D01*
X013232Y029817D01*
X013190Y029849D01*
X013146Y029879D01*
X013100Y029907D01*
X012951Y029207D02*
X012897Y029217D01*
X012845Y029232D01*
X012794Y029249D01*
X012744Y029271D01*
X012696Y029295D01*
X012649Y029323D01*
X012604Y029354D01*
X012562Y029388D01*
X012522Y029425D01*
X012485Y029465D01*
X012451Y029507D01*
X012550Y029407D02*
X012524Y029427D01*
X012499Y029450D01*
X012477Y029474D01*
X012458Y029501D01*
X012440Y029530D01*
X012426Y029560D01*
X012414Y029591D01*
X012406Y029623D01*
X012400Y029656D01*
X012400Y029007D02*
X012450Y030757D01*
X012650Y030557D02*
X012900Y030257D01*
X012550Y029407D02*
X012602Y029372D01*
X012657Y029341D01*
X012713Y029313D01*
X012771Y029289D01*
X012830Y029268D01*
X012891Y029250D01*
X012952Y029236D01*
X013014Y029226D01*
X013076Y029219D01*
X013139Y029216D01*
X013202Y029217D01*
X013265Y029221D01*
X013327Y029229D01*
X013389Y029241D01*
X013450Y029257D01*
X012400Y029006D02*
X012399Y028934D01*
X012402Y028861D01*
X012409Y028789D01*
X012419Y028717D01*
X012432Y028646D01*
X012449Y028576D01*
X012469Y028506D01*
X012493Y028437D01*
X012520Y028370D01*
X012550Y028304D01*
X012583Y028239D01*
X012619Y028176D01*
X012658Y028115D01*
X012700Y028056D01*
X011750Y028057D02*
X011850Y027607D01*
X009350Y028956D02*
X009269Y028887D01*
X009191Y028815D01*
X009116Y028739D01*
X009044Y028660D01*
X008976Y028578D01*
X008911Y028494D01*
X008850Y028406D01*
X008850Y028407D02*
X008750Y028257D01*
X008250Y028357D02*
X008206Y028333D01*
X008163Y028307D01*
X008122Y028277D01*
X008083Y028245D01*
X008046Y028211D01*
X008012Y028174D01*
X007980Y028135D01*
X007950Y028094D01*
X007924Y028051D01*
X007900Y028007D01*
X007850Y027907D01*
X007700Y027057D02*
X007650Y026807D01*
X008250Y026857D02*
X008350Y027007D01*
X012901Y028507D02*
X012979Y028330D01*
X013049Y028150D01*
X013111Y027967D01*
X013164Y027781D01*
X013208Y027593D01*
X013244Y027402D01*
X013271Y027211D01*
X013289Y027018D01*
X013298Y026825D01*
X013298Y026632D01*
X013289Y026439D01*
X013271Y026246D01*
X013245Y026055D01*
X013209Y025864D01*
X013165Y025676D01*
X013112Y025490D01*
X013051Y025307D01*
X009500Y026507D02*
X009551Y026670D01*
X009608Y026830D01*
X009673Y026987D01*
X009744Y027141D01*
X009822Y027292D01*
X009907Y027440D01*
X009999Y027583D01*
X010096Y027722D01*
X010200Y027857D01*
X011851Y027607D02*
X011866Y027529D01*
X011878Y027451D01*
X011886Y027373D01*
X011890Y027294D01*
X011891Y027215D01*
X011888Y027136D01*
X011881Y027057D01*
X011871Y026979D01*
X011857Y026901D01*
X011840Y026825D01*
X011819Y026748D01*
X011794Y026673D01*
X011767Y026600D01*
X011735Y026527D01*
X011701Y026456D01*
X007650Y026807D02*
X007621Y026641D01*
X007600Y026475D01*
X007587Y026308D01*
X007582Y026140D01*
X007585Y025972D01*
X007596Y025805D01*
X007616Y025638D01*
X007643Y025473D01*
X007678Y025308D01*
X007721Y025146D01*
X007771Y024986D01*
X007830Y024829D01*
X007895Y024675D01*
X007968Y024524D01*
X008049Y024376D01*
X008136Y024233D01*
X008230Y024094D01*
X008330Y023960D01*
X008437Y023830D01*
X008550Y023706D01*
X007050Y024707D02*
X007026Y024754D01*
X007005Y024802D01*
X006986Y024852D01*
X006971Y024903D01*
X006959Y024954D01*
X006950Y025007D01*
X009400Y025556D02*
X009461Y025439D01*
X009516Y025319D01*
X009566Y025196D01*
X009609Y025071D01*
X009647Y024945D01*
X009678Y024816D01*
X009703Y024686D01*
X009723Y024555D01*
X009735Y024424D01*
X009742Y024292D01*
X009742Y024159D01*
X009736Y024027D01*
X009724Y023896D01*
X009706Y023765D01*
X009681Y023635D01*
X009650Y023506D01*
X016850Y023856D02*
X016896Y024203D01*
X016925Y024552D01*
X016938Y024901D01*
X016933Y025251D01*
X016911Y025600D01*
X016872Y025947D01*
X016817Y026292D01*
X016744Y026635D01*
X016655Y026973D01*
X016550Y027306D01*
X016600Y027407D02*
X016500Y027657D01*
X016500Y027607D02*
X016650Y027207D01*
X016550Y027507D02*
X016450Y027757D01*
X016100Y028257D02*
X016078Y028296D01*
X016053Y028334D01*
X016026Y028369D01*
X015995Y028402D01*
X015962Y028433D01*
X015927Y028460D01*
X015889Y028485D01*
X015850Y028507D01*
X007750Y023607D02*
X007502Y023964D01*
X007268Y024331D01*
X007050Y024707D01*
X008150Y025807D02*
X008100Y026057D01*
X008091Y026107D01*
X008086Y026158D01*
X008085Y026209D01*
X008087Y026260D01*
X008093Y026311D01*
X008102Y026361D01*
X008114Y026411D01*
X008130Y026459D01*
X008150Y026507D01*
X006850Y026506D02*
X006853Y026609D01*
X006861Y026711D01*
X006873Y026813D01*
X006890Y026914D01*
X006912Y027014D01*
X006939Y027113D01*
X006970Y027211D01*
X007006Y027307D01*
X007046Y027401D01*
X007091Y027494D01*
X007140Y027584D01*
X007193Y027672D01*
X007250Y027757D01*
X010200Y027857D02*
X010255Y027929D01*
X010307Y028003D01*
X010355Y028081D01*
X010399Y028160D01*
X010439Y028241D01*
X010476Y028325D01*
X010508Y028409D01*
X010536Y028496D01*
X010560Y028583D01*
X010580Y028672D01*
X010595Y028762D01*
X010606Y028852D01*
X010613Y028942D01*
X010615Y029033D01*
X010613Y029124D01*
X010606Y029215D01*
X010595Y029305D01*
X010580Y029394D01*
X010560Y029483D01*
X010537Y029571D01*
X010508Y029657D01*
X010476Y029742D01*
X010440Y029825D01*
X010400Y029907D01*
X010850Y029707D02*
X011200Y029057D01*
X012650Y030557D02*
X012623Y030615D01*
X012594Y030672D01*
X012560Y030727D01*
X012524Y030779D01*
X012485Y030830D01*
X012443Y030878D01*
X012398Y030924D01*
X012350Y030966D01*
X012300Y031006D01*
X012150Y031307D02*
X012150Y031457D01*
X012150Y031307D02*
X012152Y031272D01*
X012156Y031238D01*
X012164Y031204D01*
X012176Y031171D01*
X012190Y031139D01*
X012207Y031109D01*
X012226Y031080D01*
X012249Y031054D01*
X012273Y031029D01*
X012300Y031007D01*
X012750Y031207D02*
X012800Y031457D01*
X014700Y031307D02*
X014735Y031370D01*
X014767Y031435D01*
X014796Y031501D01*
X014822Y031568D01*
X014844Y031637D01*
X014863Y031706D01*
X014879Y031776D01*
X014891Y031847D01*
X014900Y031919D01*
X014905Y031991D01*
X014907Y032063D01*
X014905Y032135D01*
X014900Y032207D01*
X014900Y032307D01*
X014900Y032407D02*
X015100Y032307D01*
X015150Y032257D01*
X015200Y032257D02*
X015150Y032457D01*
X015200Y032457D02*
X015250Y032257D01*
X015300Y032257D02*
X015250Y032407D01*
X015300Y032407D02*
X015450Y032307D01*
X015300Y032207D02*
X015350Y032057D01*
X015550Y031907D01*
X015450Y032007D02*
X015350Y032107D01*
X015350Y032057D02*
X015400Y031907D01*
X015750Y032257D02*
X015950Y032307D01*
X016101Y031856D02*
X016060Y031838D01*
X016017Y031823D01*
X015974Y031812D01*
X015930Y031805D01*
X015885Y031801D01*
X015841Y031802D01*
X015796Y031806D01*
X015752Y031813D01*
X015709Y031825D01*
X015667Y031840D01*
X015626Y031859D01*
X015587Y031881D01*
X015550Y031906D01*
X015450Y031257D02*
X015431Y031235D01*
X015410Y031215D01*
X015387Y031198D01*
X015362Y031183D01*
X015335Y031172D01*
X015307Y031164D01*
X015279Y031159D01*
X015250Y031157D01*
X015000Y031157D01*
X015000Y031057D01*
X015000Y030957D01*
X015000Y030907D02*
X015050Y030807D01*
X014950Y030757D01*
X015000Y030857D01*
X014750Y030657D01*
X014700Y030657D02*
X014950Y030857D01*
X015050Y030907D02*
X015063Y030893D01*
X015073Y030877D01*
X015080Y030860D01*
X015084Y030841D01*
X015084Y030823D01*
X015080Y030804D01*
X015073Y030787D01*
X015063Y030771D01*
X015050Y030757D01*
X014700Y030607D01*
X014749Y030557D02*
X014740Y030556D01*
X014731Y030553D01*
X014724Y030546D01*
X014720Y030537D01*
X014720Y030527D01*
X014724Y030518D01*
X014731Y030511D01*
X014740Y030508D01*
X014749Y030507D01*
X014751Y030557D02*
X014766Y030552D01*
X014780Y030544D01*
X014792Y030533D01*
X014801Y030519D01*
X014806Y030504D01*
X014808Y030488D01*
X014806Y030472D01*
X014801Y030457D01*
X014800Y030457D02*
X014750Y030357D01*
X014750Y030307D02*
X014700Y030757D01*
X014650Y030757D02*
X014700Y030307D01*
X014650Y030307D02*
X014600Y030757D01*
X014550Y030757D02*
X014600Y030307D01*
X014550Y030307D02*
X014550Y030457D01*
X014800Y030357D02*
X014811Y030384D01*
X014818Y030413D01*
X014822Y030442D01*
X014822Y030472D01*
X014818Y030501D01*
X014811Y030530D01*
X014800Y030557D01*
X014800Y030607D02*
X014900Y030657D01*
X014850Y030707D02*
X014950Y030757D01*
X015050Y030757D02*
X015057Y030762D01*
X015063Y030769D01*
X015066Y030778D01*
X015066Y030786D01*
X015063Y030795D01*
X015057Y030802D01*
X015050Y030807D01*
X015033Y030816D01*
X015017Y030829D01*
X015005Y030844D01*
X014995Y030861D01*
X014989Y030880D01*
X014986Y030900D01*
X014987Y030920D01*
X014992Y030939D01*
X015000Y030957D01*
X014950Y030907D02*
X014700Y030707D01*
X014750Y030607D02*
X014766Y030598D01*
X014780Y030587D01*
X014791Y030573D01*
X014800Y030557D01*
X014751Y030507D02*
X014760Y030506D01*
X014769Y030503D01*
X014776Y030496D01*
X014780Y030487D01*
X014780Y030477D01*
X014776Y030468D01*
X014769Y030461D01*
X014760Y030458D01*
X014751Y030457D01*
X014800Y030357D02*
X014790Y030338D01*
X014776Y030321D01*
X014760Y030307D01*
X014742Y030295D01*
X014723Y030287D01*
X014702Y030282D01*
X014680Y030280D01*
X014659Y030282D01*
X014638Y030287D01*
X014618Y030295D01*
X014600Y030307D01*
X014588Y030314D01*
X014575Y030319D01*
X014561Y030320D01*
X014547Y030318D01*
X014534Y030313D01*
X014522Y030306D01*
X014512Y030296D01*
X014505Y030284D01*
X014501Y030271D01*
X014499Y030257D01*
X014500Y030257D02*
X014500Y030007D01*
X014498Y029962D01*
X014493Y029917D01*
X014483Y029872D01*
X014471Y029829D01*
X014454Y029787D01*
X014434Y029746D01*
X014411Y029707D01*
X014385Y029670D01*
X014356Y029635D01*
X014324Y029603D01*
X014290Y029573D01*
X014253Y029547D01*
X014215Y029523D01*
X014174Y029503D01*
X014132Y029486D01*
X014089Y029472D01*
X014044Y029463D01*
X014000Y029457D01*
X012400Y029656D02*
X012394Y029726D01*
X012391Y029795D01*
X012392Y029865D01*
X012396Y029934D01*
X012405Y030003D01*
X012416Y030072D01*
X012431Y030139D01*
X012450Y030206D01*
X013000Y037207D02*
X012668Y037246D01*
X012334Y037270D01*
X012000Y037278D01*
X011666Y037270D01*
X011332Y037246D01*
X011000Y037207D01*
X010900Y036607D02*
X011500Y036607D01*
X011500Y036606D02*
X011546Y036604D01*
X011592Y036599D01*
X011637Y036590D01*
X011681Y036578D01*
X011725Y036563D01*
X011767Y036544D01*
X011808Y036522D01*
X011846Y036497D01*
X011883Y036470D01*
X011918Y036439D01*
X011950Y036406D01*
X012700Y036607D02*
X012800Y036607D01*
X012050Y035457D02*
X012086Y035422D01*
X012125Y035390D01*
X012165Y035360D01*
X012207Y035332D01*
X012250Y035307D01*
X012050Y035457D02*
X011850Y035657D01*
X011000Y037207D02*
X010935Y037195D01*
X010870Y037181D01*
X010806Y037163D01*
X010743Y037141D01*
X010682Y037116D01*
X010622Y037088D01*
X010563Y037057D01*
X010507Y037023D01*
X010452Y036986D01*
X010399Y036945D01*
X010348Y036902D01*
X010300Y036857D01*
X010250Y036807D01*
X010000Y036557D02*
X009800Y036457D01*
X008750Y035757D02*
X008650Y035607D01*
X007950Y034707D02*
X007900Y034207D01*
X007900Y033757D01*
X007900Y033557D01*
X013101Y032506D02*
X013142Y032737D01*
X013173Y032970D01*
X013195Y033203D01*
X013207Y033438D01*
X013209Y033672D01*
X013201Y033907D01*
X014250Y033157D02*
X014292Y033204D01*
X014332Y033254D01*
X014369Y033306D01*
X014402Y033360D01*
X014433Y033416D01*
X014460Y033474D01*
X014483Y033533D01*
X014504Y033593D01*
X014520Y033655D01*
X014533Y033717D01*
X014542Y033780D01*
X014548Y033843D01*
X014550Y033907D01*
X014548Y033948D01*
X014543Y033988D01*
X014535Y034028D01*
X014523Y034067D01*
X014508Y034105D01*
X014489Y034142D01*
X014468Y034177D01*
X014444Y034210D01*
X014417Y034241D01*
X014388Y034270D01*
X014356Y034296D01*
X014323Y034319D01*
X014287Y034339D01*
X014250Y034357D01*
X015800Y032307D02*
X015878Y032323D01*
X015954Y032343D01*
X016030Y032366D01*
X016105Y032393D01*
X016178Y032423D01*
X016250Y032457D01*
X016350Y032507D01*
X016550Y032407D02*
X016572Y032421D01*
X016593Y032438D01*
X016610Y032458D01*
X016625Y032480D01*
X016637Y032503D01*
X016645Y032528D01*
X016650Y032554D01*
X016652Y032580D01*
X016650Y032607D01*
X016600Y032707D02*
X016550Y032757D01*
X016450Y032907D02*
X016500Y032957D01*
X016400Y032907D01*
X016550Y033007D01*
X016600Y033057D02*
X016600Y033107D01*
X016550Y033257D02*
X016500Y033307D01*
X016483Y033322D01*
X016464Y033335D01*
X016444Y033345D01*
X016422Y033353D01*
X016400Y033357D01*
X016550Y033257D02*
X016562Y033230D01*
X016570Y033202D01*
X016575Y033173D01*
X016577Y033143D01*
X016575Y033114D01*
X016571Y033084D01*
X016562Y033056D01*
X016551Y033029D01*
X016537Y033003D01*
X016520Y032979D01*
X016500Y032957D01*
X016515Y032966D01*
X016529Y032978D01*
X016541Y032992D01*
X016550Y033007D01*
X016450Y032907D02*
X016476Y032913D01*
X016502Y032922D01*
X016526Y032934D01*
X016548Y032950D01*
X016567Y032968D01*
X016584Y032989D01*
X016598Y033012D01*
X016609Y033037D01*
X016617Y033062D01*
X016620Y033089D01*
X016621Y033116D01*
X016617Y033143D01*
X016610Y033169D01*
X016600Y033193D01*
X016586Y033217D01*
X016569Y033238D01*
X016550Y033256D01*
X016400Y032907D02*
X016300Y032857D01*
X016150Y032757D02*
X016100Y032707D01*
X016050Y032707D02*
X015950Y032607D01*
X015950Y032707D02*
X016050Y032757D01*
X016100Y031857D02*
X016055Y031844D01*
X016009Y031833D01*
X015963Y031827D01*
X015916Y031823D01*
X015869Y031824D01*
X015823Y031827D01*
X015776Y031834D01*
X015731Y031845D01*
X015686Y031859D01*
X015643Y031876D01*
X015600Y031896D01*
X015560Y031920D01*
X015521Y031946D01*
X015485Y031975D01*
X015450Y032007D01*
X015000Y032407D02*
X014900Y032557D01*
X015000Y032857D02*
X014967Y032871D01*
X014932Y032883D01*
X014897Y032891D01*
X014861Y032896D01*
X014825Y032898D01*
X014789Y032896D01*
X014753Y032891D01*
X014718Y032883D01*
X014683Y032871D01*
X014650Y032857D01*
X014550Y032807D01*
X014600Y032657D02*
X014750Y032557D01*
X014850Y032607D02*
X014869Y032592D01*
X014885Y032576D01*
X014900Y032557D01*
X015000Y032407D02*
X015021Y032378D01*
X015045Y032352D01*
X015071Y032328D01*
X015100Y032307D01*
X015450Y032607D02*
X015700Y032607D01*
X015850Y032307D02*
X015820Y032288D01*
X015788Y032273D01*
X015755Y032261D01*
X015720Y032253D01*
X015685Y032248D01*
X015650Y032246D01*
X015615Y032248D01*
X015580Y032253D01*
X015545Y032261D01*
X015512Y032273D01*
X015480Y032288D01*
X015450Y032307D01*
X015500Y032557D02*
X015700Y032557D01*
X015500Y032557D02*
X015487Y032563D01*
X015474Y032571D01*
X015464Y032581D01*
X015456Y032594D01*
X015450Y032607D01*
X015700Y032556D02*
X015734Y032558D01*
X015769Y032563D01*
X015802Y032571D01*
X015835Y032582D01*
X015866Y032596D01*
X015896Y032614D01*
X015924Y032634D01*
X015950Y032656D01*
X015950Y032706D02*
X015924Y032684D01*
X015896Y032664D01*
X015866Y032646D01*
X015835Y032632D01*
X015802Y032621D01*
X015769Y032613D01*
X015734Y032608D01*
X015700Y032606D01*
X015800Y032307D02*
X015748Y032300D01*
X015696Y032296D01*
X015644Y032297D01*
X015592Y032301D01*
X015540Y032309D01*
X015490Y032322D01*
X015440Y032338D01*
X015391Y032357D01*
X015345Y032380D01*
X015300Y032407D01*
X014850Y033007D02*
X014840Y033024D01*
X014832Y033043D01*
X014828Y033062D01*
X014826Y033082D01*
X014828Y033102D01*
X014832Y033121D01*
X014840Y033140D01*
X014850Y033157D01*
X015700Y032807D02*
X015739Y032838D01*
X015776Y032871D01*
X015811Y032907D01*
X015843Y032945D01*
X015872Y032986D01*
X015899Y033028D01*
X015922Y033073D01*
X015942Y033118D01*
X015958Y033165D01*
X015971Y033214D01*
X015981Y033263D01*
X015987Y033312D01*
X015990Y033362D01*
X015989Y033412D01*
X015984Y033462D01*
X015976Y033511D01*
X015965Y033560D01*
X015949Y033607D01*
X016350Y032507D02*
X016305Y032472D01*
X016259Y032441D01*
X016211Y032411D01*
X016161Y032385D01*
X016110Y032361D01*
X016058Y032340D01*
X016004Y032322D01*
X015950Y032307D01*
X015950Y032707D02*
X015983Y032735D01*
X016018Y032760D01*
X016055Y032783D01*
X016094Y032801D01*
X016135Y032816D01*
X016177Y032828D01*
X016220Y032835D01*
X016263Y032839D01*
X016306Y032838D01*
X016349Y032834D01*
X016392Y032826D01*
X016434Y032814D01*
X016474Y032798D01*
X016513Y032779D01*
X016550Y032757D01*
X016600Y032707D02*
X016615Y032690D01*
X016628Y032671D01*
X016638Y032651D01*
X016646Y032629D01*
X016650Y032607D01*
X016450Y032907D02*
X016408Y032899D01*
X016367Y032888D01*
X016327Y032874D01*
X016288Y032856D01*
X016251Y032835D01*
X016215Y032812D01*
X016182Y032786D01*
X016150Y032757D01*
X016100Y032758D02*
X016059Y032737D01*
X016020Y032714D01*
X015984Y032687D01*
X015950Y032657D01*
X016050Y032757D02*
X016089Y032775D01*
X016130Y032790D01*
X016172Y032801D01*
X016214Y032809D01*
X016257Y032814D01*
X016300Y032816D01*
X016343Y032814D01*
X016386Y032809D01*
X016428Y032801D01*
X016470Y032790D01*
X016511Y032775D01*
X016550Y032757D01*
X016100Y032707D02*
X016066Y032676D01*
X016030Y032647D01*
X015991Y032621D01*
X015951Y032598D01*
X015909Y032578D01*
X015865Y032562D01*
X015821Y032549D01*
X015775Y032539D01*
X015729Y032533D01*
X015683Y032531D01*
X015637Y032532D01*
X015591Y032537D01*
X015545Y032545D01*
X015500Y032557D01*
X015700Y032807D02*
X015662Y032783D01*
X015623Y032761D01*
X015583Y032743D01*
X015540Y032729D01*
X015497Y032717D01*
X015453Y032710D01*
X015409Y032706D01*
X015365Y032705D01*
X015320Y032709D01*
X015276Y032715D01*
X015233Y032726D01*
X015191Y032740D01*
X015150Y032757D01*
X015150Y032756D02*
X015106Y032779D01*
X015063Y032804D01*
X015022Y032832D01*
X014984Y032862D01*
X014947Y032895D01*
X014912Y032930D01*
X014880Y032967D01*
X014850Y033006D01*
X014350Y032707D02*
X014250Y032707D01*
X010000Y031907D02*
X009956Y032104D01*
X009922Y032304D01*
X009897Y032505D01*
X009882Y032706D01*
X009877Y032909D01*
X009882Y033111D01*
X009896Y033313D01*
X009920Y033514D01*
X009954Y033714D01*
X009997Y033911D01*
X010050Y034107D01*
X011700Y035107D02*
X011749Y035015D01*
X011793Y034922D01*
X011833Y034826D01*
X011868Y034728D01*
X011899Y034629D01*
X011924Y034528D01*
X011945Y034427D01*
X011960Y034324D01*
X011971Y034221D01*
X011976Y034117D01*
X011977Y034013D01*
X011972Y033910D01*
X011962Y033806D01*
X011947Y033703D01*
X011928Y033602D01*
X011903Y033501D01*
X011873Y033401D01*
X011839Y033303D01*
X011800Y033207D01*
X007800Y033207D02*
X007782Y033025D01*
X007772Y032843D01*
X007772Y032660D01*
X007780Y032477D01*
X007798Y032295D01*
X007824Y032115D01*
X007859Y031935D01*
X007903Y031758D01*
X007955Y031583D01*
X008016Y031410D01*
X008085Y031241D01*
X008163Y031076D01*
X008248Y030914D01*
X008341Y030757D01*
X008442Y030604D01*
X008550Y030457D01*
X015950Y033606D02*
X015805Y033983D01*
X015642Y034352D01*
X015462Y034713D01*
X015264Y035065D01*
X015050Y035406D01*
X008400Y034806D02*
X008402Y034442D01*
X008419Y034079D01*
X008452Y033717D01*
X008500Y033356D01*
X008800Y033357D02*
X008850Y033157D01*
X008600Y033057D02*
X008700Y032857D01*
X008600Y033057D02*
X008577Y033105D01*
X008556Y033153D01*
X008538Y033203D01*
X008523Y033254D01*
X008510Y033305D01*
X008501Y033357D01*
X008850Y033157D02*
X008867Y033095D01*
X008887Y033034D01*
X008911Y032975D01*
X008937Y032916D01*
X008967Y032860D01*
X008999Y032804D01*
X009034Y032751D01*
X009072Y032699D01*
X009112Y032649D01*
X009155Y032602D01*
X009200Y032557D01*
X009400Y031357D02*
X009500Y031257D01*
X009501Y031257D02*
X009530Y031225D01*
X009557Y031191D01*
X009580Y031154D01*
X009601Y031116D01*
X009618Y031076D01*
X009631Y031035D01*
X009641Y030993D01*
X009648Y030950D01*
X009651Y030907D01*
X015049Y035407D02*
X014874Y035660D01*
X014689Y035906D01*
X014493Y036144D01*
X014288Y036374D01*
X014073Y036595D01*
X013849Y036807D01*
X013250Y036457D02*
X013206Y036488D01*
X013160Y036515D01*
X013112Y036539D01*
X013062Y036560D01*
X013012Y036577D01*
X012960Y036590D01*
X012907Y036599D01*
X012854Y036605D01*
X012800Y036607D01*
X013000Y037207D02*
X013079Y037194D01*
X013156Y037177D01*
X013233Y037156D01*
X013308Y037131D01*
X013383Y037103D01*
X013455Y037071D01*
X013526Y037035D01*
X013595Y036996D01*
X013663Y036954D01*
X013728Y036908D01*
X013790Y036859D01*
X013850Y036807D01*
X013800Y036006D02*
X013868Y035943D01*
X013933Y035876D01*
X013995Y035806D01*
X014053Y035733D01*
X014107Y035657D01*
X014158Y035579D01*
X014204Y035499D01*
X014247Y035416D01*
X014286Y035331D01*
X014320Y035244D01*
X014350Y035156D01*
X012950Y034606D02*
X012989Y034550D01*
X013025Y034492D01*
X013058Y034432D01*
X013088Y034370D01*
X013114Y034307D01*
X013137Y034242D01*
X013157Y034177D01*
X013173Y034110D01*
X013185Y034043D01*
X013194Y033975D01*
X013200Y033907D01*
X007900Y033757D02*
X007860Y033575D01*
X007827Y033391D01*
X007800Y033207D01*
X008400Y034806D02*
X008403Y034877D01*
X008409Y034948D01*
X008419Y035018D01*
X008432Y035087D01*
X008448Y035156D01*
X008468Y035224D01*
X008491Y035291D01*
X008516Y035357D01*
X008545Y035422D01*
X008577Y035485D01*
X008612Y035547D01*
X008650Y035607D01*
X009100Y036556D02*
X009170Y036598D01*
X009243Y036637D01*
X009317Y036671D01*
X009393Y036703D01*
X009470Y036730D01*
X009549Y036754D01*
X009628Y036774D01*
X009709Y036791D01*
X009790Y036803D01*
X009872Y036812D01*
X009954Y036816D01*
X010036Y036817D01*
X010118Y036814D01*
X010200Y036806D01*
X009800Y036457D02*
X009720Y036414D01*
X009641Y036368D01*
X009565Y036317D01*
X009491Y036264D01*
X009421Y036206D01*
X009352Y036146D01*
X009287Y036082D01*
X009225Y036015D01*
X009166Y035946D01*
X009111Y035873D01*
X009059Y035798D01*
X009011Y035721D01*
X008967Y035641D01*
X008926Y035560D01*
X008890Y035476D01*
X008857Y035391D01*
X008829Y035304D01*
X008804Y035217D01*
X008784Y035128D01*
X008768Y035038D01*
X008757Y034947D01*
X008750Y034857D01*
X007950Y034707D02*
X007965Y034825D01*
X007985Y034942D01*
X008011Y035058D01*
X008043Y035172D01*
X008079Y035285D01*
X008122Y035396D01*
X008169Y035505D01*
X008222Y035611D01*
X008280Y035715D01*
X008342Y035816D01*
X008410Y035913D01*
X008482Y036008D01*
X008558Y036098D01*
X008639Y036185D01*
X008724Y036268D01*
X008813Y036347D01*
X008905Y036422D01*
X009001Y036492D01*
X009100Y036557D01*
X010900Y035607D02*
X010961Y035601D01*
X011022Y035592D01*
X011082Y035579D01*
X011141Y035562D01*
X011199Y035541D01*
X011255Y035517D01*
X011310Y035489D01*
X011363Y035458D01*
X011414Y035424D01*
X011463Y035387D01*
X011510Y035347D01*
X011554Y035304D01*
X011595Y035258D01*
X011633Y035210D01*
X011668Y035159D01*
X011700Y035107D01*
X007900Y033606D02*
X007900Y033464D01*
X007906Y033322D01*
X007918Y033180D01*
X007938Y033039D01*
X007964Y032899D01*
X007996Y032760D01*
X008035Y032623D01*
X008080Y032488D01*
X008131Y032356D01*
X008188Y032225D01*
X008252Y032098D01*
X008321Y031974D01*
X008396Y031853D01*
X008476Y031735D01*
X008562Y031622D01*
X008653Y031512D01*
X008749Y031407D01*
X008850Y031307D01*
X009950Y029256D02*
X009914Y029168D01*
X009873Y029082D01*
X009829Y028997D01*
X009781Y028914D01*
X009730Y028834D01*
X009675Y028756D01*
X009616Y028680D01*
X009554Y028607D01*
X009489Y028537D01*
X009421Y028470D01*
X009350Y028407D01*
X009950Y029257D02*
X009967Y029305D01*
X009980Y029355D01*
X009990Y029405D01*
X009997Y029456D01*
X010000Y029507D01*
X009599Y029457D02*
X009596Y029409D01*
X009589Y029362D01*
X009579Y029315D01*
X009565Y029269D01*
X009548Y029224D01*
X009528Y029180D01*
X009505Y029138D01*
X009479Y029098D01*
X009451Y029059D01*
X009420Y029023D01*
X009386Y028989D01*
X009350Y028957D01*
X013800Y036007D02*
X013530Y036237D01*
X013250Y036457D01*
X015200Y032257D02*
X015236Y032127D01*
X015277Y031998D01*
X015325Y031872D01*
X015378Y031748D01*
X015436Y031626D01*
X015500Y031507D01*
X015449Y031357D02*
X015458Y031342D01*
X015464Y031325D01*
X015466Y031307D01*
X015464Y031289D01*
X015458Y031272D01*
X015449Y031257D01*
X015051Y030907D02*
X015025Y030931D01*
X015001Y030957D01*
X012801Y031456D02*
X012819Y031538D01*
X012841Y031619D01*
X012866Y031699D01*
X012895Y031778D01*
X012927Y031856D01*
X012962Y031932D01*
X013001Y032006D01*
X013050Y032257D02*
X013100Y032507D01*
X014950Y032207D02*
X014952Y032134D01*
X014951Y032061D01*
X014945Y031988D01*
X014937Y031915D01*
X014924Y031843D01*
X014908Y031772D01*
X014889Y031701D01*
X014866Y031632D01*
X014839Y031564D01*
X014809Y031497D01*
X014776Y031432D01*
X014739Y031368D01*
X014700Y031307D01*
X015050Y030757D02*
X015015Y030728D01*
X014978Y030702D01*
X014940Y030678D01*
X014900Y030657D01*
X014450Y030807D02*
X014350Y030857D01*
X013200Y030307D02*
X013162Y030367D01*
X013127Y030429D01*
X013096Y030493D01*
X013069Y030559D01*
X013045Y030626D01*
X013025Y030694D01*
X013008Y030763D01*
X012995Y030833D01*
X012986Y030903D01*
X012981Y030974D01*
X012980Y031045D01*
X012983Y031116D01*
X012989Y031187D01*
X013000Y031257D01*
X012649Y030557D02*
X012674Y030502D01*
X012702Y030449D01*
X012734Y030398D01*
X012768Y030349D01*
X012806Y030302D01*
X012846Y030257D01*
X012889Y030215D01*
X012934Y030176D01*
X012982Y030140D01*
X013032Y030107D01*
X013084Y030077D01*
X013138Y030050D01*
X013193Y030026D01*
X013250Y030007D01*
X013300Y030157D02*
X013200Y030307D01*
X013550Y029257D02*
X013486Y029236D01*
X013420Y029220D01*
X013354Y029207D01*
X013287Y029198D01*
X013220Y029192D01*
X013152Y029190D01*
X013084Y029192D01*
X013017Y029197D01*
X012950Y029207D01*
X013550Y029257D02*
X013599Y029272D01*
X013648Y029285D01*
X013698Y029294D01*
X013748Y029301D01*
X013799Y029306D01*
X013850Y029307D01*
X014000Y029457D02*
X013945Y029453D01*
X013889Y029454D01*
X013834Y029458D01*
X013779Y029467D01*
X013725Y029479D01*
X013672Y029496D01*
X013620Y029515D01*
X013570Y029539D01*
X013521Y029566D01*
X013475Y029597D01*
X013431Y029630D01*
X013389Y029667D01*
X013350Y029707D01*
X013300Y030157D02*
X013321Y030128D01*
X013346Y030100D01*
X013372Y030076D01*
X013401Y030054D01*
X013432Y030034D01*
X013465Y030018D01*
X013499Y030005D01*
X013534Y029995D01*
X013570Y029988D01*
X013606Y029985D01*
X013643Y029986D01*
X013679Y029989D01*
X013715Y029997D01*
X013749Y030007D01*
X014550Y030457D02*
X014549Y030508D01*
X014544Y030559D01*
X014537Y030609D01*
X014528Y030659D01*
X014515Y030708D01*
X014500Y030757D01*
X015300Y032407D02*
X015240Y032444D01*
X015178Y032478D01*
X015115Y032510D01*
X015051Y032539D01*
X014985Y032565D01*
X014918Y032587D01*
X014850Y032607D01*
X014750Y032557D02*
X014784Y032532D01*
X014815Y032505D01*
X014844Y032474D01*
X014869Y032441D01*
X014892Y032406D01*
X014911Y032369D01*
X014926Y032330D01*
X014938Y032290D01*
X014946Y032249D01*
X014950Y032207D01*
X011800Y033207D02*
X011748Y033080D01*
X011702Y032951D01*
X011662Y032820D01*
X011628Y032687D01*
X011600Y032553D01*
X011578Y032417D01*
X011563Y032281D01*
X011553Y032144D01*
X011550Y032007D01*
X011550Y031557D01*
X012450Y030857D02*
X012451Y030807D01*
X012450Y030757D01*
X012900Y030257D02*
X012936Y030216D01*
X012975Y030178D01*
X013016Y030142D01*
X013059Y030109D01*
X013104Y030079D01*
X013151Y030052D01*
X013200Y030028D01*
X013250Y030007D01*
X014550Y032657D02*
X014626Y032650D01*
X014701Y032640D01*
X014776Y032625D01*
X014850Y032607D01*
X014900Y032207D02*
X014894Y032251D01*
X014885Y032296D01*
X014871Y032339D01*
X014854Y032381D01*
X014834Y032422D01*
X014810Y032460D01*
X014784Y032497D01*
X014754Y032531D01*
X014722Y032563D01*
X014687Y032592D01*
X014650Y032618D01*
X014611Y032641D01*
X014570Y032661D01*
X014528Y032678D01*
X014485Y032690D01*
X014440Y032700D01*
X014395Y032705D01*
X014350Y032707D01*
X015151Y032257D02*
X015190Y032214D01*
X015227Y032170D01*
X015261Y032123D01*
X015293Y032074D01*
X015321Y032024D01*
X015346Y031971D01*
X015367Y031917D01*
X015386Y031863D01*
X015401Y031807D01*
X015499Y031557D02*
X015514Y031505D01*
X015531Y031454D01*
X015551Y031403D01*
X015574Y031354D01*
X015600Y031307D01*
X013750Y032657D02*
X013662Y032570D01*
X013578Y032478D01*
X013500Y032382D01*
X013425Y032282D01*
X013356Y032179D01*
X013292Y032072D01*
X013234Y031962D01*
X013180Y031850D01*
X013133Y031735D01*
X013091Y031618D01*
X013055Y031500D01*
X013024Y031379D01*
X013000Y031257D01*
X014950Y030957D02*
X014977Y031006D01*
X015000Y031057D01*
X014950Y030956D02*
X014929Y030924D01*
X014905Y030894D01*
X014878Y030867D01*
X014849Y030842D01*
X014817Y030821D01*
X014783Y030803D01*
X014748Y030788D01*
X014711Y030777D01*
X014673Y030770D01*
X014635Y030766D01*
X014597Y030767D01*
X014559Y030771D01*
X014521Y030779D01*
X014485Y030791D01*
X014450Y030806D01*
X013950Y029307D02*
X013888Y029312D01*
X013825Y029314D01*
X013762Y029312D01*
X013700Y029307D01*
X013450Y029256D02*
X013531Y029278D01*
X013614Y029295D01*
X013697Y029308D01*
X013780Y029318D01*
X013864Y029323D01*
X013949Y029325D01*
X014033Y029323D01*
X014116Y029317D01*
X014200Y029306D01*
X015150Y029006D02*
X015223Y028976D01*
X015295Y028943D01*
X015365Y028907D01*
X015433Y028867D01*
X015500Y028824D01*
X015564Y028778D01*
X015626Y028729D01*
X015686Y028677D01*
X015743Y028623D01*
X015798Y028566D01*
X015850Y028506D01*
X016300Y028007D02*
X016345Y027940D01*
X016387Y027872D01*
X016426Y027802D01*
X016462Y027730D01*
X016495Y027657D01*
X016524Y027582D01*
X016550Y027507D01*
X006850Y026507D02*
X006860Y026006D01*
X006893Y025505D01*
X006950Y025007D01*
X016550Y027507D02*
X016663Y027127D01*
X016763Y026743D01*
X016850Y026357D01*
X014500Y029206D02*
X014402Y029229D01*
X014303Y029247D01*
X014203Y029260D01*
X014103Y029269D01*
X014002Y029273D01*
X013901Y029272D01*
X013801Y029266D01*
X013700Y029256D01*
X014200Y029306D02*
X014331Y029284D01*
X014461Y029255D01*
X014590Y029221D01*
X014717Y029180D01*
X014841Y029133D01*
X014964Y029080D01*
X015083Y029021D01*
X015200Y028956D01*
X015200Y028957D02*
X015323Y028881D01*
X015443Y028799D01*
X015559Y028711D01*
X015670Y028618D01*
X015777Y028520D01*
X015879Y028417D01*
X015976Y028309D01*
X016068Y028197D01*
X016155Y028080D01*
X016236Y027959D01*
X016311Y027835D01*
X016380Y027708D01*
X016443Y027577D01*
X016500Y027443D01*
X016550Y027307D01*
X016601Y027407D02*
X016655Y027261D01*
X016702Y027113D01*
X016743Y026963D01*
X016775Y026811D01*
X016801Y026657D01*
X016950Y025757D02*
X016940Y025607D01*
X016936Y025457D01*
X016940Y025307D01*
X016950Y025157D01*
X014850Y020357D02*
X014951Y020195D01*
X015058Y020038D01*
X015172Y019885D01*
X015292Y019737D01*
X015418Y019595D01*
X015550Y019457D01*
X012351Y018857D02*
X012249Y019154D01*
X012162Y019455D01*
X012089Y019760D01*
X012030Y020068D01*
X011986Y020378D01*
X011956Y020690D01*
X011940Y021003D01*
X011939Y021317D01*
X011953Y021630D01*
X011981Y021942D01*
X012024Y022252D01*
X012081Y022561D01*
X012153Y022866D01*
X012238Y023167D01*
X012337Y023465D01*
X012451Y023757D01*
X010949Y024107D02*
X010945Y024186D01*
X010944Y024265D01*
X010947Y024345D01*
X010955Y024424D01*
X010966Y024502D01*
X010981Y024580D01*
X010999Y024657D01*
X007450Y022907D02*
X007363Y023084D01*
X007285Y023265D01*
X007216Y023449D01*
X007155Y023636D01*
X007103Y023826D01*
X007059Y024018D01*
X007025Y024212D01*
X007000Y024407D01*
X011450Y023607D02*
X011521Y023872D01*
X011582Y024141D01*
X011632Y024411D01*
X011671Y024683D01*
X011700Y024957D01*
X015250Y025406D02*
X015283Y025233D01*
X015308Y025059D01*
X015326Y024884D01*
X015336Y024708D01*
X015339Y024532D01*
X015334Y024357D01*
X015320Y024181D01*
X015300Y024006D01*
X015350Y024157D02*
X015365Y024262D01*
X015375Y024369D01*
X015380Y024475D01*
X015379Y024582D01*
X015374Y024688D01*
X015363Y024794D01*
X015347Y024899D01*
X015326Y025004D01*
X015300Y025107D01*
X009250Y018306D02*
X008992Y018478D01*
X008742Y018662D01*
X008500Y018856D01*
X008099Y022806D02*
X008078Y022902D01*
X008052Y022996D01*
X008021Y023089D01*
X007987Y023180D01*
X007947Y023270D01*
X007904Y023357D01*
X007856Y023443D01*
X007805Y023526D01*
X007749Y023606D01*
X009400Y026157D02*
X009500Y026507D01*
X008850Y027806D02*
X008909Y027902D01*
X008972Y027994D01*
X009040Y028084D01*
X009112Y028170D01*
X009187Y028252D01*
X009267Y028331D01*
X009350Y028407D01*
X008750Y029806D02*
X008752Y029864D01*
X008750Y029922D01*
X008745Y029980D01*
X008737Y030037D01*
X008725Y030094D01*
X008709Y030150D01*
X008691Y030205D01*
X008669Y030258D01*
X008643Y030310D01*
X008615Y030361D01*
X008584Y030410D01*
X008550Y030457D01*
X009100Y030007D02*
X009110Y029931D01*
X009116Y029855D01*
X009119Y029779D01*
X009118Y029702D01*
X009113Y029626D01*
X009105Y029550D01*
X009092Y029475D01*
X009077Y029400D01*
X009057Y029326D01*
X009034Y029254D01*
X009008Y029182D01*
X008978Y029112D01*
X008944Y029043D01*
X008908Y028976D01*
X008868Y028911D01*
X008825Y028848D01*
X008779Y028787D01*
X008730Y028728D01*
X008679Y028672D01*
X008624Y028618D01*
X008568Y028567D01*
X008508Y028519D01*
X008447Y028474D01*
X008383Y028432D01*
X008317Y028393D01*
X008250Y028357D01*
X015500Y031557D02*
X015408Y031909D01*
X015300Y032257D01*
X015250Y032257D02*
X015291Y032104D01*
X015339Y031953D01*
X015391Y031804D01*
X015450Y031657D01*
X010850Y029706D02*
X010671Y030057D01*
X010506Y030415D01*
X010356Y030780D01*
X010222Y031150D01*
X010103Y031526D01*
X010000Y031906D01*
X008749Y029806D02*
X008743Y029735D01*
X008734Y029664D01*
X008720Y029593D01*
X008704Y029523D01*
X008684Y029454D01*
X008660Y029386D01*
X008633Y029320D01*
X008603Y029255D01*
X008570Y029191D01*
X008533Y029129D01*
X008494Y029069D01*
X008451Y029011D01*
X008406Y028955D01*
X008358Y028902D01*
X008308Y028851D01*
X008255Y028802D01*
X008199Y028757D01*
X009600Y029457D02*
X009602Y029571D01*
X009598Y029686D01*
X009589Y029799D01*
X009575Y029913D01*
X009555Y030026D01*
X009531Y030137D01*
X009500Y030247D01*
X009465Y030356D01*
X009425Y030463D01*
X009379Y030568D01*
X009329Y030670D01*
X009274Y030771D01*
X009214Y030868D01*
X009150Y030963D01*
X009081Y031054D01*
X009008Y031142D01*
X008931Y031226D01*
X008850Y031307D01*
X016650Y027207D02*
X016710Y027037D01*
X016763Y026864D01*
X016808Y026689D01*
X016846Y026513D01*
X016877Y026335D01*
X016900Y026157D01*
X014850Y029107D02*
X014676Y029159D01*
X014500Y029207D01*
X008201Y028757D02*
X008023Y028610D01*
X007852Y028455D01*
X007689Y028291D01*
X007535Y028120D01*
X007388Y027942D01*
X007251Y027757D01*
X010749Y025807D02*
X010656Y025406D01*
X010544Y025009D01*
X010413Y024618D01*
X010265Y024234D01*
X010099Y023857D01*
X006600Y009406D02*
X006948Y009277D01*
X007300Y009156D01*
X007900Y021557D02*
X007862Y021758D01*
X007815Y021956D01*
X007759Y022152D01*
X007695Y022346D01*
X007621Y022537D01*
X007540Y022724D01*
X007450Y022907D01*
X010000Y029507D02*
X010005Y029907D01*
X010000Y030307D01*
X008850Y027807D02*
X008606Y027403D01*
X008350Y027007D01*
X011450Y023606D02*
X011357Y023252D01*
X011281Y022894D01*
X011223Y022533D01*
X011183Y022169D01*
X011160Y021803D01*
X011156Y021437D01*
X011169Y021071D01*
X011200Y020706D01*
X011000Y024657D02*
X011109Y025028D01*
X011234Y025395D01*
X011374Y025755D01*
X011529Y026110D01*
X011700Y026457D01*
X008750Y033607D02*
X008735Y034024D01*
X008735Y034440D01*
X008750Y034857D01*
X009150Y015906D02*
X010401Y015902D01*
X011651Y015956D01*
X005501Y011857D02*
X005438Y011099D01*
X005407Y010339D01*
X005407Y009579D01*
X005440Y008819D01*
X005504Y008061D01*
X005601Y007307D01*
X015149Y018107D02*
X015042Y018549D01*
X014956Y018996D01*
X014892Y019447D01*
X014848Y019900D01*
X014827Y020354D01*
X014827Y020810D01*
X014848Y021264D01*
X014892Y021717D01*
X014956Y022168D01*
X015042Y022615D01*
X015149Y023057D01*
X009151Y023157D02*
X008839Y023913D01*
X008556Y024680D01*
X008301Y025457D01*
X012450Y023757D02*
X013050Y025307D01*
X016850Y023857D02*
X016767Y023235D01*
X016714Y022611D01*
X016692Y021984D01*
X016700Y021357D01*
X012700Y035657D02*
X012441Y035898D01*
X012191Y036148D01*
X011950Y036407D01*
X014250Y033156D02*
X014003Y032903D01*
X013750Y032656D01*
X010050Y034107D02*
X010450Y035407D01*
X015150Y018107D02*
X015850Y015607D01*
X009800Y018106D02*
X009650Y018806D01*
D11*
X009850Y017906D02*
X009856Y017837D01*
X009859Y017767D01*
X009858Y017697D01*
X009853Y017627D01*
X009844Y017558D01*
X009832Y017489D01*
X009817Y017421D01*
X009797Y017354D01*
X009775Y017288D01*
X009748Y017223D01*
X009719Y017160D01*
X009686Y017098D01*
X009650Y017038D01*
X009611Y016980D01*
X009568Y016925D01*
X009523Y016871D01*
X009476Y016820D01*
X009425Y016772D01*
X009372Y016726D01*
X009317Y016683D01*
X009260Y016643D01*
X009200Y016606D01*
X009850Y017907D02*
X009816Y018157D01*
X009770Y018406D01*
X009714Y018652D01*
X009646Y018896D01*
X009568Y019137D01*
X009479Y019373D01*
X009380Y019606D01*
X009270Y019834D01*
X009150Y020057D01*
X015150Y023306D02*
X015211Y023537D01*
X015261Y023771D01*
X015300Y024006D01*
X015150Y023306D02*
X015047Y022916D01*
X014963Y022521D01*
X014897Y022122D01*
X014850Y021721D01*
X014822Y021318D01*
X014813Y020914D01*
X014823Y020510D01*
X014852Y020107D01*
X014900Y019706D01*
X016200Y010956D02*
X016175Y010699D01*
X016138Y010444D01*
X016090Y010190D01*
X016031Y009938D01*
X015961Y009690D01*
X015880Y009444D01*
X015788Y009203D01*
X015686Y008966D01*
X015573Y008734D01*
X015450Y008506D01*
X015450Y008507D02*
X014450Y006757D01*
X007900Y015757D02*
X008324Y016055D01*
X008757Y016338D01*
X009200Y016607D01*
X015600Y016707D02*
X015763Y016166D01*
X015901Y015618D01*
X016014Y015065D01*
X016100Y014507D01*
X007900Y015757D02*
X007666Y015578D01*
X007442Y015388D01*
X007227Y015187D01*
X007022Y014976D01*
X006827Y014755D01*
X006643Y014525D01*
X006471Y014287D01*
X006311Y014040D01*
X006162Y013786D01*
X006026Y013525D01*
X005904Y013257D01*
X005794Y012984D01*
X005697Y012706D01*
X005615Y012424D01*
X005546Y012138D01*
X005491Y011849D01*
X005450Y011557D01*
X005450Y008657D02*
X005600Y007357D01*
X016200Y010957D02*
X016238Y011667D01*
X016248Y012379D01*
X016227Y013090D01*
X016178Y013800D01*
X016100Y014507D01*
X005450Y011557D02*
X005397Y010978D01*
X005370Y010398D01*
X005370Y009816D01*
X005397Y009236D01*
X005450Y008657D01*
X015601Y016707D02*
X015377Y017445D01*
X015186Y018192D01*
X015027Y018946D01*
X014901Y019707D01*
D12*
X015800Y019357D02*
X015845Y019365D01*
X015890Y019376D01*
X015933Y019392D01*
X015975Y019411D01*
X016015Y019434D01*
X016052Y019460D01*
X016088Y019490D01*
X016121Y019522D01*
X016150Y019557D01*
X016232Y019668D01*
X016308Y019781D01*
X016379Y019899D01*
X016444Y020020D01*
X016503Y020144D01*
X016556Y020270D01*
X016603Y020399D01*
X016644Y020530D01*
X016678Y020663D01*
X016706Y020798D01*
X016727Y020934D01*
X016742Y021070D01*
X016749Y021207D01*
X016750Y022357D02*
X016748Y022541D01*
X016753Y022726D01*
X016766Y022910D01*
X016787Y023093D01*
X016815Y023275D01*
X016850Y023457D01*
X015150Y029057D02*
X014981Y029120D01*
X014809Y029174D01*
X014634Y029220D01*
X014458Y029258D01*
X014279Y029287D01*
X014100Y029307D01*
X015150Y029056D02*
X015243Y029016D01*
X015334Y028972D01*
X015423Y028924D01*
X015510Y028871D01*
X015594Y028815D01*
X015675Y028754D01*
X015753Y028690D01*
X015828Y028621D01*
X015899Y028550D01*
X015967Y028475D01*
X016032Y028397D01*
X016092Y028316D01*
X016149Y028232D01*
X016202Y028145D01*
X016250Y028056D01*
X016250Y028057D02*
X016387Y027773D01*
X016511Y027483D01*
X016622Y027188D01*
X016719Y026888D01*
X016803Y026583D01*
X016872Y026276D01*
X016927Y025965D01*
X016968Y025652D01*
X016994Y025338D01*
X017006Y025023D01*
X017004Y024707D01*
X016987Y024392D01*
X016955Y024079D01*
X016910Y023767D01*
X016849Y023457D01*
X009200Y015957D02*
X009137Y015959D01*
X009075Y015964D01*
X009013Y015972D01*
X008951Y015984D01*
X008890Y015999D01*
X008830Y016018D01*
X008771Y016039D01*
X008714Y016064D01*
X008658Y016092D01*
X008603Y016123D01*
X008550Y016157D01*
X008550Y016107D01*
X008800Y016007D01*
X008950Y015957D02*
X008600Y016107D01*
X008550Y016107D02*
X008500Y016157D01*
X008550Y016157D02*
X008558Y016141D01*
X008570Y016127D01*
X008584Y016115D01*
X008600Y016107D01*
X008400Y015857D02*
X008250Y015957D01*
X008750Y015607D02*
X008850Y015507D01*
X009100Y015957D02*
X009200Y015957D01*
X009300Y015957D01*
X009050Y015957D02*
X008999Y015960D01*
X008948Y015966D01*
X008898Y015976D01*
X008848Y015990D01*
X008800Y016007D01*
X008850Y015507D02*
X008899Y015455D01*
X008946Y015400D01*
X008989Y015342D01*
X009030Y015283D01*
X009066Y015221D01*
X009100Y015157D01*
X008749Y015556D02*
X008685Y015623D01*
X008618Y015686D01*
X008548Y015747D01*
X008475Y015803D01*
X008399Y015856D01*
X008750Y015557D02*
X008815Y015483D01*
X008876Y015405D01*
X008934Y015325D01*
X008988Y015243D01*
X009038Y015158D01*
X009084Y015070D01*
X009125Y014981D01*
X009163Y014890D01*
X009196Y014797D01*
X009225Y014703D01*
X009250Y014607D01*
X009850Y014157D02*
X009886Y014210D01*
X009924Y014262D01*
X009964Y014312D01*
X010006Y014360D01*
X010050Y014407D01*
X010100Y014406D02*
X010047Y014351D01*
X009996Y014293D01*
X009948Y014232D01*
X009904Y014170D01*
X009862Y014105D01*
X009823Y014039D01*
X009787Y013970D01*
X009755Y013900D01*
X009726Y013829D01*
X009700Y013756D01*
X009850Y014157D02*
X009794Y014066D01*
X009743Y013973D01*
X009697Y013877D01*
X009655Y013780D01*
X009618Y013680D01*
X009586Y013579D01*
X009558Y013476D01*
X009536Y013373D01*
X009519Y013268D01*
X009507Y013162D01*
X009500Y013056D01*
X011000Y015157D02*
X011111Y015220D01*
X011224Y015278D01*
X011340Y015330D01*
X011459Y015377D01*
X011579Y015418D01*
X011701Y015454D01*
X011825Y015483D01*
X011950Y015507D01*
X012550Y015607D01*
X012250Y015557D02*
X012050Y015507D01*
X012250Y015557D02*
X012324Y015573D01*
X012398Y015587D01*
X012473Y015597D01*
X012549Y015603D01*
X012624Y015607D01*
X012700Y015607D01*
X015850Y014807D02*
X015950Y014757D01*
X015966Y014750D01*
X015983Y014746D01*
X016000Y014745D01*
X016017Y014746D01*
X016034Y014750D01*
X016050Y014757D01*
X015850Y014557D02*
X016100Y014357D01*
X016050Y014657D02*
X015933Y014779D01*
X015810Y014895D01*
X015683Y015005D01*
X015550Y015109D01*
X015413Y015207D01*
X015272Y015299D01*
X015127Y015385D01*
X014977Y015463D01*
X014825Y015535D01*
X014669Y015600D01*
X014511Y015657D01*
X014350Y015707D01*
X013000Y015557D02*
X012826Y015559D01*
X012653Y015553D01*
X012479Y015539D01*
X012307Y015518D01*
X012135Y015489D01*
X011966Y015452D01*
X011798Y015408D01*
X011632Y015356D01*
X011468Y015297D01*
X011308Y015230D01*
X011150Y015157D01*
X010986Y015071D01*
X010826Y014978D01*
X010671Y014877D01*
X010520Y014770D01*
X010375Y014655D01*
X010235Y014534D01*
X010100Y014407D01*
X009399Y014006D02*
X009389Y014139D01*
X009373Y014271D01*
X009351Y014402D01*
X009323Y014532D01*
X009290Y014660D01*
X009250Y014787D01*
X009206Y014912D01*
X009155Y015035D01*
X009099Y015156D01*
X015150Y015007D02*
X015297Y014928D01*
X015441Y014844D01*
X015581Y014754D01*
X015718Y014658D01*
X015850Y014557D01*
X009700Y013757D02*
X009606Y013449D01*
X009525Y013137D01*
X009456Y012823D01*
X009400Y012507D01*
X013400Y015557D02*
X013631Y015524D01*
X013860Y015481D01*
X014087Y015428D01*
X014311Y015364D01*
X014533Y015291D01*
X014750Y015207D01*
X011000Y015157D02*
X010829Y015049D01*
X010662Y014934D01*
X010501Y014812D01*
X010345Y014683D01*
X010194Y014548D01*
X010050Y014407D01*
X013000Y015556D02*
X013248Y015542D01*
X013496Y015516D01*
X013741Y015478D01*
X013985Y015428D01*
X014225Y015366D01*
X014463Y015293D01*
X014697Y015209D01*
X014926Y015113D01*
X015150Y015006D01*
X010250Y009357D02*
X010200Y008857D01*
X010200Y008807D02*
X010200Y009107D01*
X010199Y009150D01*
X010194Y009192D01*
X010187Y009234D01*
X010178Y009276D01*
X010165Y009317D01*
X010150Y009357D01*
X010200Y009407D02*
X010212Y009322D01*
X010220Y009236D01*
X010224Y009150D01*
X010224Y009064D01*
X010220Y008978D01*
X010212Y008892D01*
X010200Y008807D01*
X010050Y007807D02*
X010000Y007357D01*
X009997Y007324D01*
X009997Y007290D01*
X010000Y007257D01*
X013500Y015907D02*
X013786Y015850D01*
X014069Y015783D01*
X014350Y015707D01*
X013500Y015907D02*
X013183Y015958D01*
X012864Y015993D01*
X012543Y016013D01*
X012221Y016018D01*
X011900Y016007D01*
X012700Y015607D02*
X013051Y015590D01*
X013400Y015557D01*
X009250Y014606D02*
X009322Y014261D01*
X009378Y013912D01*
X009418Y013561D01*
X009442Y013209D01*
X009450Y012856D01*
X016750Y021207D02*
X016760Y021782D01*
X016750Y022357D01*
X011900Y016006D02*
X010500Y015956D01*
X010200Y008807D02*
X010050Y007757D01*
X010500Y015957D02*
X009050Y015957D01*
D13*
X010400Y009307D02*
X010750Y009157D01*
D14*
X018991Y009149D02*
X018991Y007948D01*
X019292Y007648D01*
X019892Y007648D01*
X020192Y007948D01*
X018991Y009149D01*
X019292Y009450D01*
X019892Y009450D01*
X020192Y009149D01*
X020192Y007948D01*
X020813Y007948D02*
X020813Y007648D01*
X021113Y007648D01*
X021113Y007948D01*
X020813Y007948D01*
X021754Y007648D02*
X022955Y007648D01*
X022354Y007648D02*
X022354Y009450D01*
X022955Y008849D01*
X023595Y008249D02*
X023595Y009450D01*
X024796Y009450D02*
X024796Y008249D01*
X024196Y007648D01*
X023595Y008249D01*
X025437Y008849D02*
X026338Y008849D01*
X026638Y008549D01*
X026638Y007948D01*
X026338Y007648D01*
X025437Y007648D01*
X025437Y009450D01*
X027272Y008849D02*
X027572Y008849D01*
X028173Y008249D01*
X028173Y008849D02*
X028173Y007648D01*
X028813Y007648D02*
X029714Y007648D01*
X030014Y007948D01*
X029714Y008249D01*
X028813Y008249D01*
X028813Y008549D02*
X028813Y007648D01*
X028813Y008549D02*
X029113Y008849D01*
X029714Y008849D01*
X030655Y008549D02*
X030955Y008849D01*
X031555Y008849D01*
X031856Y008549D01*
X031856Y007948D01*
X031555Y007648D01*
X030955Y007648D01*
X030655Y007948D01*
X030655Y008549D01*
X032496Y008849D02*
X032796Y008549D01*
X033697Y008549D01*
X034331Y008849D02*
X034631Y008849D01*
X035232Y008249D01*
X035232Y008849D02*
X035232Y007648D01*
X035872Y007948D02*
X035872Y008549D01*
X036173Y008849D01*
X036773Y008849D01*
X037073Y008549D01*
X037073Y007948D01*
X036773Y007648D01*
X036173Y007648D01*
X035872Y007948D01*
X037714Y007948D02*
X038014Y008249D01*
X038615Y008249D01*
X038915Y008549D01*
X038615Y008849D01*
X037714Y008849D01*
X037714Y007948D02*
X038014Y007648D01*
X038915Y007648D01*
X039556Y007648D02*
X039556Y008549D01*
X039856Y008849D01*
X040757Y008849D01*
X040757Y007648D01*
X041397Y008249D02*
X042598Y008249D01*
X042598Y008549D02*
X042598Y007948D01*
X042298Y007648D01*
X041697Y007648D01*
X041397Y008249D02*
X041397Y008549D01*
X041697Y008849D01*
X042298Y008849D01*
X042598Y008549D01*
X043239Y008249D02*
X043239Y007948D01*
X043539Y007648D01*
X044140Y007648D01*
X044440Y007948D01*
X044140Y008549D02*
X043539Y008549D01*
X043239Y008249D01*
X044140Y008549D02*
X044440Y008849D01*
X044440Y009149D01*
X044140Y009450D01*
X043539Y009450D01*
X043239Y009149D01*
X043239Y010648D02*
X043839Y011249D01*
X043239Y010948D02*
X043539Y010648D01*
X044140Y010648D01*
X044440Y010948D01*
X044440Y012149D01*
X044140Y012450D01*
X043539Y012450D01*
X043239Y012149D01*
X043239Y010948D01*
X042598Y010948D02*
X042298Y010648D01*
X041397Y010648D01*
X041397Y011849D01*
X040456Y011849D02*
X039856Y011849D01*
X039556Y011549D01*
X039556Y010648D01*
X040456Y010648D01*
X040757Y010948D01*
X040456Y011249D01*
X039556Y011249D01*
X038915Y011549D02*
X038915Y010948D01*
X038615Y010648D01*
X037714Y010648D01*
X037714Y012450D01*
X037714Y011849D02*
X038615Y011849D01*
X038915Y011549D01*
X037073Y011549D02*
X037073Y010948D01*
X036773Y010648D01*
X035872Y010648D01*
X035232Y010948D02*
X034932Y010648D01*
X034331Y010648D01*
X034031Y010948D01*
X034031Y011549D01*
X034331Y011849D01*
X034932Y011849D01*
X035232Y011549D01*
X035232Y010948D01*
X035872Y011849D02*
X036773Y011849D01*
X037073Y011549D01*
X033697Y009450D02*
X032796Y009450D01*
X032496Y009149D01*
X032496Y008849D01*
X032796Y008549D02*
X032496Y008249D01*
X032496Y007948D01*
X032796Y007648D01*
X033697Y007648D01*
X033697Y009450D01*
X033390Y010048D02*
X033390Y011849D01*
X032490Y011849D01*
X032189Y011549D01*
X032189Y010948D01*
X032490Y010648D01*
X033390Y010648D01*
X031549Y011849D02*
X030948Y011849D01*
X031248Y012149D02*
X031248Y010948D01*
X030948Y010648D01*
X030321Y010948D02*
X030321Y011549D01*
X030021Y011849D01*
X029420Y011849D01*
X029120Y011549D01*
X029120Y011249D01*
X030321Y011249D01*
X030321Y010948D02*
X030021Y010648D01*
X029420Y010648D01*
X028479Y010648D02*
X028479Y011849D01*
X027879Y011849D02*
X027579Y011849D01*
X027879Y011849D02*
X028479Y011249D01*
X042598Y010948D02*
X042598Y011849D01*
M02*
