G75*
G70*
%OFA0B0*%
%FSLAX24Y24*%
%IPPOS*%
%LPD*%
%AMOC8*
5,1,8,0,0,1.08239X$1,22.5*
%
%ADD10C,0.0867*%
%ADD11C,0.0680*%
%ADD12C,0.1380*%
%ADD13C,0.0434*%
%ADD14OC8,0.0600*%
%ADD15C,0.0867*%
%ADD16C,0.1084*%
%ADD17C,0.0634*%
%ADD18R,0.0730X0.0730*%
%ADD19C,0.0476*%
%ADD20OC8,0.0476*%
D10*
X001331Y001938D03*
X001331Y020639D03*
X001331Y039339D03*
X052512Y039339D03*
X052512Y020639D03*
X052512Y001938D03*
D11*
X005481Y009587D02*
X005481Y010187D01*
X004481Y010187D02*
X004481Y009587D01*
X003481Y009587D02*
X003481Y010187D01*
D12*
X004481Y015787D03*
D13*
X038536Y038150D03*
X040268Y038150D03*
D14*
X038339Y035615D03*
X038339Y033615D03*
X036977Y033434D03*
X036977Y032253D03*
X036977Y031072D03*
X034977Y031072D03*
X034977Y032253D03*
X034977Y033434D03*
X035174Y016308D03*
X035174Y015324D03*
X035174Y014339D03*
X035174Y013355D03*
X037174Y013355D03*
X037174Y014339D03*
X037174Y015324D03*
X037174Y016308D03*
X035189Y009237D03*
X035189Y007237D03*
X030465Y007237D03*
X030465Y009237D03*
X025741Y009237D03*
X025741Y007237D03*
X021016Y007237D03*
X021016Y009237D03*
X016898Y015324D03*
X016898Y016505D03*
X014898Y016505D03*
X014898Y015324D03*
X008024Y007662D03*
X008024Y005662D03*
D15*
X006370Y004694D02*
X006370Y003906D01*
X004874Y003119D02*
X004087Y003119D01*
X004087Y005520D02*
X004874Y005520D01*
D16*
X011065Y005859D02*
X012069Y005859D01*
X012069Y004300D02*
X011065Y004300D01*
X011065Y002741D02*
X012069Y002741D01*
X015790Y002741D02*
X016794Y002741D01*
X016794Y004300D02*
X015790Y004300D01*
X015790Y005859D02*
X016794Y005859D01*
X020514Y005859D02*
X021518Y005859D01*
X021518Y004300D02*
X020514Y004300D01*
X020514Y002741D02*
X021518Y002741D01*
X025239Y002741D02*
X026243Y002741D01*
X026243Y004300D02*
X025239Y004300D01*
X025239Y005859D02*
X026243Y005859D01*
X029963Y005859D02*
X030967Y005859D01*
X030967Y004300D02*
X029963Y004300D01*
X029963Y002741D02*
X030967Y002741D01*
X034687Y002741D02*
X035691Y002741D01*
X035691Y004300D02*
X034687Y004300D01*
X034687Y005859D02*
X035691Y005859D01*
X039412Y005859D02*
X040416Y005859D01*
X040416Y004300D02*
X039412Y004300D01*
X039412Y002741D02*
X040416Y002741D01*
X044136Y002741D02*
X045140Y002741D01*
X045140Y004300D02*
X044136Y004300D01*
X044136Y005859D02*
X045140Y005859D01*
X048861Y005481D02*
X049865Y005481D01*
X049865Y003922D02*
X048861Y003922D01*
X048861Y002363D02*
X049865Y002363D01*
X049865Y007040D02*
X048861Y007040D01*
X048861Y008599D02*
X049865Y008599D01*
X050520Y022302D02*
X050520Y023306D01*
X048961Y023306D02*
X048961Y022302D01*
X047402Y022302D02*
X047402Y023306D01*
X045843Y023306D02*
X045843Y022302D01*
X045843Y027026D02*
X045843Y028030D01*
X047402Y028030D02*
X047402Y027026D01*
X048961Y027026D02*
X048961Y028030D01*
X050520Y028030D02*
X050520Y027026D01*
X050520Y031751D02*
X050520Y032755D01*
X048961Y032755D02*
X048961Y031751D01*
X047402Y031751D02*
X047402Y032755D01*
X045843Y032755D02*
X045843Y031751D01*
X045843Y036475D02*
X045843Y037479D01*
X047402Y037479D02*
X047402Y036475D01*
X048961Y036475D02*
X048961Y037479D01*
X050520Y037479D02*
X050520Y036475D01*
D17*
X034894Y038650D03*
X034107Y038650D03*
X034107Y039438D03*
X034894Y039438D03*
X033319Y039438D03*
X032532Y039438D03*
X032532Y038650D03*
X033319Y038650D03*
X031744Y038650D03*
X030957Y038650D03*
X030957Y039438D03*
X031744Y039438D03*
X030170Y039438D03*
X030170Y038650D03*
X029382Y038650D03*
X028595Y038650D03*
X028595Y039438D03*
X029382Y039438D03*
X027807Y039438D03*
X027020Y039438D03*
X027020Y038650D03*
X027807Y038650D03*
X026233Y038650D03*
X025445Y038650D03*
X025445Y039438D03*
X026233Y039438D03*
D18*
X047756Y018749D03*
X048756Y018749D03*
X049756Y018749D03*
X049756Y017749D03*
X048756Y017749D03*
X047756Y017749D03*
X047756Y016749D03*
X048756Y016749D03*
X049756Y016749D03*
X049756Y015749D03*
X048756Y015749D03*
X047756Y015749D03*
X047756Y014749D03*
X048756Y014749D03*
X049756Y014749D03*
X049756Y013749D03*
X048756Y013749D03*
X047756Y013749D03*
D19*
X045524Y011780D03*
X052315Y015028D03*
X043851Y021229D03*
X040603Y021623D03*
X037355Y019654D03*
X036567Y019654D03*
X035780Y019654D03*
X036174Y018867D03*
X036961Y018867D03*
X037748Y018867D03*
X034796Y021229D03*
X037552Y025166D03*
X037158Y027331D03*
X036666Y029300D03*
X037650Y029595D03*
X041981Y031564D03*
X043457Y032253D03*
X044737Y033434D03*
X043752Y034517D03*
X041882Y035009D03*
X040701Y035402D03*
X039126Y035402D03*
X039520Y034221D03*
X045819Y029891D03*
X047394Y029891D03*
X050347Y039536D03*
X033221Y034024D03*
X032926Y034615D03*
X032827Y035304D03*
X032433Y035894D03*
X030662Y035501D03*
X029087Y035501D03*
X024067Y037666D03*
X023280Y039241D03*
X017867Y037765D03*
X016793Y038482D03*
X014880Y037607D03*
X013460Y038137D03*
X013470Y038737D03*
X013450Y039377D03*
X011190Y039607D03*
X010681Y039339D03*
X011190Y038927D03*
X011100Y038387D03*
X011070Y037787D03*
X011050Y037297D03*
X011567Y036387D03*
X012355Y035796D03*
X013339Y035206D03*
X012355Y034615D03*
X011567Y034024D03*
X005957Y035304D03*
X004921Y034050D03*
X001630Y033617D03*
X001130Y033677D03*
X000910Y033157D03*
X001410Y033107D03*
X001331Y031072D03*
X001460Y029837D03*
X001610Y029347D03*
X001040Y029367D03*
X003540Y028917D03*
X006102Y027843D03*
X006252Y026544D03*
X003430Y026407D03*
X003450Y025797D03*
X003480Y025197D03*
X003500Y024527D03*
X001600Y024977D03*
X001480Y024527D03*
X000940Y024527D03*
X001054Y024067D03*
X001080Y025037D03*
X005768Y023537D03*
X002709Y021426D03*
X011370Y025166D03*
X012260Y024627D03*
X012720Y024727D03*
X013230Y024847D03*
X011850Y024307D03*
X011370Y025757D03*
X011370Y026347D03*
X011370Y026938D03*
X011370Y027528D03*
X011510Y028407D03*
X011840Y029057D03*
X012220Y029567D03*
X012750Y029587D03*
X013240Y029587D03*
X014920Y028917D03*
X014880Y027987D03*
X023181Y023591D03*
X023772Y023591D03*
X024363Y023591D03*
X025150Y024182D03*
X026823Y024182D03*
X026134Y022410D03*
X024166Y021229D03*
X025741Y020245D03*
X025544Y019457D03*
X026134Y019261D03*
X027119Y019457D03*
X028103Y019457D03*
X028496Y020442D03*
X027512Y018080D03*
X028103Y017489D03*
X027906Y016702D03*
X027315Y017292D03*
X028693Y016898D03*
X029284Y016308D03*
X029087Y015520D03*
X028496Y016111D03*
X029874Y015717D03*
X032040Y016308D03*
X027512Y013355D03*
X028496Y012961D03*
X026725Y013552D03*
X025347Y013552D03*
X024559Y013355D03*
X023772Y013158D03*
X023969Y013946D03*
X025150Y012765D03*
X022394Y014930D03*
X022000Y015520D03*
X023575Y017784D03*
X022394Y019654D03*
X020426Y020048D03*
X018063Y018473D03*
X013437Y019950D03*
X018457Y014536D03*
X019244Y014536D03*
X016685Y011977D03*
X015996Y012174D03*
X017473Y011190D03*
X020130Y011387D03*
X010780Y009024D03*
X009894Y010501D03*
X006449Y009418D03*
X001430Y004398D03*
X025937Y027528D03*
X025937Y028316D03*
X025937Y029103D03*
X025937Y029891D03*
X025937Y030678D03*
X027611Y031269D03*
X028300Y029891D03*
X007128Y039090D03*
X006082Y037888D03*
X005161Y039010D03*
X003842Y039464D03*
X001850Y038097D03*
X001300Y038127D03*
X003530Y037537D03*
X004183Y036866D03*
X038437Y013552D03*
D20*
X044343Y021918D03*
M02*
