G75*
G70*
%OFA0B0*%
%FSLAX24Y24*%
%IPPOS*%
%LPD*%
%AMOC8*
5,1,8,0,0,1.08239X$1,22.5*
%
%ADD10C,0.0600*%
%ADD11OC8,0.0520*%
%ADD12C,0.0787*%
%ADD13C,0.1004*%
%ADD14C,0.0554*%
%ADD15R,0.0650X0.0650*%
%ADD16C,0.0396*%
%ADD17C,0.0100*%
%ADD18C,0.0240*%
%ADD19C,0.0400*%
%ADD20OC8,0.0396*%
D10*
X003481Y009587D02*
X003481Y010187D01*
X004481Y010187D02*
X004481Y009587D01*
X005481Y009587D02*
X005481Y010187D01*
D11*
X008024Y007662D03*
X008024Y005662D03*
X014898Y015324D03*
X014898Y016505D03*
X016898Y016505D03*
X016898Y015324D03*
X021016Y009237D03*
X021016Y007237D03*
X025741Y007237D03*
X025741Y009237D03*
X030465Y009237D03*
X030465Y007237D03*
X035189Y007237D03*
X035189Y009237D03*
X035174Y013355D03*
X035174Y014339D03*
X035174Y015324D03*
X035174Y016308D03*
X037174Y016308D03*
X037174Y015324D03*
X037174Y014339D03*
X037174Y013355D03*
X036977Y031072D03*
X036977Y032253D03*
X036977Y033434D03*
X038339Y033615D03*
X038339Y035615D03*
X034977Y033434D03*
X034977Y032253D03*
X034977Y031072D03*
D12*
X004874Y005520D02*
X004087Y005520D01*
X006370Y004694D02*
X006370Y003906D01*
X004874Y003119D02*
X004087Y003119D01*
D13*
X011065Y002741D02*
X012069Y002741D01*
X012069Y004300D02*
X011065Y004300D01*
X011065Y005859D02*
X012069Y005859D01*
X015790Y005859D02*
X016794Y005859D01*
X016794Y004300D02*
X015790Y004300D01*
X015790Y002741D02*
X016794Y002741D01*
X020514Y002741D02*
X021518Y002741D01*
X021518Y004300D02*
X020514Y004300D01*
X020514Y005859D02*
X021518Y005859D01*
X025239Y005859D02*
X026243Y005859D01*
X026243Y004300D02*
X025239Y004300D01*
X025239Y002741D02*
X026243Y002741D01*
X029963Y002741D02*
X030967Y002741D01*
X030967Y004300D02*
X029963Y004300D01*
X029963Y005859D02*
X030967Y005859D01*
X034687Y005859D02*
X035691Y005859D01*
X035691Y004300D02*
X034687Y004300D01*
X034687Y002741D02*
X035691Y002741D01*
X039412Y002741D02*
X040416Y002741D01*
X040416Y004300D02*
X039412Y004300D01*
X039412Y005859D02*
X040416Y005859D01*
X044136Y005859D02*
X045140Y005859D01*
X045140Y004300D02*
X044136Y004300D01*
X044136Y002741D02*
X045140Y002741D01*
X048861Y002363D02*
X049865Y002363D01*
X049865Y003922D02*
X048861Y003922D01*
X048861Y005481D02*
X049865Y005481D01*
X049865Y007040D02*
X048861Y007040D01*
X048861Y008599D02*
X049865Y008599D01*
X050520Y022302D02*
X050520Y023306D01*
X048961Y023306D02*
X048961Y022302D01*
X047402Y022302D02*
X047402Y023306D01*
X045843Y023306D02*
X045843Y022302D01*
X045843Y027026D02*
X045843Y028030D01*
X047402Y028030D02*
X047402Y027026D01*
X048961Y027026D02*
X048961Y028030D01*
X050520Y028030D02*
X050520Y027026D01*
X050520Y031751D02*
X050520Y032755D01*
X048961Y032755D02*
X048961Y031751D01*
X047402Y031751D02*
X047402Y032755D01*
X045843Y032755D02*
X045843Y031751D01*
X045843Y036475D02*
X045843Y037479D01*
X047402Y037479D02*
X047402Y036475D01*
X048961Y036475D02*
X048961Y037479D01*
X050520Y037479D02*
X050520Y036475D01*
D14*
X034894Y038650D03*
X034107Y038650D03*
X034107Y039438D03*
X034894Y039438D03*
X033319Y039438D03*
X032532Y039438D03*
X032532Y038650D03*
X033319Y038650D03*
X031744Y038650D03*
X030957Y038650D03*
X030957Y039438D03*
X031744Y039438D03*
X030170Y039438D03*
X030170Y038650D03*
X029382Y038650D03*
X028595Y038650D03*
X028595Y039438D03*
X029382Y039438D03*
X027807Y039438D03*
X027020Y039438D03*
X027020Y038650D03*
X027807Y038650D03*
X026233Y038650D03*
X025445Y038650D03*
X025445Y039438D03*
X026233Y039438D03*
D15*
X047756Y018749D03*
X048756Y018749D03*
X049756Y018749D03*
X049756Y017749D03*
X048756Y017749D03*
X047756Y017749D03*
X047756Y016749D03*
X048756Y016749D03*
X049756Y016749D03*
X049756Y015749D03*
X048756Y015749D03*
X047756Y015749D03*
X047756Y014749D03*
X048756Y014749D03*
X049756Y014749D03*
X049756Y013749D03*
X048756Y013749D03*
X047756Y013749D03*
D16*
X045524Y011780D03*
X052020Y012371D03*
X052315Y015028D03*
X052020Y018178D03*
X043851Y021229D03*
X041784Y021623D03*
X041784Y022213D03*
X041193Y022213D03*
X041193Y021623D03*
X040603Y021623D03*
X040603Y022213D03*
X040603Y022804D03*
X041193Y022804D03*
X041784Y022804D03*
X037552Y025166D03*
X037158Y027331D03*
X038044Y028217D03*
X038634Y028808D03*
X039225Y029398D03*
X039815Y029989D03*
X037650Y029595D03*
X036666Y029300D03*
X041981Y031564D03*
X043457Y032253D03*
X044737Y033434D03*
X043752Y034517D03*
X041882Y035009D03*
X040701Y035402D03*
X039126Y035402D03*
X039520Y034221D03*
X035780Y035206D03*
X035189Y035206D03*
X035189Y035796D03*
X035189Y036387D03*
X035189Y036977D03*
X035780Y036977D03*
X035780Y036387D03*
X035780Y035796D03*
X035780Y037568D03*
X035189Y037568D03*
X032433Y035894D03*
X032827Y035304D03*
X032926Y034615D03*
X033221Y034024D03*
X030662Y035501D03*
X029087Y035501D03*
X024067Y037666D03*
X023280Y039241D03*
X019441Y037765D03*
X017867Y037765D03*
X016793Y038482D03*
X015898Y037765D03*
X013339Y035206D03*
X012355Y035796D03*
X011567Y036387D03*
X012355Y034615D03*
X011567Y034024D03*
X015898Y031859D03*
X017867Y031859D03*
X019441Y031859D03*
X019048Y029103D03*
X017473Y029103D03*
X015898Y029103D03*
X011370Y027528D03*
X011370Y026938D03*
X011370Y026347D03*
X011370Y025757D03*
X011370Y025166D03*
X011850Y024307D03*
X007630Y024772D03*
X005768Y023537D03*
X004087Y023198D03*
X004874Y025166D03*
X006252Y026544D03*
X006102Y027843D03*
X004481Y027135D03*
X007630Y029103D03*
X004921Y034050D03*
X005957Y035304D03*
X004183Y036866D03*
X006082Y037888D03*
X005161Y039010D03*
X003842Y039464D03*
X007128Y039090D03*
X001331Y031072D03*
X000940Y024527D03*
X002709Y021426D03*
X003595Y019950D03*
X004776Y019950D03*
X004776Y019064D03*
X003595Y019064D03*
X002414Y019064D03*
X001430Y018080D03*
X001430Y016898D03*
X001430Y015619D03*
X001430Y014536D03*
X001430Y013552D03*
X001430Y012666D03*
X001430Y011583D03*
X001430Y010599D03*
X006449Y009418D03*
X009894Y010501D03*
X010780Y009024D03*
X013733Y010206D03*
X013733Y010796D03*
X013733Y011387D03*
X013733Y011977D03*
X013733Y012568D03*
X015996Y012174D03*
X016685Y011977D03*
X017473Y011190D03*
X018260Y010304D03*
X018654Y009910D03*
X018162Y009418D03*
X017768Y009812D03*
X017276Y009320D03*
X017670Y008926D03*
X019146Y010402D03*
X018752Y010796D03*
X019244Y011288D03*
X019638Y010894D03*
X020130Y011387D03*
X019737Y011780D03*
X020229Y012272D03*
X020622Y011879D03*
X021115Y012371D03*
X020721Y012765D03*
X021213Y013257D03*
X021607Y012863D03*
X023772Y013158D03*
X024559Y013355D03*
X025347Y013552D03*
X025150Y012765D03*
X023969Y013946D03*
X022394Y014930D03*
X022000Y015520D03*
X024067Y017292D03*
X023575Y017784D03*
X023083Y018276D03*
X022493Y018276D03*
X022394Y019654D03*
X020426Y020048D03*
X018063Y019654D03*
X017473Y019654D03*
X016882Y019654D03*
X016882Y019064D03*
X016882Y018473D03*
X017473Y018473D03*
X018063Y018473D03*
X018063Y019064D03*
X017473Y019064D03*
X013437Y019950D03*
X015898Y023985D03*
X017473Y023985D03*
X019048Y023985D03*
X023181Y023591D03*
X023772Y023591D03*
X024363Y023591D03*
X025150Y024182D03*
X026823Y024182D03*
X026134Y022410D03*
X024166Y021229D03*
X025741Y020245D03*
X025544Y019457D03*
X026134Y019261D03*
X027119Y019457D03*
X028103Y019457D03*
X028496Y020442D03*
X027512Y018080D03*
X028103Y017489D03*
X027906Y016702D03*
X027315Y017292D03*
X028693Y016898D03*
X029284Y016308D03*
X029087Y015520D03*
X028496Y016111D03*
X029874Y015717D03*
X032040Y016308D03*
X036174Y018867D03*
X036961Y018867D03*
X037748Y018867D03*
X037355Y019654D03*
X036567Y019654D03*
X035780Y019654D03*
X034796Y021229D03*
X025937Y027528D03*
X025937Y028316D03*
X025937Y029103D03*
X025937Y029891D03*
X025937Y030678D03*
X027611Y031269D03*
X028300Y029891D03*
X043359Y037174D03*
X043949Y037174D03*
X043949Y037765D03*
X043359Y037765D03*
X043359Y038355D03*
X043949Y038355D03*
X043949Y038946D03*
X043359Y038946D03*
X045032Y039536D03*
X045622Y039536D03*
X046213Y039536D03*
X046804Y039536D03*
X047394Y039536D03*
X047985Y039536D03*
X048575Y039536D03*
X049166Y039536D03*
X049756Y039536D03*
X050347Y039536D03*
X052020Y033926D03*
X047394Y029891D03*
X045819Y029891D03*
X052315Y029300D03*
X052315Y024674D03*
X038437Y013552D03*
X028496Y012961D03*
X027512Y013355D03*
X026725Y013552D03*
X024559Y016800D03*
X019244Y014536D03*
X018457Y014536D03*
X007040Y019064D03*
X005957Y019064D03*
X005957Y019950D03*
X001430Y004398D03*
X052315Y008237D03*
D17*
X001809Y001223D02*
X001771Y001207D01*
X052073Y001207D01*
X052034Y001223D01*
X051797Y001460D01*
X051669Y001770D01*
X051669Y002106D01*
X051797Y002416D01*
X052034Y002653D01*
X052344Y002781D01*
X052680Y002781D01*
X052990Y002653D01*
X053227Y002416D01*
X053330Y002168D01*
X053330Y020408D01*
X053227Y020161D01*
X052990Y019923D01*
X052680Y019795D01*
X052344Y019795D01*
X052034Y019923D01*
X051797Y020161D01*
X051669Y020471D01*
X051669Y020806D01*
X051797Y021116D01*
X052034Y021354D01*
X052344Y021482D01*
X052680Y021482D01*
X052990Y021354D01*
X053227Y021116D01*
X053330Y020869D01*
X053330Y039109D01*
X053227Y038861D01*
X052990Y038624D01*
X052680Y038496D01*
X052344Y038496D01*
X052034Y038624D01*
X051797Y038861D01*
X051669Y039172D01*
X035571Y039172D01*
X035612Y039270D02*
X051669Y039270D01*
X051669Y039172D02*
X051669Y039507D01*
X051797Y039817D01*
X052034Y040055D01*
X052073Y040070D01*
X035267Y040070D01*
X035306Y040054D01*
X035511Y039850D01*
X035621Y039582D01*
X035621Y039293D01*
X035511Y039026D01*
X035306Y038821D01*
X035290Y038815D01*
X035290Y038814D01*
X035311Y038750D01*
X035320Y038689D01*
X034933Y038689D01*
X034933Y038612D01*
X035320Y038612D01*
X035311Y038550D01*
X035290Y038486D01*
X035259Y038427D01*
X035220Y038372D01*
X035172Y038325D01*
X035118Y038285D01*
X035058Y038255D01*
X034994Y038234D01*
X034933Y038224D01*
X034933Y038612D01*
X034856Y038612D01*
X034856Y038224D01*
X034794Y038234D01*
X034730Y038255D01*
X034730Y038255D01*
X034723Y038238D01*
X034519Y038034D01*
X034251Y037923D01*
X033962Y037923D01*
X033713Y038026D01*
X033464Y037923D01*
X033175Y037923D01*
X032926Y038026D01*
X032823Y037984D01*
X034432Y036375D01*
X034508Y036191D01*
X034508Y034712D01*
X034432Y034529D01*
X034291Y034388D01*
X033869Y033965D01*
X033869Y033895D01*
X033770Y033657D01*
X033588Y033475D01*
X033350Y033376D01*
X033092Y033376D01*
X032854Y033475D01*
X032671Y033657D01*
X032573Y033895D01*
X032573Y034060D01*
X032558Y034066D01*
X032376Y034248D01*
X032277Y034486D01*
X032277Y034744D01*
X032334Y034880D01*
X032278Y034937D01*
X032179Y035175D01*
X032179Y035298D01*
X032066Y035345D01*
X032017Y035394D01*
X030562Y035394D01*
X030379Y035471D01*
X030238Y035611D01*
X027926Y037923D01*
X027663Y037923D01*
X027414Y038026D01*
X027165Y037923D01*
X026875Y037923D01*
X026626Y038026D01*
X026377Y037923D01*
X026088Y037923D01*
X025839Y038026D01*
X025590Y037923D01*
X025301Y037923D01*
X025033Y038034D01*
X024829Y038238D01*
X024718Y038506D01*
X024718Y038795D01*
X024821Y039044D01*
X024718Y039293D01*
X024718Y039582D01*
X024829Y039850D01*
X025033Y040054D01*
X025073Y040070D01*
X001771Y040070D01*
X001809Y040055D01*
X002046Y039817D01*
X002175Y039507D01*
X002175Y039172D01*
X024768Y039172D01*
X024728Y039270D02*
X002175Y039270D01*
X002175Y039172D02*
X002046Y038861D01*
X001809Y038624D01*
X001499Y038496D01*
X001163Y038496D01*
X000853Y038624D01*
X000616Y038861D01*
X000600Y038900D01*
X000600Y021078D01*
X000616Y021116D01*
X000853Y021354D01*
X001163Y021482D01*
X001499Y021482D01*
X001809Y021354D01*
X002046Y021116D01*
X002175Y020806D01*
X002175Y020471D01*
X002046Y020161D01*
X001809Y019923D01*
X001499Y019795D01*
X001163Y019795D01*
X000853Y019923D01*
X000616Y020161D01*
X000600Y020199D01*
X000600Y002377D01*
X000616Y002416D01*
X000853Y002653D01*
X001163Y002781D01*
X001499Y002781D01*
X001809Y002653D01*
X002046Y002416D01*
X002175Y002106D01*
X002175Y001770D01*
X002046Y001460D01*
X001809Y001223D01*
X001836Y001249D02*
X052008Y001249D01*
X051909Y001348D02*
X001934Y001348D01*
X002033Y001446D02*
X048586Y001446D01*
X048671Y001411D02*
X050054Y001411D01*
X050404Y001556D01*
X050672Y001824D01*
X050817Y002174D01*
X050817Y002552D01*
X050672Y002902D01*
X050404Y003170D01*
X050078Y003305D01*
X050154Y003336D01*
X050228Y003379D01*
X050295Y003431D01*
X050356Y003491D01*
X050408Y003559D01*
X050451Y003633D01*
X050483Y003712D01*
X050505Y003795D01*
X050516Y003872D01*
X049413Y003872D01*
X049413Y003972D01*
X050516Y003972D01*
X050505Y004050D01*
X050483Y004132D01*
X050451Y004211D01*
X050408Y004285D01*
X050356Y004353D01*
X050295Y004413D01*
X050228Y004465D01*
X050154Y004508D01*
X050078Y004539D01*
X050404Y004674D01*
X050672Y004942D01*
X050817Y005292D01*
X050817Y005670D01*
X050672Y006020D01*
X050431Y006261D01*
X050672Y006501D01*
X050817Y006851D01*
X050817Y007230D01*
X050672Y007579D01*
X050431Y007820D01*
X050672Y008060D01*
X050817Y008410D01*
X050817Y008789D01*
X050672Y009138D01*
X050404Y009406D01*
X050054Y009551D01*
X048671Y009551D01*
X048321Y009406D01*
X048054Y009138D01*
X047909Y008789D01*
X047909Y008410D01*
X048054Y008060D01*
X048294Y007820D01*
X048054Y007579D01*
X047909Y007230D01*
X047909Y006851D01*
X048054Y006501D01*
X048294Y006261D01*
X048054Y006020D01*
X047909Y005670D01*
X047909Y005292D01*
X048054Y004942D01*
X048321Y004674D01*
X048647Y004539D01*
X048572Y004508D01*
X048498Y004465D01*
X048430Y004413D01*
X048369Y004353D01*
X048317Y004285D01*
X048275Y004211D01*
X048242Y004132D01*
X048220Y004050D01*
X048210Y003972D01*
X049313Y003972D01*
X049313Y003872D01*
X048210Y003872D01*
X048220Y003795D01*
X048242Y003712D01*
X048275Y003633D01*
X048317Y003559D01*
X048369Y003491D01*
X048430Y003431D01*
X048498Y003379D01*
X048572Y003336D01*
X048647Y003305D01*
X048321Y003170D01*
X048164Y003013D01*
X048026Y003013D01*
X046739Y004300D01*
X046975Y004536D01*
X047158Y004719D01*
X047257Y004958D01*
X047257Y009543D01*
X049307Y011593D01*
X049406Y011832D01*
X049406Y013113D01*
X049463Y013169D01*
X049506Y013274D01*
X049706Y013274D01*
X049706Y013699D01*
X049806Y013699D01*
X049806Y013274D01*
X050101Y013274D01*
X050139Y013284D01*
X050173Y013304D01*
X050201Y013332D01*
X050221Y013366D01*
X050231Y013404D01*
X050231Y013699D01*
X049806Y013699D01*
X049806Y013799D01*
X049706Y013799D01*
X049706Y014224D01*
X049506Y014224D01*
X049496Y014249D01*
X049506Y014274D01*
X049706Y014274D01*
X049706Y014699D01*
X049806Y014699D01*
X049806Y014274D01*
X050101Y014274D01*
X050139Y014284D01*
X050173Y014304D01*
X050201Y014332D01*
X050221Y014366D01*
X050231Y014404D01*
X050231Y014699D01*
X049806Y014699D01*
X049806Y014799D01*
X049706Y014799D01*
X049706Y015224D01*
X049506Y015224D01*
X049496Y015249D01*
X049506Y015274D01*
X049706Y015274D01*
X049706Y015699D01*
X049806Y015699D01*
X049806Y015274D01*
X050101Y015274D01*
X050139Y015284D01*
X050173Y015304D01*
X050201Y015332D01*
X050221Y015366D01*
X050231Y015404D01*
X050231Y015699D01*
X049806Y015699D01*
X049806Y015799D01*
X049706Y015799D01*
X049706Y016224D01*
X049506Y016224D01*
X049496Y016249D01*
X049506Y016274D01*
X049706Y016274D01*
X049706Y016699D01*
X049806Y016699D01*
X049806Y016274D01*
X050101Y016274D01*
X050139Y016284D01*
X050173Y016304D01*
X050201Y016332D01*
X050221Y016366D01*
X050231Y016404D01*
X050231Y016699D01*
X049806Y016699D01*
X049806Y016799D01*
X049706Y016799D01*
X049706Y017224D01*
X049506Y017224D01*
X049496Y017249D01*
X049506Y017274D01*
X049706Y017274D01*
X049706Y017699D01*
X049806Y017699D01*
X049806Y017274D01*
X050101Y017274D01*
X050139Y017284D01*
X050173Y017304D01*
X050201Y017332D01*
X050221Y017366D01*
X050231Y017404D01*
X050231Y017699D01*
X049806Y017699D01*
X049806Y017799D01*
X049706Y017799D01*
X049706Y018224D01*
X049506Y018224D01*
X049496Y018249D01*
X049506Y018274D01*
X049706Y018274D01*
X049706Y018699D01*
X049806Y018699D01*
X049806Y018274D01*
X050101Y018274D01*
X050139Y018284D01*
X050173Y018304D01*
X050201Y018332D01*
X050221Y018366D01*
X050231Y018404D01*
X050231Y018699D01*
X049806Y018699D01*
X049806Y018799D01*
X049706Y018799D01*
X049706Y019224D01*
X049506Y019224D01*
X049463Y019329D01*
X049406Y019385D01*
X049406Y021456D01*
X049500Y021495D01*
X049768Y021763D01*
X049903Y022088D01*
X049934Y022013D01*
X049977Y021939D01*
X050029Y021871D01*
X050089Y021811D01*
X050157Y021759D01*
X050231Y021716D01*
X050310Y021683D01*
X050393Y021661D01*
X050470Y021651D01*
X050470Y022754D01*
X050570Y022754D01*
X050570Y021651D01*
X050648Y021661D01*
X050730Y021683D01*
X050809Y021716D01*
X050883Y021759D01*
X050951Y021811D01*
X051011Y021871D01*
X051063Y021939D01*
X051106Y022013D01*
X051139Y022092D01*
X051161Y022175D01*
X051172Y022259D01*
X051172Y022754D01*
X050570Y022754D01*
X050570Y022854D01*
X050470Y022854D01*
X050470Y023957D01*
X050393Y023947D01*
X050310Y023925D01*
X050231Y023892D01*
X050157Y023849D01*
X050089Y023797D01*
X050029Y023737D01*
X049977Y023669D01*
X049934Y023595D01*
X049903Y023520D01*
X049768Y023845D01*
X049611Y024002D01*
X049611Y026330D01*
X049768Y026487D01*
X049903Y026813D01*
X049934Y026737D01*
X049977Y026663D01*
X050029Y026596D01*
X050089Y026535D01*
X050157Y026483D01*
X050231Y026440D01*
X050310Y026408D01*
X050393Y026386D01*
X050470Y026375D01*
X050470Y027478D01*
X050570Y027478D01*
X050570Y026375D01*
X050648Y026386D01*
X050730Y026408D01*
X050809Y026440D01*
X050883Y026483D01*
X050951Y026535D01*
X051011Y026596D01*
X051063Y026663D01*
X051106Y026737D01*
X051139Y026816D01*
X051161Y026899D01*
X051172Y026984D01*
X051172Y027478D01*
X050570Y027478D01*
X050570Y027578D01*
X051172Y027578D01*
X051172Y028073D01*
X051161Y028158D01*
X051139Y028240D01*
X051106Y028319D01*
X051063Y028393D01*
X051011Y028461D01*
X050951Y028522D01*
X050883Y028574D01*
X050809Y028616D01*
X050730Y028649D01*
X050648Y028671D01*
X050570Y028681D01*
X050570Y027578D01*
X050470Y027578D01*
X050470Y028681D01*
X050393Y028671D01*
X050310Y028649D01*
X050231Y028616D01*
X050157Y028574D01*
X050089Y028522D01*
X050029Y028461D01*
X049977Y028393D01*
X049934Y028319D01*
X049903Y028244D01*
X049768Y028570D01*
X049611Y028727D01*
X049611Y031055D01*
X049768Y031212D01*
X049903Y031537D01*
X049934Y031462D01*
X049977Y031388D01*
X050029Y031320D01*
X050089Y031260D01*
X050157Y031208D01*
X050231Y031165D01*
X050310Y031132D01*
X050393Y031110D01*
X050470Y031100D01*
X050470Y032203D01*
X050570Y032203D01*
X050570Y032303D01*
X050470Y032303D01*
X050470Y033406D01*
X050393Y033396D01*
X050310Y033373D01*
X050231Y033341D01*
X050157Y033298D01*
X050089Y033246D01*
X050029Y033186D01*
X049977Y033118D01*
X049934Y033044D01*
X049903Y032968D01*
X049768Y033294D01*
X049611Y033451D01*
X049611Y035779D01*
X049768Y035936D01*
X049903Y036262D01*
X049934Y036186D01*
X049977Y036112D01*
X050029Y036044D01*
X050089Y035984D01*
X050157Y035932D01*
X050231Y035889D01*
X050310Y035857D01*
X050393Y035834D01*
X050470Y035824D01*
X050470Y036927D01*
X050570Y036927D01*
X050570Y035824D01*
X050648Y035834D01*
X050730Y035857D01*
X050809Y035889D01*
X050883Y035932D01*
X050951Y035984D01*
X051011Y036044D01*
X051063Y036112D01*
X051106Y036186D01*
X051139Y036265D01*
X051161Y036348D01*
X051172Y036432D01*
X051172Y036927D01*
X050570Y036927D01*
X050570Y037027D01*
X051172Y037027D01*
X051172Y037522D01*
X051161Y037607D01*
X051139Y037689D01*
X051106Y037768D01*
X051063Y037842D01*
X051011Y037910D01*
X050951Y037970D01*
X050883Y038022D01*
X050809Y038065D01*
X050730Y038098D01*
X050648Y038120D01*
X050570Y038130D01*
X050570Y037027D01*
X050470Y037027D01*
X050470Y038130D01*
X050393Y038120D01*
X050310Y038098D01*
X050231Y038065D01*
X050157Y038022D01*
X050089Y037970D01*
X050029Y037910D01*
X049977Y037842D01*
X049934Y037768D01*
X049903Y037693D01*
X049768Y038018D01*
X049500Y038286D01*
X049150Y038431D01*
X048772Y038431D01*
X048422Y038286D01*
X048181Y038046D01*
X047941Y038286D01*
X047591Y038431D01*
X047213Y038431D01*
X046863Y038286D01*
X046622Y038046D01*
X046382Y038286D01*
X046032Y038431D01*
X045654Y038431D01*
X045304Y038286D01*
X045036Y038018D01*
X044891Y037668D01*
X044891Y037460D01*
X044749Y037401D01*
X037591Y030243D01*
X037521Y030243D01*
X037283Y030145D01*
X037101Y029962D01*
X037048Y029835D01*
X037033Y029849D01*
X036795Y029948D01*
X036537Y029948D01*
X036299Y029849D01*
X036116Y029667D01*
X036018Y029429D01*
X036018Y029179D01*
X034882Y030314D01*
X034768Y030362D01*
X035271Y030362D01*
X035687Y030778D01*
X035687Y031366D01*
X035390Y031662D01*
X035687Y031959D01*
X035687Y032547D01*
X035271Y032963D01*
X034683Y032963D01*
X034267Y032547D01*
X034267Y031959D01*
X034563Y031662D01*
X034267Y031366D01*
X034267Y030778D01*
X034654Y030391D01*
X028716Y030391D01*
X028667Y030440D01*
X028429Y030539D01*
X028171Y030539D01*
X027932Y030440D01*
X027750Y030258D01*
X027651Y030019D01*
X027651Y029762D01*
X027750Y029523D01*
X027932Y029341D01*
X028171Y029242D01*
X028429Y029242D01*
X028667Y029341D01*
X028716Y029391D01*
X034392Y029391D01*
X036510Y027272D01*
X036510Y027203D01*
X036608Y026964D01*
X036658Y026915D01*
X036658Y024673D01*
X036734Y024489D01*
X036875Y024349D01*
X037058Y024272D01*
X040309Y024272D01*
X040492Y024349D01*
X044452Y028308D01*
X044927Y028308D01*
X044891Y028220D01*
X044891Y027283D01*
X043427Y025819D01*
X043351Y025636D01*
X043351Y021646D01*
X043301Y021596D01*
X043203Y021358D01*
X043203Y021139D01*
X037028Y021139D01*
X035343Y021598D01*
X035163Y021779D01*
X034925Y021877D01*
X034667Y021877D01*
X034429Y021779D01*
X034246Y021596D01*
X034148Y021358D01*
X034148Y021100D01*
X034246Y020862D01*
X034429Y020680D01*
X034667Y020581D01*
X034925Y020581D01*
X035062Y020638D01*
X035393Y020548D01*
X029145Y020548D01*
X029145Y020571D01*
X029046Y020809D01*
X028864Y020991D01*
X028625Y021090D01*
X028368Y021090D01*
X028129Y020991D01*
X027947Y020809D01*
X027848Y020571D01*
X027848Y020313D01*
X027940Y020092D01*
X027736Y020007D01*
X027611Y019882D01*
X027486Y020007D01*
X027247Y020106D01*
X026990Y020106D01*
X026751Y020007D01*
X026634Y019890D01*
X026634Y021994D01*
X026684Y022043D01*
X026782Y022281D01*
X026782Y022539D01*
X026684Y022777D01*
X026501Y022960D01*
X026263Y023058D01*
X026005Y023058D01*
X025767Y022960D01*
X025650Y022843D01*
X025650Y023765D01*
X025699Y023815D01*
X025798Y024053D01*
X025798Y024311D01*
X025699Y024549D01*
X025517Y024731D01*
X025279Y024830D01*
X025021Y024830D01*
X024783Y024731D01*
X024601Y024549D01*
X024502Y024311D01*
X024502Y024235D01*
X024492Y024239D01*
X024422Y024239D01*
X020709Y027952D01*
X020525Y028028D01*
X011787Y028028D01*
X011738Y028078D01*
X011499Y028176D01*
X011242Y028176D01*
X011003Y028078D01*
X010821Y027895D01*
X010722Y027657D01*
X010722Y027399D01*
X010791Y027233D01*
X010722Y027067D01*
X010722Y026809D01*
X010791Y026643D01*
X010722Y026476D01*
X010722Y026218D01*
X010791Y026052D01*
X010722Y025886D01*
X010722Y025628D01*
X010791Y025461D01*
X010722Y025295D01*
X010722Y025037D01*
X010821Y024799D01*
X011003Y024617D01*
X011242Y024518D01*
X011499Y024518D01*
X011738Y024617D01*
X011787Y024666D01*
X020218Y024666D01*
X022878Y022006D01*
X022878Y020736D01*
X022954Y020552D01*
X022959Y020548D01*
X020842Y020548D01*
X020793Y020597D01*
X020555Y020696D01*
X020297Y020696D01*
X020058Y020597D01*
X019876Y020415D01*
X019777Y020177D01*
X019777Y019919D01*
X019876Y019681D01*
X020058Y019499D01*
X020297Y019400D01*
X020555Y019400D01*
X020793Y019499D01*
X020842Y019548D01*
X021746Y019548D01*
X021746Y019525D01*
X021845Y019287D01*
X022027Y019105D01*
X022265Y019006D01*
X022523Y019006D01*
X022761Y019105D01*
X022811Y019154D01*
X023959Y019154D01*
X024923Y018190D01*
X025064Y018049D01*
X025247Y017973D01*
X026699Y017973D01*
X024155Y015430D01*
X022811Y015430D01*
X022761Y015479D01*
X022649Y015526D01*
X022649Y015649D01*
X022550Y015888D01*
X022368Y016070D01*
X022129Y016169D01*
X021871Y016169D01*
X021633Y016070D01*
X021584Y016020D01*
X020129Y016020D01*
X019946Y015944D01*
X019185Y015184D01*
X019116Y015184D01*
X018931Y015108D01*
X018881Y015229D01*
X017608Y016502D01*
X017608Y016799D01*
X017192Y017215D01*
X016604Y017215D01*
X016188Y016799D01*
X016188Y016211D01*
X016484Y015914D01*
X016188Y015618D01*
X016188Y015030D01*
X016604Y014614D01*
X017192Y014614D01*
X017608Y015030D01*
X017608Y015088D01*
X017874Y014822D01*
X017809Y014665D01*
X017809Y014407D01*
X017908Y014169D01*
X018090Y013987D01*
X018328Y013888D01*
X018586Y013888D01*
X018824Y013987D01*
X018851Y014013D01*
X018877Y013987D01*
X019116Y013888D01*
X019373Y013888D01*
X019612Y013987D01*
X019794Y014169D01*
X019893Y014407D01*
X019893Y014477D01*
X020436Y015020D01*
X021584Y015020D01*
X021633Y014971D01*
X021746Y014924D01*
X021746Y014801D01*
X021845Y014563D01*
X022027Y014380D01*
X022265Y014282D01*
X022523Y014282D01*
X022761Y014380D01*
X022811Y014430D01*
X023537Y014430D01*
X023419Y014313D01*
X023321Y014075D01*
X023321Y013817D01*
X023377Y013680D01*
X023223Y013525D01*
X023124Y013287D01*
X023124Y013029D01*
X023223Y012791D01*
X023405Y012609D01*
X023643Y012510D01*
X023901Y012510D01*
X024139Y012609D01*
X024294Y012764D01*
X024431Y012707D01*
X024502Y012707D01*
X024502Y012636D01*
X024601Y012397D01*
X024783Y012215D01*
X025021Y012116D01*
X025279Y012116D01*
X025517Y012215D01*
X025699Y012397D01*
X025798Y012636D01*
X025798Y012706D01*
X026226Y013134D01*
X026358Y013003D01*
X026596Y012904D01*
X026854Y012904D01*
X026990Y012960D01*
X027145Y012806D01*
X027383Y012707D01*
X027641Y012707D01*
X027862Y012799D01*
X027947Y012594D01*
X028129Y012412D01*
X028368Y012313D01*
X028625Y012313D01*
X028864Y012412D01*
X029046Y012594D01*
X029145Y012832D01*
X029145Y013090D01*
X029046Y013329D01*
X028996Y013378D01*
X028996Y014132D01*
X029933Y015069D01*
X030003Y015069D01*
X030242Y015168D01*
X030424Y015350D01*
X030523Y015588D01*
X030523Y015846D01*
X030424Y016084D01*
X030242Y016267D01*
X030003Y016365D01*
X029932Y016365D01*
X029932Y016437D01*
X029833Y016675D01*
X029651Y016857D01*
X029413Y016956D01*
X029341Y016956D01*
X029341Y017027D01*
X029243Y017266D01*
X029060Y017448D01*
X028822Y017547D01*
X028751Y017547D01*
X028751Y017618D01*
X028652Y017856D01*
X028470Y018038D01*
X028232Y018137D01*
X028160Y018137D01*
X028160Y018208D01*
X028062Y018447D01*
X027930Y018578D01*
X028162Y018809D01*
X028232Y018809D01*
X028470Y018908D01*
X028652Y019090D01*
X028751Y019329D01*
X028751Y019548D01*
X035132Y019548D01*
X035132Y019525D01*
X035230Y019287D01*
X035280Y019238D01*
X035280Y018374D01*
X035356Y018190D01*
X035497Y018049D01*
X036916Y016630D01*
X036764Y016478D01*
X036764Y016338D01*
X037144Y016338D01*
X037144Y016278D01*
X037204Y016278D01*
X037204Y015898D01*
X037343Y015898D01*
X037496Y016050D01*
X040221Y013325D01*
X040405Y013249D01*
X047017Y013249D01*
X047050Y013169D01*
X047177Y013043D01*
X047342Y012974D01*
X048106Y012974D01*
X048106Y012231D01*
X046056Y010180D01*
X045957Y009941D01*
X045957Y006375D01*
X045947Y006398D01*
X045679Y006666D01*
X045330Y006811D01*
X043947Y006811D01*
X043597Y006666D01*
X043329Y006398D01*
X043184Y006048D01*
X043184Y005670D01*
X043329Y005320D01*
X043569Y005080D01*
X043440Y004950D01*
X041112Y004950D01*
X040983Y005080D01*
X041223Y005320D01*
X041368Y005670D01*
X041368Y006048D01*
X041223Y006398D01*
X040955Y006666D01*
X040605Y006811D01*
X039222Y006811D01*
X038873Y006666D01*
X038605Y006398D01*
X038460Y006048D01*
X038460Y005670D01*
X038605Y005320D01*
X038845Y005080D01*
X038716Y004950D01*
X036388Y004950D01*
X036258Y005080D01*
X036498Y005320D01*
X036643Y005670D01*
X036643Y006048D01*
X036498Y006398D01*
X036231Y006666D01*
X035881Y006811D01*
X035767Y006811D01*
X035899Y006943D01*
X035899Y007531D01*
X035483Y007947D01*
X034895Y007947D01*
X034479Y007531D01*
X034479Y006943D01*
X034611Y006811D01*
X034498Y006811D01*
X034148Y006666D01*
X033880Y006398D01*
X033735Y006048D01*
X033735Y005670D01*
X033880Y005320D01*
X034121Y005080D01*
X033991Y004950D01*
X031663Y004950D01*
X031534Y005080D01*
X031774Y005320D01*
X031919Y005670D01*
X031919Y006048D01*
X031774Y006398D01*
X031506Y006666D01*
X031156Y006811D01*
X031043Y006811D01*
X031175Y006943D01*
X031175Y007531D01*
X030759Y007947D01*
X030171Y007947D01*
X029755Y007531D01*
X029755Y006943D01*
X029887Y006811D01*
X029774Y006811D01*
X029424Y006666D01*
X029156Y006398D01*
X029011Y006048D01*
X029011Y005670D01*
X029156Y005320D01*
X029396Y005080D01*
X029267Y004950D01*
X026939Y004950D01*
X026809Y005080D01*
X027050Y005320D01*
X027194Y005670D01*
X027194Y006048D01*
X027050Y006398D01*
X026782Y006666D01*
X026432Y006811D01*
X026319Y006811D01*
X026451Y006943D01*
X026451Y007531D01*
X026035Y007947D01*
X025446Y007947D01*
X025031Y007531D01*
X025031Y006943D01*
X025162Y006811D01*
X025049Y006811D01*
X024699Y006666D01*
X024432Y006398D01*
X024287Y006048D01*
X024287Y005670D01*
X024432Y005320D01*
X024672Y005080D01*
X024542Y004950D01*
X022214Y004950D01*
X022085Y005080D01*
X022325Y005320D01*
X022470Y005670D01*
X022470Y006048D01*
X022325Y006398D01*
X022057Y006666D01*
X021707Y006811D01*
X021594Y006811D01*
X021726Y006943D01*
X021726Y007531D01*
X021310Y007947D01*
X020722Y007947D01*
X020306Y007531D01*
X020306Y006943D01*
X020438Y006811D01*
X020325Y006811D01*
X019975Y006666D01*
X019707Y006398D01*
X019562Y006048D01*
X019562Y005670D01*
X019707Y005320D01*
X019947Y005080D01*
X019818Y004950D01*
X019304Y004950D01*
X019304Y005610D01*
X019205Y005849D01*
X019022Y006032D01*
X015479Y009575D01*
X015240Y009674D01*
X014118Y009674D01*
X014282Y009838D01*
X014381Y010077D01*
X014381Y010334D01*
X014312Y010501D01*
X014381Y010667D01*
X014381Y010925D01*
X014312Y011091D01*
X014381Y011258D01*
X014381Y011516D01*
X014312Y011682D01*
X014381Y011848D01*
X014381Y012106D01*
X014312Y012272D01*
X014381Y012439D01*
X014381Y012697D01*
X014282Y012935D01*
X014100Y013117D01*
X013862Y013216D01*
X013604Y013216D01*
X013366Y013117D01*
X013183Y012935D01*
X013085Y012697D01*
X013085Y012439D01*
X013153Y012272D01*
X013085Y012106D01*
X013085Y011848D01*
X013153Y011682D01*
X013085Y011516D01*
X013085Y011258D01*
X013153Y011091D01*
X013085Y010925D01*
X013085Y010667D01*
X013153Y010501D01*
X013085Y010334D01*
X013085Y010077D01*
X013183Y009838D01*
X013347Y009674D01*
X010651Y009674D01*
X010412Y009575D01*
X010229Y009393D01*
X010130Y009154D01*
X010130Y008895D01*
X010229Y008656D01*
X010412Y008473D01*
X010651Y008374D01*
X014841Y008374D01*
X016405Y006811D01*
X015600Y006811D01*
X015251Y006666D01*
X014983Y006398D01*
X014838Y006048D01*
X014838Y005670D01*
X014983Y005320D01*
X015223Y005080D01*
X014983Y004839D01*
X014838Y004489D01*
X014838Y004111D01*
X014983Y003761D01*
X015251Y003493D01*
X015576Y003358D01*
X015501Y003327D01*
X015427Y003284D01*
X015359Y003232D01*
X015299Y003172D01*
X015247Y003104D01*
X015204Y003030D01*
X015171Y002951D01*
X015149Y002868D01*
X015139Y002791D01*
X016242Y002791D01*
X016242Y002691D01*
X016342Y002691D01*
X016342Y002791D01*
X017445Y002791D01*
X017435Y002868D01*
X017412Y002951D01*
X017380Y003030D01*
X017337Y003104D01*
X017285Y003172D01*
X017224Y003232D01*
X017157Y003284D01*
X017083Y003327D01*
X017007Y003358D01*
X017333Y003493D01*
X017601Y003761D01*
X017746Y004111D01*
X017746Y004489D01*
X017601Y004839D01*
X017360Y005080D01*
X017601Y005320D01*
X017687Y005529D01*
X018004Y005212D01*
X018004Y004171D01*
X018103Y003932D01*
X018286Y003749D01*
X018525Y003650D01*
X019818Y003650D01*
X019975Y003493D01*
X020300Y003358D01*
X020225Y003327D01*
X020151Y003284D01*
X020083Y003232D01*
X020023Y003172D01*
X019971Y003104D01*
X019928Y003030D01*
X019895Y002951D01*
X019873Y002868D01*
X019863Y002791D01*
X020966Y002791D01*
X020966Y002691D01*
X019863Y002691D01*
X019873Y002613D01*
X019895Y002531D01*
X019928Y002452D01*
X019971Y002378D01*
X020023Y002310D01*
X020083Y002250D01*
X020151Y002198D01*
X020225Y002155D01*
X020304Y002122D01*
X020387Y002100D01*
X020471Y002089D01*
X020966Y002089D01*
X020966Y002691D01*
X021066Y002691D01*
X021066Y002089D01*
X021561Y002089D01*
X021646Y002100D01*
X021728Y002122D01*
X021807Y002155D01*
X021881Y002198D01*
X021949Y002250D01*
X022009Y002310D01*
X022061Y002378D01*
X022104Y002452D01*
X022137Y002531D01*
X022159Y002613D01*
X022169Y002691D01*
X021066Y002691D01*
X021066Y002791D01*
X022169Y002791D01*
X022159Y002868D01*
X022137Y002951D01*
X022104Y003030D01*
X022061Y003104D01*
X022009Y003172D01*
X021949Y003232D01*
X021881Y003284D01*
X021807Y003327D01*
X021732Y003358D01*
X022057Y003493D01*
X022214Y003650D01*
X024542Y003650D01*
X024699Y003493D01*
X025025Y003358D01*
X024950Y003327D01*
X024876Y003284D01*
X024808Y003232D01*
X024747Y003172D01*
X024695Y003104D01*
X024653Y003030D01*
X024620Y002951D01*
X024598Y002868D01*
X024588Y002791D01*
X025691Y002791D01*
X025691Y002691D01*
X025791Y002691D01*
X025791Y002791D01*
X026894Y002791D01*
X026883Y002868D01*
X026861Y002951D01*
X026829Y003030D01*
X026786Y003104D01*
X026734Y003172D01*
X026673Y003232D01*
X026606Y003284D01*
X026531Y003327D01*
X026456Y003358D01*
X026782Y003493D01*
X026939Y003650D01*
X029267Y003650D01*
X029424Y003493D01*
X029749Y003358D01*
X029674Y003327D01*
X029600Y003284D01*
X029532Y003232D01*
X029472Y003172D01*
X029420Y003104D01*
X029377Y003030D01*
X029344Y002951D01*
X029322Y002868D01*
X029312Y002791D01*
X030415Y002791D01*
X030415Y002691D01*
X029312Y002691D01*
X029322Y002613D01*
X029344Y002531D01*
X029377Y002452D01*
X029420Y002378D01*
X029472Y002310D01*
X029532Y002250D01*
X029600Y002198D01*
X029674Y002155D01*
X029753Y002122D01*
X029836Y002100D01*
X029920Y002089D01*
X030415Y002089D01*
X030415Y002691D01*
X030515Y002691D01*
X030515Y002791D01*
X031618Y002791D01*
X031608Y002868D01*
X031586Y002951D01*
X031553Y003030D01*
X031510Y003104D01*
X031458Y003172D01*
X031398Y003232D01*
X031330Y003284D01*
X031256Y003327D01*
X031181Y003358D01*
X031506Y003493D01*
X031663Y003650D01*
X033991Y003650D01*
X034148Y003493D01*
X034474Y003358D01*
X034398Y003327D01*
X034324Y003284D01*
X034257Y003232D01*
X034196Y003172D01*
X034144Y003104D01*
X034101Y003030D01*
X034069Y002951D01*
X034047Y002868D01*
X034036Y002791D01*
X035139Y002791D01*
X035139Y002691D01*
X034036Y002691D01*
X034047Y002613D01*
X034069Y002531D01*
X034101Y002452D01*
X034144Y002378D01*
X034196Y002310D01*
X034257Y002250D01*
X034324Y002198D01*
X034398Y002155D01*
X034477Y002122D01*
X034560Y002100D01*
X034645Y002089D01*
X035139Y002089D01*
X035139Y002691D01*
X035239Y002691D01*
X035239Y002089D01*
X035734Y002089D01*
X035819Y002100D01*
X035901Y002122D01*
X035980Y002155D01*
X036054Y002198D01*
X036122Y002250D01*
X036183Y002310D01*
X036235Y002378D01*
X036277Y002452D01*
X036310Y002531D01*
X036332Y002613D01*
X036342Y002691D01*
X035239Y002691D01*
X035239Y002791D01*
X036342Y002791D01*
X036332Y002868D01*
X036310Y002951D01*
X036277Y003030D01*
X036235Y003104D01*
X036183Y003172D01*
X036122Y003232D01*
X036054Y003284D01*
X035980Y003327D01*
X035905Y003358D01*
X036231Y003493D01*
X036388Y003650D01*
X038716Y003650D01*
X038873Y003493D01*
X039198Y003358D01*
X039123Y003327D01*
X039049Y003284D01*
X038981Y003232D01*
X038921Y003172D01*
X038869Y003104D01*
X038826Y003030D01*
X038793Y002951D01*
X038771Y002868D01*
X038761Y002791D01*
X039864Y002791D01*
X039864Y002691D01*
X039964Y002691D01*
X039964Y002791D01*
X041067Y002791D01*
X041057Y002868D01*
X041034Y002951D01*
X041002Y003030D01*
X040959Y003104D01*
X040907Y003172D01*
X040847Y003232D01*
X040779Y003284D01*
X040705Y003327D01*
X040629Y003358D01*
X040955Y003493D01*
X041112Y003650D01*
X043440Y003650D01*
X043597Y003493D01*
X043923Y003358D01*
X043847Y003327D01*
X043773Y003284D01*
X043705Y003232D01*
X043645Y003172D01*
X043593Y003104D01*
X043550Y003030D01*
X043518Y002951D01*
X043495Y002868D01*
X043485Y002791D01*
X044588Y002791D01*
X044588Y002691D01*
X043485Y002691D01*
X043495Y002613D01*
X043518Y002531D01*
X043550Y002452D01*
X043593Y002378D01*
X043645Y002310D01*
X043705Y002250D01*
X043773Y002198D01*
X043847Y002155D01*
X043926Y002122D01*
X044009Y002100D01*
X044093Y002089D01*
X044588Y002089D01*
X044588Y002691D01*
X044688Y002691D01*
X044688Y002089D01*
X045183Y002089D01*
X045268Y002100D01*
X045350Y002122D01*
X045429Y002155D01*
X045503Y002198D01*
X045571Y002250D01*
X045631Y002310D01*
X045683Y002378D01*
X045726Y002452D01*
X045759Y002531D01*
X045781Y002613D01*
X045791Y002691D01*
X044688Y002691D01*
X044688Y002791D01*
X045791Y002791D01*
X045781Y002868D01*
X045759Y002951D01*
X045726Y003030D01*
X045683Y003104D01*
X045631Y003172D01*
X045571Y003232D01*
X045503Y003284D01*
X045429Y003327D01*
X045354Y003358D01*
X045679Y003493D01*
X045693Y003507D01*
X047388Y001812D01*
X047627Y001713D01*
X048164Y001713D01*
X048321Y001556D01*
X048671Y001411D01*
X048349Y001545D02*
X002081Y001545D01*
X002122Y001643D02*
X048234Y001643D01*
X047558Y001742D02*
X002163Y001742D01*
X002175Y001840D02*
X047360Y001840D01*
X047261Y001939D02*
X002175Y001939D01*
X002175Y002037D02*
X047163Y002037D01*
X047064Y002136D02*
X045383Y002136D01*
X045551Y002234D02*
X046966Y002234D01*
X046867Y002333D02*
X045649Y002333D01*
X045714Y002431D02*
X046769Y002431D01*
X046670Y002530D02*
X045758Y002530D01*
X045783Y002628D02*
X046572Y002628D01*
X046473Y002727D02*
X044688Y002727D01*
X044688Y002628D02*
X044588Y002628D01*
X044588Y002530D02*
X044688Y002530D01*
X044688Y002431D02*
X044588Y002431D01*
X044588Y002333D02*
X044688Y002333D01*
X044688Y002234D02*
X044588Y002234D01*
X044588Y002136D02*
X044688Y002136D01*
X044588Y002727D02*
X039964Y002727D01*
X039964Y002691D02*
X041067Y002691D01*
X041057Y002613D01*
X041034Y002531D01*
X041002Y002452D01*
X040959Y002378D01*
X040907Y002310D01*
X040847Y002250D01*
X040779Y002198D01*
X040705Y002155D01*
X040626Y002122D01*
X040543Y002100D01*
X040458Y002089D01*
X039964Y002089D01*
X039964Y002691D01*
X039964Y002628D02*
X039864Y002628D01*
X039864Y002691D02*
X039864Y002089D01*
X039369Y002089D01*
X039284Y002100D01*
X039202Y002122D01*
X039123Y002155D01*
X039049Y002198D01*
X038981Y002250D01*
X038921Y002310D01*
X038869Y002378D01*
X038826Y002452D01*
X038793Y002531D01*
X038771Y002613D01*
X038761Y002691D01*
X039864Y002691D01*
X039864Y002727D02*
X035239Y002727D01*
X035239Y002628D02*
X035139Y002628D01*
X035139Y002530D02*
X035239Y002530D01*
X035239Y002431D02*
X035139Y002431D01*
X035139Y002333D02*
X035239Y002333D01*
X035239Y002234D02*
X035139Y002234D01*
X035139Y002136D02*
X035239Y002136D01*
X035139Y002727D02*
X030515Y002727D01*
X030515Y002691D02*
X031618Y002691D01*
X031608Y002613D01*
X031586Y002531D01*
X031553Y002452D01*
X031510Y002378D01*
X031458Y002310D01*
X031398Y002250D01*
X031330Y002198D01*
X031256Y002155D01*
X031177Y002122D01*
X031094Y002100D01*
X031010Y002089D01*
X030515Y002089D01*
X030515Y002691D01*
X030515Y002628D02*
X030415Y002628D01*
X030415Y002530D02*
X030515Y002530D01*
X030515Y002431D02*
X030415Y002431D01*
X030415Y002333D02*
X030515Y002333D01*
X030515Y002234D02*
X030415Y002234D01*
X030415Y002136D02*
X030515Y002136D01*
X030415Y002727D02*
X025791Y002727D01*
X025791Y002691D02*
X026894Y002691D01*
X026883Y002613D01*
X026861Y002531D01*
X026829Y002452D01*
X026786Y002378D01*
X026734Y002310D01*
X026673Y002250D01*
X026606Y002198D01*
X026531Y002155D01*
X026453Y002122D01*
X026370Y002100D01*
X026285Y002089D01*
X025791Y002089D01*
X025791Y002691D01*
X025791Y002628D02*
X025691Y002628D01*
X025691Y002691D02*
X025691Y002089D01*
X025196Y002089D01*
X025111Y002100D01*
X025029Y002122D01*
X024950Y002155D01*
X024876Y002198D01*
X024808Y002250D01*
X024747Y002310D01*
X024695Y002378D01*
X024653Y002452D01*
X024620Y002531D01*
X024598Y002613D01*
X024588Y002691D01*
X025691Y002691D01*
X025691Y002727D02*
X021066Y002727D01*
X021066Y002628D02*
X020966Y002628D01*
X020966Y002530D02*
X021066Y002530D01*
X021066Y002431D02*
X020966Y002431D01*
X020966Y002333D02*
X021066Y002333D01*
X021066Y002234D02*
X020966Y002234D01*
X020966Y002136D02*
X021066Y002136D01*
X020966Y002727D02*
X016342Y002727D01*
X016342Y002691D02*
X017445Y002691D01*
X017435Y002613D01*
X017412Y002531D01*
X017380Y002452D01*
X017337Y002378D01*
X017285Y002310D01*
X017224Y002250D01*
X017157Y002198D01*
X017083Y002155D01*
X017004Y002122D01*
X016921Y002100D01*
X016836Y002089D01*
X016342Y002089D01*
X016342Y002691D01*
X016342Y002628D02*
X016242Y002628D01*
X016242Y002691D02*
X016242Y002089D01*
X015747Y002089D01*
X015662Y002100D01*
X015580Y002122D01*
X015501Y002155D01*
X015427Y002198D01*
X015359Y002250D01*
X015299Y002310D01*
X015247Y002378D01*
X015204Y002452D01*
X015171Y002531D01*
X015149Y002613D01*
X015139Y002691D01*
X016242Y002691D01*
X016242Y002727D02*
X011617Y002727D01*
X011617Y002691D02*
X011617Y002791D01*
X012720Y002791D01*
X012710Y002868D01*
X012688Y002951D01*
X012655Y003030D01*
X012613Y003104D01*
X012561Y003172D01*
X012500Y003232D01*
X012432Y003284D01*
X012358Y003327D01*
X012283Y003358D01*
X012609Y003493D01*
X012876Y003761D01*
X013021Y004111D01*
X013021Y004489D01*
X012876Y004839D01*
X012636Y005080D01*
X012876Y005320D01*
X013021Y005670D01*
X013021Y006048D01*
X012876Y006398D01*
X012609Y006666D01*
X012259Y006811D01*
X010876Y006811D01*
X010526Y006666D01*
X010258Y006398D01*
X010113Y006048D01*
X010113Y005670D01*
X010258Y005320D01*
X010499Y005080D01*
X010258Y004839D01*
X010113Y004489D01*
X010113Y004111D01*
X010258Y003761D01*
X010526Y003493D01*
X010852Y003358D01*
X010776Y003327D01*
X010702Y003284D01*
X010635Y003232D01*
X010574Y003172D01*
X010522Y003104D01*
X010479Y003030D01*
X010447Y002951D01*
X010425Y002868D01*
X010414Y002791D01*
X011517Y002791D01*
X011517Y002691D01*
X010414Y002691D01*
X010425Y002613D01*
X010447Y002531D01*
X010479Y002452D01*
X010522Y002378D01*
X010574Y002310D01*
X010635Y002250D01*
X010702Y002198D01*
X010776Y002155D01*
X010855Y002122D01*
X010938Y002100D01*
X011023Y002089D01*
X011517Y002089D01*
X011517Y002691D01*
X011617Y002691D01*
X011617Y002089D01*
X012112Y002089D01*
X012197Y002100D01*
X012279Y002122D01*
X012358Y002155D01*
X012432Y002198D01*
X012500Y002250D01*
X012561Y002310D01*
X012613Y002378D01*
X012655Y002452D01*
X012688Y002531D01*
X012710Y002613D01*
X012720Y002691D01*
X011617Y002691D01*
X011617Y002628D02*
X011517Y002628D01*
X011517Y002530D02*
X011617Y002530D01*
X011617Y002431D02*
X011517Y002431D01*
X011517Y002333D02*
X011617Y002333D01*
X011617Y002234D02*
X011517Y002234D01*
X011517Y002136D02*
X011617Y002136D01*
X011517Y002727D02*
X005251Y002727D01*
X005229Y002704D02*
X005289Y002765D01*
X005339Y002834D01*
X005378Y002910D01*
X005405Y002992D01*
X005417Y003070D01*
X004529Y003070D01*
X004529Y002575D01*
X004917Y002575D01*
X005002Y002589D01*
X005083Y002615D01*
X005159Y002654D01*
X005229Y002704D01*
X005109Y002628D02*
X010423Y002628D01*
X010447Y002530D02*
X001932Y002530D01*
X001834Y002628D02*
X003852Y002628D01*
X003878Y002615D02*
X003960Y002589D01*
X004044Y002575D01*
X004432Y002575D01*
X004432Y003070D01*
X004529Y003070D01*
X004529Y003167D01*
X005417Y003167D01*
X005405Y003246D01*
X005378Y003328D01*
X005339Y003404D01*
X005289Y003473D01*
X005229Y003534D01*
X005159Y003584D01*
X005083Y003623D01*
X005002Y003649D01*
X004917Y003663D01*
X004529Y003663D01*
X004529Y003167D01*
X004432Y003167D01*
X004432Y003070D01*
X003544Y003070D01*
X003557Y002992D01*
X003583Y002910D01*
X003622Y002834D01*
X003672Y002765D01*
X003733Y002704D01*
X003802Y002654D01*
X003878Y002615D01*
X003710Y002727D02*
X001631Y002727D01*
X002031Y002431D02*
X010491Y002431D01*
X010557Y002333D02*
X002081Y002333D01*
X002122Y002234D02*
X010655Y002234D01*
X010823Y002136D02*
X002162Y002136D01*
X003628Y002825D02*
X000600Y002825D01*
X000600Y002727D02*
X001031Y002727D01*
X000828Y002628D02*
X000600Y002628D01*
X000600Y002530D02*
X000730Y002530D01*
X000631Y002431D02*
X000600Y002431D01*
X000600Y002924D02*
X003579Y002924D01*
X003552Y003022D02*
X000600Y003022D01*
X000600Y003121D02*
X004432Y003121D01*
X004432Y003167D02*
X003544Y003167D01*
X003557Y003246D01*
X003583Y003328D01*
X003622Y003404D01*
X003672Y003473D01*
X003733Y003534D01*
X003802Y003584D01*
X003878Y003623D01*
X003960Y003649D01*
X004044Y003663D01*
X004432Y003663D01*
X004432Y003167D01*
X004432Y003219D02*
X004529Y003219D01*
X004529Y003121D02*
X010535Y003121D01*
X010476Y003022D02*
X005410Y003022D01*
X005383Y002924D02*
X010439Y002924D01*
X010419Y002825D02*
X005333Y002825D01*
X005409Y003219D02*
X010622Y003219D01*
X010760Y003318D02*
X005381Y003318D01*
X005330Y003416D02*
X006135Y003416D01*
X006162Y003402D02*
X006243Y003376D01*
X006322Y003363D01*
X006322Y004252D01*
X005827Y004252D01*
X005827Y003864D01*
X005840Y003779D01*
X005867Y003698D01*
X005905Y003621D01*
X005956Y003552D01*
X006016Y003492D01*
X006086Y003441D01*
X006162Y003402D01*
X006322Y003416D02*
X006419Y003416D01*
X006419Y003363D02*
X006498Y003376D01*
X006579Y003402D01*
X006655Y003441D01*
X006725Y003492D01*
X006785Y003552D01*
X006835Y003621D01*
X006874Y003698D01*
X006901Y003779D01*
X006914Y003864D01*
X006914Y004252D01*
X006419Y004252D01*
X006419Y004348D01*
X006914Y004348D01*
X006914Y004736D01*
X006901Y004821D01*
X006874Y004902D01*
X006835Y004979D01*
X006785Y005048D01*
X006725Y005108D01*
X006655Y005159D01*
X006579Y005198D01*
X006498Y005224D01*
X006419Y005237D01*
X006419Y004348D01*
X006322Y004348D01*
X006322Y004252D01*
X006419Y004252D01*
X006419Y003363D01*
X006419Y003515D02*
X006322Y003515D01*
X006322Y003613D02*
X006419Y003613D01*
X006419Y003712D02*
X006322Y003712D01*
X006322Y003810D02*
X006419Y003810D01*
X006419Y003909D02*
X006322Y003909D01*
X006322Y004007D02*
X006419Y004007D01*
X006419Y004106D02*
X006322Y004106D01*
X006322Y004204D02*
X006419Y004204D01*
X006419Y004303D02*
X010113Y004303D01*
X010113Y004401D02*
X006914Y004401D01*
X006914Y004500D02*
X010118Y004500D01*
X010158Y004598D02*
X006914Y004598D01*
X006914Y004697D02*
X010199Y004697D01*
X010240Y004795D02*
X006905Y004795D01*
X006877Y004894D02*
X010313Y004894D01*
X010411Y004992D02*
X008358Y004992D01*
X008318Y004952D02*
X008734Y005368D01*
X008734Y005956D01*
X008318Y006372D01*
X007730Y006372D01*
X007314Y005956D01*
X007314Y005368D01*
X007730Y004952D01*
X008318Y004952D01*
X008457Y005091D02*
X010487Y005091D01*
X010389Y005189D02*
X008555Y005189D01*
X008654Y005288D02*
X010290Y005288D01*
X010231Y005386D02*
X008734Y005386D01*
X008734Y005485D02*
X010190Y005485D01*
X010149Y005583D02*
X008734Y005583D01*
X008734Y005682D02*
X010113Y005682D01*
X010113Y005780D02*
X008734Y005780D01*
X008734Y005879D02*
X010113Y005879D01*
X010113Y005977D02*
X008713Y005977D01*
X008615Y006076D02*
X010125Y006076D01*
X010165Y006174D02*
X008516Y006174D01*
X008418Y006273D02*
X010206Y006273D01*
X010247Y006371D02*
X008319Y006371D01*
X007729Y006371D02*
X000600Y006371D01*
X000600Y006273D02*
X003698Y006273D01*
X003609Y006236D02*
X003372Y005998D01*
X003243Y005688D01*
X003243Y005353D01*
X003372Y005043D01*
X003609Y004805D01*
X003919Y004677D01*
X005042Y004677D01*
X005352Y004805D01*
X005590Y005043D01*
X005718Y005353D01*
X005718Y005688D01*
X005590Y005998D01*
X005352Y006236D01*
X005042Y006364D01*
X003919Y006364D01*
X003609Y006236D01*
X003548Y006174D02*
X000600Y006174D01*
X000600Y006076D02*
X003449Y006076D01*
X003363Y005977D02*
X000600Y005977D01*
X000600Y005879D02*
X003322Y005879D01*
X003281Y005780D02*
X000600Y005780D01*
X000600Y005682D02*
X003243Y005682D01*
X003243Y005583D02*
X000600Y005583D01*
X000600Y005485D02*
X003243Y005485D01*
X003243Y005386D02*
X000600Y005386D01*
X000600Y005288D02*
X003270Y005288D01*
X003311Y005189D02*
X000600Y005189D01*
X000600Y005091D02*
X003352Y005091D01*
X003422Y004992D02*
X000600Y004992D01*
X000600Y004894D02*
X003521Y004894D01*
X003633Y004795D02*
X000600Y004795D01*
X000600Y004697D02*
X003871Y004697D01*
X005090Y004697D02*
X005827Y004697D01*
X005827Y004736D02*
X005827Y004348D01*
X006322Y004348D01*
X006322Y005237D01*
X006243Y005224D01*
X006162Y005198D01*
X006086Y005159D01*
X006016Y005108D01*
X005956Y005048D01*
X005905Y004979D01*
X005867Y004902D01*
X005840Y004821D01*
X005827Y004736D01*
X005836Y004795D02*
X005328Y004795D01*
X005441Y004894D02*
X005864Y004894D01*
X005915Y004992D02*
X005539Y004992D01*
X005610Y005091D02*
X005999Y005091D01*
X006145Y005189D02*
X005650Y005189D01*
X005691Y005288D02*
X007394Y005288D01*
X007314Y005386D02*
X005718Y005386D01*
X005718Y005485D02*
X007314Y005485D01*
X007314Y005583D02*
X005718Y005583D01*
X005718Y005682D02*
X007314Y005682D01*
X007314Y005780D02*
X005680Y005780D01*
X005639Y005879D02*
X007314Y005879D01*
X007335Y005977D02*
X005598Y005977D01*
X005512Y006076D02*
X007433Y006076D01*
X007532Y006174D02*
X005414Y006174D01*
X005263Y006273D02*
X007630Y006273D01*
X007730Y006952D02*
X008318Y006952D01*
X008734Y007368D01*
X008734Y007956D01*
X008318Y008372D01*
X007730Y008372D01*
X007314Y007956D01*
X007314Y007368D01*
X007730Y006952D01*
X007720Y006962D02*
X000600Y006962D01*
X000600Y006864D02*
X016352Y006864D01*
X016254Y006962D02*
X008328Y006962D01*
X008427Y007061D02*
X016155Y007061D01*
X016057Y007159D02*
X008525Y007159D01*
X008624Y007258D02*
X015958Y007258D01*
X015860Y007356D02*
X008722Y007356D01*
X008734Y007455D02*
X015761Y007455D01*
X015663Y007553D02*
X008734Y007553D01*
X008734Y007652D02*
X015564Y007652D01*
X015466Y007750D02*
X008734Y007750D01*
X008734Y007849D02*
X015367Y007849D01*
X015269Y007947D02*
X008734Y007947D01*
X008645Y008046D02*
X015170Y008046D01*
X015072Y008144D02*
X008546Y008144D01*
X008448Y008243D02*
X014973Y008243D01*
X014875Y008341D02*
X008349Y008341D01*
X007699Y008341D02*
X006178Y008341D01*
X006080Y008243D02*
X007600Y008243D01*
X007502Y008144D02*
X005981Y008144D01*
X005883Y008046D02*
X007403Y008046D01*
X007314Y007947D02*
X005784Y007947D01*
X005686Y007849D02*
X007314Y007849D01*
X007314Y007750D02*
X005587Y007750D01*
X005489Y007652D02*
X007314Y007652D01*
X007314Y007553D02*
X005390Y007553D01*
X005358Y007520D02*
X006628Y008791D01*
X006816Y008869D01*
X006999Y009051D01*
X007097Y009289D01*
X007097Y009547D01*
X006999Y009785D01*
X006816Y009968D01*
X006578Y010066D01*
X006320Y010066D01*
X006231Y010029D01*
X006231Y010336D01*
X006117Y010611D01*
X005906Y010822D01*
X005630Y010937D01*
X005332Y010937D01*
X005056Y010822D01*
X004845Y010611D01*
X004800Y010504D01*
X004774Y010530D01*
X004717Y010571D01*
X004653Y010604D01*
X004586Y010626D01*
X004531Y010634D01*
X004531Y009937D01*
X004431Y009937D01*
X004431Y010634D01*
X004375Y010626D01*
X004308Y010604D01*
X004245Y010571D01*
X004188Y010530D01*
X004161Y010504D01*
X004117Y010611D01*
X003906Y010822D01*
X003630Y010937D01*
X003332Y010937D01*
X003056Y010822D01*
X002845Y010611D01*
X002731Y010336D01*
X002731Y009943D01*
X001635Y008847D01*
X001549Y008638D01*
X001549Y007730D01*
X001635Y007520D01*
X001796Y007360D01*
X002005Y007273D01*
X004988Y007273D01*
X005197Y007360D01*
X005358Y007520D01*
X005292Y007455D02*
X007314Y007455D01*
X007326Y007356D02*
X005188Y007356D01*
X004638Y008413D02*
X002814Y008413D01*
X003265Y008864D01*
X003332Y008837D01*
X003630Y008837D01*
X003906Y008951D01*
X004117Y009162D01*
X004161Y009270D01*
X004188Y009243D01*
X004245Y009202D01*
X004308Y009170D01*
X004375Y009148D01*
X004431Y009139D01*
X004431Y009837D01*
X004531Y009837D01*
X004531Y009139D01*
X004586Y009148D01*
X004653Y009170D01*
X004717Y009202D01*
X004774Y009243D01*
X004800Y009270D01*
X004845Y009162D01*
X005056Y008951D01*
X005141Y008916D01*
X004638Y008413D01*
X004665Y008440D02*
X002840Y008440D01*
X002938Y008538D02*
X004763Y008538D01*
X004862Y008637D02*
X003037Y008637D01*
X003135Y008735D02*
X004960Y008735D01*
X005059Y008834D02*
X003234Y008834D01*
X003861Y008932D02*
X005101Y008932D01*
X004976Y009031D02*
X003985Y009031D01*
X004084Y009129D02*
X004877Y009129D01*
X004818Y009228D02*
X004752Y009228D01*
X004531Y009228D02*
X004431Y009228D01*
X004431Y009326D02*
X004531Y009326D01*
X004531Y009425D02*
X004431Y009425D01*
X004431Y009523D02*
X004531Y009523D01*
X004531Y009622D02*
X004431Y009622D01*
X004431Y009720D02*
X004531Y009720D01*
X004531Y009819D02*
X004431Y009819D01*
X004431Y010016D02*
X004531Y010016D01*
X004531Y010114D02*
X004431Y010114D01*
X004431Y010213D02*
X004531Y010213D01*
X004531Y010311D02*
X004431Y010311D01*
X004431Y010410D02*
X004531Y010410D01*
X004531Y010508D02*
X004431Y010508D01*
X004431Y010607D02*
X004531Y010607D01*
X004644Y010607D02*
X004843Y010607D01*
X004802Y010508D02*
X004795Y010508D01*
X004939Y010705D02*
X004023Y010705D01*
X004118Y010607D02*
X004317Y010607D01*
X004166Y010508D02*
X004159Y010508D01*
X003924Y010804D02*
X005037Y010804D01*
X005248Y010902D02*
X003713Y010902D01*
X003248Y010902D02*
X000600Y010902D01*
X000600Y010804D02*
X003037Y010804D01*
X002939Y010705D02*
X000600Y010705D01*
X000600Y010607D02*
X002843Y010607D01*
X002802Y010508D02*
X000600Y010508D01*
X000600Y010410D02*
X002761Y010410D01*
X002731Y010311D02*
X000600Y010311D01*
X000600Y010213D02*
X002731Y010213D01*
X002731Y010114D02*
X000600Y010114D01*
X000600Y010016D02*
X002731Y010016D01*
X002705Y009917D02*
X000600Y009917D01*
X000600Y009819D02*
X002607Y009819D01*
X002508Y009720D02*
X000600Y009720D01*
X000600Y009622D02*
X002410Y009622D01*
X002311Y009523D02*
X000600Y009523D01*
X000600Y009425D02*
X002213Y009425D01*
X002114Y009326D02*
X000600Y009326D01*
X000600Y009228D02*
X002016Y009228D01*
X001917Y009129D02*
X000600Y009129D01*
X000600Y009031D02*
X001819Y009031D01*
X001720Y008932D02*
X000600Y008932D01*
X000600Y008834D02*
X001630Y008834D01*
X001589Y008735D02*
X000600Y008735D01*
X000600Y008637D02*
X001549Y008637D01*
X001549Y008538D02*
X000600Y008538D01*
X000600Y008440D02*
X001549Y008440D01*
X001549Y008341D02*
X000600Y008341D01*
X000600Y008243D02*
X001549Y008243D01*
X001549Y008144D02*
X000600Y008144D01*
X000600Y008046D02*
X001549Y008046D01*
X001549Y007947D02*
X000600Y007947D01*
X000600Y007849D02*
X001549Y007849D01*
X001549Y007750D02*
X000600Y007750D01*
X000600Y007652D02*
X001581Y007652D01*
X001622Y007553D02*
X000600Y007553D01*
X000600Y007455D02*
X001701Y007455D01*
X001805Y007356D02*
X000600Y007356D01*
X000600Y007258D02*
X007424Y007258D01*
X007523Y007159D02*
X000600Y007159D01*
X000600Y007061D02*
X007621Y007061D01*
X006277Y008440D02*
X010493Y008440D01*
X010347Y008538D02*
X006375Y008538D01*
X006474Y008637D02*
X010248Y008637D01*
X010196Y008735D02*
X006572Y008735D01*
X006732Y008834D02*
X010155Y008834D01*
X010130Y008932D02*
X006880Y008932D01*
X006978Y009031D02*
X010130Y009031D01*
X010130Y009129D02*
X007031Y009129D01*
X007072Y009228D02*
X010161Y009228D01*
X010201Y009326D02*
X007097Y009326D01*
X007097Y009425D02*
X010261Y009425D01*
X010359Y009523D02*
X007097Y009523D01*
X007066Y009622D02*
X010523Y009622D01*
X013085Y010114D02*
X006231Y010114D01*
X006231Y010213D02*
X013085Y010213D01*
X013085Y010311D02*
X006231Y010311D01*
X006200Y010410D02*
X013116Y010410D01*
X013150Y010508D02*
X006159Y010508D01*
X006118Y010607D02*
X013110Y010607D01*
X013085Y010705D02*
X006023Y010705D01*
X005924Y010804D02*
X013085Y010804D01*
X013085Y010902D02*
X005713Y010902D01*
X006700Y010016D02*
X013110Y010016D01*
X013151Y009917D02*
X006867Y009917D01*
X006965Y009819D02*
X013203Y009819D01*
X013301Y009720D02*
X007026Y009720D01*
X004209Y009228D02*
X004144Y009228D01*
X000600Y011001D02*
X013116Y011001D01*
X013150Y011099D02*
X000600Y011099D01*
X000600Y011198D02*
X013109Y011198D01*
X013085Y011296D02*
X000600Y011296D01*
X000600Y011395D02*
X013085Y011395D01*
X013085Y011493D02*
X000600Y011493D01*
X000600Y011592D02*
X013116Y011592D01*
X013150Y011690D02*
X000600Y011690D01*
X000600Y011789D02*
X013109Y011789D01*
X013085Y011887D02*
X000600Y011887D01*
X000600Y011986D02*
X013085Y011986D01*
X013085Y012084D02*
X000600Y012084D01*
X000600Y012183D02*
X013116Y012183D01*
X013150Y012281D02*
X000600Y012281D01*
X000600Y012380D02*
X013109Y012380D01*
X013085Y012478D02*
X000600Y012478D01*
X000600Y012577D02*
X013085Y012577D01*
X013085Y012675D02*
X000600Y012675D01*
X000600Y012774D02*
X013116Y012774D01*
X013157Y012872D02*
X000600Y012872D01*
X000600Y012971D02*
X013219Y012971D01*
X013318Y013069D02*
X000600Y013069D01*
X000600Y013168D02*
X013488Y013168D01*
X013978Y013168D02*
X023124Y013168D01*
X023124Y013266D02*
X000600Y013266D01*
X000600Y013365D02*
X023156Y013365D01*
X023197Y013463D02*
X000600Y013463D01*
X000600Y013562D02*
X023259Y013562D01*
X023357Y013660D02*
X000600Y013660D01*
X000600Y013759D02*
X003935Y013759D01*
X003670Y013830D02*
X004204Y013687D01*
X004757Y013687D01*
X005291Y013830D01*
X005770Y014106D01*
X006161Y014497D01*
X006438Y014976D01*
X006581Y015510D01*
X006581Y016063D01*
X006438Y016597D01*
X006161Y017076D01*
X005770Y017467D01*
X005291Y017744D01*
X004757Y017887D01*
X004204Y017887D01*
X003670Y017744D01*
X003191Y017467D01*
X002800Y017076D01*
X002524Y016597D01*
X002381Y016063D01*
X002381Y015510D01*
X002524Y014976D01*
X002800Y014497D01*
X003191Y014106D01*
X003670Y013830D01*
X003623Y013857D02*
X000600Y013857D01*
X000600Y013956D02*
X003452Y013956D01*
X003281Y014054D02*
X000600Y014054D01*
X000600Y014153D02*
X003145Y014153D01*
X003046Y014251D02*
X000600Y014251D01*
X000600Y014350D02*
X002948Y014350D01*
X002849Y014448D02*
X000600Y014448D01*
X000600Y014547D02*
X002772Y014547D01*
X002715Y014645D02*
X000600Y014645D01*
X000600Y014744D02*
X002658Y014744D01*
X002601Y014842D02*
X000600Y014842D01*
X000600Y014941D02*
X002544Y014941D01*
X002507Y015039D02*
X000600Y015039D01*
X000600Y015138D02*
X002480Y015138D01*
X002454Y015236D02*
X000600Y015236D01*
X000600Y015335D02*
X002428Y015335D01*
X002401Y015433D02*
X000600Y015433D01*
X000600Y015532D02*
X002381Y015532D01*
X002381Y015630D02*
X000600Y015630D01*
X000600Y015729D02*
X002381Y015729D01*
X002381Y015827D02*
X000600Y015827D01*
X000600Y015926D02*
X002381Y015926D01*
X002381Y016024D02*
X000600Y016024D01*
X000600Y016123D02*
X002397Y016123D01*
X002423Y016221D02*
X000600Y016221D01*
X000600Y016320D02*
X002449Y016320D01*
X002476Y016418D02*
X000600Y016418D01*
X000600Y016517D02*
X002502Y016517D01*
X002534Y016615D02*
X000600Y016615D01*
X000600Y016714D02*
X002591Y016714D01*
X002648Y016812D02*
X000600Y016812D01*
X000600Y016911D02*
X002705Y016911D01*
X002762Y017009D02*
X000600Y017009D01*
X000600Y017108D02*
X002832Y017108D01*
X002930Y017206D02*
X000600Y017206D01*
X000600Y017305D02*
X003029Y017305D01*
X003127Y017403D02*
X000600Y017403D01*
X000600Y017502D02*
X003251Y017502D01*
X003422Y017600D02*
X000600Y017600D01*
X000600Y017699D02*
X003593Y017699D01*
X003871Y017797D02*
X000600Y017797D01*
X000600Y017896D02*
X026621Y017896D01*
X026523Y017797D02*
X005091Y017797D01*
X005369Y017699D02*
X026424Y017699D01*
X026326Y017600D02*
X005539Y017600D01*
X005710Y017502D02*
X026227Y017502D01*
X026129Y017403D02*
X005834Y017403D01*
X005932Y017305D02*
X026030Y017305D01*
X025932Y017206D02*
X017201Y017206D01*
X017299Y017108D02*
X025833Y017108D01*
X025735Y017009D02*
X017398Y017009D01*
X017496Y016911D02*
X025636Y016911D01*
X025538Y016812D02*
X017595Y016812D01*
X017608Y016714D02*
X025439Y016714D01*
X025341Y016615D02*
X017608Y016615D01*
X017608Y016517D02*
X025242Y016517D01*
X025144Y016418D02*
X017692Y016418D01*
X017790Y016320D02*
X025045Y016320D01*
X024947Y016221D02*
X017889Y016221D01*
X017987Y016123D02*
X021761Y016123D01*
X021588Y016024D02*
X018086Y016024D01*
X018184Y015926D02*
X019927Y015926D01*
X019828Y015827D02*
X018283Y015827D01*
X018381Y015729D02*
X019730Y015729D01*
X019631Y015630D02*
X018480Y015630D01*
X018578Y015532D02*
X019533Y015532D01*
X019434Y015433D02*
X018677Y015433D01*
X018775Y015335D02*
X019336Y015335D01*
X019237Y015236D02*
X018874Y015236D01*
X018919Y015138D02*
X019003Y015138D01*
X018457Y014946D02*
X016898Y016505D01*
X016398Y017009D02*
X015398Y017009D01*
X015496Y016911D02*
X016300Y016911D01*
X016201Y016812D02*
X015595Y016812D01*
X015608Y016799D02*
X015192Y017215D01*
X014604Y017215D01*
X014188Y016799D01*
X014188Y016211D01*
X014484Y015914D01*
X014188Y015618D01*
X014188Y015030D01*
X014604Y014614D01*
X015192Y014614D01*
X015608Y015030D01*
X015608Y015618D01*
X015312Y015914D01*
X015608Y016211D01*
X015608Y016799D01*
X015608Y016714D02*
X016188Y016714D01*
X016188Y016615D02*
X015608Y016615D01*
X015608Y016517D02*
X016188Y016517D01*
X016188Y016418D02*
X015608Y016418D01*
X015608Y016320D02*
X016188Y016320D01*
X016188Y016221D02*
X015608Y016221D01*
X015520Y016123D02*
X016276Y016123D01*
X016374Y016024D02*
X015422Y016024D01*
X015323Y015926D02*
X016473Y015926D01*
X016398Y015827D02*
X015399Y015827D01*
X015497Y015729D02*
X016299Y015729D01*
X016201Y015630D02*
X015596Y015630D01*
X015608Y015532D02*
X016188Y015532D01*
X016188Y015433D02*
X015608Y015433D01*
X015608Y015335D02*
X016188Y015335D01*
X016188Y015236D02*
X015608Y015236D01*
X015608Y015138D02*
X016188Y015138D01*
X016188Y015039D02*
X015608Y015039D01*
X015519Y014941D02*
X016277Y014941D01*
X016375Y014842D02*
X015421Y014842D01*
X015322Y014744D02*
X016474Y014744D01*
X016572Y014645D02*
X015224Y014645D01*
X014572Y014645D02*
X006247Y014645D01*
X006303Y014744D02*
X014474Y014744D01*
X014375Y014842D02*
X006360Y014842D01*
X006417Y014941D02*
X014277Y014941D01*
X014188Y015039D02*
X006455Y015039D01*
X006481Y015138D02*
X014188Y015138D01*
X014188Y015236D02*
X006507Y015236D01*
X006534Y015335D02*
X014188Y015335D01*
X014188Y015433D02*
X006560Y015433D01*
X006581Y015532D02*
X014188Y015532D01*
X014201Y015630D02*
X006581Y015630D01*
X006581Y015729D02*
X014299Y015729D01*
X014398Y015827D02*
X006581Y015827D01*
X006581Y015926D02*
X014473Y015926D01*
X014374Y016024D02*
X006581Y016024D01*
X006565Y016123D02*
X014276Y016123D01*
X014188Y016221D02*
X006538Y016221D01*
X006512Y016320D02*
X014188Y016320D01*
X014188Y016418D02*
X006486Y016418D01*
X006459Y016517D02*
X014188Y016517D01*
X014188Y016615D02*
X006427Y016615D01*
X006370Y016714D02*
X014188Y016714D01*
X014201Y016812D02*
X006313Y016812D01*
X006257Y016911D02*
X014300Y016911D01*
X014398Y017009D02*
X006200Y017009D01*
X006129Y017108D02*
X014497Y017108D01*
X014595Y017206D02*
X006031Y017206D01*
X006190Y014547D02*
X017809Y014547D01*
X017809Y014645D02*
X017224Y014645D01*
X017322Y014744D02*
X017842Y014744D01*
X017853Y014842D02*
X017421Y014842D01*
X017519Y014941D02*
X017755Y014941D01*
X017656Y015039D02*
X017608Y015039D01*
X017809Y014448D02*
X006112Y014448D01*
X006014Y014350D02*
X017833Y014350D01*
X017874Y014251D02*
X005915Y014251D01*
X005817Y014153D02*
X017924Y014153D01*
X018023Y014054D02*
X005680Y014054D01*
X005510Y013956D02*
X018165Y013956D01*
X018749Y013956D02*
X018952Y013956D01*
X019537Y013956D02*
X023321Y013956D01*
X023321Y014054D02*
X019679Y014054D01*
X019778Y014153D02*
X023353Y014153D01*
X023394Y014251D02*
X019828Y014251D01*
X019869Y014350D02*
X022101Y014350D01*
X021959Y014448D02*
X019893Y014448D01*
X019962Y014547D02*
X021861Y014547D01*
X021811Y014645D02*
X020061Y014645D01*
X020159Y014744D02*
X021770Y014744D01*
X021746Y014842D02*
X020258Y014842D01*
X020356Y014941D02*
X021706Y014941D01*
X022394Y014930D02*
X024363Y014930D01*
X027512Y018080D01*
X027119Y018473D02*
X028103Y019457D01*
X028751Y019472D02*
X035154Y019472D01*
X035195Y019373D02*
X028751Y019373D01*
X028729Y019275D02*
X035243Y019275D01*
X035280Y019176D02*
X028688Y019176D01*
X028640Y019078D02*
X035280Y019078D01*
X035280Y018979D02*
X028541Y018979D01*
X028404Y018881D02*
X035280Y018881D01*
X035280Y018782D02*
X028135Y018782D01*
X028036Y018684D02*
X035280Y018684D01*
X035280Y018585D02*
X027938Y018585D01*
X028022Y018487D02*
X035280Y018487D01*
X035280Y018388D02*
X028086Y018388D01*
X028127Y018290D02*
X035315Y018290D01*
X035356Y018191D02*
X028160Y018191D01*
X028339Y018093D02*
X035453Y018093D01*
X035552Y017994D02*
X028514Y017994D01*
X028613Y017896D02*
X035650Y017896D01*
X035749Y017797D02*
X028677Y017797D01*
X028717Y017699D02*
X035847Y017699D01*
X035946Y017600D02*
X028751Y017600D01*
X028930Y017502D02*
X036044Y017502D01*
X036143Y017403D02*
X029105Y017403D01*
X029204Y017305D02*
X036241Y017305D01*
X036340Y017206D02*
X029267Y017206D01*
X029308Y017108D02*
X036438Y017108D01*
X036537Y017009D02*
X035476Y017009D01*
X035468Y017018D02*
X034880Y017018D01*
X034464Y016602D01*
X034464Y016014D01*
X034662Y015816D01*
X034464Y015618D01*
X034464Y015030D01*
X034662Y014831D01*
X034464Y014633D01*
X034464Y014045D01*
X034662Y013847D01*
X034464Y013649D01*
X034464Y013061D01*
X034880Y012645D01*
X035468Y012645D01*
X035884Y013061D01*
X035884Y013649D01*
X035686Y013847D01*
X035884Y014045D01*
X035884Y014633D01*
X035686Y014831D01*
X035884Y015030D01*
X035884Y015618D01*
X035686Y015816D01*
X035884Y016014D01*
X035884Y016602D01*
X035468Y017018D01*
X035575Y016911D02*
X036635Y016911D01*
X036734Y016812D02*
X035673Y016812D01*
X035772Y016714D02*
X036832Y016714D01*
X036901Y016615D02*
X035870Y016615D01*
X035884Y016517D02*
X036803Y016517D01*
X036764Y016418D02*
X035884Y016418D01*
X035884Y016320D02*
X037144Y016320D01*
X037144Y016278D02*
X036764Y016278D01*
X036764Y016138D01*
X037004Y015898D01*
X037144Y015898D01*
X037144Y016278D01*
X037144Y016221D02*
X037204Y016221D01*
X037204Y016123D02*
X037144Y016123D01*
X037144Y016024D02*
X037204Y016024D01*
X037204Y015926D02*
X037144Y015926D01*
X036976Y015926D02*
X035796Y015926D01*
X035884Y016024D02*
X036877Y016024D01*
X036779Y016123D02*
X035884Y016123D01*
X035884Y016221D02*
X036764Y016221D01*
X037004Y015734D02*
X036764Y015493D01*
X036764Y015354D01*
X037144Y015354D01*
X037144Y015734D01*
X037004Y015734D01*
X036999Y015729D02*
X035773Y015729D01*
X035697Y015827D02*
X037719Y015827D01*
X037817Y015729D02*
X037348Y015729D01*
X037343Y015734D02*
X037204Y015734D01*
X037204Y015354D01*
X037584Y015354D01*
X037584Y015493D01*
X037343Y015734D01*
X037204Y015729D02*
X037144Y015729D01*
X037144Y015630D02*
X037204Y015630D01*
X037204Y015532D02*
X037144Y015532D01*
X037144Y015433D02*
X037204Y015433D01*
X037204Y015354D02*
X037144Y015354D01*
X037144Y015294D01*
X037204Y015294D01*
X037204Y015354D01*
X037204Y015335D02*
X038211Y015335D01*
X038113Y015433D02*
X037584Y015433D01*
X037545Y015532D02*
X038014Y015532D01*
X037916Y015630D02*
X037447Y015630D01*
X037371Y015926D02*
X037620Y015926D01*
X037522Y016024D02*
X037470Y016024D01*
X036900Y015630D02*
X035871Y015630D01*
X035884Y015532D02*
X036802Y015532D01*
X036764Y015433D02*
X035884Y015433D01*
X035884Y015335D02*
X037144Y015335D01*
X037144Y015294D02*
X036764Y015294D01*
X036764Y015154D01*
X037004Y014914D01*
X037144Y014914D01*
X037144Y015294D01*
X037144Y015236D02*
X037204Y015236D01*
X037204Y015294D02*
X037204Y014914D01*
X037343Y014914D01*
X037584Y015154D01*
X037584Y015294D01*
X037204Y015294D01*
X037204Y015138D02*
X037144Y015138D01*
X037144Y015039D02*
X037204Y015039D01*
X037204Y014941D02*
X037144Y014941D01*
X036977Y014941D02*
X035795Y014941D01*
X035884Y015039D02*
X036878Y015039D01*
X036780Y015138D02*
X035884Y015138D01*
X035884Y015236D02*
X036764Y015236D01*
X037004Y014749D02*
X036764Y014509D01*
X036764Y014369D01*
X037144Y014369D01*
X037144Y014309D01*
X037204Y014309D01*
X037204Y014369D01*
X037584Y014369D01*
X037584Y014509D01*
X037343Y014749D01*
X037204Y014749D01*
X037204Y014369D01*
X037144Y014369D01*
X037144Y014749D01*
X037004Y014749D01*
X036998Y014744D02*
X035773Y014744D01*
X035696Y014842D02*
X038704Y014842D01*
X038802Y014744D02*
X037349Y014744D01*
X037448Y014645D02*
X038901Y014645D01*
X038999Y014547D02*
X037546Y014547D01*
X037584Y014448D02*
X039098Y014448D01*
X039196Y014350D02*
X037204Y014350D01*
X037204Y014309D02*
X037584Y014309D01*
X037584Y014170D01*
X037343Y013929D01*
X037204Y013929D01*
X037204Y014309D01*
X037204Y014251D02*
X037144Y014251D01*
X037144Y014309D02*
X037144Y013929D01*
X037004Y013929D01*
X036764Y014170D01*
X036764Y014309D01*
X037144Y014309D01*
X037144Y014350D02*
X035884Y014350D01*
X035884Y014448D02*
X036764Y014448D01*
X036801Y014547D02*
X035884Y014547D01*
X035872Y014645D02*
X036900Y014645D01*
X037144Y014645D02*
X037204Y014645D01*
X037204Y014547D02*
X037144Y014547D01*
X037144Y014448D02*
X037204Y014448D01*
X037204Y014153D02*
X037144Y014153D01*
X037144Y014054D02*
X037204Y014054D01*
X037204Y013956D02*
X037144Y013956D01*
X036977Y013956D02*
X035794Y013956D01*
X035884Y014054D02*
X036879Y014054D01*
X036780Y014153D02*
X035884Y014153D01*
X035884Y014251D02*
X036764Y014251D01*
X037144Y014744D02*
X037204Y014744D01*
X037371Y014941D02*
X038605Y014941D01*
X038507Y015039D02*
X037469Y015039D01*
X037568Y015138D02*
X038408Y015138D01*
X038310Y015236D02*
X037584Y015236D01*
X037584Y014251D02*
X039295Y014251D01*
X039393Y014153D02*
X037567Y014153D01*
X037468Y014054D02*
X039492Y014054D01*
X039590Y013956D02*
X037370Y013956D01*
X037343Y013765D02*
X037204Y013765D01*
X037204Y013385D01*
X037584Y013385D01*
X037584Y013525D01*
X037343Y013765D01*
X037350Y013759D02*
X039787Y013759D01*
X039689Y013857D02*
X035696Y013857D01*
X035774Y013759D02*
X036997Y013759D01*
X037004Y013765D02*
X036764Y013525D01*
X036764Y013385D01*
X037144Y013385D01*
X037144Y013765D01*
X037004Y013765D01*
X037144Y013759D02*
X037204Y013759D01*
X037204Y013660D02*
X037144Y013660D01*
X037144Y013562D02*
X037204Y013562D01*
X037204Y013463D02*
X037144Y013463D01*
X037144Y013385D02*
X037204Y013385D01*
X037204Y013325D01*
X037584Y013325D01*
X037584Y013185D01*
X037343Y012945D01*
X037204Y012945D01*
X037204Y013325D01*
X037144Y013325D01*
X037144Y012945D01*
X037004Y012945D01*
X036764Y013185D01*
X036764Y013325D01*
X037144Y013325D01*
X037144Y013385D01*
X037144Y013365D02*
X035884Y013365D01*
X035884Y013463D02*
X036764Y013463D01*
X036800Y013562D02*
X035884Y013562D01*
X035873Y013660D02*
X036899Y013660D01*
X036764Y013266D02*
X035884Y013266D01*
X035884Y013168D02*
X036781Y013168D01*
X036880Y013069D02*
X035884Y013069D01*
X035793Y012971D02*
X036978Y012971D01*
X037144Y012971D02*
X037204Y012971D01*
X037204Y013069D02*
X037144Y013069D01*
X037144Y013168D02*
X037204Y013168D01*
X037204Y013266D02*
X037144Y013266D01*
X037204Y013365D02*
X040181Y013365D01*
X040083Y013463D02*
X037584Y013463D01*
X037547Y013562D02*
X039984Y013562D01*
X039886Y013660D02*
X037448Y013660D01*
X037584Y013266D02*
X040363Y013266D01*
X040504Y013749D02*
X035780Y018473D01*
X035780Y019654D01*
X036370Y020048D02*
X036961Y020639D01*
X048756Y020639D01*
X049406Y020654D02*
X051669Y020654D01*
X051669Y020752D02*
X049406Y020752D01*
X049406Y020851D02*
X051687Y020851D01*
X051728Y020949D02*
X049406Y020949D01*
X049406Y021048D02*
X051768Y021048D01*
X051827Y021146D02*
X049406Y021146D01*
X049406Y021245D02*
X051925Y021245D01*
X052024Y021343D02*
X049406Y021343D01*
X049406Y021442D02*
X052247Y021442D01*
X052778Y021442D02*
X053330Y021442D01*
X053330Y021540D02*
X049546Y021540D01*
X049644Y021639D02*
X053330Y021639D01*
X053330Y021737D02*
X050846Y021737D01*
X050976Y021836D02*
X053330Y021836D01*
X053330Y021934D02*
X051060Y021934D01*
X051114Y022033D02*
X053330Y022033D01*
X053330Y022131D02*
X051149Y022131D01*
X051168Y022230D02*
X053330Y022230D01*
X053330Y022328D02*
X051172Y022328D01*
X051172Y022427D02*
X053330Y022427D01*
X053330Y022525D02*
X051172Y022525D01*
X051172Y022624D02*
X053330Y022624D01*
X053330Y022722D02*
X051172Y022722D01*
X051172Y022854D02*
X050570Y022854D01*
X050570Y023957D01*
X050648Y023947D01*
X050730Y023925D01*
X050809Y023892D01*
X050883Y023849D01*
X050951Y023797D01*
X051011Y023737D01*
X051063Y023669D01*
X051106Y023595D01*
X051139Y023516D01*
X051161Y023433D01*
X051172Y023349D01*
X051172Y022854D01*
X051172Y022919D02*
X053330Y022919D01*
X053330Y022821D02*
X050570Y022821D01*
X050570Y022919D02*
X050470Y022919D01*
X050470Y023018D02*
X050570Y023018D01*
X050570Y023116D02*
X050470Y023116D01*
X050470Y023215D02*
X050570Y023215D01*
X050570Y023313D02*
X050470Y023313D01*
X050470Y023412D02*
X050570Y023412D01*
X050570Y023510D02*
X050470Y023510D01*
X050470Y023609D02*
X050570Y023609D01*
X050570Y023707D02*
X050470Y023707D01*
X050470Y023806D02*
X050570Y023806D01*
X050570Y023904D02*
X050470Y023904D01*
X050261Y023904D02*
X049709Y023904D01*
X049784Y023806D02*
X050101Y023806D01*
X050006Y023707D02*
X049825Y023707D01*
X049866Y023609D02*
X049942Y023609D01*
X049611Y024003D02*
X053330Y024003D01*
X053330Y024101D02*
X049611Y024101D01*
X049611Y024200D02*
X053330Y024200D01*
X053330Y024298D02*
X049611Y024298D01*
X049611Y024397D02*
X053330Y024397D01*
X053330Y024495D02*
X049611Y024495D01*
X049611Y024594D02*
X053330Y024594D01*
X053330Y024692D02*
X049611Y024692D01*
X049611Y024791D02*
X053330Y024791D01*
X053330Y024889D02*
X049611Y024889D01*
X049611Y024988D02*
X053330Y024988D01*
X053330Y025086D02*
X049611Y025086D01*
X049611Y025185D02*
X053330Y025185D01*
X053330Y025283D02*
X049611Y025283D01*
X049611Y025382D02*
X053330Y025382D01*
X053330Y025480D02*
X049611Y025480D01*
X049611Y025579D02*
X053330Y025579D01*
X053330Y025677D02*
X049611Y025677D01*
X049611Y025776D02*
X053330Y025776D01*
X053330Y025874D02*
X049611Y025874D01*
X049611Y025973D02*
X053330Y025973D01*
X053330Y026071D02*
X049611Y026071D01*
X049611Y026170D02*
X053330Y026170D01*
X053330Y026268D02*
X049611Y026268D01*
X049648Y026367D02*
X053330Y026367D01*
X053330Y026465D02*
X050852Y026465D01*
X050979Y026564D02*
X053330Y026564D01*
X053330Y026662D02*
X051062Y026662D01*
X051116Y026761D02*
X053330Y026761D01*
X053330Y026859D02*
X051150Y026859D01*
X051169Y026958D02*
X053330Y026958D01*
X053330Y027056D02*
X051172Y027056D01*
X051172Y027155D02*
X053330Y027155D01*
X053330Y027253D02*
X051172Y027253D01*
X051172Y027352D02*
X053330Y027352D01*
X053330Y027450D02*
X051172Y027450D01*
X051172Y027647D02*
X053330Y027647D01*
X053330Y027549D02*
X050570Y027549D01*
X050570Y027647D02*
X050470Y027647D01*
X050470Y027746D02*
X050570Y027746D01*
X050570Y027844D02*
X050470Y027844D01*
X050470Y027943D02*
X050570Y027943D01*
X050570Y028041D02*
X050470Y028041D01*
X050470Y028140D02*
X050570Y028140D01*
X050570Y028238D02*
X050470Y028238D01*
X050470Y028337D02*
X050570Y028337D01*
X050570Y028435D02*
X050470Y028435D01*
X050470Y028534D02*
X050570Y028534D01*
X050570Y028632D02*
X050470Y028632D01*
X050270Y028632D02*
X049705Y028632D01*
X049783Y028534D02*
X050105Y028534D01*
X050009Y028435D02*
X049824Y028435D01*
X049864Y028337D02*
X049944Y028337D01*
X049611Y028731D02*
X053330Y028731D01*
X053330Y028829D02*
X049611Y028829D01*
X049611Y028928D02*
X053330Y028928D01*
X053330Y029026D02*
X049611Y029026D01*
X049611Y029125D02*
X053330Y029125D01*
X053330Y029223D02*
X049611Y029223D01*
X049611Y029322D02*
X053330Y029322D01*
X053330Y029420D02*
X049611Y029420D01*
X049611Y029519D02*
X053330Y029519D01*
X053330Y029617D02*
X049611Y029617D01*
X049611Y029716D02*
X053330Y029716D01*
X053330Y029814D02*
X049611Y029814D01*
X049611Y029913D02*
X053330Y029913D01*
X053330Y030011D02*
X049611Y030011D01*
X049611Y030110D02*
X053330Y030110D01*
X053330Y030208D02*
X049611Y030208D01*
X049611Y030307D02*
X053330Y030307D01*
X053330Y030405D02*
X049611Y030405D01*
X049611Y030504D02*
X053330Y030504D01*
X053330Y030602D02*
X049611Y030602D01*
X049611Y030701D02*
X053330Y030701D01*
X053330Y030799D02*
X049611Y030799D01*
X049611Y030898D02*
X053330Y030898D01*
X053330Y030996D02*
X049611Y030996D01*
X049651Y031095D02*
X053330Y031095D01*
X053330Y031193D02*
X050858Y031193D01*
X050883Y031208D02*
X050951Y031260D01*
X051011Y031320D01*
X051063Y031388D01*
X051106Y031462D01*
X051139Y031541D01*
X051161Y031623D01*
X051172Y031708D01*
X051172Y032203D01*
X050570Y032203D01*
X050570Y031100D01*
X050648Y031110D01*
X050730Y031132D01*
X050809Y031165D01*
X050883Y031208D01*
X050983Y031292D02*
X053330Y031292D01*
X053330Y031390D02*
X051065Y031390D01*
X051117Y031489D02*
X053330Y031489D01*
X053330Y031587D02*
X051151Y031587D01*
X051169Y031686D02*
X053330Y031686D01*
X053330Y031784D02*
X051172Y031784D01*
X051172Y031883D02*
X053330Y031883D01*
X053330Y031981D02*
X051172Y031981D01*
X051172Y032080D02*
X053330Y032080D01*
X053330Y032178D02*
X051172Y032178D01*
X051172Y032303D02*
X051172Y032797D01*
X051161Y032882D01*
X051139Y032965D01*
X051106Y033044D01*
X051063Y033118D01*
X051011Y033186D01*
X050951Y033246D01*
X050883Y033298D01*
X050809Y033341D01*
X050730Y033373D01*
X050648Y033396D01*
X050570Y033406D01*
X050570Y032303D01*
X051172Y032303D01*
X051172Y032375D02*
X053330Y032375D01*
X053330Y032277D02*
X050570Y032277D01*
X050570Y032375D02*
X050470Y032375D01*
X050470Y032474D02*
X050570Y032474D01*
X050570Y032572D02*
X050470Y032572D01*
X050470Y032671D02*
X050570Y032671D01*
X050570Y032769D02*
X050470Y032769D01*
X050470Y032868D02*
X050570Y032868D01*
X050570Y032966D02*
X050470Y032966D01*
X050470Y033065D02*
X050570Y033065D01*
X050570Y033163D02*
X050470Y033163D01*
X050470Y033262D02*
X050570Y033262D01*
X050570Y033360D02*
X050470Y033360D01*
X050278Y033360D02*
X049702Y033360D01*
X049781Y033262D02*
X050110Y033262D01*
X050012Y033163D02*
X049822Y033163D01*
X049863Y033065D02*
X049946Y033065D01*
X049611Y033459D02*
X053330Y033459D01*
X053330Y033557D02*
X049611Y033557D01*
X049611Y033656D02*
X053330Y033656D01*
X053330Y033754D02*
X049611Y033754D01*
X049611Y033853D02*
X053330Y033853D01*
X053330Y033951D02*
X049611Y033951D01*
X049611Y034050D02*
X053330Y034050D01*
X053330Y034148D02*
X049611Y034148D01*
X049611Y034247D02*
X053330Y034247D01*
X053330Y034345D02*
X049611Y034345D01*
X049611Y034444D02*
X053330Y034444D01*
X053330Y034542D02*
X049611Y034542D01*
X049611Y034641D02*
X053330Y034641D01*
X053330Y034739D02*
X049611Y034739D01*
X049611Y034838D02*
X053330Y034838D01*
X053330Y034936D02*
X049611Y034936D01*
X049611Y035035D02*
X053330Y035035D01*
X053330Y035133D02*
X049611Y035133D01*
X049611Y035232D02*
X053330Y035232D01*
X053330Y035330D02*
X049611Y035330D01*
X049611Y035429D02*
X053330Y035429D01*
X053330Y035527D02*
X049611Y035527D01*
X049611Y035626D02*
X053330Y035626D01*
X053330Y035724D02*
X049611Y035724D01*
X049655Y035823D02*
X053330Y035823D01*
X053330Y035921D02*
X050865Y035921D01*
X050987Y036020D02*
X053330Y036020D01*
X053330Y036118D02*
X051067Y036118D01*
X051119Y036217D02*
X053330Y036217D01*
X053330Y036315D02*
X051152Y036315D01*
X051170Y036414D02*
X053330Y036414D01*
X053330Y036512D02*
X051172Y036512D01*
X051172Y036611D02*
X053330Y036611D01*
X053330Y036709D02*
X051172Y036709D01*
X051172Y036808D02*
X053330Y036808D01*
X053330Y036906D02*
X051172Y036906D01*
X051172Y037103D02*
X053330Y037103D01*
X053330Y037005D02*
X050570Y037005D01*
X050570Y037103D02*
X050470Y037103D01*
X050470Y037202D02*
X050570Y037202D01*
X050570Y037300D02*
X050470Y037300D01*
X050470Y037399D02*
X050570Y037399D01*
X050570Y037497D02*
X050470Y037497D01*
X050470Y037596D02*
X050570Y037596D01*
X050570Y037694D02*
X050470Y037694D01*
X050470Y037793D02*
X050570Y037793D01*
X050570Y037891D02*
X050470Y037891D01*
X050470Y037990D02*
X050570Y037990D01*
X050570Y038088D02*
X050470Y038088D01*
X050287Y038088D02*
X049698Y038088D01*
X049780Y037990D02*
X050115Y037990D01*
X050015Y037891D02*
X049821Y037891D01*
X049862Y037793D02*
X049948Y037793D01*
X049904Y037694D02*
X049902Y037694D01*
X049600Y038187D02*
X053330Y038187D01*
X053330Y038285D02*
X049501Y038285D01*
X049265Y038384D02*
X053330Y038384D01*
X053330Y038482D02*
X040809Y038482D01*
X040800Y038506D02*
X040623Y038682D01*
X040393Y038778D01*
X040143Y038778D01*
X039913Y038682D01*
X039736Y038506D01*
X039641Y038275D01*
X039641Y038026D01*
X039736Y037795D01*
X039913Y037619D01*
X040143Y037523D01*
X040393Y037523D01*
X040623Y037619D01*
X040800Y037795D01*
X040895Y038026D01*
X040895Y038275D01*
X040800Y038506D01*
X040725Y038581D02*
X052139Y038581D01*
X051979Y038679D02*
X040626Y038679D01*
X040850Y038384D02*
X045539Y038384D01*
X045303Y038285D02*
X040891Y038285D01*
X040895Y038187D02*
X045204Y038187D01*
X045106Y038088D02*
X040895Y038088D01*
X040880Y037990D02*
X045024Y037990D01*
X044983Y037891D02*
X040840Y037891D01*
X040797Y037793D02*
X044942Y037793D01*
X044902Y037694D02*
X040699Y037694D01*
X040568Y037596D02*
X044891Y037596D01*
X044891Y037497D02*
X033309Y037497D01*
X033211Y037596D02*
X038236Y037596D01*
X038181Y037619D02*
X038411Y037523D01*
X038661Y037523D01*
X038891Y037619D01*
X039068Y037795D01*
X039163Y038026D01*
X039163Y038275D01*
X039068Y038506D01*
X038891Y038682D01*
X038661Y038778D01*
X038411Y038778D01*
X038181Y038682D01*
X038004Y038506D01*
X037909Y038275D01*
X037909Y038026D01*
X038004Y037795D01*
X038181Y037619D01*
X038105Y037694D02*
X033112Y037694D01*
X033014Y037793D02*
X038006Y037793D01*
X037964Y037891D02*
X032915Y037891D01*
X032837Y037990D02*
X033014Y037990D01*
X033625Y037990D02*
X033801Y037990D01*
X034412Y037990D02*
X037924Y037990D01*
X037909Y038088D02*
X034573Y038088D01*
X034671Y038187D02*
X037909Y038187D01*
X037913Y038285D02*
X035118Y038285D01*
X035228Y038384D02*
X037954Y038384D01*
X037994Y038482D02*
X035288Y038482D01*
X035316Y038581D02*
X038079Y038581D01*
X038178Y038679D02*
X034933Y038679D01*
X034933Y038581D02*
X034856Y038581D01*
X034856Y038482D02*
X034933Y038482D01*
X034933Y038384D02*
X034856Y038384D01*
X034856Y038285D02*
X034933Y038285D01*
X035302Y038778D02*
X051881Y038778D01*
X051791Y038876D02*
X035361Y038876D01*
X035459Y038975D02*
X051750Y038975D01*
X051709Y039073D02*
X035530Y039073D01*
X035621Y039369D02*
X051669Y039369D01*
X051669Y039467D02*
X035621Y039467D01*
X035621Y039566D02*
X051693Y039566D01*
X051734Y039664D02*
X035587Y039664D01*
X035547Y039763D02*
X051774Y039763D01*
X051841Y039861D02*
X035499Y039861D01*
X035400Y039960D02*
X051939Y039960D01*
X052043Y040058D02*
X035296Y040058D01*
X032947Y040070D02*
X032907Y040054D01*
X032703Y039850D01*
X032696Y039834D01*
X032632Y039854D01*
X032570Y039864D01*
X032570Y039476D01*
X032493Y039476D01*
X032493Y039864D01*
X032432Y039854D01*
X032368Y039834D01*
X032368Y039834D01*
X032361Y039850D01*
X032156Y040054D01*
X032117Y040070D01*
X032947Y040070D01*
X032917Y040058D02*
X032147Y040058D01*
X032251Y039960D02*
X032813Y039960D01*
X032714Y039861D02*
X032589Y039861D01*
X032570Y039861D02*
X032493Y039861D01*
X032475Y039861D02*
X032349Y039861D01*
X032493Y039763D02*
X032570Y039763D01*
X032570Y039664D02*
X032493Y039664D01*
X032493Y039566D02*
X032570Y039566D01*
X032696Y039834D02*
X032696Y039834D01*
X032138Y039044D02*
X031744Y039438D01*
X031351Y039044D02*
X030957Y039438D01*
X031351Y039044D02*
X031351Y038060D01*
X033516Y035894D01*
X033516Y035206D01*
X032926Y034615D01*
X032377Y034247D02*
X023076Y034247D01*
X023174Y034148D02*
X032476Y034148D01*
X032573Y034050D02*
X023273Y034050D01*
X023371Y033951D02*
X032573Y033951D01*
X032590Y033853D02*
X023470Y033853D01*
X023568Y033754D02*
X032631Y033754D01*
X032673Y033656D02*
X023667Y033656D01*
X023765Y033557D02*
X032771Y033557D01*
X032893Y033459D02*
X023864Y033459D01*
X023962Y033360D02*
X034567Y033360D01*
X034567Y033404D02*
X034567Y033264D01*
X034807Y033024D01*
X034947Y033024D01*
X034947Y033404D01*
X035007Y033404D01*
X035007Y033464D01*
X035387Y033464D01*
X035387Y033604D01*
X035147Y033844D01*
X035007Y033844D01*
X035007Y033464D01*
X034947Y033464D01*
X034947Y033844D01*
X034807Y033844D01*
X034567Y033604D01*
X034567Y033464D01*
X034947Y033464D01*
X034947Y033404D01*
X034567Y033404D01*
X034569Y033262D02*
X024061Y033262D01*
X024159Y033163D02*
X034668Y033163D01*
X034766Y033065D02*
X024258Y033065D01*
X024356Y032966D02*
X036440Y032966D01*
X036539Y032868D02*
X035366Y032868D01*
X035464Y032769D02*
X036489Y032769D01*
X036563Y032843D02*
X036267Y032547D01*
X036267Y031959D01*
X036563Y031662D01*
X036267Y031366D01*
X036267Y030778D01*
X036683Y030362D01*
X037271Y030362D01*
X037687Y030778D01*
X037687Y031366D01*
X037390Y031662D01*
X037687Y031959D01*
X037687Y032547D01*
X037390Y032843D01*
X037687Y033140D01*
X037687Y033263D01*
X038045Y032905D01*
X038633Y032905D01*
X039049Y033321D01*
X039049Y033909D01*
X038633Y034325D01*
X038045Y034325D01*
X037629Y033909D01*
X037629Y033786D01*
X037271Y034144D01*
X036683Y034144D01*
X036267Y033728D01*
X036267Y033140D01*
X036563Y032843D01*
X036391Y032671D02*
X035563Y032671D01*
X035661Y032572D02*
X036292Y032572D01*
X036267Y032474D02*
X035687Y032474D01*
X035687Y032375D02*
X036267Y032375D01*
X036267Y032277D02*
X035687Y032277D01*
X035687Y032178D02*
X036267Y032178D01*
X036267Y032080D02*
X035687Y032080D01*
X035687Y031981D02*
X036267Y031981D01*
X036343Y031883D02*
X035611Y031883D01*
X035512Y031784D02*
X036441Y031784D01*
X036540Y031686D02*
X035414Y031686D01*
X035465Y031587D02*
X036488Y031587D01*
X036390Y031489D02*
X035564Y031489D01*
X035662Y031390D02*
X036291Y031390D01*
X036267Y031292D02*
X035687Y031292D01*
X035687Y031193D02*
X036267Y031193D01*
X036267Y031095D02*
X035687Y031095D01*
X035687Y030996D02*
X036267Y030996D01*
X036267Y030898D02*
X035687Y030898D01*
X035687Y030799D02*
X036267Y030799D01*
X036344Y030701D02*
X035610Y030701D01*
X035511Y030602D02*
X036442Y030602D01*
X036541Y030504D02*
X035413Y030504D01*
X035314Y030405D02*
X036639Y030405D01*
X036452Y029913D02*
X035284Y029913D01*
X035382Y029814D02*
X036263Y029814D01*
X036165Y029716D02*
X035481Y029716D01*
X035579Y029617D02*
X036096Y029617D01*
X036055Y029519D02*
X035678Y029519D01*
X035776Y029420D02*
X036018Y029420D01*
X036018Y029322D02*
X035875Y029322D01*
X035973Y029223D02*
X036018Y029223D01*
X036666Y029300D02*
X037847Y029300D01*
X043851Y035304D01*
X046213Y035304D01*
X047402Y036493D01*
X047402Y036977D01*
X048181Y035908D02*
X048311Y035779D01*
X048311Y033451D01*
X048181Y033321D01*
X047941Y033562D01*
X047591Y033707D01*
X047213Y033707D01*
X046863Y033562D01*
X046622Y033321D01*
X046382Y033562D01*
X046032Y033707D01*
X045654Y033707D01*
X045304Y033562D01*
X045036Y033294D01*
X044891Y032944D01*
X044891Y031561D01*
X045036Y031212D01*
X045304Y030944D01*
X045343Y030927D01*
X045343Y030331D01*
X045270Y030258D01*
X045171Y030019D01*
X045171Y029762D01*
X045270Y029523D01*
X045452Y029341D01*
X045532Y029308D01*
X044145Y029308D01*
X043961Y029232D01*
X043821Y029091D01*
X040002Y025272D01*
X038365Y025272D01*
X038763Y025670D01*
X038839Y025854D01*
X038839Y026928D01*
X043516Y031605D01*
X043586Y031605D01*
X043824Y031703D01*
X044007Y031886D01*
X044105Y032124D01*
X044105Y032382D01*
X044007Y032620D01*
X043824Y032802D01*
X043586Y032901D01*
X043328Y032901D01*
X043090Y032802D01*
X042908Y032620D01*
X042809Y032382D01*
X042809Y032312D01*
X038056Y027559D01*
X037915Y027418D01*
X037839Y027234D01*
X037839Y026161D01*
X037658Y025980D01*
X037658Y026915D01*
X037707Y026964D01*
X037806Y027203D01*
X037806Y027460D01*
X037707Y027699D01*
X037525Y027881D01*
X037287Y027980D01*
X037217Y027980D01*
X036545Y028652D01*
X036795Y028652D01*
X037033Y028751D01*
X037082Y028800D01*
X037946Y028800D01*
X038130Y028876D01*
X038271Y029017D01*
X044058Y034804D01*
X046312Y034804D01*
X046496Y034880D01*
X046637Y035021D01*
X047161Y035545D01*
X047213Y035523D01*
X047591Y035523D01*
X047941Y035668D01*
X048181Y035908D01*
X048096Y035823D02*
X048267Y035823D01*
X048311Y035724D02*
X047997Y035724D01*
X047839Y035626D02*
X048311Y035626D01*
X048311Y035527D02*
X047601Y035527D01*
X047203Y035527D02*
X047143Y035527D01*
X047045Y035429D02*
X048311Y035429D01*
X048311Y035330D02*
X046946Y035330D01*
X046848Y035232D02*
X048311Y035232D01*
X048311Y035133D02*
X046749Y035133D01*
X046651Y035035D02*
X048311Y035035D01*
X048311Y034936D02*
X046552Y034936D01*
X046394Y034838D02*
X048311Y034838D01*
X048311Y034739D02*
X043993Y034739D01*
X043895Y034641D02*
X048311Y034641D01*
X048311Y034542D02*
X043796Y034542D01*
X043752Y034517D02*
X044244Y034517D01*
X044737Y034024D01*
X044737Y033434D01*
X045023Y033262D02*
X042516Y033262D01*
X042614Y033360D02*
X045102Y033360D01*
X045201Y033459D02*
X042713Y033459D01*
X042811Y033557D02*
X045299Y033557D01*
X045531Y033656D02*
X042910Y033656D01*
X043008Y033754D02*
X048311Y033754D01*
X048311Y033656D02*
X047714Y033656D01*
X047946Y033557D02*
X048311Y033557D01*
X048311Y033459D02*
X048044Y033459D01*
X048143Y033360D02*
X048220Y033360D01*
X048311Y033853D02*
X043107Y033853D01*
X043205Y033951D02*
X048311Y033951D01*
X048311Y034050D02*
X043304Y034050D01*
X043402Y034148D02*
X048311Y034148D01*
X048311Y034247D02*
X043501Y034247D01*
X043599Y034345D02*
X048311Y034345D01*
X048311Y034444D02*
X043698Y034444D01*
X043752Y034517D02*
X041981Y032745D01*
X041981Y031564D01*
X041986Y031489D02*
X040743Y031489D01*
X040841Y031587D02*
X042084Y031587D01*
X042183Y031686D02*
X040940Y031686D01*
X041038Y031784D02*
X042281Y031784D01*
X042380Y031883D02*
X041137Y031883D01*
X041235Y031981D02*
X042478Y031981D01*
X042577Y032080D02*
X041334Y032080D01*
X041432Y032178D02*
X042675Y032178D01*
X042774Y032277D02*
X041531Y032277D01*
X041629Y032375D02*
X042809Y032375D01*
X042847Y032474D02*
X041728Y032474D01*
X041826Y032572D02*
X042888Y032572D01*
X042959Y032671D02*
X041925Y032671D01*
X042023Y032769D02*
X043057Y032769D01*
X043248Y032868D02*
X042122Y032868D01*
X042220Y032966D02*
X044900Y032966D01*
X044891Y032868D02*
X043666Y032868D01*
X043857Y032769D02*
X044891Y032769D01*
X044891Y032671D02*
X043956Y032671D01*
X044026Y032572D02*
X044891Y032572D01*
X044891Y032474D02*
X044067Y032474D01*
X044105Y032375D02*
X044891Y032375D01*
X044891Y032277D02*
X044105Y032277D01*
X044105Y032178D02*
X044891Y032178D01*
X044891Y032080D02*
X044087Y032080D01*
X044046Y031981D02*
X044891Y031981D01*
X044891Y031883D02*
X044004Y031883D01*
X043905Y031784D02*
X044891Y031784D01*
X044891Y031686D02*
X043782Y031686D01*
X043499Y031587D02*
X044891Y031587D01*
X044921Y031489D02*
X043400Y031489D01*
X043302Y031390D02*
X044962Y031390D01*
X045003Y031292D02*
X043203Y031292D01*
X043105Y031193D02*
X045054Y031193D01*
X045153Y031095D02*
X043006Y031095D01*
X042908Y030996D02*
X045251Y030996D01*
X045343Y030898D02*
X042809Y030898D01*
X042711Y030799D02*
X045343Y030799D01*
X045343Y030701D02*
X042612Y030701D01*
X042514Y030602D02*
X045343Y030602D01*
X045343Y030504D02*
X042415Y030504D01*
X042317Y030405D02*
X045343Y030405D01*
X045319Y030307D02*
X042218Y030307D01*
X042120Y030208D02*
X045249Y030208D01*
X045209Y030110D02*
X042021Y030110D01*
X041923Y030011D02*
X045171Y030011D01*
X045171Y029913D02*
X041824Y029913D01*
X041726Y029814D02*
X045171Y029814D01*
X045190Y029716D02*
X041627Y029716D01*
X041529Y029617D02*
X045231Y029617D01*
X045275Y029519D02*
X041430Y029519D01*
X041332Y029420D02*
X045373Y029420D01*
X045499Y029322D02*
X041233Y029322D01*
X041135Y029223D02*
X043953Y029223D01*
X043854Y029125D02*
X041036Y029125D01*
X040938Y029026D02*
X043756Y029026D01*
X043657Y028928D02*
X040839Y028928D01*
X040741Y028829D02*
X043559Y028829D01*
X043460Y028731D02*
X040642Y028731D01*
X040544Y028632D02*
X043362Y028632D01*
X043263Y028534D02*
X040445Y028534D01*
X040347Y028435D02*
X043165Y028435D01*
X043066Y028337D02*
X040248Y028337D01*
X040150Y028238D02*
X042968Y028238D01*
X042869Y028140D02*
X040051Y028140D01*
X039953Y028041D02*
X042771Y028041D01*
X042672Y027943D02*
X039854Y027943D01*
X039756Y027844D02*
X042574Y027844D01*
X042475Y027746D02*
X039657Y027746D01*
X039559Y027647D02*
X042377Y027647D01*
X042278Y027549D02*
X039460Y027549D01*
X039362Y027450D02*
X042180Y027450D01*
X042081Y027352D02*
X039263Y027352D01*
X039165Y027253D02*
X041983Y027253D01*
X041884Y027155D02*
X039066Y027155D01*
X038968Y027056D02*
X041786Y027056D01*
X041687Y026958D02*
X038869Y026958D01*
X038839Y026859D02*
X041589Y026859D01*
X041490Y026761D02*
X038839Y026761D01*
X038839Y026662D02*
X041392Y026662D01*
X041293Y026564D02*
X038839Y026564D01*
X038839Y026465D02*
X041195Y026465D01*
X041096Y026367D02*
X038839Y026367D01*
X038839Y026268D02*
X040998Y026268D01*
X040899Y026170D02*
X038839Y026170D01*
X038839Y026071D02*
X040801Y026071D01*
X040702Y025973D02*
X038839Y025973D01*
X038839Y025874D02*
X040604Y025874D01*
X040505Y025776D02*
X038807Y025776D01*
X038766Y025677D02*
X040407Y025677D01*
X040308Y025579D02*
X038671Y025579D01*
X038573Y025480D02*
X040210Y025480D01*
X040111Y025382D02*
X038474Y025382D01*
X038376Y025283D02*
X040013Y025283D01*
X040209Y024772D02*
X044244Y028808D01*
X048961Y028808D01*
X047402Y029898D02*
X047394Y029891D01*
X047402Y029898D02*
X047402Y032253D01*
X046661Y033360D02*
X046584Y033360D01*
X046485Y033459D02*
X046760Y033459D01*
X046858Y033557D02*
X046387Y033557D01*
X046155Y033656D02*
X047090Y033656D01*
X045843Y032253D02*
X045843Y029914D01*
X045819Y029891D01*
X044899Y028238D02*
X044382Y028238D01*
X044283Y028140D02*
X044891Y028140D01*
X044891Y028041D02*
X044185Y028041D01*
X044086Y027943D02*
X044891Y027943D01*
X044891Y027844D02*
X043988Y027844D01*
X043889Y027746D02*
X044891Y027746D01*
X044891Y027647D02*
X043791Y027647D01*
X043692Y027549D02*
X044891Y027549D01*
X044891Y027450D02*
X043594Y027450D01*
X043495Y027352D02*
X044891Y027352D01*
X044861Y027253D02*
X043397Y027253D01*
X043298Y027155D02*
X044762Y027155D01*
X044664Y027056D02*
X043200Y027056D01*
X043101Y026958D02*
X044565Y026958D01*
X044467Y026859D02*
X043003Y026859D01*
X042904Y026761D02*
X044368Y026761D01*
X044270Y026662D02*
X042806Y026662D01*
X042707Y026564D02*
X044171Y026564D01*
X044073Y026465D02*
X042609Y026465D01*
X042510Y026367D02*
X043974Y026367D01*
X043876Y026268D02*
X042412Y026268D01*
X042313Y026170D02*
X043777Y026170D01*
X043679Y026071D02*
X042215Y026071D01*
X042116Y025973D02*
X043580Y025973D01*
X043482Y025874D02*
X042018Y025874D01*
X041919Y025776D02*
X043409Y025776D01*
X043368Y025677D02*
X041821Y025677D01*
X041722Y025579D02*
X043351Y025579D01*
X043351Y025480D02*
X041624Y025480D01*
X041525Y025382D02*
X043351Y025382D01*
X043351Y025283D02*
X041427Y025283D01*
X041328Y025185D02*
X043351Y025185D01*
X043351Y025086D02*
X041230Y025086D01*
X041131Y024988D02*
X043351Y024988D01*
X043351Y024889D02*
X041033Y024889D01*
X040934Y024791D02*
X043351Y024791D01*
X043351Y024692D02*
X040836Y024692D01*
X040737Y024594D02*
X043351Y024594D01*
X043351Y024495D02*
X040639Y024495D01*
X040540Y024397D02*
X043351Y024397D01*
X043351Y024298D02*
X040371Y024298D01*
X040209Y024772D02*
X037158Y024772D01*
X037158Y027331D01*
X034599Y029891D01*
X028300Y029891D01*
X027651Y029913D02*
X026586Y029913D01*
X026586Y030011D02*
X027651Y030011D01*
X027689Y030110D02*
X026548Y030110D01*
X026586Y030019D02*
X026487Y030258D01*
X026460Y030284D01*
X026487Y030311D01*
X026586Y030549D01*
X026586Y030807D01*
X026487Y031045D01*
X026305Y031227D01*
X026066Y031326D01*
X025996Y031326D01*
X020512Y036810D01*
X020328Y036887D01*
X011984Y036887D01*
X011934Y036936D01*
X011696Y037035D01*
X011438Y037035D01*
X011200Y036936D01*
X011018Y036754D01*
X010919Y036516D01*
X010919Y036258D01*
X011018Y036019D01*
X011200Y035837D01*
X011438Y035739D01*
X011696Y035739D01*
X011707Y035743D01*
X011707Y035667D01*
X011805Y035429D01*
X011988Y035247D01*
X012087Y035206D01*
X011988Y035164D01*
X011805Y034982D01*
X011707Y034744D01*
X011707Y034668D01*
X011696Y034673D01*
X011438Y034673D01*
X011200Y034574D01*
X011018Y034392D01*
X010919Y034153D01*
X010919Y033895D01*
X011018Y033657D01*
X011200Y033475D01*
X011438Y033376D01*
X011696Y033376D01*
X011934Y033475D01*
X011984Y033524D01*
X019234Y033524D01*
X025289Y027469D01*
X025289Y027399D01*
X025388Y027161D01*
X025570Y026979D01*
X025808Y026880D01*
X026066Y026880D01*
X026305Y026979D01*
X026487Y027161D01*
X026586Y027399D01*
X026586Y027657D01*
X026487Y027895D01*
X026460Y027922D01*
X026487Y027949D01*
X026586Y028187D01*
X026586Y028445D01*
X026487Y028683D01*
X026460Y028709D01*
X026487Y028736D01*
X026586Y028974D01*
X026586Y029232D01*
X026487Y029470D01*
X026460Y029497D01*
X026487Y029523D01*
X026586Y029762D01*
X026586Y030019D01*
X026586Y029814D02*
X027651Y029814D01*
X027670Y029716D02*
X026567Y029716D01*
X026526Y029617D02*
X027711Y029617D01*
X027755Y029519D02*
X026482Y029519D01*
X026508Y029420D02*
X027853Y029420D01*
X027979Y029322D02*
X026548Y029322D01*
X026586Y029223D02*
X034559Y029223D01*
X034657Y029125D02*
X026586Y029125D01*
X026586Y029026D02*
X034756Y029026D01*
X034854Y028928D02*
X026566Y028928D01*
X026525Y028829D02*
X034953Y028829D01*
X035051Y028731D02*
X026482Y028731D01*
X026508Y028632D02*
X035150Y028632D01*
X035249Y028534D02*
X026549Y028534D01*
X026586Y028435D02*
X035347Y028435D01*
X035446Y028337D02*
X026586Y028337D01*
X026586Y028238D02*
X035544Y028238D01*
X035643Y028140D02*
X026566Y028140D01*
X026525Y028041D02*
X035741Y028041D01*
X035840Y027943D02*
X026481Y027943D01*
X026508Y027844D02*
X035938Y027844D01*
X036037Y027746D02*
X026549Y027746D01*
X026586Y027647D02*
X036135Y027647D01*
X036234Y027549D02*
X026586Y027549D01*
X026586Y027450D02*
X036332Y027450D01*
X036431Y027352D02*
X026566Y027352D01*
X026525Y027253D02*
X036510Y027253D01*
X036530Y027155D02*
X026480Y027155D01*
X026382Y027056D02*
X036570Y027056D01*
X036615Y026958D02*
X026253Y026958D01*
X025621Y026958D02*
X021703Y026958D01*
X021605Y027056D02*
X025493Y027056D01*
X025394Y027155D02*
X021506Y027155D01*
X021408Y027253D02*
X025350Y027253D01*
X025309Y027352D02*
X021309Y027352D01*
X021211Y027450D02*
X025289Y027450D01*
X025210Y027549D02*
X021112Y027549D01*
X021014Y027647D02*
X025111Y027647D01*
X025013Y027746D02*
X020915Y027746D01*
X020817Y027844D02*
X024914Y027844D01*
X024816Y027943D02*
X020718Y027943D01*
X020426Y027528D02*
X024363Y023591D01*
X023772Y023591D02*
X020426Y026938D01*
X011370Y026938D01*
X011370Y027528D02*
X020426Y027528D01*
X020426Y026347D02*
X023181Y023591D01*
X024166Y024495D02*
X024578Y024495D01*
X024537Y024397D02*
X024264Y024397D01*
X024363Y024298D02*
X024502Y024298D01*
X024645Y024594D02*
X024067Y024594D01*
X023969Y024692D02*
X024744Y024692D01*
X024926Y024791D02*
X023870Y024791D01*
X023772Y024889D02*
X036658Y024889D01*
X036658Y024791D02*
X025374Y024791D01*
X025556Y024692D02*
X036658Y024692D01*
X036691Y024594D02*
X025655Y024594D01*
X025722Y024495D02*
X036731Y024495D01*
X036826Y024397D02*
X025763Y024397D01*
X025798Y024298D02*
X036996Y024298D01*
X036658Y024988D02*
X023673Y024988D01*
X023575Y025086D02*
X036658Y025086D01*
X036658Y025185D02*
X023476Y025185D01*
X023378Y025283D02*
X036658Y025283D01*
X036658Y025382D02*
X023279Y025382D01*
X023181Y025480D02*
X036658Y025480D01*
X036658Y025579D02*
X023082Y025579D01*
X022984Y025677D02*
X036658Y025677D01*
X036658Y025776D02*
X022885Y025776D01*
X022787Y025874D02*
X036658Y025874D01*
X036658Y025973D02*
X022688Y025973D01*
X022590Y026071D02*
X036658Y026071D01*
X036658Y026170D02*
X022491Y026170D01*
X022393Y026268D02*
X036658Y026268D01*
X036658Y026367D02*
X022294Y026367D01*
X022196Y026465D02*
X036658Y026465D01*
X036658Y026564D02*
X022097Y026564D01*
X021999Y026662D02*
X036658Y026662D01*
X036658Y026761D02*
X021900Y026761D01*
X021802Y026859D02*
X036658Y026859D01*
X037658Y026859D02*
X037839Y026859D01*
X037839Y026761D02*
X037658Y026761D01*
X037658Y026662D02*
X037839Y026662D01*
X037839Y026564D02*
X037658Y026564D01*
X037658Y026465D02*
X037839Y026465D01*
X037839Y026367D02*
X037658Y026367D01*
X037658Y026268D02*
X037839Y026268D01*
X037839Y026170D02*
X037658Y026170D01*
X037658Y026071D02*
X037750Y026071D01*
X038339Y025954D02*
X038339Y027135D01*
X043457Y032253D01*
X042417Y033163D02*
X044982Y033163D01*
X044941Y033065D02*
X042319Y033065D01*
X041397Y034050D02*
X038908Y034050D01*
X038810Y034148D02*
X041496Y034148D01*
X041594Y034247D02*
X038711Y034247D01*
X039007Y033951D02*
X041299Y033951D01*
X041200Y033853D02*
X039049Y033853D01*
X039049Y033754D02*
X041102Y033754D01*
X041003Y033656D02*
X039049Y033656D01*
X039049Y033557D02*
X040905Y033557D01*
X040806Y033459D02*
X039049Y033459D01*
X039049Y033360D02*
X040708Y033360D01*
X040609Y033262D02*
X038990Y033262D01*
X038891Y033163D02*
X040511Y033163D01*
X040412Y033065D02*
X038793Y033065D01*
X038694Y032966D02*
X040314Y032966D01*
X040215Y032868D02*
X037415Y032868D01*
X037464Y032769D02*
X040117Y032769D01*
X040018Y032671D02*
X037563Y032671D01*
X037661Y032572D02*
X039920Y032572D01*
X039821Y032474D02*
X037687Y032474D01*
X037687Y032375D02*
X039723Y032375D01*
X039624Y032277D02*
X037687Y032277D01*
X037687Y032178D02*
X039526Y032178D01*
X039427Y032080D02*
X037687Y032080D01*
X037687Y031981D02*
X039329Y031981D01*
X039230Y031883D02*
X037611Y031883D01*
X037512Y031784D02*
X039132Y031784D01*
X039033Y031686D02*
X037414Y031686D01*
X037465Y031587D02*
X038935Y031587D01*
X038836Y031489D02*
X037564Y031489D01*
X037662Y031390D02*
X038738Y031390D01*
X038639Y031292D02*
X037687Y031292D01*
X037687Y031193D02*
X038541Y031193D01*
X038442Y031095D02*
X037687Y031095D01*
X037687Y030996D02*
X038344Y030996D01*
X038245Y030898D02*
X037687Y030898D01*
X037687Y030799D02*
X038147Y030799D01*
X038048Y030701D02*
X037610Y030701D01*
X037511Y030602D02*
X037950Y030602D01*
X037851Y030504D02*
X037413Y030504D01*
X037314Y030405D02*
X037753Y030405D01*
X037654Y030307D02*
X034890Y030307D01*
X034988Y030208D02*
X037436Y030208D01*
X037248Y030110D02*
X035087Y030110D01*
X035185Y030011D02*
X037149Y030011D01*
X037080Y029913D02*
X036880Y029913D01*
X037650Y029595D02*
X045032Y036977D01*
X045843Y036977D01*
X044746Y037399D02*
X033408Y037399D01*
X033506Y037300D02*
X044648Y037300D01*
X044549Y037202D02*
X033605Y037202D01*
X033703Y037103D02*
X044451Y037103D01*
X044352Y037005D02*
X033802Y037005D01*
X033900Y036906D02*
X044254Y036906D01*
X044155Y036808D02*
X033999Y036808D01*
X034097Y036709D02*
X044057Y036709D01*
X043958Y036611D02*
X034196Y036611D01*
X034294Y036512D02*
X043860Y036512D01*
X043761Y036414D02*
X034393Y036414D01*
X034457Y036315D02*
X038035Y036315D01*
X038045Y036325D02*
X037629Y035909D01*
X037629Y035321D01*
X038045Y034905D01*
X038633Y034905D01*
X038670Y034942D01*
X038759Y034853D01*
X038997Y034754D01*
X039255Y034754D01*
X039494Y034853D01*
X039543Y034902D01*
X040285Y034902D01*
X040334Y034853D01*
X040572Y034754D01*
X040830Y034754D01*
X041068Y034853D01*
X041251Y035035D01*
X041349Y035273D01*
X041349Y035531D01*
X041251Y035769D01*
X041068Y035952D01*
X040830Y036050D01*
X040572Y036050D01*
X040334Y035952D01*
X040285Y035902D01*
X039543Y035902D01*
X039494Y035952D01*
X039255Y036050D01*
X038997Y036050D01*
X038934Y036024D01*
X038633Y036325D01*
X038045Y036325D01*
X037937Y036217D02*
X034498Y036217D01*
X034508Y036118D02*
X037838Y036118D01*
X037740Y036020D02*
X034508Y036020D01*
X034508Y035921D02*
X037641Y035921D01*
X037629Y035823D02*
X034508Y035823D01*
X034508Y035724D02*
X037629Y035724D01*
X037629Y035626D02*
X034508Y035626D01*
X034508Y035527D02*
X037629Y035527D01*
X037629Y035429D02*
X034508Y035429D01*
X034508Y035330D02*
X037629Y035330D01*
X037718Y035232D02*
X034508Y035232D01*
X034508Y035133D02*
X037817Y035133D01*
X037915Y035035D02*
X034508Y035035D01*
X034508Y034936D02*
X038014Y034936D01*
X038664Y034936D02*
X038676Y034936D01*
X038796Y034838D02*
X034508Y034838D01*
X034508Y034739D02*
X042087Y034739D01*
X041988Y034641D02*
X034479Y034641D01*
X034438Y034542D02*
X041890Y034542D01*
X041791Y034444D02*
X034347Y034444D01*
X034249Y034345D02*
X041693Y034345D01*
X042185Y034838D02*
X041032Y034838D01*
X041152Y034936D02*
X042284Y034936D01*
X042382Y035035D02*
X041250Y035035D01*
X041291Y035133D02*
X042481Y035133D01*
X042579Y035232D02*
X041332Y035232D01*
X041349Y035330D02*
X042678Y035330D01*
X042776Y035429D02*
X041349Y035429D01*
X041349Y035527D02*
X042875Y035527D01*
X042973Y035626D02*
X041310Y035626D01*
X041269Y035724D02*
X043072Y035724D01*
X043170Y035823D02*
X041197Y035823D01*
X041099Y035921D02*
X043269Y035921D01*
X043367Y036020D02*
X040904Y036020D01*
X040498Y036020D02*
X039329Y036020D01*
X039524Y035921D02*
X040304Y035921D01*
X040701Y035402D02*
X039126Y035402D01*
X038840Y036118D02*
X043466Y036118D01*
X043564Y036217D02*
X038741Y036217D01*
X038643Y036315D02*
X043663Y036315D01*
X041882Y035009D02*
X040307Y035009D01*
X039520Y034221D01*
X039457Y034838D02*
X040371Y034838D01*
X037967Y034247D02*
X034150Y034247D01*
X034052Y034148D02*
X037868Y034148D01*
X037770Y034050D02*
X037365Y034050D01*
X037463Y033951D02*
X037671Y033951D01*
X037629Y033853D02*
X037562Y033853D01*
X037687Y033262D02*
X037688Y033262D01*
X037687Y033163D02*
X037787Y033163D01*
X037885Y033065D02*
X037612Y033065D01*
X037513Y032966D02*
X037984Y032966D01*
X036342Y033065D02*
X035188Y033065D01*
X035147Y033024D02*
X035387Y033264D01*
X035387Y033404D01*
X035007Y033404D01*
X035007Y033024D01*
X035147Y033024D01*
X035007Y033065D02*
X034947Y033065D01*
X034947Y033163D02*
X035007Y033163D01*
X035007Y033262D02*
X034947Y033262D01*
X034947Y033360D02*
X035007Y033360D01*
X035007Y033459D02*
X036267Y033459D01*
X036267Y033557D02*
X035387Y033557D01*
X035335Y033656D02*
X036267Y033656D01*
X036293Y033754D02*
X035236Y033754D01*
X035007Y033754D02*
X034947Y033754D01*
X034947Y033656D02*
X035007Y033656D01*
X035007Y033557D02*
X034947Y033557D01*
X034947Y033459D02*
X033549Y033459D01*
X033670Y033557D02*
X034567Y033557D01*
X034619Y033656D02*
X033769Y033656D01*
X033810Y033754D02*
X034717Y033754D01*
X035387Y033360D02*
X036267Y033360D01*
X036267Y033262D02*
X035385Y033262D01*
X035286Y033163D02*
X036267Y033163D01*
X036392Y033853D02*
X033851Y033853D01*
X033869Y033951D02*
X036490Y033951D01*
X036589Y034050D02*
X033953Y034050D01*
X033221Y034024D02*
X034008Y034812D01*
X034008Y036091D01*
X032138Y037961D01*
X032138Y039044D01*
X030584Y040070D02*
X030545Y040054D01*
X030341Y039850D01*
X030334Y039834D01*
X030270Y039854D01*
X030208Y039864D01*
X030208Y039476D01*
X030131Y039476D01*
X030131Y039864D01*
X030070Y039854D01*
X030006Y039834D01*
X030005Y039834D01*
X029999Y039850D01*
X029794Y040054D01*
X029755Y040070D01*
X030584Y040070D01*
X030555Y040058D02*
X029784Y040058D01*
X029889Y039960D02*
X030451Y039960D01*
X030352Y039861D02*
X030226Y039861D01*
X030208Y039861D02*
X030131Y039861D01*
X030113Y039861D02*
X029987Y039861D01*
X030131Y039763D02*
X030208Y039763D01*
X030208Y039664D02*
X030131Y039664D01*
X030131Y039566D02*
X030208Y039566D01*
X030334Y039834D02*
X030334Y039834D01*
X028989Y038946D02*
X028989Y038158D01*
X030662Y036485D01*
X032630Y036485D01*
X032926Y036190D01*
X032926Y035402D01*
X032827Y035304D01*
X032237Y035035D02*
X022288Y035035D01*
X022386Y034936D02*
X032278Y034936D01*
X032316Y034838D02*
X022485Y034838D01*
X022583Y034739D02*
X032277Y034739D01*
X032277Y034641D02*
X022682Y034641D01*
X022780Y034542D02*
X032277Y034542D01*
X032295Y034444D02*
X022879Y034444D01*
X022977Y034345D02*
X032336Y034345D01*
X032196Y035133D02*
X022189Y035133D01*
X022091Y035232D02*
X032179Y035232D01*
X032102Y035330D02*
X021992Y035330D01*
X021894Y035429D02*
X030480Y035429D01*
X030322Y035527D02*
X021795Y035527D01*
X021697Y035626D02*
X030223Y035626D01*
X030125Y035724D02*
X021598Y035724D01*
X021500Y035823D02*
X030026Y035823D01*
X029928Y035921D02*
X021401Y035921D01*
X021303Y036020D02*
X029829Y036020D01*
X029731Y036118D02*
X021204Y036118D01*
X021106Y036217D02*
X029632Y036217D01*
X029534Y036315D02*
X021007Y036315D01*
X020909Y036414D02*
X029435Y036414D01*
X029337Y036512D02*
X020810Y036512D01*
X020712Y036611D02*
X029238Y036611D01*
X029140Y036709D02*
X020613Y036709D01*
X020515Y036808D02*
X029041Y036808D01*
X028943Y036906D02*
X011964Y036906D01*
X011769Y037005D02*
X028844Y037005D01*
X028746Y037103D02*
X000600Y037103D01*
X000600Y037005D02*
X011366Y037005D01*
X011170Y036906D02*
X000600Y036906D01*
X000600Y036808D02*
X011072Y036808D01*
X010999Y036709D02*
X000600Y036709D01*
X000600Y036611D02*
X010959Y036611D01*
X010919Y036512D02*
X000600Y036512D01*
X000600Y036414D02*
X010919Y036414D01*
X010919Y036315D02*
X000600Y036315D01*
X000600Y036217D02*
X010936Y036217D01*
X010977Y036118D02*
X000600Y036118D01*
X000600Y036020D02*
X011018Y036020D01*
X011116Y035921D02*
X000600Y035921D01*
X000600Y035823D02*
X011235Y035823D01*
X011707Y035724D02*
X000600Y035724D01*
X000600Y035626D02*
X011724Y035626D01*
X011765Y035527D02*
X000600Y035527D01*
X000600Y035429D02*
X011805Y035429D01*
X011904Y035330D02*
X000600Y035330D01*
X000600Y035232D02*
X012023Y035232D01*
X011956Y035133D02*
X000600Y035133D01*
X000600Y035035D02*
X011858Y035035D01*
X011786Y034936D02*
X000600Y034936D01*
X000600Y034838D02*
X011746Y034838D01*
X011707Y034739D02*
X000600Y034739D01*
X000600Y034641D02*
X011362Y034641D01*
X011169Y034542D02*
X000600Y034542D01*
X000600Y034444D02*
X011070Y034444D01*
X010999Y034345D02*
X000600Y034345D01*
X000600Y034247D02*
X010958Y034247D01*
X010919Y034148D02*
X000600Y034148D01*
X000600Y034050D02*
X010919Y034050D01*
X010919Y033951D02*
X000600Y033951D01*
X000600Y033853D02*
X010937Y033853D01*
X010978Y033754D02*
X000600Y033754D01*
X000600Y033656D02*
X011019Y033656D01*
X011118Y033557D02*
X000600Y033557D01*
X000600Y033459D02*
X011239Y033459D01*
X011567Y034024D02*
X019441Y034024D01*
X025937Y027528D01*
X025937Y028316D02*
X019638Y034615D01*
X012355Y034615D01*
X013339Y035206D02*
X019835Y035206D01*
X025937Y029103D01*
X025937Y029891D02*
X020032Y035796D01*
X012355Y035796D01*
X011567Y036387D02*
X020229Y036387D01*
X025937Y030678D01*
X026586Y030701D02*
X034344Y030701D01*
X034267Y030799D02*
X026586Y030799D01*
X026548Y030898D02*
X034267Y030898D01*
X034267Y030996D02*
X026507Y030996D01*
X026437Y031095D02*
X034267Y031095D01*
X034267Y031193D02*
X026339Y031193D01*
X026149Y031292D02*
X034267Y031292D01*
X034291Y031390D02*
X025932Y031390D01*
X025834Y031489D02*
X034390Y031489D01*
X034488Y031587D02*
X025735Y031587D01*
X025637Y031686D02*
X034540Y031686D01*
X034441Y031784D02*
X025538Y031784D01*
X025440Y031883D02*
X034343Y031883D01*
X034267Y031981D02*
X025341Y031981D01*
X025243Y032080D02*
X034267Y032080D01*
X034267Y032178D02*
X025144Y032178D01*
X025046Y032277D02*
X034267Y032277D01*
X034267Y032375D02*
X024947Y032375D01*
X024849Y032474D02*
X034267Y032474D01*
X034292Y032572D02*
X024750Y032572D01*
X024652Y032671D02*
X034391Y032671D01*
X034489Y032769D02*
X024553Y032769D01*
X024455Y032868D02*
X034588Y032868D01*
X034442Y030602D02*
X026586Y030602D01*
X026567Y030504D02*
X028086Y030504D01*
X027898Y030405D02*
X026526Y030405D01*
X026483Y030307D02*
X027799Y030307D01*
X027730Y030208D02*
X026507Y030208D01*
X027611Y031269D02*
X027611Y033139D01*
X029973Y035501D01*
X030662Y035501D01*
X029087Y035501D01*
X030662Y035894D02*
X032433Y035894D01*
X030662Y035894D02*
X028201Y038355D01*
X028201Y038946D01*
X027807Y039339D01*
X027807Y039438D01*
X027184Y039834D02*
X027184Y039834D01*
X027120Y039854D01*
X027059Y039864D01*
X027059Y039476D01*
X026981Y039476D01*
X026981Y039864D01*
X026920Y039854D01*
X026856Y039834D01*
X026856Y039834D01*
X026849Y039850D01*
X026645Y040054D01*
X026605Y040070D01*
X027435Y040070D01*
X027396Y040054D01*
X027191Y039850D01*
X027184Y039834D01*
X027203Y039861D02*
X027077Y039861D01*
X027059Y039861D02*
X026981Y039861D01*
X026963Y039861D02*
X026838Y039861D01*
X026739Y039960D02*
X027301Y039960D01*
X027405Y040058D02*
X026635Y040058D01*
X026981Y039763D02*
X027059Y039763D01*
X027059Y039664D02*
X026981Y039664D01*
X026981Y039566D02*
X027059Y039566D01*
X028595Y039438D02*
X028595Y039339D01*
X028989Y038946D01*
X027958Y037891D02*
X000600Y037891D01*
X000600Y037793D02*
X028056Y037793D01*
X028155Y037694D02*
X000600Y037694D01*
X000600Y037596D02*
X028253Y037596D01*
X028352Y037497D02*
X000600Y037497D01*
X000600Y037399D02*
X028450Y037399D01*
X028549Y037300D02*
X000600Y037300D01*
X000600Y037202D02*
X028647Y037202D01*
X027502Y037990D02*
X027325Y037990D01*
X026715Y037990D02*
X026538Y037990D01*
X025927Y037990D02*
X025751Y037990D01*
X025140Y037990D02*
X000600Y037990D01*
X000600Y038088D02*
X024979Y038088D01*
X024881Y038187D02*
X000600Y038187D01*
X000600Y038285D02*
X024809Y038285D01*
X024769Y038384D02*
X000600Y038384D01*
X000600Y038482D02*
X024728Y038482D01*
X024718Y038581D02*
X001704Y038581D01*
X001864Y038679D02*
X024718Y038679D01*
X024718Y038778D02*
X001963Y038778D01*
X002053Y038876D02*
X024752Y038876D01*
X024793Y038975D02*
X002093Y038975D01*
X002134Y039073D02*
X024809Y039073D01*
X024718Y039369D02*
X002175Y039369D01*
X002175Y039467D02*
X024718Y039467D01*
X024718Y039566D02*
X002151Y039566D01*
X002110Y039664D02*
X024752Y039664D01*
X024793Y039763D02*
X002069Y039763D01*
X002002Y039861D02*
X024840Y039861D01*
X024939Y039960D02*
X001904Y039960D01*
X001800Y040058D02*
X025043Y040058D01*
X023280Y039241D02*
X024067Y037666D01*
X019398Y033360D02*
X000600Y033360D01*
X000600Y033262D02*
X019497Y033262D01*
X019595Y033163D02*
X000600Y033163D01*
X000600Y033065D02*
X019694Y033065D01*
X019792Y032966D02*
X000600Y032966D01*
X000600Y032868D02*
X019891Y032868D01*
X019989Y032769D02*
X000600Y032769D01*
X000600Y032671D02*
X020088Y032671D01*
X020186Y032572D02*
X000600Y032572D01*
X000600Y032474D02*
X020285Y032474D01*
X020383Y032375D02*
X000600Y032375D01*
X000600Y032277D02*
X020482Y032277D01*
X020580Y032178D02*
X000600Y032178D01*
X000600Y032080D02*
X020679Y032080D01*
X020777Y031981D02*
X000600Y031981D01*
X000600Y031883D02*
X020876Y031883D01*
X020974Y031784D02*
X000600Y031784D01*
X000600Y031686D02*
X001115Y031686D01*
X001202Y031722D02*
X000963Y031623D01*
X000780Y031440D01*
X000681Y031201D01*
X000681Y030942D01*
X000780Y030703D01*
X002059Y029424D01*
X002059Y021297D01*
X002158Y021058D01*
X002341Y020875D01*
X002580Y020776D01*
X002838Y020776D01*
X003077Y020875D01*
X003260Y021058D01*
X003359Y021297D01*
X003359Y029823D01*
X003260Y030062D01*
X001699Y031623D01*
X001460Y031722D01*
X001202Y031722D01*
X000927Y031587D02*
X000600Y031587D01*
X000600Y031489D02*
X000829Y031489D01*
X000760Y031390D02*
X000600Y031390D01*
X000600Y031292D02*
X000719Y031292D01*
X000681Y031193D02*
X000600Y031193D01*
X000600Y031095D02*
X000681Y031095D01*
X000681Y030996D02*
X000600Y030996D01*
X000600Y030898D02*
X000700Y030898D01*
X000740Y030799D02*
X000600Y030799D01*
X000600Y030701D02*
X000783Y030701D01*
X000881Y030602D02*
X000600Y030602D01*
X000600Y030504D02*
X000980Y030504D01*
X001078Y030405D02*
X000600Y030405D01*
X000600Y030307D02*
X001177Y030307D01*
X001275Y030208D02*
X000600Y030208D01*
X000600Y030110D02*
X001374Y030110D01*
X001472Y030011D02*
X000600Y030011D01*
X000600Y029913D02*
X001571Y029913D01*
X001669Y029814D02*
X000600Y029814D01*
X000600Y029716D02*
X001768Y029716D01*
X001866Y029617D02*
X000600Y029617D01*
X000600Y029519D02*
X001965Y029519D01*
X002059Y029420D02*
X000600Y029420D01*
X000600Y029322D02*
X002059Y029322D01*
X002059Y029223D02*
X000600Y029223D01*
X000600Y029125D02*
X002059Y029125D01*
X002059Y029026D02*
X000600Y029026D01*
X000600Y028928D02*
X002059Y028928D01*
X002059Y028829D02*
X000600Y028829D01*
X000600Y028731D02*
X002059Y028731D01*
X002059Y028632D02*
X000600Y028632D01*
X000600Y028534D02*
X002059Y028534D01*
X002059Y028435D02*
X000600Y028435D01*
X000600Y028337D02*
X002059Y028337D01*
X002059Y028238D02*
X000600Y028238D01*
X000600Y028140D02*
X002059Y028140D01*
X002059Y028041D02*
X000600Y028041D01*
X000600Y027943D02*
X002059Y027943D01*
X002059Y027844D02*
X000600Y027844D01*
X000600Y027746D02*
X002059Y027746D01*
X002059Y027647D02*
X000600Y027647D01*
X000600Y027549D02*
X002059Y027549D01*
X002059Y027450D02*
X000600Y027450D01*
X000600Y027352D02*
X002059Y027352D01*
X002059Y027253D02*
X000600Y027253D01*
X000600Y027155D02*
X002059Y027155D01*
X002059Y027056D02*
X000600Y027056D01*
X000600Y026958D02*
X002059Y026958D01*
X002059Y026859D02*
X000600Y026859D01*
X000600Y026761D02*
X002059Y026761D01*
X002059Y026662D02*
X000600Y026662D01*
X000600Y026564D02*
X002059Y026564D01*
X002059Y026465D02*
X000600Y026465D01*
X000600Y026367D02*
X002059Y026367D01*
X002059Y026268D02*
X000600Y026268D01*
X000600Y026170D02*
X002059Y026170D01*
X002059Y026071D02*
X000600Y026071D01*
X000600Y025973D02*
X002059Y025973D01*
X002059Y025874D02*
X000600Y025874D01*
X000600Y025776D02*
X002059Y025776D01*
X002059Y025677D02*
X000600Y025677D01*
X000600Y025579D02*
X002059Y025579D01*
X002059Y025480D02*
X000600Y025480D01*
X000600Y025382D02*
X002059Y025382D01*
X002059Y025283D02*
X000600Y025283D01*
X000600Y025185D02*
X002059Y025185D01*
X002059Y025086D02*
X000600Y025086D01*
X000600Y024988D02*
X002059Y024988D01*
X002059Y024889D02*
X000600Y024889D01*
X000600Y024791D02*
X002059Y024791D01*
X002059Y024692D02*
X000600Y024692D01*
X000600Y024594D02*
X002059Y024594D01*
X002059Y024495D02*
X000600Y024495D01*
X000600Y024397D02*
X002059Y024397D01*
X002059Y024298D02*
X000600Y024298D01*
X000600Y024200D02*
X002059Y024200D01*
X002059Y024101D02*
X000600Y024101D01*
X000600Y024003D02*
X002059Y024003D01*
X002059Y023904D02*
X000600Y023904D01*
X000600Y023806D02*
X002059Y023806D01*
X002059Y023707D02*
X000600Y023707D01*
X000600Y023609D02*
X002059Y023609D01*
X002059Y023510D02*
X000600Y023510D01*
X000600Y023412D02*
X002059Y023412D01*
X002059Y023313D02*
X000600Y023313D01*
X000600Y023215D02*
X002059Y023215D01*
X002059Y023116D02*
X000600Y023116D01*
X000600Y023018D02*
X002059Y023018D01*
X002059Y022919D02*
X000600Y022919D01*
X000600Y022821D02*
X002059Y022821D01*
X002059Y022722D02*
X000600Y022722D01*
X000600Y022624D02*
X002059Y022624D01*
X002059Y022525D02*
X000600Y022525D01*
X000600Y022427D02*
X002059Y022427D01*
X002059Y022328D02*
X000600Y022328D01*
X000600Y022230D02*
X002059Y022230D01*
X002059Y022131D02*
X000600Y022131D01*
X000600Y022033D02*
X002059Y022033D01*
X002059Y021934D02*
X000600Y021934D01*
X000600Y021836D02*
X002059Y021836D01*
X002059Y021737D02*
X000600Y021737D01*
X000600Y021639D02*
X002059Y021639D01*
X002059Y021540D02*
X000600Y021540D01*
X000600Y021442D02*
X001065Y021442D01*
X000843Y021343D02*
X000600Y021343D01*
X000600Y021245D02*
X000744Y021245D01*
X000646Y021146D02*
X000600Y021146D01*
X001597Y021442D02*
X002059Y021442D01*
X002059Y021343D02*
X001820Y021343D01*
X001918Y021245D02*
X002081Y021245D01*
X002121Y021146D02*
X002017Y021146D01*
X002075Y021048D02*
X002168Y021048D01*
X002116Y020949D02*
X002267Y020949D01*
X002156Y020851D02*
X002399Y020851D01*
X002175Y020752D02*
X022878Y020752D01*
X022878Y020851D02*
X003019Y020851D01*
X003152Y020949D02*
X022878Y020949D01*
X022878Y021048D02*
X003250Y021048D01*
X003297Y021146D02*
X022878Y021146D01*
X022878Y021245D02*
X003338Y021245D01*
X003359Y021343D02*
X022878Y021343D01*
X022878Y021442D02*
X003359Y021442D01*
X003359Y021540D02*
X022878Y021540D01*
X022878Y021639D02*
X003359Y021639D01*
X003359Y021737D02*
X022878Y021737D01*
X022878Y021836D02*
X003359Y021836D01*
X003359Y021934D02*
X022878Y021934D01*
X022852Y022033D02*
X003359Y022033D01*
X003359Y022131D02*
X022753Y022131D01*
X022655Y022230D02*
X003359Y022230D01*
X003359Y022328D02*
X022556Y022328D01*
X022458Y022427D02*
X003359Y022427D01*
X003359Y022525D02*
X022359Y022525D01*
X022261Y022624D02*
X003359Y022624D01*
X003359Y022722D02*
X022162Y022722D01*
X022064Y022821D02*
X003359Y022821D01*
X003359Y022919D02*
X021965Y022919D01*
X021867Y023018D02*
X003359Y023018D01*
X003359Y023116D02*
X021768Y023116D01*
X021670Y023215D02*
X003359Y023215D01*
X003359Y023313D02*
X021571Y023313D01*
X021473Y023412D02*
X003359Y023412D01*
X003359Y023510D02*
X021374Y023510D01*
X021276Y023609D02*
X003359Y023609D01*
X003359Y023707D02*
X021177Y023707D01*
X021079Y023806D02*
X003359Y023806D01*
X003359Y023904D02*
X020980Y023904D01*
X020882Y024003D02*
X003359Y024003D01*
X003359Y024101D02*
X020783Y024101D01*
X020685Y024200D02*
X003359Y024200D01*
X003359Y024298D02*
X020586Y024298D01*
X020488Y024397D02*
X003359Y024397D01*
X003359Y024495D02*
X020389Y024495D01*
X020291Y024594D02*
X011682Y024594D01*
X011059Y024594D02*
X003359Y024594D01*
X003359Y024692D02*
X010928Y024692D01*
X010829Y024791D02*
X003359Y024791D01*
X003359Y024889D02*
X010784Y024889D01*
X010743Y024988D02*
X003359Y024988D01*
X003359Y025086D02*
X010722Y025086D01*
X010722Y025185D02*
X003359Y025185D01*
X003359Y025283D02*
X010722Y025283D01*
X010758Y025382D02*
X003359Y025382D01*
X003359Y025480D02*
X010783Y025480D01*
X010743Y025579D02*
X003359Y025579D01*
X003359Y025677D02*
X010722Y025677D01*
X010722Y025776D02*
X003359Y025776D01*
X003359Y025874D02*
X010722Y025874D01*
X010758Y025973D02*
X003359Y025973D01*
X003359Y026071D02*
X010783Y026071D01*
X010742Y026170D02*
X003359Y026170D01*
X003359Y026268D02*
X010722Y026268D01*
X010722Y026367D02*
X003359Y026367D01*
X003359Y026465D02*
X010722Y026465D01*
X010759Y026564D02*
X003359Y026564D01*
X003359Y026662D02*
X010783Y026662D01*
X010742Y026761D02*
X003359Y026761D01*
X003359Y026859D02*
X010722Y026859D01*
X010722Y026958D02*
X003359Y026958D01*
X003359Y027056D02*
X010722Y027056D01*
X010759Y027155D02*
X003359Y027155D01*
X003359Y027253D02*
X010783Y027253D01*
X010742Y027352D02*
X003359Y027352D01*
X003359Y027450D02*
X010722Y027450D01*
X010722Y027549D02*
X003359Y027549D01*
X003359Y027647D02*
X010722Y027647D01*
X010759Y027746D02*
X003359Y027746D01*
X003359Y027844D02*
X010800Y027844D01*
X010868Y027943D02*
X003359Y027943D01*
X003359Y028041D02*
X010967Y028041D01*
X011153Y028140D02*
X003359Y028140D01*
X003359Y028238D02*
X024520Y028238D01*
X024422Y028337D02*
X003359Y028337D01*
X003359Y028435D02*
X024323Y028435D01*
X024225Y028534D02*
X003359Y028534D01*
X003359Y028632D02*
X024126Y028632D01*
X024028Y028731D02*
X003359Y028731D01*
X003359Y028829D02*
X023929Y028829D01*
X023831Y028928D02*
X003359Y028928D01*
X003359Y029026D02*
X023732Y029026D01*
X023634Y029125D02*
X003359Y029125D01*
X003359Y029223D02*
X023535Y029223D01*
X023437Y029322D02*
X003359Y029322D01*
X003359Y029420D02*
X023338Y029420D01*
X023240Y029519D02*
X003359Y029519D01*
X003359Y029617D02*
X023141Y029617D01*
X023043Y029716D02*
X003359Y029716D01*
X003359Y029814D02*
X022944Y029814D01*
X022846Y029913D02*
X003322Y029913D01*
X003281Y030011D02*
X022747Y030011D01*
X022649Y030110D02*
X003212Y030110D01*
X003114Y030208D02*
X022550Y030208D01*
X022452Y030307D02*
X003015Y030307D01*
X002917Y030405D02*
X022353Y030405D01*
X022255Y030504D02*
X002818Y030504D01*
X002720Y030602D02*
X022156Y030602D01*
X022058Y030701D02*
X002621Y030701D01*
X002523Y030799D02*
X021959Y030799D01*
X021861Y030898D02*
X002424Y030898D01*
X002326Y030996D02*
X021762Y030996D01*
X021664Y031095D02*
X002227Y031095D01*
X002129Y031193D02*
X021565Y031193D01*
X021467Y031292D02*
X002030Y031292D01*
X001932Y031390D02*
X021368Y031390D01*
X021270Y031489D02*
X001833Y031489D01*
X001735Y031587D02*
X021171Y031587D01*
X021073Y031686D02*
X001547Y031686D01*
X000958Y038581D02*
X000600Y038581D01*
X000600Y038679D02*
X000798Y038679D01*
X000700Y038778D02*
X000600Y038778D01*
X000600Y038876D02*
X000610Y038876D01*
X011895Y033459D02*
X019300Y033459D01*
X024619Y028140D02*
X011588Y028140D01*
X011774Y028041D02*
X024717Y028041D01*
X028513Y030504D02*
X034541Y030504D01*
X034639Y030405D02*
X028701Y030405D01*
X028620Y029322D02*
X034460Y029322D01*
X036564Y028632D02*
X039129Y028632D01*
X039031Y028534D02*
X036663Y028534D01*
X036761Y028435D02*
X038932Y028435D01*
X038834Y028337D02*
X036860Y028337D01*
X036958Y028238D02*
X038735Y028238D01*
X038637Y028140D02*
X037057Y028140D01*
X037155Y028041D02*
X038538Y028041D01*
X038440Y027943D02*
X037376Y027943D01*
X037562Y027844D02*
X038341Y027844D01*
X038243Y027746D02*
X037660Y027746D01*
X037729Y027647D02*
X038144Y027647D01*
X038046Y027549D02*
X037769Y027549D01*
X037806Y027450D02*
X037947Y027450D01*
X037888Y027352D02*
X037806Y027352D01*
X037806Y027253D02*
X037847Y027253D01*
X037839Y027155D02*
X037786Y027155D01*
X037745Y027056D02*
X037839Y027056D01*
X037839Y026958D02*
X037701Y026958D01*
X038339Y025954D02*
X037552Y025166D01*
X035204Y021737D02*
X043351Y021737D01*
X043344Y021639D02*
X035303Y021639D01*
X035555Y021540D02*
X043278Y021540D01*
X043237Y021442D02*
X035916Y021442D01*
X036278Y021343D02*
X043203Y021343D01*
X043203Y021245D02*
X036639Y021245D01*
X037000Y021146D02*
X043203Y021146D01*
X043851Y021229D02*
X043851Y025536D01*
X045843Y027528D01*
X047402Y027528D02*
X047402Y025863D01*
X046902Y025363D01*
X045918Y025363D01*
X044343Y023788D01*
X044343Y021918D01*
X043351Y021934D02*
X026634Y021934D01*
X026634Y021836D02*
X034567Y021836D01*
X034387Y021737D02*
X026634Y021737D01*
X026634Y021639D02*
X034289Y021639D01*
X034223Y021540D02*
X026634Y021540D01*
X026634Y021442D02*
X034182Y021442D01*
X034148Y021343D02*
X026634Y021343D01*
X026634Y021245D02*
X034148Y021245D01*
X034148Y021146D02*
X026634Y021146D01*
X026634Y021048D02*
X028266Y021048D01*
X028087Y020949D02*
X026634Y020949D01*
X026634Y020851D02*
X027989Y020851D01*
X027924Y020752D02*
X026634Y020752D01*
X026634Y020654D02*
X027883Y020654D01*
X027848Y020555D02*
X026634Y020555D01*
X026634Y020457D02*
X027848Y020457D01*
X027848Y020358D02*
X026634Y020358D01*
X026634Y020260D02*
X027870Y020260D01*
X027911Y020161D02*
X026634Y020161D01*
X026634Y020063D02*
X026886Y020063D01*
X026709Y019964D02*
X026634Y019964D01*
X027351Y020063D02*
X027870Y020063D01*
X027693Y019964D02*
X027528Y019964D01*
X028496Y020048D02*
X028496Y020442D01*
X028496Y020048D02*
X036370Y020048D01*
X036567Y019654D02*
X036567Y018473D01*
X039292Y015749D01*
X047756Y015749D01*
X047756Y014749D02*
X039898Y014749D01*
X036174Y018473D01*
X036174Y018867D01*
X036961Y018867D02*
X036961Y018473D01*
X038685Y016749D01*
X047756Y016749D01*
X047756Y017749D02*
X038079Y017749D01*
X037355Y018473D01*
X037355Y019654D01*
X037748Y018867D02*
X037867Y018749D01*
X047756Y018749D01*
X049418Y019373D02*
X053330Y019373D01*
X053330Y019275D02*
X049485Y019275D01*
X049406Y019472D02*
X053330Y019472D01*
X053330Y019570D02*
X049406Y019570D01*
X049406Y019669D02*
X053330Y019669D01*
X053330Y019767D02*
X049406Y019767D01*
X049406Y019866D02*
X052173Y019866D01*
X051993Y019964D02*
X049406Y019964D01*
X049406Y020063D02*
X051895Y020063D01*
X051797Y020161D02*
X049406Y020161D01*
X049406Y020260D02*
X051756Y020260D01*
X051715Y020358D02*
X049406Y020358D01*
X049406Y020457D02*
X051674Y020457D01*
X051669Y020555D02*
X049406Y020555D01*
X049743Y021737D02*
X050194Y021737D01*
X050064Y021836D02*
X049798Y021836D01*
X049839Y021934D02*
X049980Y021934D01*
X049926Y022033D02*
X049880Y022033D01*
X050470Y022033D02*
X050570Y022033D01*
X050570Y022131D02*
X050470Y022131D01*
X050470Y022230D02*
X050570Y022230D01*
X050570Y022328D02*
X050470Y022328D01*
X050470Y022427D02*
X050570Y022427D01*
X050570Y022525D02*
X050470Y022525D01*
X050470Y022624D02*
X050570Y022624D01*
X050570Y022722D02*
X050470Y022722D01*
X051172Y023018D02*
X053330Y023018D01*
X053330Y023116D02*
X051172Y023116D01*
X051172Y023215D02*
X053330Y023215D01*
X053330Y023313D02*
X051172Y023313D01*
X051164Y023412D02*
X053330Y023412D01*
X053330Y023510D02*
X051140Y023510D01*
X051098Y023609D02*
X053330Y023609D01*
X053330Y023707D02*
X051034Y023707D01*
X050940Y023806D02*
X053330Y023806D01*
X053330Y023904D02*
X050779Y023904D01*
X048961Y024969D02*
X048764Y024772D01*
X049746Y026465D02*
X050188Y026465D01*
X050061Y026564D02*
X049800Y026564D01*
X049841Y026662D02*
X049978Y026662D01*
X049924Y026761D02*
X049881Y026761D01*
X050470Y026761D02*
X050570Y026761D01*
X050570Y026859D02*
X050470Y026859D01*
X050470Y026958D02*
X050570Y026958D01*
X050570Y027056D02*
X050470Y027056D01*
X050470Y027155D02*
X050570Y027155D01*
X050570Y027253D02*
X050470Y027253D01*
X050470Y027352D02*
X050570Y027352D01*
X050570Y027450D02*
X050470Y027450D01*
X051172Y027746D02*
X053330Y027746D01*
X053330Y027844D02*
X051172Y027844D01*
X051172Y027943D02*
X053330Y027943D01*
X053330Y028041D02*
X051172Y028041D01*
X051163Y028140D02*
X053330Y028140D01*
X053330Y028238D02*
X051139Y028238D01*
X051096Y028337D02*
X053330Y028337D01*
X053330Y028435D02*
X051031Y028435D01*
X050935Y028534D02*
X053330Y028534D01*
X053330Y028632D02*
X050771Y028632D01*
X050570Y026662D02*
X050470Y026662D01*
X050470Y026564D02*
X050570Y026564D01*
X050570Y026465D02*
X050470Y026465D01*
X050470Y031193D02*
X050570Y031193D01*
X050570Y031292D02*
X050470Y031292D01*
X050470Y031390D02*
X050570Y031390D01*
X050570Y031489D02*
X050470Y031489D01*
X050470Y031587D02*
X050570Y031587D01*
X050570Y031686D02*
X050470Y031686D01*
X050470Y031784D02*
X050570Y031784D01*
X050570Y031883D02*
X050470Y031883D01*
X050470Y031981D02*
X050570Y031981D01*
X050570Y032080D02*
X050470Y032080D01*
X050470Y032178D02*
X050570Y032178D01*
X051172Y032474D02*
X053330Y032474D01*
X053330Y032572D02*
X051172Y032572D01*
X051172Y032671D02*
X053330Y032671D01*
X053330Y032769D02*
X051172Y032769D01*
X051163Y032868D02*
X053330Y032868D01*
X053330Y032966D02*
X051138Y032966D01*
X051094Y033065D02*
X053330Y033065D01*
X053330Y033163D02*
X051028Y033163D01*
X050930Y033262D02*
X053330Y033262D01*
X053330Y033360D02*
X050762Y033360D01*
X049923Y031489D02*
X049883Y031489D01*
X049842Y031390D02*
X049975Y031390D01*
X050057Y031292D02*
X049801Y031292D01*
X049750Y031193D02*
X050182Y031193D01*
X050176Y035921D02*
X049753Y035921D01*
X049803Y036020D02*
X050053Y036020D01*
X049973Y036118D02*
X049844Y036118D01*
X049884Y036217D02*
X049921Y036217D01*
X050470Y036217D02*
X050570Y036217D01*
X050570Y036315D02*
X050470Y036315D01*
X050470Y036414D02*
X050570Y036414D01*
X050570Y036512D02*
X050470Y036512D01*
X050470Y036611D02*
X050570Y036611D01*
X050570Y036709D02*
X050470Y036709D01*
X050470Y036808D02*
X050570Y036808D01*
X050570Y036906D02*
X050470Y036906D01*
X051172Y037202D02*
X053330Y037202D01*
X053330Y037300D02*
X051172Y037300D01*
X051172Y037399D02*
X053330Y037399D01*
X053330Y037497D02*
X051172Y037497D01*
X051162Y037596D02*
X053330Y037596D01*
X053330Y037694D02*
X051137Y037694D01*
X051092Y037793D02*
X053330Y037793D01*
X053330Y037891D02*
X051026Y037891D01*
X050926Y037990D02*
X053330Y037990D01*
X053330Y038088D02*
X050753Y038088D01*
X048657Y038384D02*
X047706Y038384D01*
X047942Y038285D02*
X048421Y038285D01*
X048322Y038187D02*
X048041Y038187D01*
X048139Y038088D02*
X048224Y038088D01*
X047098Y038384D02*
X046146Y038384D01*
X046383Y038285D02*
X046862Y038285D01*
X046763Y038187D02*
X046482Y038187D01*
X046580Y038088D02*
X046665Y038088D01*
X050470Y036118D02*
X050570Y036118D01*
X050570Y036020D02*
X050470Y036020D01*
X050470Y035921D02*
X050570Y035921D01*
X052886Y038581D02*
X053330Y038581D01*
X053330Y038679D02*
X053045Y038679D01*
X053144Y038778D02*
X053330Y038778D01*
X053330Y038876D02*
X053234Y038876D01*
X053274Y038975D02*
X053330Y038975D01*
X053330Y039073D02*
X053315Y039073D01*
X041887Y031390D02*
X040644Y031390D01*
X040546Y031292D02*
X041789Y031292D01*
X041690Y031193D02*
X040447Y031193D01*
X040349Y031095D02*
X041592Y031095D01*
X041493Y030996D02*
X040250Y030996D01*
X040152Y030898D02*
X041395Y030898D01*
X041296Y030799D02*
X040053Y030799D01*
X039955Y030701D02*
X041198Y030701D01*
X041099Y030602D02*
X039856Y030602D01*
X039758Y030504D02*
X041001Y030504D01*
X040902Y030405D02*
X039659Y030405D01*
X039561Y030307D02*
X040804Y030307D01*
X040705Y030208D02*
X039462Y030208D01*
X039364Y030110D02*
X040607Y030110D01*
X040508Y030011D02*
X039265Y030011D01*
X039167Y029913D02*
X040410Y029913D01*
X040311Y029814D02*
X039068Y029814D01*
X038970Y029716D02*
X040213Y029716D01*
X040114Y029617D02*
X038871Y029617D01*
X038773Y029519D02*
X040016Y029519D01*
X039917Y029420D02*
X038674Y029420D01*
X038576Y029322D02*
X039819Y029322D01*
X039720Y029223D02*
X038477Y029223D01*
X038379Y029125D02*
X039622Y029125D01*
X039523Y029026D02*
X038280Y029026D01*
X038182Y028928D02*
X039425Y028928D01*
X039326Y028829D02*
X038017Y028829D01*
X036985Y028731D02*
X039228Y028731D01*
X043351Y024200D02*
X025798Y024200D01*
X025798Y024101D02*
X043351Y024101D01*
X043351Y024003D02*
X025777Y024003D01*
X025737Y023904D02*
X043351Y023904D01*
X043351Y023806D02*
X025690Y023806D01*
X025650Y023707D02*
X043351Y023707D01*
X043351Y023609D02*
X025650Y023609D01*
X025650Y023510D02*
X043351Y023510D01*
X043351Y023412D02*
X025650Y023412D01*
X025650Y023313D02*
X043351Y023313D01*
X043351Y023215D02*
X025650Y023215D01*
X025650Y023116D02*
X043351Y023116D01*
X043351Y023018D02*
X026361Y023018D01*
X026542Y022919D02*
X043351Y022919D01*
X043351Y022821D02*
X026640Y022821D01*
X026707Y022722D02*
X043351Y022722D01*
X043351Y022624D02*
X026747Y022624D01*
X026782Y022525D02*
X043351Y022525D01*
X043351Y022427D02*
X026782Y022427D01*
X026782Y022328D02*
X043351Y022328D01*
X043351Y022230D02*
X026761Y022230D01*
X026720Y022131D02*
X043351Y022131D01*
X043351Y022033D02*
X026673Y022033D01*
X026134Y022410D02*
X026134Y019261D01*
X025544Y019457D02*
X025150Y019457D01*
X024166Y020442D01*
X023772Y020442D01*
X023378Y020835D01*
X023378Y022213D01*
X020426Y025166D01*
X011370Y025166D01*
X011370Y025757D02*
X020426Y025757D01*
X023772Y022410D01*
X023772Y021032D01*
X023969Y020835D01*
X024756Y020835D01*
X025347Y020245D01*
X025741Y020245D01*
X027119Y019457D02*
X026331Y018670D01*
X025544Y018670D01*
X024166Y020048D01*
X020426Y020048D01*
X020657Y020654D02*
X022912Y020654D01*
X022953Y020555D02*
X020835Y020555D01*
X020194Y020654D02*
X002175Y020654D01*
X002175Y020555D02*
X020016Y020555D01*
X019918Y020457D02*
X002169Y020457D01*
X002128Y020358D02*
X019853Y020358D01*
X019812Y020260D02*
X002087Y020260D01*
X002047Y020161D02*
X019777Y020161D01*
X019777Y020063D02*
X001948Y020063D01*
X001850Y019964D02*
X019777Y019964D01*
X019800Y019866D02*
X001670Y019866D01*
X000992Y019866D02*
X000600Y019866D01*
X000600Y019964D02*
X000812Y019964D01*
X000714Y020063D02*
X000600Y020063D01*
X000600Y020161D02*
X000616Y020161D01*
X000600Y019767D02*
X019840Y019767D01*
X019888Y019669D02*
X000600Y019669D01*
X000600Y019570D02*
X019987Y019570D01*
X020123Y019472D02*
X000600Y019472D01*
X000600Y019373D02*
X021809Y019373D01*
X021768Y019472D02*
X020728Y019472D01*
X021857Y019275D02*
X000600Y019275D01*
X000600Y019176D02*
X021956Y019176D01*
X022093Y019078D02*
X000600Y019078D01*
X000600Y018979D02*
X024134Y018979D01*
X024232Y018881D02*
X000600Y018881D01*
X000600Y018782D02*
X024331Y018782D01*
X024429Y018684D02*
X000600Y018684D01*
X000600Y018585D02*
X024528Y018585D01*
X024626Y018487D02*
X000600Y018487D01*
X000600Y018388D02*
X024725Y018388D01*
X024823Y018290D02*
X000600Y018290D01*
X000600Y018191D02*
X024922Y018191D01*
X025020Y018093D02*
X000600Y018093D01*
X000600Y017994D02*
X025197Y017994D01*
X025347Y018473D02*
X027119Y018473D01*
X028103Y017489D02*
X023772Y013158D01*
X023339Y012675D02*
X014381Y012675D01*
X014381Y012577D02*
X016439Y012577D01*
X016557Y012625D02*
X016318Y012527D01*
X016136Y012344D01*
X016037Y012106D01*
X016037Y011848D01*
X016136Y011610D01*
X016318Y011428D01*
X016557Y011329D01*
X016626Y011329D01*
X016825Y011131D01*
X016825Y011061D01*
X016923Y010823D01*
X017106Y010640D01*
X017344Y010542D01*
X017602Y010542D01*
X017840Y010640D01*
X018022Y010823D01*
X018121Y011061D01*
X018121Y011319D01*
X018022Y011557D01*
X017840Y011739D01*
X017602Y011838D01*
X017532Y011838D01*
X017334Y012036D01*
X017334Y012106D01*
X017235Y012344D01*
X017053Y012527D01*
X016814Y012625D01*
X016557Y012625D01*
X016270Y012478D02*
X014381Y012478D01*
X014356Y012380D02*
X016171Y012380D01*
X016110Y012281D02*
X014316Y012281D01*
X014349Y012183D02*
X016069Y012183D01*
X015996Y012174D02*
X015012Y012174D01*
X011370Y015816D01*
X011370Y018473D01*
X011469Y018572D01*
X015201Y017206D02*
X016595Y017206D01*
X016497Y017108D02*
X015299Y017108D01*
X018457Y014946D02*
X018457Y014536D01*
X019244Y014536D02*
X020229Y015520D01*
X022000Y015520D01*
X022649Y015532D02*
X024257Y015532D01*
X024159Y015433D02*
X022807Y015433D01*
X022649Y015630D02*
X024356Y015630D01*
X024454Y015729D02*
X022616Y015729D01*
X022575Y015827D02*
X024553Y015827D01*
X024651Y015926D02*
X022512Y015926D01*
X022413Y016024D02*
X024750Y016024D01*
X024848Y016123D02*
X022240Y016123D01*
X022687Y014350D02*
X023456Y014350D01*
X023321Y013857D02*
X005339Y013857D01*
X005026Y013759D02*
X023345Y013759D01*
X023969Y013946D02*
X027315Y017292D01*
X027906Y016702D02*
X024559Y013355D01*
X024502Y012675D02*
X024206Y012675D01*
X024062Y012577D02*
X024526Y012577D01*
X024567Y012478D02*
X017101Y012478D01*
X017199Y012380D02*
X024618Y012380D01*
X024717Y012281D02*
X017261Y012281D01*
X017302Y012183D02*
X024861Y012183D01*
X025439Y012183D02*
X048058Y012183D01*
X048106Y012281D02*
X025583Y012281D01*
X025682Y012380D02*
X028207Y012380D01*
X028063Y012478D02*
X025733Y012478D01*
X025774Y012577D02*
X027965Y012577D01*
X027913Y012675D02*
X025798Y012675D01*
X025866Y012774D02*
X027222Y012774D01*
X027079Y012872D02*
X025965Y012872D01*
X026063Y012971D02*
X026434Y012971D01*
X026291Y013069D02*
X026162Y013069D01*
X026725Y013552D02*
X026725Y013749D01*
X029284Y016308D01*
X029522Y016911D02*
X034772Y016911D01*
X034674Y016812D02*
X029696Y016812D01*
X029795Y016714D02*
X034575Y016714D01*
X034477Y016615D02*
X029858Y016615D01*
X029899Y016517D02*
X034464Y016517D01*
X034464Y016418D02*
X029932Y016418D01*
X030114Y016320D02*
X034464Y016320D01*
X034464Y016221D02*
X030287Y016221D01*
X030386Y016123D02*
X034464Y016123D01*
X034464Y016024D02*
X030449Y016024D01*
X030490Y015926D02*
X034552Y015926D01*
X034650Y015827D02*
X030523Y015827D01*
X030523Y015729D02*
X034575Y015729D01*
X034476Y015630D02*
X030523Y015630D01*
X030499Y015532D02*
X034464Y015532D01*
X034464Y015433D02*
X030458Y015433D01*
X030408Y015335D02*
X034464Y015335D01*
X034464Y015236D02*
X030310Y015236D01*
X030169Y015138D02*
X034464Y015138D01*
X034464Y015039D02*
X029903Y015039D01*
X029805Y014941D02*
X034552Y014941D01*
X034651Y014842D02*
X029706Y014842D01*
X029608Y014744D02*
X034574Y014744D01*
X034475Y014645D02*
X029509Y014645D01*
X029411Y014547D02*
X034464Y014547D01*
X034464Y014448D02*
X029312Y014448D01*
X029214Y014350D02*
X034464Y014350D01*
X034464Y014251D02*
X029115Y014251D01*
X029017Y014153D02*
X034464Y014153D01*
X034464Y014054D02*
X028996Y014054D01*
X028996Y013956D02*
X034553Y013956D01*
X034652Y013857D02*
X028996Y013857D01*
X028996Y013759D02*
X034573Y013759D01*
X034475Y013660D02*
X028996Y013660D01*
X028996Y013562D02*
X034464Y013562D01*
X034464Y013463D02*
X028996Y013463D01*
X029010Y013365D02*
X034464Y013365D01*
X034464Y013266D02*
X029072Y013266D01*
X029113Y013168D02*
X034464Y013168D01*
X034464Y013069D02*
X029145Y013069D01*
X029145Y012971D02*
X034554Y012971D01*
X034652Y012872D02*
X029145Y012872D01*
X029120Y012774D02*
X034751Y012774D01*
X034849Y012675D02*
X029079Y012675D01*
X029028Y012577D02*
X048106Y012577D01*
X048106Y012675D02*
X035498Y012675D01*
X035596Y012774D02*
X048106Y012774D01*
X048106Y012872D02*
X035695Y012872D01*
X037369Y012971D02*
X048106Y012971D01*
X048106Y012478D02*
X028930Y012478D01*
X028786Y012380D02*
X048106Y012380D01*
X047960Y012084D02*
X017334Y012084D01*
X017384Y011986D02*
X047861Y011986D01*
X047763Y011887D02*
X017482Y011887D01*
X017720Y011789D02*
X047664Y011789D01*
X047566Y011690D02*
X017889Y011690D01*
X017987Y011592D02*
X047467Y011592D01*
X047369Y011493D02*
X018049Y011493D01*
X018089Y011395D02*
X047270Y011395D01*
X047172Y011296D02*
X018121Y011296D01*
X018121Y011198D02*
X047073Y011198D01*
X046975Y011099D02*
X018121Y011099D01*
X018096Y011001D02*
X046876Y011001D01*
X046778Y010902D02*
X018055Y010902D01*
X018003Y010804D02*
X046679Y010804D01*
X046581Y010705D02*
X017905Y010705D01*
X017759Y010607D02*
X046482Y010607D01*
X046384Y010508D02*
X014315Y010508D01*
X014350Y010410D02*
X046285Y010410D01*
X046187Y010311D02*
X014381Y010311D01*
X014381Y010213D02*
X046088Y010213D01*
X046028Y010114D02*
X014381Y010114D01*
X014356Y010016D02*
X045988Y010016D01*
X045957Y009917D02*
X014315Y009917D01*
X014262Y009819D02*
X045957Y009819D01*
X045957Y009720D02*
X014164Y009720D01*
X015367Y009622D02*
X020821Y009622D01*
X020846Y009647D02*
X020606Y009407D01*
X020606Y009267D01*
X020986Y009267D01*
X020986Y009207D01*
X020606Y009207D01*
X020606Y009067D01*
X020846Y008827D01*
X020986Y008827D01*
X020986Y009207D01*
X021046Y009207D01*
X021046Y008827D01*
X021186Y008827D01*
X021426Y009067D01*
X021426Y009207D01*
X021046Y009207D01*
X021046Y009267D01*
X020986Y009267D01*
X020986Y009647D01*
X020846Y009647D01*
X020986Y009622D02*
X021046Y009622D01*
X021046Y009647D02*
X021046Y009267D01*
X021426Y009267D01*
X021426Y009407D01*
X021186Y009647D01*
X021046Y009647D01*
X021046Y009523D02*
X020986Y009523D01*
X020986Y009425D02*
X021046Y009425D01*
X021046Y009326D02*
X020986Y009326D01*
X021016Y009237D02*
X020130Y010123D01*
X020130Y011387D01*
X020723Y009523D02*
X015531Y009523D01*
X015630Y009425D02*
X020624Y009425D01*
X020606Y009326D02*
X015728Y009326D01*
X015827Y009228D02*
X020986Y009228D01*
X021046Y009228D02*
X025711Y009228D01*
X025711Y009207D02*
X025331Y009207D01*
X025331Y009067D01*
X025571Y008827D01*
X025711Y008827D01*
X025711Y009207D01*
X025771Y009207D01*
X025771Y009267D01*
X026151Y009267D01*
X026151Y009407D01*
X025910Y009647D01*
X025771Y009647D01*
X025771Y009267D01*
X025711Y009267D01*
X025711Y009647D01*
X025571Y009647D01*
X025331Y009407D01*
X025331Y009267D01*
X025711Y009267D01*
X025711Y009207D01*
X025771Y009207D02*
X025771Y008827D01*
X025910Y008827D01*
X026151Y009067D01*
X026151Y009207D01*
X025771Y009207D01*
X025771Y009228D02*
X030435Y009228D01*
X030435Y009207D02*
X030055Y009207D01*
X030055Y009067D01*
X030295Y008827D01*
X030435Y008827D01*
X030435Y009207D01*
X030495Y009207D01*
X030495Y009267D01*
X030875Y009267D01*
X030875Y009407D01*
X030635Y009647D01*
X030495Y009647D01*
X030495Y009267D01*
X030435Y009267D01*
X030435Y009647D01*
X030295Y009647D01*
X030055Y009407D01*
X030055Y009267D01*
X030435Y009267D01*
X030435Y009207D01*
X030495Y009207D02*
X030495Y008827D01*
X030635Y008827D01*
X030875Y009067D01*
X030875Y009207D01*
X030495Y009207D01*
X030495Y009228D02*
X035159Y009228D01*
X035159Y009207D02*
X034779Y009207D01*
X034779Y009067D01*
X035020Y008827D01*
X035159Y008827D01*
X035159Y009207D01*
X035159Y009267D01*
X034779Y009267D01*
X034779Y009407D01*
X035020Y009647D01*
X035159Y009647D01*
X035159Y009267D01*
X035219Y009267D01*
X035219Y009647D01*
X035359Y009647D01*
X035599Y009407D01*
X035599Y009267D01*
X035219Y009267D01*
X035219Y009207D01*
X035219Y008827D01*
X035359Y008827D01*
X035599Y009067D01*
X035599Y009207D01*
X035219Y009207D01*
X035159Y009207D01*
X035219Y009228D02*
X045957Y009228D01*
X045957Y009326D02*
X035599Y009326D01*
X035581Y009425D02*
X045957Y009425D01*
X045957Y009523D02*
X035483Y009523D01*
X035384Y009622D02*
X045957Y009622D01*
X045957Y009129D02*
X035599Y009129D01*
X035563Y009031D02*
X045957Y009031D01*
X045957Y008932D02*
X035464Y008932D01*
X035366Y008834D02*
X045957Y008834D01*
X045957Y008735D02*
X016319Y008735D01*
X016418Y008637D02*
X045957Y008637D01*
X045957Y008538D02*
X016516Y008538D01*
X016615Y008440D02*
X045957Y008440D01*
X045957Y008341D02*
X016713Y008341D01*
X016812Y008243D02*
X045957Y008243D01*
X045957Y008144D02*
X016910Y008144D01*
X017009Y008046D02*
X045957Y008046D01*
X045957Y007947D02*
X017107Y007947D01*
X017206Y007849D02*
X020624Y007849D01*
X020525Y007750D02*
X017304Y007750D01*
X017403Y007652D02*
X020427Y007652D01*
X020328Y007553D02*
X017501Y007553D01*
X017600Y007455D02*
X020306Y007455D01*
X020306Y007356D02*
X017698Y007356D01*
X017797Y007258D02*
X020306Y007258D01*
X020306Y007159D02*
X017895Y007159D01*
X017994Y007061D02*
X020306Y007061D01*
X020306Y006962D02*
X018092Y006962D01*
X018191Y006864D02*
X020385Y006864D01*
X020214Y006765D02*
X018289Y006765D01*
X018388Y006667D02*
X019976Y006667D01*
X019877Y006568D02*
X018486Y006568D01*
X018585Y006470D02*
X019779Y006470D01*
X019696Y006371D02*
X018683Y006371D01*
X018782Y006273D02*
X019655Y006273D01*
X019614Y006174D02*
X018880Y006174D01*
X018979Y006076D02*
X019574Y006076D01*
X019562Y005977D02*
X019077Y005977D01*
X019176Y005879D02*
X019562Y005879D01*
X019562Y005780D02*
X019234Y005780D01*
X019274Y005682D02*
X019562Y005682D01*
X019598Y005583D02*
X019304Y005583D01*
X019304Y005485D02*
X019639Y005485D01*
X019680Y005386D02*
X019304Y005386D01*
X019304Y005288D02*
X019739Y005288D01*
X019838Y005189D02*
X019304Y005189D01*
X019304Y005091D02*
X019936Y005091D01*
X019860Y004992D02*
X019304Y004992D01*
X018004Y004992D02*
X017448Y004992D01*
X017372Y005091D02*
X018004Y005091D01*
X018004Y005189D02*
X017470Y005189D01*
X017569Y005288D02*
X017928Y005288D01*
X017830Y005386D02*
X017628Y005386D01*
X017669Y005485D02*
X017731Y005485D01*
X017546Y004894D02*
X018004Y004894D01*
X018004Y004795D02*
X017619Y004795D01*
X017660Y004697D02*
X018004Y004697D01*
X018004Y004598D02*
X017701Y004598D01*
X017741Y004500D02*
X018004Y004500D01*
X018004Y004401D02*
X017746Y004401D01*
X017746Y004303D02*
X018004Y004303D01*
X018004Y004204D02*
X017746Y004204D01*
X017744Y004106D02*
X018031Y004106D01*
X018072Y004007D02*
X017703Y004007D01*
X017662Y003909D02*
X018126Y003909D01*
X018224Y003810D02*
X017621Y003810D01*
X017552Y003712D02*
X018376Y003712D01*
X017453Y003613D02*
X019855Y003613D01*
X019953Y003515D02*
X017355Y003515D01*
X017148Y003416D02*
X020160Y003416D01*
X020209Y003318D02*
X017099Y003318D01*
X017237Y003219D02*
X020070Y003219D01*
X019984Y003121D02*
X017324Y003121D01*
X017383Y003022D02*
X019925Y003022D01*
X019888Y002924D02*
X017420Y002924D01*
X017440Y002825D02*
X019868Y002825D01*
X019871Y002628D02*
X017436Y002628D01*
X017412Y002530D02*
X019896Y002530D01*
X019940Y002431D02*
X017368Y002431D01*
X017302Y002333D02*
X020006Y002333D01*
X020104Y002234D02*
X017204Y002234D01*
X017036Y002136D02*
X020272Y002136D01*
X021761Y002136D02*
X024996Y002136D01*
X024828Y002234D02*
X021929Y002234D01*
X022027Y002333D02*
X024730Y002333D01*
X024665Y002431D02*
X022092Y002431D01*
X022136Y002530D02*
X024620Y002530D01*
X024596Y002628D02*
X022161Y002628D01*
X022165Y002825D02*
X024592Y002825D01*
X024613Y002924D02*
X022144Y002924D01*
X022107Y003022D02*
X024649Y003022D01*
X024708Y003121D02*
X022049Y003121D01*
X021962Y003219D02*
X024795Y003219D01*
X024934Y003318D02*
X021823Y003318D01*
X021872Y003416D02*
X024885Y003416D01*
X024678Y003515D02*
X022079Y003515D01*
X022178Y003613D02*
X024579Y003613D01*
X025691Y002530D02*
X025791Y002530D01*
X025791Y002431D02*
X025691Y002431D01*
X025691Y002333D02*
X025791Y002333D01*
X025791Y002234D02*
X025691Y002234D01*
X025691Y002136D02*
X025791Y002136D01*
X026485Y002136D02*
X029721Y002136D01*
X029552Y002234D02*
X026653Y002234D01*
X026751Y002333D02*
X029454Y002333D01*
X029389Y002431D02*
X026817Y002431D01*
X026861Y002530D02*
X029345Y002530D01*
X029320Y002628D02*
X026885Y002628D01*
X026889Y002825D02*
X029316Y002825D01*
X029337Y002924D02*
X026869Y002924D01*
X026832Y003022D02*
X029374Y003022D01*
X029433Y003121D02*
X026773Y003121D01*
X026686Y003219D02*
X029519Y003219D01*
X029658Y003318D02*
X026547Y003318D01*
X026596Y003416D02*
X029609Y003416D01*
X029402Y003515D02*
X026804Y003515D01*
X026902Y003613D02*
X029304Y003613D01*
X031272Y003318D02*
X034382Y003318D01*
X034333Y003416D02*
X031321Y003416D01*
X031411Y003219D02*
X034244Y003219D01*
X034157Y003121D02*
X031497Y003121D01*
X031556Y003022D02*
X034098Y003022D01*
X034061Y002924D02*
X031593Y002924D01*
X031613Y002825D02*
X034041Y002825D01*
X034045Y002628D02*
X031610Y002628D01*
X031585Y002530D02*
X034069Y002530D01*
X034113Y002431D02*
X031541Y002431D01*
X031475Y002333D02*
X034179Y002333D01*
X034277Y002234D02*
X031377Y002234D01*
X031209Y002136D02*
X034445Y002136D01*
X034126Y003515D02*
X031528Y003515D01*
X031626Y003613D02*
X034028Y003613D01*
X035996Y003318D02*
X039107Y003318D01*
X039058Y003416D02*
X036045Y003416D01*
X036135Y003219D02*
X038968Y003219D01*
X038881Y003121D02*
X036222Y003121D01*
X036281Y003022D02*
X038823Y003022D01*
X038786Y002924D02*
X036317Y002924D01*
X036338Y002825D02*
X038765Y002825D01*
X038769Y002628D02*
X036334Y002628D01*
X036310Y002530D02*
X038794Y002530D01*
X038838Y002431D02*
X036265Y002431D01*
X036200Y002333D02*
X038903Y002333D01*
X039001Y002234D02*
X036102Y002234D01*
X035934Y002136D02*
X039169Y002136D01*
X039864Y002136D02*
X039964Y002136D01*
X039964Y002234D02*
X039864Y002234D01*
X039864Y002333D02*
X039964Y002333D01*
X039964Y002431D02*
X039864Y002431D01*
X039864Y002530D02*
X039964Y002530D01*
X040658Y002136D02*
X043894Y002136D01*
X043726Y002234D02*
X040826Y002234D01*
X040924Y002333D02*
X043628Y002333D01*
X043562Y002431D02*
X040990Y002431D01*
X041034Y002530D02*
X043518Y002530D01*
X043493Y002628D02*
X041058Y002628D01*
X041062Y002825D02*
X043490Y002825D01*
X043510Y002924D02*
X041042Y002924D01*
X041005Y003022D02*
X043547Y003022D01*
X043606Y003121D02*
X040946Y003121D01*
X040860Y003219D02*
X043692Y003219D01*
X043831Y003318D02*
X040721Y003318D01*
X040770Y003416D02*
X043782Y003416D01*
X043575Y003515D02*
X040977Y003515D01*
X041075Y003613D02*
X043477Y003613D01*
X043482Y004992D02*
X041070Y004992D01*
X040994Y005091D02*
X043558Y005091D01*
X043460Y005189D02*
X041092Y005189D01*
X041191Y005288D02*
X043361Y005288D01*
X043302Y005386D02*
X041250Y005386D01*
X041291Y005485D02*
X043261Y005485D01*
X043220Y005583D02*
X041332Y005583D01*
X041368Y005682D02*
X043184Y005682D01*
X043184Y005780D02*
X041368Y005780D01*
X041368Y005879D02*
X043184Y005879D01*
X043184Y005977D02*
X041368Y005977D01*
X041356Y006076D02*
X043196Y006076D01*
X043236Y006174D02*
X041316Y006174D01*
X041275Y006273D02*
X043277Y006273D01*
X043318Y006371D02*
X041234Y006371D01*
X041151Y006470D02*
X043401Y006470D01*
X043499Y006568D02*
X041053Y006568D01*
X040954Y006667D02*
X043598Y006667D01*
X043836Y006765D02*
X040716Y006765D01*
X039112Y006765D02*
X035991Y006765D01*
X035820Y006864D02*
X045957Y006864D01*
X045957Y006962D02*
X035899Y006962D01*
X035899Y007061D02*
X045957Y007061D01*
X045957Y007159D02*
X035899Y007159D01*
X035899Y007258D02*
X045957Y007258D01*
X045957Y007356D02*
X035899Y007356D01*
X035899Y007455D02*
X045957Y007455D01*
X045957Y007553D02*
X035877Y007553D01*
X035779Y007652D02*
X045957Y007652D01*
X045957Y007750D02*
X035680Y007750D01*
X035582Y007849D02*
X045957Y007849D01*
X047257Y007849D02*
X048265Y007849D01*
X048224Y007750D02*
X047257Y007750D01*
X047257Y007652D02*
X048126Y007652D01*
X048043Y007553D02*
X047257Y007553D01*
X047257Y007455D02*
X048002Y007455D01*
X047961Y007356D02*
X047257Y007356D01*
X047257Y007258D02*
X047920Y007258D01*
X047909Y007159D02*
X047257Y007159D01*
X047257Y007061D02*
X047909Y007061D01*
X047909Y006962D02*
X047257Y006962D01*
X047257Y006864D02*
X047909Y006864D01*
X047944Y006765D02*
X047257Y006765D01*
X047257Y006667D02*
X047985Y006667D01*
X048026Y006568D02*
X047257Y006568D01*
X047257Y006470D02*
X048085Y006470D01*
X048183Y006371D02*
X047257Y006371D01*
X047257Y006273D02*
X048282Y006273D01*
X048207Y006174D02*
X047257Y006174D01*
X047257Y006076D02*
X048109Y006076D01*
X048036Y005977D02*
X047257Y005977D01*
X047257Y005879D02*
X047995Y005879D01*
X047954Y005780D02*
X047257Y005780D01*
X047257Y005682D02*
X047913Y005682D01*
X047909Y005583D02*
X047257Y005583D01*
X047257Y005485D02*
X047909Y005485D01*
X047909Y005386D02*
X047257Y005386D01*
X047257Y005288D02*
X047910Y005288D01*
X047951Y005189D02*
X047257Y005189D01*
X047257Y005091D02*
X047992Y005091D01*
X048033Y004992D02*
X047257Y004992D01*
X047230Y004894D02*
X048102Y004894D01*
X048200Y004795D02*
X047189Y004795D01*
X047135Y004697D02*
X048299Y004697D01*
X048505Y004598D02*
X047037Y004598D01*
X046938Y004500D02*
X048557Y004500D01*
X048418Y004401D02*
X046840Y004401D01*
X046741Y004303D02*
X048331Y004303D01*
X048272Y004204D02*
X046834Y004204D01*
X046933Y004106D02*
X048235Y004106D01*
X048214Y004007D02*
X047031Y004007D01*
X047130Y003909D02*
X049313Y003909D01*
X049413Y003909D02*
X053330Y003909D01*
X053330Y004007D02*
X050511Y004007D01*
X050490Y004106D02*
X053330Y004106D01*
X053330Y004204D02*
X050453Y004204D01*
X050394Y004303D02*
X053330Y004303D01*
X053330Y004401D02*
X050307Y004401D01*
X050168Y004500D02*
X053330Y004500D01*
X053330Y004598D02*
X050221Y004598D01*
X050426Y004697D02*
X053330Y004697D01*
X053330Y004795D02*
X050525Y004795D01*
X050623Y004894D02*
X053330Y004894D01*
X053330Y004992D02*
X050692Y004992D01*
X050733Y005091D02*
X053330Y005091D01*
X053330Y005189D02*
X050774Y005189D01*
X050815Y005288D02*
X053330Y005288D01*
X053330Y005386D02*
X050817Y005386D01*
X050817Y005485D02*
X053330Y005485D01*
X053330Y005583D02*
X050817Y005583D01*
X050812Y005682D02*
X053330Y005682D01*
X053330Y005780D02*
X050771Y005780D01*
X050730Y005879D02*
X053330Y005879D01*
X053330Y005977D02*
X050689Y005977D01*
X050616Y006076D02*
X053330Y006076D01*
X053330Y006174D02*
X050518Y006174D01*
X050443Y006273D02*
X053330Y006273D01*
X053330Y006371D02*
X050542Y006371D01*
X050640Y006470D02*
X053330Y006470D01*
X053330Y006568D02*
X050699Y006568D01*
X050740Y006667D02*
X053330Y006667D01*
X053330Y006765D02*
X050781Y006765D01*
X050817Y006864D02*
X053330Y006864D01*
X053330Y006962D02*
X050817Y006962D01*
X050817Y007061D02*
X053330Y007061D01*
X053330Y007159D02*
X050817Y007159D01*
X050805Y007258D02*
X053330Y007258D01*
X053330Y007356D02*
X050764Y007356D01*
X050723Y007455D02*
X053330Y007455D01*
X053330Y007553D02*
X050682Y007553D01*
X050599Y007652D02*
X053330Y007652D01*
X053330Y007750D02*
X050501Y007750D01*
X050460Y007849D02*
X053330Y007849D01*
X053330Y007947D02*
X050559Y007947D01*
X050657Y008046D02*
X053330Y008046D01*
X053330Y008144D02*
X050707Y008144D01*
X050747Y008243D02*
X053330Y008243D01*
X053330Y008341D02*
X050788Y008341D01*
X050817Y008440D02*
X053330Y008440D01*
X053330Y008538D02*
X050817Y008538D01*
X050817Y008637D02*
X053330Y008637D01*
X053330Y008735D02*
X050817Y008735D01*
X050798Y008834D02*
X053330Y008834D01*
X053330Y008932D02*
X050757Y008932D01*
X050716Y009031D02*
X053330Y009031D01*
X053330Y009129D02*
X050675Y009129D01*
X050582Y009228D02*
X053330Y009228D01*
X053330Y009326D02*
X050484Y009326D01*
X050359Y009425D02*
X053330Y009425D01*
X053330Y009523D02*
X050121Y009523D01*
X048604Y009523D02*
X047257Y009523D01*
X047257Y009425D02*
X048366Y009425D01*
X048241Y009326D02*
X047257Y009326D01*
X047257Y009228D02*
X048143Y009228D01*
X048050Y009129D02*
X047257Y009129D01*
X047257Y009031D02*
X048009Y009031D01*
X047968Y008932D02*
X047257Y008932D01*
X047257Y008834D02*
X047927Y008834D01*
X047909Y008735D02*
X047257Y008735D01*
X047257Y008637D02*
X047909Y008637D01*
X047909Y008538D02*
X047257Y008538D01*
X047257Y008440D02*
X047909Y008440D01*
X047937Y008341D02*
X047257Y008341D01*
X047257Y008243D02*
X047978Y008243D01*
X048019Y008144D02*
X047257Y008144D01*
X047257Y008046D02*
X048068Y008046D01*
X048166Y007947D02*
X047257Y007947D01*
X045957Y006765D02*
X045440Y006765D01*
X045678Y006667D02*
X045957Y006667D01*
X045957Y006568D02*
X045777Y006568D01*
X045876Y006470D02*
X045957Y006470D01*
X047228Y003810D02*
X048218Y003810D01*
X048242Y003712D02*
X047327Y003712D01*
X047425Y003613D02*
X048286Y003613D01*
X048351Y003515D02*
X047524Y003515D01*
X047622Y003416D02*
X048449Y003416D01*
X048616Y003318D02*
X047721Y003318D01*
X047819Y003219D02*
X048440Y003219D01*
X048272Y003121D02*
X047918Y003121D01*
X048016Y003022D02*
X048174Y003022D01*
X050109Y003318D02*
X053330Y003318D01*
X053330Y003416D02*
X050276Y003416D01*
X050374Y003515D02*
X053330Y003515D01*
X053330Y003613D02*
X050439Y003613D01*
X050483Y003712D02*
X053330Y003712D01*
X053330Y003810D02*
X050507Y003810D01*
X050285Y003219D02*
X053330Y003219D01*
X053330Y003121D02*
X050453Y003121D01*
X050552Y003022D02*
X053330Y003022D01*
X053330Y002924D02*
X050650Y002924D01*
X050704Y002825D02*
X053330Y002825D01*
X053330Y002727D02*
X052812Y002727D01*
X053015Y002628D02*
X053330Y002628D01*
X053330Y002530D02*
X053113Y002530D01*
X053212Y002431D02*
X053330Y002431D01*
X053330Y002333D02*
X053262Y002333D01*
X053303Y002234D02*
X053330Y002234D01*
X052212Y002727D02*
X050744Y002727D01*
X050785Y002628D02*
X052009Y002628D01*
X051911Y002530D02*
X050817Y002530D01*
X050817Y002431D02*
X051812Y002431D01*
X051763Y002333D02*
X050817Y002333D01*
X050817Y002234D02*
X051722Y002234D01*
X051681Y002136D02*
X050801Y002136D01*
X050760Y002037D02*
X051669Y002037D01*
X051669Y001939D02*
X050719Y001939D01*
X050678Y001840D02*
X051669Y001840D01*
X051680Y001742D02*
X050590Y001742D01*
X050491Y001643D02*
X051721Y001643D01*
X051762Y001545D02*
X050377Y001545D01*
X050139Y001446D02*
X051811Y001446D01*
X046375Y002825D02*
X045787Y002825D01*
X045766Y002924D02*
X046276Y002924D01*
X046178Y003022D02*
X045729Y003022D01*
X045671Y003121D02*
X046079Y003121D01*
X045981Y003219D02*
X045584Y003219D01*
X045445Y003318D02*
X045882Y003318D01*
X045784Y003416D02*
X045494Y003416D01*
X038851Y003515D02*
X036252Y003515D01*
X036351Y003613D02*
X038752Y003613D01*
X038758Y004992D02*
X036345Y004992D01*
X036269Y005091D02*
X038834Y005091D01*
X038735Y005189D02*
X036368Y005189D01*
X036466Y005288D02*
X038637Y005288D01*
X038577Y005386D02*
X036526Y005386D01*
X036567Y005485D02*
X038536Y005485D01*
X038496Y005583D02*
X036607Y005583D01*
X036643Y005682D02*
X038460Y005682D01*
X038460Y005780D02*
X036643Y005780D01*
X036643Y005879D02*
X038460Y005879D01*
X038460Y005977D02*
X036643Y005977D01*
X036632Y006076D02*
X038471Y006076D01*
X038512Y006174D02*
X036591Y006174D01*
X036550Y006273D02*
X038553Y006273D01*
X038594Y006371D02*
X036510Y006371D01*
X036427Y006470D02*
X038676Y006470D01*
X038775Y006568D02*
X036328Y006568D01*
X036229Y006667D02*
X038874Y006667D01*
X035219Y008834D02*
X035159Y008834D01*
X035159Y008932D02*
X035219Y008932D01*
X035219Y009031D02*
X035159Y009031D01*
X035159Y009129D02*
X035219Y009129D01*
X035219Y009326D02*
X035159Y009326D01*
X035159Y009425D02*
X035219Y009425D01*
X035219Y009523D02*
X035159Y009523D01*
X035159Y009622D02*
X035219Y009622D01*
X034994Y009622D02*
X030660Y009622D01*
X030759Y009523D02*
X034896Y009523D01*
X034797Y009425D02*
X030857Y009425D01*
X030875Y009326D02*
X034779Y009326D01*
X034779Y009129D02*
X030875Y009129D01*
X030838Y009031D02*
X034816Y009031D01*
X034914Y008932D02*
X030740Y008932D01*
X030641Y008834D02*
X035013Y008834D01*
X034797Y007849D02*
X030857Y007849D01*
X030956Y007750D02*
X034698Y007750D01*
X034600Y007652D02*
X031054Y007652D01*
X031153Y007553D02*
X034501Y007553D01*
X034479Y007455D02*
X031175Y007455D01*
X031175Y007356D02*
X034479Y007356D01*
X034479Y007258D02*
X031175Y007258D01*
X031175Y007159D02*
X034479Y007159D01*
X034479Y007061D02*
X031175Y007061D01*
X031175Y006962D02*
X034479Y006962D01*
X034559Y006864D02*
X031096Y006864D01*
X031267Y006765D02*
X034387Y006765D01*
X034150Y006667D02*
X031505Y006667D01*
X031604Y006568D02*
X034050Y006568D01*
X033952Y006470D02*
X031703Y006470D01*
X031785Y006371D02*
X033869Y006371D01*
X033828Y006273D02*
X031826Y006273D01*
X031867Y006174D02*
X033788Y006174D01*
X033747Y006076D02*
X031908Y006076D01*
X031919Y005977D02*
X033735Y005977D01*
X033735Y005879D02*
X031919Y005879D01*
X031919Y005780D02*
X033735Y005780D01*
X033735Y005682D02*
X031919Y005682D01*
X031883Y005583D02*
X033771Y005583D01*
X033812Y005485D02*
X031842Y005485D01*
X031801Y005386D02*
X033853Y005386D01*
X033912Y005288D02*
X031742Y005288D01*
X031643Y005189D02*
X034011Y005189D01*
X034109Y005091D02*
X031545Y005091D01*
X031621Y004992D02*
X034033Y004992D01*
X029834Y006864D02*
X026371Y006864D01*
X026451Y006962D02*
X029755Y006962D01*
X029755Y007061D02*
X026451Y007061D01*
X026451Y007159D02*
X029755Y007159D01*
X029755Y007258D02*
X026451Y007258D01*
X026451Y007356D02*
X029755Y007356D01*
X029755Y007455D02*
X026451Y007455D01*
X026428Y007553D02*
X029777Y007553D01*
X029876Y007652D02*
X026330Y007652D01*
X026231Y007750D02*
X029974Y007750D01*
X030073Y007849D02*
X026133Y007849D01*
X025348Y007849D02*
X021409Y007849D01*
X021507Y007750D02*
X025250Y007750D01*
X025151Y007652D02*
X021606Y007652D01*
X021704Y007553D02*
X025053Y007553D01*
X025031Y007455D02*
X021726Y007455D01*
X021726Y007356D02*
X025031Y007356D01*
X025031Y007258D02*
X021726Y007258D01*
X021726Y007159D02*
X025031Y007159D01*
X025031Y007061D02*
X021726Y007061D01*
X021726Y006962D02*
X025031Y006962D01*
X025110Y006864D02*
X021647Y006864D01*
X021818Y006765D02*
X024939Y006765D01*
X024701Y006667D02*
X022056Y006667D01*
X022155Y006568D02*
X024601Y006568D01*
X024503Y006470D02*
X022254Y006470D01*
X022336Y006371D02*
X024420Y006371D01*
X024380Y006273D02*
X022377Y006273D01*
X022418Y006174D02*
X024339Y006174D01*
X024298Y006076D02*
X022459Y006076D01*
X022470Y005977D02*
X024287Y005977D01*
X024287Y005879D02*
X022470Y005879D01*
X022470Y005780D02*
X024287Y005780D01*
X024287Y005682D02*
X022470Y005682D01*
X022434Y005583D02*
X024322Y005583D01*
X024363Y005485D02*
X022393Y005485D01*
X022353Y005386D02*
X024404Y005386D01*
X024464Y005288D02*
X022293Y005288D01*
X022195Y005189D02*
X024562Y005189D01*
X024661Y005091D02*
X022096Y005091D01*
X022172Y004992D02*
X024585Y004992D01*
X026820Y005091D02*
X029385Y005091D01*
X029309Y004992D02*
X026897Y004992D01*
X026919Y005189D02*
X029287Y005189D01*
X029188Y005288D02*
X027017Y005288D01*
X027077Y005386D02*
X029128Y005386D01*
X029088Y005485D02*
X027118Y005485D01*
X027159Y005583D02*
X029047Y005583D01*
X029011Y005682D02*
X027194Y005682D01*
X027194Y005780D02*
X029011Y005780D01*
X029011Y005879D02*
X027194Y005879D01*
X027194Y005977D02*
X029011Y005977D01*
X029022Y006076D02*
X027183Y006076D01*
X027142Y006174D02*
X029063Y006174D01*
X029104Y006273D02*
X027102Y006273D01*
X027061Y006371D02*
X029145Y006371D01*
X029227Y006470D02*
X026978Y006470D01*
X026880Y006568D02*
X029326Y006568D01*
X029425Y006667D02*
X026780Y006667D01*
X026542Y006765D02*
X029663Y006765D01*
X030288Y008834D02*
X025917Y008834D01*
X026016Y008932D02*
X030190Y008932D01*
X030091Y009031D02*
X026114Y009031D01*
X026151Y009129D02*
X030055Y009129D01*
X030055Y009326D02*
X026151Y009326D01*
X026133Y009425D02*
X030073Y009425D01*
X030171Y009523D02*
X026034Y009523D01*
X025936Y009622D02*
X030270Y009622D01*
X030435Y009622D02*
X030495Y009622D01*
X030495Y009523D02*
X030435Y009523D01*
X030435Y009425D02*
X030495Y009425D01*
X030495Y009326D02*
X030435Y009326D01*
X030435Y009129D02*
X030495Y009129D01*
X030495Y009031D02*
X030435Y009031D01*
X030435Y008932D02*
X030495Y008932D01*
X030495Y008834D02*
X030435Y008834D01*
X025771Y008834D02*
X025711Y008834D01*
X025711Y008932D02*
X025771Y008932D01*
X025771Y009031D02*
X025711Y009031D01*
X025711Y009129D02*
X025771Y009129D01*
X025771Y009326D02*
X025711Y009326D01*
X025711Y009425D02*
X025771Y009425D01*
X025771Y009523D02*
X025711Y009523D01*
X025711Y009622D02*
X025771Y009622D01*
X025545Y009622D02*
X021211Y009622D01*
X021310Y009523D02*
X025447Y009523D01*
X025348Y009425D02*
X021408Y009425D01*
X021426Y009326D02*
X025331Y009326D01*
X025331Y009129D02*
X021426Y009129D01*
X021390Y009031D02*
X025367Y009031D01*
X025466Y008932D02*
X021291Y008932D01*
X021193Y008834D02*
X025564Y008834D01*
X021046Y008834D02*
X020986Y008834D01*
X020986Y008932D02*
X021046Y008932D01*
X021046Y009031D02*
X020986Y009031D01*
X020986Y009129D02*
X021046Y009129D01*
X020840Y008834D02*
X016221Y008834D01*
X016122Y008932D02*
X020741Y008932D01*
X020643Y009031D02*
X016024Y009031D01*
X015925Y009129D02*
X020606Y009129D01*
X017473Y011190D02*
X016685Y011977D01*
X016037Y011986D02*
X014381Y011986D01*
X014381Y012084D02*
X016037Y012084D01*
X016037Y011887D02*
X014381Y011887D01*
X014356Y011789D02*
X016062Y011789D01*
X016103Y011690D02*
X014315Y011690D01*
X014349Y011592D02*
X016154Y011592D01*
X016253Y011493D02*
X014381Y011493D01*
X014381Y011395D02*
X016398Y011395D01*
X016659Y011296D02*
X014381Y011296D01*
X014356Y011198D02*
X016758Y011198D01*
X016825Y011099D02*
X014315Y011099D01*
X014349Y011001D02*
X016850Y011001D01*
X016890Y010902D02*
X014381Y010902D01*
X014381Y010804D02*
X016942Y010804D01*
X017041Y010705D02*
X014381Y010705D01*
X014356Y010607D02*
X017187Y010607D01*
X016932Y012577D02*
X023482Y012577D01*
X023240Y012774D02*
X014349Y012774D01*
X014308Y012872D02*
X023189Y012872D01*
X023148Y012971D02*
X014246Y012971D01*
X014148Y013069D02*
X023124Y013069D01*
X025150Y012765D02*
X028496Y016111D01*
X029087Y015520D02*
X027512Y013946D01*
X027512Y013355D01*
X027802Y012774D02*
X027873Y012774D01*
X028496Y012961D02*
X028496Y014339D01*
X029874Y015717D01*
X029341Y017009D02*
X034871Y017009D01*
X035366Y020555D02*
X029145Y020555D01*
X029110Y020654D02*
X034491Y020654D01*
X034356Y020752D02*
X029069Y020752D01*
X029004Y020851D02*
X034257Y020851D01*
X034210Y020949D02*
X028906Y020949D01*
X028727Y021048D02*
X034169Y021048D01*
X034796Y021229D02*
X036961Y020639D01*
X035025Y021836D02*
X043351Y021836D01*
X049706Y019176D02*
X049806Y019176D01*
X049806Y019224D02*
X049806Y018799D01*
X050231Y018799D01*
X050231Y019093D01*
X050221Y019132D01*
X050201Y019166D01*
X050173Y019194D01*
X050139Y019213D01*
X050101Y019224D01*
X049806Y019224D01*
X049806Y019078D02*
X049706Y019078D01*
X049706Y018979D02*
X049806Y018979D01*
X049806Y018881D02*
X049706Y018881D01*
X049806Y018782D02*
X053330Y018782D01*
X053330Y018684D02*
X050231Y018684D01*
X050231Y018585D02*
X053330Y018585D01*
X053330Y018487D02*
X050231Y018487D01*
X050227Y018388D02*
X053330Y018388D01*
X053330Y018290D02*
X050149Y018290D01*
X050139Y018213D02*
X050101Y018224D01*
X049806Y018224D01*
X049806Y017799D01*
X050231Y017799D01*
X050231Y018093D01*
X053330Y018093D01*
X053330Y018191D02*
X050176Y018191D01*
X050173Y018194D02*
X050139Y018213D01*
X050173Y018194D02*
X050201Y018166D01*
X050221Y018132D01*
X050231Y018093D01*
X050231Y017994D02*
X053330Y017994D01*
X053330Y017896D02*
X050231Y017896D01*
X050231Y017699D02*
X053330Y017699D01*
X053330Y017797D02*
X049806Y017797D01*
X049806Y017699D02*
X049706Y017699D01*
X049706Y017600D02*
X049806Y017600D01*
X049806Y017502D02*
X049706Y017502D01*
X049706Y017403D02*
X049806Y017403D01*
X049806Y017305D02*
X049706Y017305D01*
X049706Y017206D02*
X049806Y017206D01*
X049806Y017224D02*
X049806Y016799D01*
X050231Y016799D01*
X050231Y017093D01*
X050221Y017132D01*
X050201Y017166D01*
X050173Y017194D01*
X050139Y017213D01*
X050101Y017224D01*
X049806Y017224D01*
X049806Y017108D02*
X049706Y017108D01*
X049706Y017009D02*
X049806Y017009D01*
X049806Y016911D02*
X049706Y016911D01*
X049706Y016812D02*
X049806Y016812D01*
X049806Y016714D02*
X053330Y016714D01*
X053330Y016812D02*
X050231Y016812D01*
X050231Y016911D02*
X053330Y016911D01*
X053330Y017009D02*
X050231Y017009D01*
X050227Y017108D02*
X053330Y017108D01*
X053330Y017206D02*
X050151Y017206D01*
X050174Y017305D02*
X053330Y017305D01*
X053330Y017403D02*
X050231Y017403D01*
X050231Y017502D02*
X053330Y017502D01*
X053330Y017600D02*
X050231Y017600D01*
X049806Y017896D02*
X049706Y017896D01*
X049706Y017994D02*
X049806Y017994D01*
X049806Y018093D02*
X049706Y018093D01*
X049706Y018191D02*
X049806Y018191D01*
X049806Y018290D02*
X049706Y018290D01*
X049706Y018388D02*
X049806Y018388D01*
X049806Y018487D02*
X049706Y018487D01*
X049706Y018585D02*
X049806Y018585D01*
X049806Y018684D02*
X049706Y018684D01*
X050231Y018881D02*
X053330Y018881D01*
X053330Y018979D02*
X050231Y018979D01*
X050231Y019078D02*
X053330Y019078D01*
X053330Y019176D02*
X050191Y019176D01*
X052851Y019866D02*
X053330Y019866D01*
X053330Y019964D02*
X053031Y019964D01*
X053130Y020063D02*
X053330Y020063D01*
X053330Y020161D02*
X053228Y020161D01*
X053268Y020260D02*
X053330Y020260D01*
X053330Y020358D02*
X053309Y020358D01*
X053297Y020949D02*
X053330Y020949D01*
X053330Y021048D02*
X053256Y021048D01*
X053198Y021146D02*
X053330Y021146D01*
X053330Y021245D02*
X053099Y021245D01*
X053001Y021343D02*
X053330Y021343D01*
X050570Y021737D02*
X050470Y021737D01*
X050470Y021836D02*
X050570Y021836D01*
X050570Y021934D02*
X050470Y021934D01*
X050231Y016615D02*
X053330Y016615D01*
X053330Y016517D02*
X050231Y016517D01*
X050231Y016418D02*
X053330Y016418D01*
X053330Y016320D02*
X050189Y016320D01*
X050139Y016213D02*
X050101Y016224D01*
X049806Y016224D01*
X049806Y015799D01*
X050231Y015799D01*
X050231Y016093D01*
X050221Y016132D01*
X050201Y016166D01*
X050173Y016194D01*
X050139Y016213D01*
X050110Y016221D02*
X053330Y016221D01*
X053330Y016123D02*
X050223Y016123D01*
X050231Y016024D02*
X053330Y016024D01*
X053330Y015926D02*
X050231Y015926D01*
X050231Y015827D02*
X053330Y015827D01*
X053330Y015729D02*
X049806Y015729D01*
X049806Y015827D02*
X049706Y015827D01*
X049706Y015926D02*
X049806Y015926D01*
X049806Y016024D02*
X049706Y016024D01*
X049706Y016123D02*
X049806Y016123D01*
X049806Y016221D02*
X049706Y016221D01*
X049706Y016320D02*
X049806Y016320D01*
X049806Y016418D02*
X049706Y016418D01*
X049706Y016517D02*
X049806Y016517D01*
X049806Y016615D02*
X049706Y016615D01*
X049706Y015630D02*
X049806Y015630D01*
X049806Y015532D02*
X049706Y015532D01*
X049706Y015433D02*
X049806Y015433D01*
X049806Y015335D02*
X049706Y015335D01*
X049806Y015224D02*
X049806Y014799D01*
X050231Y014799D01*
X050231Y015093D01*
X050221Y015132D01*
X050201Y015166D01*
X050173Y015194D01*
X050139Y015213D01*
X050101Y015224D01*
X049806Y015224D01*
X049806Y015138D02*
X049706Y015138D01*
X049706Y015039D02*
X049806Y015039D01*
X049806Y014941D02*
X049706Y014941D01*
X049706Y014842D02*
X049806Y014842D01*
X049806Y014744D02*
X053330Y014744D01*
X053330Y014842D02*
X050231Y014842D01*
X050231Y014941D02*
X053330Y014941D01*
X053330Y015039D02*
X050231Y015039D01*
X050217Y015138D02*
X053330Y015138D01*
X053330Y015236D02*
X049501Y015236D01*
X049706Y014645D02*
X049806Y014645D01*
X049806Y014547D02*
X049706Y014547D01*
X049706Y014448D02*
X049806Y014448D01*
X049806Y014350D02*
X049706Y014350D01*
X049806Y014224D02*
X049806Y013799D01*
X050231Y013799D01*
X050231Y014093D01*
X050221Y014132D01*
X050201Y014166D01*
X050173Y014194D01*
X050139Y014213D01*
X050101Y014224D01*
X049806Y014224D01*
X049806Y014153D02*
X049706Y014153D01*
X049706Y014054D02*
X049806Y014054D01*
X049806Y013956D02*
X049706Y013956D01*
X049706Y013857D02*
X049806Y013857D01*
X049806Y013759D02*
X053330Y013759D01*
X053330Y013857D02*
X050231Y013857D01*
X050231Y013956D02*
X053330Y013956D01*
X053330Y014054D02*
X050231Y014054D01*
X050209Y014153D02*
X053330Y014153D01*
X053330Y014251D02*
X049497Y014251D01*
X049706Y013660D02*
X049806Y013660D01*
X049806Y013562D02*
X049706Y013562D01*
X049706Y013463D02*
X049806Y013463D01*
X049806Y013365D02*
X049706Y013365D01*
X049503Y013266D02*
X053330Y013266D01*
X053330Y013168D02*
X049461Y013168D01*
X049406Y013069D02*
X053330Y013069D01*
X053330Y012971D02*
X049406Y012971D01*
X049406Y012872D02*
X053330Y012872D01*
X053330Y012774D02*
X049406Y012774D01*
X049406Y012675D02*
X053330Y012675D01*
X053330Y012577D02*
X049406Y012577D01*
X049406Y012478D02*
X053330Y012478D01*
X053330Y012380D02*
X049406Y012380D01*
X049406Y012281D02*
X053330Y012281D01*
X053330Y012183D02*
X049406Y012183D01*
X049406Y012084D02*
X053330Y012084D01*
X053330Y011986D02*
X049406Y011986D01*
X049406Y011887D02*
X053330Y011887D01*
X053330Y011789D02*
X049388Y011789D01*
X049348Y011690D02*
X053330Y011690D01*
X053330Y011592D02*
X049306Y011592D01*
X049207Y011493D02*
X053330Y011493D01*
X053330Y011395D02*
X049109Y011395D01*
X049010Y011296D02*
X053330Y011296D01*
X053330Y011198D02*
X048912Y011198D01*
X048813Y011099D02*
X053330Y011099D01*
X053330Y011001D02*
X048715Y011001D01*
X048616Y010902D02*
X053330Y010902D01*
X053330Y010804D02*
X048518Y010804D01*
X048419Y010705D02*
X053330Y010705D01*
X053330Y010607D02*
X048321Y010607D01*
X048222Y010508D02*
X053330Y010508D01*
X053330Y010410D02*
X048124Y010410D01*
X048025Y010311D02*
X053330Y010311D01*
X053330Y010213D02*
X047927Y010213D01*
X047828Y010114D02*
X053330Y010114D01*
X053330Y010016D02*
X047730Y010016D01*
X047631Y009917D02*
X053330Y009917D01*
X053330Y009819D02*
X047533Y009819D01*
X047434Y009720D02*
X053330Y009720D01*
X053330Y009622D02*
X047336Y009622D01*
X047150Y013069D02*
X037468Y013069D01*
X037566Y013168D02*
X047051Y013168D01*
X047756Y013749D02*
X040504Y013749D01*
X050220Y013365D02*
X053330Y013365D01*
X053330Y013463D02*
X050231Y013463D01*
X050231Y013562D02*
X053330Y013562D01*
X053330Y013660D02*
X050231Y013660D01*
X050211Y014350D02*
X053330Y014350D01*
X053330Y014448D02*
X050231Y014448D01*
X050231Y014547D02*
X053330Y014547D01*
X053330Y014645D02*
X050231Y014645D01*
X050203Y015335D02*
X053330Y015335D01*
X053330Y015433D02*
X050231Y015433D01*
X050231Y015532D02*
X053330Y015532D01*
X053330Y015630D02*
X050231Y015630D01*
X028693Y016898D02*
X025347Y013552D01*
X025347Y018473D02*
X024166Y019654D01*
X022394Y019654D01*
X022696Y019078D02*
X024035Y019078D01*
X024166Y021229D02*
X025150Y022213D01*
X025150Y024182D01*
X025650Y023018D02*
X025907Y023018D01*
X025727Y022919D02*
X025650Y022919D01*
X020426Y026347D02*
X011370Y026347D01*
X010765Y006765D02*
X000600Y006765D01*
X000600Y006667D02*
X010528Y006667D01*
X010428Y006568D02*
X000600Y006568D01*
X000600Y006470D02*
X010330Y006470D01*
X012369Y006765D02*
X015490Y006765D01*
X015252Y006667D02*
X012607Y006667D01*
X012706Y006568D02*
X015153Y006568D01*
X015054Y006470D02*
X012805Y006470D01*
X012888Y006371D02*
X014972Y006371D01*
X014931Y006273D02*
X012928Y006273D01*
X012969Y006174D02*
X014890Y006174D01*
X014849Y006076D02*
X013010Y006076D01*
X013021Y005977D02*
X014838Y005977D01*
X014838Y005879D02*
X013021Y005879D01*
X013021Y005780D02*
X014838Y005780D01*
X014838Y005682D02*
X013021Y005682D01*
X012985Y005583D02*
X014874Y005583D01*
X014914Y005485D02*
X012945Y005485D01*
X012904Y005386D02*
X014955Y005386D01*
X015015Y005288D02*
X012844Y005288D01*
X012746Y005189D02*
X015113Y005189D01*
X015212Y005091D02*
X012647Y005091D01*
X012723Y004992D02*
X015136Y004992D01*
X015037Y004894D02*
X012822Y004894D01*
X012895Y004795D02*
X014964Y004795D01*
X014924Y004697D02*
X012935Y004697D01*
X012976Y004598D02*
X014883Y004598D01*
X014842Y004500D02*
X013017Y004500D01*
X013021Y004401D02*
X014838Y004401D01*
X014838Y004303D02*
X013021Y004303D01*
X013021Y004204D02*
X014838Y004204D01*
X014840Y004106D02*
X013019Y004106D01*
X012978Y004007D02*
X014881Y004007D01*
X014921Y003909D02*
X012938Y003909D01*
X012897Y003810D02*
X014962Y003810D01*
X015032Y003712D02*
X012827Y003712D01*
X012729Y003613D02*
X015130Y003613D01*
X015229Y003515D02*
X012630Y003515D01*
X012423Y003416D02*
X015436Y003416D01*
X015485Y003318D02*
X012374Y003318D01*
X012513Y003219D02*
X015346Y003219D01*
X015259Y003121D02*
X012600Y003121D01*
X012658Y003022D02*
X015201Y003022D01*
X015164Y002924D02*
X012695Y002924D01*
X012716Y002825D02*
X015143Y002825D01*
X015147Y002628D02*
X012712Y002628D01*
X012687Y002530D02*
X015172Y002530D01*
X015216Y002431D02*
X012643Y002431D01*
X012578Y002333D02*
X015281Y002333D01*
X015379Y002234D02*
X012480Y002234D01*
X012312Y002136D02*
X015547Y002136D01*
X016242Y002136D02*
X016342Y002136D01*
X016342Y002234D02*
X016242Y002234D01*
X016242Y002333D02*
X016342Y002333D01*
X016342Y002431D02*
X016242Y002431D01*
X016242Y002530D02*
X016342Y002530D01*
X010711Y003416D02*
X006606Y003416D01*
X006748Y003515D02*
X010504Y003515D01*
X010406Y003613D02*
X006830Y003613D01*
X006879Y003712D02*
X010307Y003712D01*
X010238Y003810D02*
X006906Y003810D01*
X006914Y003909D02*
X010197Y003909D01*
X010156Y004007D02*
X006914Y004007D01*
X006914Y004106D02*
X010115Y004106D01*
X010113Y004204D02*
X006914Y004204D01*
X006419Y004401D02*
X006322Y004401D01*
X006322Y004303D02*
X000600Y004303D01*
X000600Y004401D02*
X005827Y004401D01*
X005827Y004500D02*
X000600Y004500D01*
X000600Y004598D02*
X005827Y004598D01*
X005827Y004204D02*
X000600Y004204D01*
X000600Y004106D02*
X005827Y004106D01*
X005827Y004007D02*
X000600Y004007D01*
X000600Y003909D02*
X005827Y003909D01*
X005835Y003810D02*
X000600Y003810D01*
X000600Y003712D02*
X005862Y003712D01*
X005911Y003613D02*
X005102Y003613D01*
X005248Y003515D02*
X005993Y003515D01*
X006322Y004500D02*
X006419Y004500D01*
X006419Y004598D02*
X006322Y004598D01*
X006322Y004697D02*
X006419Y004697D01*
X006419Y004795D02*
X006322Y004795D01*
X006322Y004894D02*
X006419Y004894D01*
X006419Y004992D02*
X006322Y004992D01*
X006322Y005091D02*
X006419Y005091D01*
X006419Y005189D02*
X006322Y005189D01*
X006596Y005189D02*
X007493Y005189D01*
X007591Y005091D02*
X006742Y005091D01*
X006826Y004992D02*
X007690Y004992D01*
X004529Y003613D02*
X004432Y003613D01*
X004432Y003515D02*
X004529Y003515D01*
X004529Y003416D02*
X004432Y003416D01*
X004432Y003318D02*
X004529Y003318D01*
X004529Y003022D02*
X004432Y003022D01*
X004432Y002924D02*
X004529Y002924D01*
X004529Y002825D02*
X004432Y002825D01*
X004432Y002727D02*
X004529Y002727D01*
X004529Y002628D02*
X004432Y002628D01*
X003552Y003219D02*
X000600Y003219D01*
X000600Y003318D02*
X003580Y003318D01*
X003631Y003416D02*
X000600Y003416D01*
X000600Y003515D02*
X003714Y003515D01*
X003860Y003613D02*
X000600Y003613D01*
X038836Y037596D02*
X039968Y037596D01*
X039837Y037694D02*
X038967Y037694D01*
X039065Y037793D02*
X039739Y037793D01*
X039697Y037891D02*
X039107Y037891D01*
X039148Y037990D02*
X039656Y037990D01*
X039641Y038088D02*
X039163Y038088D01*
X039163Y038187D02*
X039641Y038187D01*
X039645Y038285D02*
X039159Y038285D01*
X039118Y038384D02*
X039686Y038384D01*
X039727Y038482D02*
X039077Y038482D01*
X038992Y038581D02*
X039812Y038581D01*
X039910Y038679D02*
X038894Y038679D01*
D18*
X003481Y009887D02*
X002119Y008524D01*
X002119Y007843D01*
X004874Y007843D01*
X006449Y009418D01*
D19*
X010780Y009024D02*
X015111Y009024D01*
X018654Y005481D01*
X018654Y004300D01*
X021016Y004300D01*
X025741Y004300D01*
X030465Y004300D01*
X035189Y004300D01*
X039914Y004300D01*
X044638Y004300D01*
X045819Y004300D01*
X046607Y005087D01*
X046607Y009812D01*
X048756Y011961D01*
X048756Y013749D01*
X048756Y014749D01*
X048756Y015749D01*
X048756Y016749D01*
X048756Y017749D01*
X048756Y018749D01*
X048756Y020639D01*
X048756Y022599D01*
X048961Y022804D01*
X048961Y024969D01*
X048961Y027528D01*
X048961Y028808D01*
X048961Y032253D01*
X048961Y036977D01*
X045819Y004300D02*
X047756Y002363D01*
X049363Y002363D01*
X002709Y021426D02*
X002709Y029694D01*
X001331Y031072D01*
D20*
X044343Y021918D03*
M02*
