G75*
G70*
%OFA0B0*%
%FSLAX24Y24*%
%IPPOS*%
%LPD*%
%AMOC8*
5,1,8,0,0,1.08239X$1,22.5*
%
%ADD10C,0.0050*%
%ADD11C,0.0100*%
%ADD12C,0.0080*%
%ADD13C,0.0060*%
%ADD14R,0.0500X0.0350*%
%ADD15C,0.0070*%
%ADD16C,0.0040*%
%ADD17R,0.0059X0.0118*%
%ADD18R,0.0059X0.0118*%
%ADD19R,0.0118X0.0118*%
%ADD20R,0.0118X0.0059*%
%ADD21R,0.0118X0.0059*%
%ADD22R,0.0118X0.0059*%
%ADD23R,0.0118X0.0118*%
%ADD24R,0.0118X0.0059*%
%ADD25R,0.0118X0.0118*%
D10*
X002788Y000206D02*
X002788Y005835D01*
X003418Y005835D01*
X005544Y005835D02*
X006174Y005835D01*
X006174Y005206D01*
X007199Y005897D02*
X007199Y006067D01*
X007255Y006124D01*
X007369Y006124D01*
X007426Y006067D01*
X007426Y005897D01*
X007539Y005897D02*
X007199Y005897D01*
X007426Y006011D02*
X007539Y006124D01*
X007674Y006162D02*
X007674Y006062D01*
X007674Y006162D02*
X007724Y006212D01*
X007724Y007112D01*
X007674Y007162D01*
X007674Y007262D01*
X008324Y007112D02*
X008324Y006212D01*
X008374Y006162D01*
X008374Y006062D01*
X007539Y006313D02*
X007482Y006256D01*
X007539Y006313D02*
X007539Y006426D01*
X007482Y006483D01*
X007426Y006483D01*
X007369Y006426D01*
X007369Y006370D01*
X007369Y006426D02*
X007312Y006483D01*
X007255Y006483D01*
X007199Y006426D01*
X007199Y006313D01*
X007255Y006256D01*
X008324Y007112D02*
X008374Y007162D01*
X008374Y007262D01*
X009668Y006570D02*
X009668Y002020D01*
X013516Y002020D01*
X013516Y002729D01*
X012561Y002729D01*
X012561Y005861D01*
X013516Y005861D01*
X013516Y006570D01*
X009668Y006570D01*
X008674Y008312D02*
X008374Y008312D01*
X008299Y008387D01*
X008299Y008537D01*
X008374Y008612D01*
X008449Y008772D02*
X008299Y008922D01*
X008749Y008922D01*
X008749Y008772D02*
X008749Y009073D01*
X008749Y009233D02*
X008749Y009533D01*
X008749Y009383D02*
X008299Y009383D01*
X008449Y009233D01*
X008674Y008612D02*
X008749Y008537D01*
X008749Y008387D01*
X008674Y008312D01*
X006531Y010887D02*
X006531Y015787D01*
X006181Y015787D01*
X006181Y016387D01*
X006531Y016387D01*
X006531Y017137D01*
X002431Y017137D01*
X002431Y016387D01*
X002781Y016387D01*
X002781Y015787D01*
X002431Y015787D01*
X002431Y010887D01*
X006531Y010887D01*
X006281Y011137D02*
X006281Y014387D01*
X002681Y014387D01*
X002681Y011137D01*
X006281Y011137D01*
X007849Y011699D02*
X009849Y011699D01*
X009849Y013749D01*
X007849Y013749D01*
X007849Y011699D01*
X010123Y011847D02*
X010199Y011772D01*
X010123Y011847D02*
X010123Y011997D01*
X010199Y012072D01*
X010274Y012072D01*
X010349Y011997D01*
X010424Y012072D01*
X010499Y012072D01*
X010574Y011997D01*
X010574Y011847D01*
X010499Y011772D01*
X010499Y011617D02*
X010574Y011617D01*
X010574Y011542D01*
X010499Y011542D01*
X010499Y011617D01*
X010499Y011382D02*
X010574Y011306D01*
X010574Y011156D01*
X010499Y011081D01*
X010349Y011231D02*
X010349Y011306D01*
X010424Y011382D01*
X010499Y011382D01*
X010349Y011306D02*
X010274Y011382D01*
X010199Y011382D01*
X010123Y011306D01*
X010123Y011156D01*
X010199Y011081D01*
X010349Y011922D02*
X010349Y011997D01*
X010424Y012232D02*
X010123Y012232D01*
X010123Y012533D02*
X010424Y012533D01*
X010574Y012382D01*
X010424Y012232D01*
X010424Y012693D02*
X010424Y012918D01*
X010349Y012993D01*
X010199Y012993D01*
X010123Y012918D01*
X010123Y012693D01*
X010574Y012693D01*
X010424Y012843D02*
X010574Y012993D01*
X010574Y013153D02*
X010123Y013153D01*
X010123Y013453D01*
X010199Y013613D02*
X010499Y013613D01*
X010574Y013688D01*
X010574Y013839D01*
X010499Y013914D01*
X010349Y013914D01*
X010349Y013764D01*
X010199Y013914D02*
X010123Y013839D01*
X010123Y013688D01*
X010199Y013613D01*
X010349Y013303D02*
X010349Y013153D01*
X010574Y013153D02*
X010574Y013453D01*
X009249Y015099D02*
X008949Y015099D01*
X008873Y015174D01*
X008873Y015324D01*
X008949Y015399D01*
X009024Y015559D02*
X008873Y015709D01*
X009324Y015709D01*
X009324Y015559D02*
X009324Y015859D01*
X009324Y016019D02*
X009024Y016320D01*
X008949Y016320D01*
X008873Y016245D01*
X008873Y016094D01*
X008949Y016019D01*
X009324Y016019D02*
X009324Y016320D01*
X009249Y015399D02*
X009324Y015324D01*
X009324Y015174D01*
X009249Y015099D01*
X008336Y014777D02*
X008336Y014702D01*
X008261Y014627D01*
X008336Y014552D01*
X008336Y014477D01*
X008261Y014402D01*
X008111Y014402D01*
X008035Y014477D01*
X007875Y014402D02*
X007575Y014402D01*
X007725Y014402D02*
X007725Y014852D01*
X007575Y014702D01*
X007415Y014777D02*
X007340Y014852D01*
X007190Y014852D01*
X007115Y014777D01*
X007115Y014477D01*
X007190Y014402D01*
X007340Y014402D01*
X007415Y014477D01*
X008035Y014777D02*
X008111Y014852D01*
X008261Y014852D01*
X008336Y014777D01*
X008261Y014627D02*
X008186Y014627D01*
X005018Y014682D02*
X005018Y014512D01*
X004904Y014512D02*
X004904Y014682D01*
X004961Y014738D01*
X005018Y014682D01*
X004904Y014682D02*
X004847Y014738D01*
X004791Y014738D01*
X004791Y014512D01*
X004658Y014512D02*
X004658Y014682D01*
X004602Y014738D01*
X004545Y014682D01*
X004545Y014512D01*
X004432Y014512D02*
X004432Y014738D01*
X004488Y014738D01*
X004545Y014682D01*
X004299Y014738D02*
X004072Y014512D01*
X004299Y014512D01*
X004299Y014738D02*
X004299Y014795D01*
X004243Y014852D01*
X004129Y014852D01*
X004072Y014795D01*
X003946Y014568D02*
X003890Y014568D01*
X003890Y014512D01*
X003946Y014512D01*
X003946Y014568D01*
X003946Y014512D02*
X003833Y014398D01*
X003701Y014568D02*
X003701Y014682D01*
X003644Y014738D01*
X003587Y014738D01*
X003474Y014682D01*
X003474Y014852D01*
X003701Y014852D01*
X003701Y014568D02*
X003644Y014512D01*
X003531Y014512D01*
X003474Y014568D01*
X003342Y014512D02*
X003115Y014512D01*
X003228Y014512D02*
X003228Y014852D01*
X003115Y014738D01*
X002983Y014738D02*
X002983Y014512D01*
X002983Y014682D02*
X002756Y014682D01*
X002756Y014738D02*
X002869Y014852D01*
X002983Y014738D01*
X002756Y014738D02*
X002756Y014512D01*
X003543Y009356D02*
X003468Y009281D01*
X003468Y008981D01*
X003543Y008906D01*
X003694Y008906D01*
X003769Y008981D01*
X003929Y008906D02*
X004229Y008906D01*
X004079Y008906D02*
X004079Y009356D01*
X003929Y009206D01*
X003769Y009281D02*
X003694Y009356D01*
X003543Y009356D01*
X004622Y008281D02*
X004622Y007981D01*
X004697Y007906D01*
X004848Y007906D01*
X004923Y007981D01*
X005083Y007906D02*
X005383Y008206D01*
X005383Y008281D01*
X005308Y008356D01*
X005158Y008356D01*
X005083Y008281D01*
X004923Y008281D02*
X004848Y008356D01*
X004697Y008356D01*
X004622Y008281D01*
X005083Y007906D02*
X005383Y007906D01*
X006174Y003335D02*
X006174Y000206D01*
X002788Y000206D01*
X009842Y001357D02*
X009917Y001282D01*
X010068Y001282D01*
X010143Y001357D01*
X010143Y001432D01*
X010068Y001507D01*
X009992Y001507D01*
X010068Y001507D02*
X010143Y001582D01*
X010143Y001657D01*
X010068Y001732D01*
X009917Y001732D01*
X009842Y001657D01*
X010303Y001357D02*
X010378Y001357D01*
X010378Y001282D01*
X010303Y001282D01*
X010303Y001357D01*
X010533Y001357D02*
X010608Y001282D01*
X010758Y001282D01*
X010833Y001357D01*
X010833Y001432D01*
X010758Y001507D01*
X010683Y001507D01*
X010758Y001507D02*
X010833Y001582D01*
X010833Y001657D01*
X010758Y001732D01*
X010608Y001732D01*
X010533Y001657D01*
X010993Y001507D02*
X010993Y001357D01*
X011068Y001282D01*
X011218Y001282D01*
X011294Y001357D01*
X011294Y001507D01*
X011218Y001582D01*
X011068Y001582D01*
X010993Y001507D01*
X011454Y001582D02*
X011454Y001357D01*
X011529Y001282D01*
X011754Y001282D01*
X011754Y001582D01*
X011914Y001582D02*
X012064Y001582D01*
X011989Y001657D02*
X011989Y001357D01*
X012064Y001282D01*
X012221Y001282D02*
X012521Y001282D01*
X012371Y001282D02*
X012371Y001732D01*
X012221Y001582D01*
X013516Y002729D02*
X013516Y005861D01*
X014392Y006570D02*
X014392Y002020D01*
X018241Y002020D01*
X018241Y002729D01*
X017286Y002729D01*
X017286Y005861D01*
X018241Y005861D01*
X018241Y006570D01*
X014392Y006570D01*
X016960Y009174D02*
X017035Y009099D01*
X017335Y009099D01*
X017410Y009174D01*
X017410Y009325D01*
X017335Y009400D01*
X017410Y009560D02*
X017110Y009860D01*
X017035Y009860D01*
X016960Y009785D01*
X016960Y009635D01*
X017035Y009560D01*
X017035Y009400D02*
X016960Y009325D01*
X016960Y009174D01*
X017410Y009560D02*
X017410Y009860D01*
X017335Y010020D02*
X017035Y010320D01*
X017335Y010320D01*
X017410Y010245D01*
X017410Y010095D01*
X017335Y010020D01*
X017035Y010020D01*
X016960Y010095D01*
X016960Y010245D01*
X017035Y010320D01*
X016500Y010312D02*
X016275Y010312D01*
X016200Y010387D01*
X016200Y010462D01*
X016275Y010537D01*
X016425Y010537D01*
X016500Y010462D01*
X016500Y010162D01*
X016425Y010087D01*
X016275Y010087D01*
X016200Y010162D01*
X016040Y010087D02*
X015740Y010087D01*
X015890Y010087D02*
X015890Y010537D01*
X015740Y010387D01*
X015580Y010462D02*
X015505Y010537D01*
X015354Y010537D01*
X015279Y010462D01*
X015279Y010162D01*
X015354Y010087D01*
X015505Y010087D01*
X015580Y010162D01*
X015824Y011719D02*
X016015Y011719D01*
X015920Y011719D02*
X015920Y011846D01*
X016015Y011846D02*
X015824Y011846D01*
X015824Y011940D02*
X015888Y012003D01*
X015824Y012067D01*
X016015Y012067D01*
X015983Y012161D02*
X016015Y012193D01*
X016015Y012256D01*
X015983Y012288D01*
X015983Y012382D02*
X016015Y012414D01*
X016015Y012477D01*
X015983Y012509D01*
X015920Y012509D01*
X015888Y012477D01*
X015888Y012445D01*
X015920Y012382D01*
X015824Y012382D01*
X015824Y012509D01*
X015856Y012603D02*
X015888Y012603D01*
X015920Y012635D01*
X015920Y012698D01*
X015951Y012730D01*
X015983Y012730D01*
X016015Y012698D01*
X016015Y012635D01*
X015983Y012603D01*
X015951Y012603D01*
X015920Y012635D01*
X015920Y012698D02*
X015888Y012730D01*
X015856Y012730D01*
X015824Y012698D01*
X015824Y012635D01*
X015856Y012603D01*
X015856Y012824D02*
X015888Y012824D01*
X015920Y012856D01*
X015920Y012919D01*
X015951Y012951D01*
X015983Y012951D01*
X016015Y012919D01*
X016015Y012856D01*
X015983Y012824D01*
X015951Y012824D01*
X015920Y012856D01*
X015920Y012919D02*
X015888Y012951D01*
X015856Y012951D01*
X015824Y012919D01*
X015824Y012856D01*
X015856Y012824D01*
X015856Y013045D02*
X015824Y013077D01*
X015824Y013140D01*
X015856Y013172D01*
X015888Y013172D01*
X015920Y013140D01*
X015951Y013172D01*
X015983Y013172D01*
X016015Y013140D01*
X016015Y013077D01*
X015983Y013045D01*
X015920Y013108D02*
X015920Y013140D01*
X016015Y013266D02*
X016015Y013393D01*
X015983Y013487D02*
X016015Y013519D01*
X016015Y013582D01*
X015983Y013614D01*
X015951Y013614D01*
X015920Y013582D01*
X015920Y013519D01*
X015888Y013487D01*
X015856Y013487D01*
X015824Y013519D01*
X015824Y013582D01*
X015856Y013614D01*
X015824Y013708D02*
X015888Y013771D01*
X015824Y013835D01*
X016015Y013835D01*
X016015Y013929D02*
X016015Y014024D01*
X015983Y014056D01*
X015856Y014056D01*
X015824Y014024D01*
X015824Y013929D01*
X016015Y013929D01*
X016130Y014044D02*
X016130Y013808D01*
X016015Y013708D02*
X015824Y013708D01*
X015824Y013266D02*
X016015Y013266D01*
X016130Y012942D02*
X016130Y012706D01*
X016367Y012706D01*
X015856Y012288D02*
X015824Y012256D01*
X015824Y012193D01*
X015856Y012161D01*
X015983Y012161D01*
X016015Y011940D02*
X015824Y011940D01*
X017233Y012706D02*
X017469Y012706D01*
X017469Y012942D01*
X017574Y012890D02*
X017574Y012827D01*
X017606Y012795D01*
X017733Y012795D01*
X017765Y012827D01*
X017765Y012890D01*
X017733Y012922D01*
X017670Y012922D01*
X017670Y012858D01*
X017606Y012922D02*
X017574Y012890D01*
X017574Y013016D02*
X017765Y013143D01*
X017574Y013143D01*
X017574Y013237D02*
X017765Y013237D01*
X017765Y013364D01*
X017670Y013300D02*
X017670Y013237D01*
X017574Y013237D02*
X017574Y013364D01*
X017574Y013458D02*
X017574Y013585D01*
X017574Y013521D02*
X017765Y013521D01*
X017733Y013679D02*
X017765Y013711D01*
X017765Y013774D01*
X017733Y013806D01*
X017606Y013806D01*
X017574Y013774D01*
X017574Y013711D01*
X017606Y013679D01*
X017733Y013679D01*
X017443Y013879D02*
X017296Y014019D01*
X016367Y014044D02*
X016130Y014044D01*
X016398Y014974D02*
X016348Y015024D01*
X015448Y015024D01*
X015398Y014974D01*
X015298Y014974D01*
X015448Y015624D02*
X016348Y015624D01*
X016398Y015674D01*
X016498Y015674D01*
X016498Y016155D02*
X016398Y016155D01*
X016348Y016205D01*
X015448Y016205D01*
X015398Y016155D01*
X015298Y016155D01*
X015298Y015674D02*
X015398Y015674D01*
X015448Y015624D01*
X016398Y014974D02*
X016498Y014974D01*
X017574Y013016D02*
X017765Y013016D01*
X017765Y012701D02*
X017638Y012701D01*
X017574Y012637D01*
X017638Y012574D01*
X017765Y012574D01*
X017765Y012480D02*
X017574Y012480D01*
X017638Y012416D01*
X017574Y012353D01*
X017765Y012353D01*
X017670Y012574D02*
X017670Y012701D01*
X018823Y013311D02*
X018823Y013612D01*
X018898Y013687D01*
X019048Y013687D01*
X019123Y013612D01*
X019283Y013612D02*
X019358Y013687D01*
X019508Y013687D01*
X019583Y013612D01*
X019583Y013537D01*
X019283Y013236D01*
X019583Y013236D01*
X019743Y013236D02*
X020044Y013236D01*
X019894Y013236D02*
X019894Y013687D01*
X019743Y013537D01*
X019123Y013311D02*
X019048Y013236D01*
X018898Y013236D01*
X018823Y013311D01*
X020897Y013505D02*
X020972Y013430D01*
X021272Y013430D01*
X021347Y013505D01*
X021347Y013655D01*
X021272Y013730D01*
X021347Y013890D02*
X021347Y014191D01*
X021347Y014041D02*
X020897Y014041D01*
X021047Y013890D01*
X020972Y013730D02*
X020897Y013655D01*
X020897Y013505D01*
X021684Y013505D02*
X021760Y013430D01*
X022060Y013430D01*
X022135Y013505D01*
X022135Y013655D01*
X022060Y013730D01*
X022135Y013890D02*
X022135Y014191D01*
X022135Y014041D02*
X021684Y014041D01*
X021835Y013890D01*
X021760Y013730D02*
X021684Y013655D01*
X021684Y013505D01*
X021684Y014351D02*
X021910Y014351D01*
X021835Y014501D01*
X021835Y014576D01*
X021910Y014651D01*
X022060Y014651D01*
X022135Y014576D01*
X022135Y014426D01*
X022060Y014351D01*
X021684Y014351D02*
X021684Y014651D01*
X021347Y014351D02*
X021272Y014351D01*
X020972Y014651D01*
X020897Y014651D01*
X020897Y014351D01*
X021493Y015855D02*
X021611Y015855D01*
X021611Y015973D01*
X022760Y016461D02*
X022760Y016761D01*
X022835Y016836D01*
X022985Y016836D01*
X023060Y016761D01*
X023220Y016686D02*
X023370Y016836D01*
X023370Y016386D01*
X023220Y016386D02*
X023520Y016386D01*
X023680Y016461D02*
X023755Y016386D01*
X023906Y016386D01*
X023981Y016461D01*
X023981Y016536D01*
X023906Y016611D01*
X023680Y016611D01*
X023680Y016461D01*
X023680Y016611D02*
X023831Y016761D01*
X023981Y016836D01*
X023060Y016461D02*
X022985Y016386D01*
X022835Y016386D01*
X022760Y016461D01*
X021611Y017391D02*
X021611Y017509D01*
X021493Y017509D01*
X020666Y018642D02*
X020366Y018642D01*
X020291Y018717D01*
X020291Y018867D01*
X020366Y018942D01*
X020441Y019102D02*
X020291Y019252D01*
X020741Y019252D01*
X020741Y019102D02*
X020741Y019403D01*
X020666Y019563D02*
X020591Y019563D01*
X020516Y019638D01*
X020516Y019788D01*
X020591Y019863D01*
X020666Y019863D01*
X020741Y019788D01*
X020741Y019638D01*
X020666Y019563D01*
X020516Y019638D02*
X020441Y019563D01*
X020366Y019563D01*
X020291Y019638D01*
X020291Y019788D01*
X020366Y019863D01*
X020441Y019863D01*
X020516Y019788D01*
X020666Y018942D02*
X020741Y018867D01*
X020741Y018717D01*
X020666Y018642D01*
X020075Y017509D02*
X019957Y017391D01*
X020058Y017383D02*
X020060Y017393D01*
X020065Y017401D01*
X020073Y017406D01*
X020083Y017408D01*
X020093Y017406D01*
X020101Y017401D01*
X020106Y017393D01*
X020108Y017383D01*
X020106Y017373D01*
X020101Y017365D01*
X020093Y017360D01*
X020083Y017358D01*
X020073Y017360D01*
X020065Y017365D01*
X020060Y017373D01*
X020058Y017383D01*
X019957Y015973D02*
X019957Y015855D01*
X020075Y015855D01*
X016498Y016855D02*
X016398Y016855D01*
X016348Y016805D01*
X015448Y016805D01*
X015398Y016855D01*
X015298Y016855D01*
X014717Y022922D02*
X014048Y022922D01*
X014048Y023080D01*
X013142Y025954D02*
X013142Y028316D01*
X012929Y028316D02*
X012931Y028330D01*
X012937Y028344D01*
X012945Y028356D01*
X012957Y028364D01*
X012971Y028370D01*
X012985Y028372D01*
X012999Y028370D01*
X013013Y028364D01*
X013025Y028356D01*
X013033Y028344D01*
X013039Y028330D01*
X013041Y028316D01*
X013039Y028302D01*
X013033Y028288D01*
X013025Y028276D01*
X013013Y028268D01*
X012999Y028262D01*
X012985Y028260D01*
X012971Y028262D01*
X012957Y028268D01*
X012945Y028276D01*
X012937Y028288D01*
X012931Y028302D01*
X012929Y028316D01*
X012355Y028316D02*
X012355Y025954D01*
X010111Y023080D02*
X010111Y022922D01*
X009599Y022922D01*
X003300Y022922D02*
X002630Y022922D01*
X002630Y023080D01*
X001725Y025954D02*
X001725Y028316D01*
X001511Y028316D02*
X001513Y028330D01*
X001519Y028344D01*
X001527Y028356D01*
X001539Y028364D01*
X001553Y028370D01*
X001567Y028372D01*
X001581Y028370D01*
X001595Y028364D01*
X001607Y028356D01*
X001615Y028344D01*
X001621Y028330D01*
X001623Y028316D01*
X001621Y028302D01*
X001615Y028288D01*
X001607Y028276D01*
X001595Y028268D01*
X001581Y028262D01*
X001567Y028260D01*
X001553Y028262D01*
X001539Y028268D01*
X001527Y028276D01*
X001519Y028288D01*
X001513Y028302D01*
X001511Y028316D01*
X001982Y028289D02*
X002074Y028289D01*
X002092Y028307D01*
X002092Y028344D01*
X002074Y028362D01*
X001982Y028362D01*
X002000Y028436D02*
X001982Y028454D01*
X001982Y028491D01*
X002000Y028509D01*
X002037Y028491D02*
X002037Y028454D01*
X002019Y028436D01*
X002000Y028436D01*
X001964Y028473D02*
X002110Y028473D01*
X002092Y028491D02*
X002074Y028509D01*
X002055Y028509D01*
X002037Y028491D01*
X002092Y028491D02*
X002092Y028454D01*
X002074Y028436D01*
X002074Y028583D02*
X002092Y028602D01*
X002092Y028638D01*
X002074Y028657D01*
X002037Y028657D01*
X002019Y028638D01*
X002019Y028620D01*
X002037Y028583D01*
X001982Y028583D01*
X001982Y028657D01*
X000937Y028316D02*
X000937Y025954D01*
X002630Y030166D02*
X002630Y030402D01*
X003300Y030402D01*
X003300Y031583D02*
X002630Y031583D01*
X002630Y031741D01*
X001725Y034615D02*
X001725Y036977D01*
X001511Y036977D02*
X001513Y036991D01*
X001519Y037005D01*
X001527Y037017D01*
X001539Y037025D01*
X001553Y037031D01*
X001567Y037033D01*
X001581Y037031D01*
X001595Y037025D01*
X001607Y037017D01*
X001615Y037005D01*
X001621Y036991D01*
X001623Y036977D01*
X001621Y036963D01*
X001615Y036949D01*
X001607Y036937D01*
X001595Y036929D01*
X001581Y036923D01*
X001567Y036921D01*
X001553Y036923D01*
X001539Y036929D01*
X001527Y036937D01*
X001519Y036949D01*
X001513Y036963D01*
X001511Y036977D01*
X000937Y036977D02*
X000937Y034615D01*
X002630Y038828D02*
X002630Y039064D01*
X003300Y039064D01*
X009599Y039064D02*
X010111Y039064D01*
X010111Y038867D01*
X011961Y039339D02*
X011961Y036977D01*
X012063Y036977D02*
X012065Y036991D01*
X012071Y037005D01*
X012079Y037017D01*
X012091Y037025D01*
X012105Y037031D01*
X012119Y037033D01*
X012133Y037031D01*
X012147Y037025D01*
X012159Y037017D01*
X012167Y037005D01*
X012173Y036991D01*
X012175Y036977D01*
X012173Y036963D01*
X012167Y036949D01*
X012159Y036937D01*
X012147Y036929D01*
X012133Y036923D01*
X012119Y036921D01*
X012105Y036923D01*
X012091Y036929D01*
X012079Y036937D01*
X012071Y036949D01*
X012065Y036963D01*
X012063Y036977D01*
X012748Y036977D02*
X012748Y039339D01*
X014048Y039064D02*
X014048Y038828D01*
X014048Y039064D02*
X014717Y039064D01*
X021016Y039064D02*
X021528Y039064D01*
X021528Y038867D01*
X025111Y038887D02*
X025111Y038296D01*
X035229Y038296D01*
X035229Y038887D01*
X035229Y038887D01*
X035229Y039202D02*
X035229Y039792D01*
X025111Y039792D01*
X025111Y039202D01*
X025226Y038019D02*
X025451Y038019D01*
X025526Y037944D01*
X025526Y037794D01*
X025451Y037719D01*
X025226Y037719D01*
X025226Y037569D02*
X025226Y038019D01*
X025687Y038019D02*
X025837Y038019D01*
X025762Y038019D02*
X025762Y037569D01*
X025687Y037569D02*
X025837Y037569D01*
X021528Y031741D02*
X021528Y031583D01*
X021016Y031583D01*
X021016Y030402D02*
X021528Y030402D01*
X021528Y030206D01*
X014717Y030402D02*
X014048Y030402D01*
X014048Y030166D01*
X014048Y031583D02*
X014717Y031583D01*
X014048Y031583D02*
X014048Y031741D01*
X010111Y031741D02*
X010111Y031583D01*
X009599Y031583D01*
X009599Y030402D02*
X010111Y030402D01*
X010111Y030206D01*
X021016Y022922D02*
X021528Y022922D01*
X021528Y023080D01*
X028783Y021228D02*
X028783Y026660D01*
X034215Y026660D01*
X034215Y021228D01*
X028783Y021228D01*
X031852Y023897D02*
X031832Y023924D01*
X031838Y023980D02*
X031880Y023980D01*
X031887Y024035D02*
X031859Y024035D01*
X031811Y024029D02*
X031811Y024042D01*
X031797Y024042D01*
X031797Y024035D01*
X031811Y024029D02*
X031797Y024008D01*
X031783Y024015D01*
X031783Y024042D01*
X031769Y024091D02*
X031769Y024098D01*
X031700Y024098D01*
X031700Y024112D01*
X031672Y024112D01*
X031644Y024126D01*
X032040Y023987D02*
X032047Y023980D01*
X032102Y023987D02*
X032109Y023987D01*
X032102Y023994D01*
X032151Y024008D02*
X032151Y023980D01*
X032241Y023980D01*
X032199Y024015D01*
X032193Y024008D01*
X032193Y024001D01*
X032165Y024001D01*
X032151Y023924D02*
X032172Y023904D01*
X032151Y023897D01*
X032144Y023924D01*
X032109Y023883D02*
X032081Y023869D01*
X032054Y023897D02*
X032068Y023911D01*
X032172Y023869D02*
X032290Y023869D01*
X032304Y023924D01*
X032290Y023924D01*
X032276Y023911D01*
X032269Y023890D01*
X032199Y023876D01*
X032199Y023924D02*
X032248Y023924D01*
X032276Y023980D02*
X032304Y023980D01*
X032304Y024008D01*
X032345Y024008D01*
X032345Y024001D01*
X032380Y024001D01*
X032380Y023987D01*
X032463Y023987D01*
X032463Y023980D01*
X032512Y023980D01*
X032512Y023973D01*
X032547Y023973D01*
X032547Y023980D01*
X032658Y023980D01*
X032658Y023994D01*
X032699Y023994D01*
X032699Y024008D01*
X032720Y024008D01*
X032720Y024001D01*
X032741Y024001D01*
X032741Y023987D01*
X032789Y023987D01*
X032789Y024001D01*
X032894Y024001D01*
X032908Y024015D01*
X032908Y024029D01*
X032921Y024042D01*
X032935Y024056D01*
X032803Y024056D01*
X032789Y024070D01*
X032769Y024070D01*
X032762Y024063D01*
X032727Y024063D01*
X032665Y024063D01*
X032665Y024070D01*
X032630Y024070D01*
X032630Y024042D01*
X032616Y024029D01*
X032602Y024029D01*
X032567Y024063D01*
X032547Y024056D01*
X032512Y024042D01*
X032512Y024029D01*
X032463Y024029D01*
X032463Y024035D01*
X032394Y024035D01*
X032352Y024042D01*
X032331Y024056D01*
X032359Y024063D01*
X032422Y024098D01*
X032456Y024098D01*
X032463Y024077D01*
X032491Y024077D01*
X032505Y024091D01*
X032540Y024112D01*
X032553Y024133D01*
X032567Y024133D01*
X032574Y024119D01*
X032616Y024119D01*
X032637Y024133D01*
X032658Y024167D01*
X032678Y024167D01*
X032706Y024133D01*
X032748Y024133D01*
X032748Y024140D01*
X032727Y024140D01*
X032713Y024167D01*
X032727Y024181D01*
X032748Y024181D01*
X032734Y024209D01*
X032651Y024209D01*
X032630Y024230D01*
X032637Y024244D01*
X032776Y024251D01*
X032789Y024271D01*
X032803Y024278D01*
X032838Y024278D01*
X032852Y024292D01*
X032935Y024313D01*
X032852Y024320D01*
X032845Y024327D01*
X032637Y024327D01*
X032616Y024341D01*
X032547Y024341D01*
X032526Y024362D01*
X032526Y024389D01*
X032401Y024389D01*
X032359Y024417D01*
X032338Y024417D01*
X032283Y024396D01*
X032199Y024396D01*
X032165Y024417D01*
X032158Y024445D01*
X031984Y024445D01*
X032019Y024431D01*
X032019Y024410D01*
X031998Y024403D01*
X032005Y024396D01*
X032068Y024396D01*
X032068Y024410D01*
X032102Y024410D01*
X032102Y024396D01*
X032144Y024396D01*
X032144Y024424D01*
X032040Y024424D01*
X032040Y024417D01*
X032130Y024417D01*
X032727Y024063D02*
X032727Y024056D01*
X032935Y024056D02*
X032963Y024056D01*
X034646Y021167D02*
X034571Y021092D01*
X034571Y020792D01*
X034646Y020717D01*
X034796Y020717D01*
X034871Y020792D01*
X035031Y020792D02*
X035031Y020867D01*
X035106Y020942D01*
X035256Y020942D01*
X035331Y020867D01*
X035331Y020792D01*
X035256Y020717D01*
X035106Y020717D01*
X035031Y020792D01*
X035106Y020942D02*
X035031Y021017D01*
X035031Y021092D01*
X035106Y021167D01*
X035256Y021167D01*
X035331Y021092D01*
X035331Y021017D01*
X035256Y020942D01*
X034871Y021092D02*
X034796Y021167D01*
X034646Y021167D01*
X037826Y022233D02*
X037901Y022158D01*
X038202Y022158D01*
X038277Y022233D01*
X038277Y022383D01*
X038202Y022458D01*
X038202Y022619D02*
X038277Y022694D01*
X038277Y022844D01*
X038202Y022919D01*
X038126Y022919D01*
X038051Y022844D01*
X038051Y022619D01*
X038202Y022619D01*
X038051Y022619D02*
X037901Y022769D01*
X037826Y022919D01*
X037901Y022458D02*
X037826Y022383D01*
X037826Y022233D01*
X039007Y022627D02*
X039007Y022777D01*
X039082Y022852D01*
X039007Y023012D02*
X039007Y023312D01*
X039082Y023312D01*
X039383Y023012D01*
X039458Y023012D01*
X039383Y022852D02*
X039458Y022777D01*
X039458Y022627D01*
X039383Y022552D01*
X039082Y022552D01*
X039007Y022627D01*
X045132Y020904D02*
X051241Y020904D01*
X051241Y024753D01*
X050532Y024753D01*
X050532Y023798D01*
X045841Y023798D01*
X045841Y024753D01*
X045132Y024753D01*
X045132Y020904D01*
X046638Y020499D02*
X046863Y020499D01*
X046938Y020424D01*
X046938Y020349D01*
X046863Y020274D01*
X046713Y020274D01*
X046638Y020349D01*
X046638Y020499D01*
X046788Y020649D01*
X046938Y020724D01*
X047098Y020499D02*
X047398Y020499D01*
X047559Y020349D02*
X047634Y020274D01*
X047784Y020274D01*
X047859Y020349D01*
X048019Y020274D02*
X048019Y020724D01*
X047859Y020649D02*
X047784Y020724D01*
X047634Y020724D01*
X047559Y020649D01*
X047559Y020349D01*
X048019Y020499D02*
X048319Y020499D01*
X048479Y020499D02*
X048780Y020499D01*
X048780Y020574D02*
X048780Y020274D01*
X048940Y020274D02*
X048940Y020724D01*
X049240Y020274D01*
X049240Y020724D01*
X049400Y020724D02*
X049700Y020274D01*
X049700Y020724D01*
X049861Y020724D02*
X049861Y020274D01*
X050161Y020274D01*
X050321Y020274D02*
X050321Y020724D01*
X050161Y020724D02*
X049861Y020724D01*
X049861Y020499D02*
X050011Y020499D01*
X050321Y020274D02*
X050621Y020274D01*
X050756Y019749D02*
X046756Y019749D01*
X046756Y012749D01*
X050756Y012749D01*
X050756Y019749D01*
X049400Y020274D02*
X049400Y020724D01*
X048780Y020574D02*
X048629Y020724D01*
X048479Y020574D01*
X048479Y020274D01*
X048319Y020274D02*
X048319Y020724D01*
X051679Y021079D02*
X051904Y021079D01*
X051979Y021154D01*
X051979Y021379D01*
X051679Y021379D01*
X051679Y021614D02*
X051679Y021765D01*
X051754Y021840D01*
X051979Y021840D01*
X051979Y021614D01*
X051904Y021539D01*
X051829Y021614D01*
X051829Y021840D01*
X051829Y022000D02*
X051679Y022150D01*
X051679Y022225D01*
X051679Y022383D02*
X051679Y022534D01*
X051604Y022458D02*
X051904Y022458D01*
X051979Y022534D01*
X051754Y022690D02*
X051754Y022991D01*
X051529Y022915D02*
X051754Y022690D01*
X051979Y022915D02*
X051529Y022915D01*
X051679Y022000D02*
X051979Y022000D01*
X050532Y024753D02*
X045841Y024753D01*
X045132Y025629D02*
X051241Y025629D01*
X051241Y029477D01*
X050532Y029477D01*
X050532Y028522D01*
X045841Y028522D01*
X045841Y029477D01*
X045132Y029477D01*
X045132Y025629D01*
X045841Y029477D02*
X050532Y029477D01*
X051241Y030353D02*
X051241Y034202D01*
X050532Y034202D01*
X050532Y033247D01*
X045841Y033247D01*
X045841Y034202D01*
X045132Y034202D01*
X045132Y030353D01*
X051241Y030353D01*
X051679Y030528D02*
X051904Y030528D01*
X051979Y030603D01*
X051979Y030828D01*
X051679Y030828D01*
X051679Y031063D02*
X051679Y031213D01*
X051754Y031288D01*
X051979Y031288D01*
X051979Y031063D01*
X051904Y030988D01*
X051829Y031063D01*
X051829Y031288D01*
X051829Y031449D02*
X051679Y031599D01*
X051679Y031674D01*
X051679Y031832D02*
X051679Y031982D01*
X051604Y031907D02*
X051904Y031907D01*
X051979Y031982D01*
X051979Y032139D02*
X051679Y032439D01*
X051604Y032439D01*
X051529Y032364D01*
X051529Y032214D01*
X051604Y032139D01*
X051979Y032139D02*
X051979Y032439D01*
X051979Y031449D02*
X051679Y031449D01*
X050532Y034202D02*
X045841Y034202D01*
X045132Y035078D02*
X051241Y035078D01*
X051241Y038926D01*
X050532Y038926D01*
X050532Y037971D01*
X045841Y037971D01*
X045841Y038926D01*
X045132Y038926D01*
X045132Y035078D01*
X043797Y033409D02*
X043797Y029443D01*
X041621Y029443D01*
X041621Y033409D01*
X043797Y033409D01*
X042934Y032927D02*
X042934Y032627D01*
X042484Y032627D01*
X042559Y032467D02*
X042709Y032467D01*
X042784Y032392D01*
X042784Y032166D01*
X042934Y032166D02*
X042484Y032166D01*
X042484Y032392D01*
X042559Y032467D01*
X042784Y032316D02*
X042934Y032467D01*
X042934Y032006D02*
X042934Y031706D01*
X042634Y032006D01*
X042559Y032006D01*
X042484Y031931D01*
X042484Y031781D01*
X042559Y031706D01*
X042559Y031546D02*
X042634Y031546D01*
X042709Y031471D01*
X042784Y031546D01*
X042859Y031546D01*
X042934Y031471D01*
X042934Y031321D01*
X042859Y031246D01*
X042934Y031085D02*
X042934Y030785D01*
X042634Y031085D01*
X042559Y031085D01*
X042484Y031010D01*
X042484Y030860D01*
X042559Y030785D01*
X042484Y030625D02*
X042484Y030325D01*
X042484Y030475D02*
X042934Y030475D01*
X042709Y030015D02*
X042709Y029864D01*
X042934Y029864D02*
X042484Y029864D01*
X042484Y030165D01*
X042559Y031246D02*
X042484Y031321D01*
X042484Y031471D01*
X042559Y031546D01*
X042709Y031471D02*
X042709Y031396D01*
X038689Y034015D02*
X038689Y034115D01*
X038639Y034165D01*
X038639Y035065D01*
X038689Y035115D01*
X038689Y035215D01*
X038039Y035065D02*
X038039Y034165D01*
X037989Y034115D01*
X037989Y034015D01*
X037854Y034077D02*
X037741Y033963D01*
X037741Y034020D02*
X037741Y033850D01*
X037854Y033850D02*
X037514Y033850D01*
X037514Y034020D01*
X037570Y034077D01*
X037684Y034077D01*
X037741Y034020D01*
X037854Y034209D02*
X037854Y034436D01*
X037854Y034323D02*
X037514Y034323D01*
X037627Y034209D01*
X038039Y035065D02*
X037989Y035115D01*
X037989Y035215D01*
X036577Y033784D02*
X036477Y033784D01*
X036427Y033734D01*
X035527Y033734D01*
X035477Y033784D01*
X035377Y033784D01*
X035527Y033134D02*
X036427Y033134D01*
X036477Y033084D01*
X036577Y033084D01*
X036577Y032603D02*
X036477Y032603D01*
X036427Y032553D01*
X035527Y032553D01*
X035477Y032603D01*
X035377Y032603D01*
X035377Y033084D02*
X035477Y033084D01*
X035527Y033134D01*
X035527Y031953D02*
X036427Y031953D01*
X036477Y031903D01*
X036577Y031903D01*
X036577Y031422D02*
X036477Y031422D01*
X036427Y031372D01*
X035527Y031372D01*
X035477Y031422D01*
X035377Y031422D01*
X035377Y031903D02*
X035477Y031903D01*
X035527Y031953D01*
X035527Y030772D02*
X036427Y030772D01*
X036477Y030722D01*
X036577Y030722D01*
X035527Y030772D02*
X035477Y030722D01*
X035377Y030722D01*
X035233Y028064D02*
X035308Y027989D01*
X035308Y027839D01*
X035233Y027764D01*
X035083Y027764D02*
X035008Y027914D01*
X035008Y027989D01*
X035083Y028064D01*
X035233Y028064D01*
X035083Y027764D02*
X034858Y027764D01*
X034858Y028064D01*
X034933Y027604D02*
X034858Y027529D01*
X034858Y027378D01*
X034933Y027303D01*
X035233Y027303D01*
X035308Y027378D01*
X035308Y027529D01*
X035233Y027604D01*
X032107Y028591D02*
X032107Y029041D01*
X031881Y028816D01*
X032182Y028816D01*
X031721Y028966D02*
X031646Y029041D01*
X031496Y029041D01*
X031421Y028966D01*
X031421Y028666D01*
X031496Y028591D01*
X031646Y028591D01*
X031721Y028666D01*
X028979Y026660D02*
X028783Y026464D01*
X028737Y030650D02*
X028437Y030650D01*
X028362Y030725D01*
X028362Y030875D01*
X028437Y030950D01*
X028437Y031110D02*
X028362Y031185D01*
X028362Y031335D01*
X028437Y031410D01*
X028512Y031410D01*
X028587Y031335D01*
X028662Y031410D01*
X028737Y031410D01*
X028812Y031335D01*
X028812Y031185D01*
X028737Y031110D01*
X028737Y030950D02*
X028812Y030875D01*
X028812Y030725D01*
X028737Y030650D01*
X028587Y031260D02*
X028587Y031335D01*
X037747Y037946D02*
X037808Y037946D01*
X037824Y037944D01*
X037839Y037940D01*
X037854Y037932D01*
X037866Y037922D01*
X037876Y037910D01*
X037884Y037895D01*
X037888Y037880D01*
X037890Y037864D01*
X037890Y038773D01*
X038237Y038866D02*
X038319Y038866D01*
X038421Y039806D01*
X038625Y039806D01*
X038728Y038866D01*
X038809Y038866D01*
X038707Y039949D01*
X038703Y039968D01*
X038697Y039987D01*
X038687Y040004D01*
X038675Y040020D01*
X038660Y040033D01*
X038643Y040044D01*
X038625Y040051D01*
X038401Y040051D02*
X038383Y040044D01*
X038366Y040033D01*
X038351Y040020D01*
X038339Y040004D01*
X038329Y039987D01*
X038323Y039968D01*
X038319Y039949D01*
X038237Y038866D01*
X038401Y040051D02*
X038438Y040060D01*
X038475Y040066D01*
X038513Y040068D01*
X038551Y040066D01*
X038588Y040060D01*
X038625Y040051D01*
X038912Y039949D02*
X038993Y038355D01*
X038996Y038337D01*
X039003Y038320D01*
X039012Y038305D01*
X039025Y038292D01*
X039040Y038283D01*
X039057Y038276D01*
X039075Y038273D01*
X039729Y038273D01*
X039747Y038276D01*
X039764Y038283D01*
X039779Y038292D01*
X039792Y038305D01*
X039801Y038320D01*
X039808Y038337D01*
X039811Y038355D01*
X039892Y039949D01*
X039893Y039949D02*
X039891Y039965D01*
X039887Y039980D01*
X039879Y039995D01*
X039869Y040007D01*
X039857Y040017D01*
X039842Y040025D01*
X039827Y040029D01*
X039811Y040031D01*
X039811Y040031D01*
X039795Y040029D01*
X039780Y040025D01*
X039765Y040017D01*
X039753Y040007D01*
X039743Y039995D01*
X039735Y039980D01*
X039731Y039965D01*
X039729Y039949D01*
X039647Y038600D01*
X039157Y038600D01*
X039075Y039949D01*
X039073Y039965D01*
X039069Y039980D01*
X039061Y039995D01*
X039051Y040007D01*
X039039Y040017D01*
X039024Y040025D01*
X039009Y040029D01*
X038993Y040031D01*
X038977Y040029D01*
X038962Y040025D01*
X038947Y040017D01*
X038935Y040007D01*
X038925Y039995D01*
X038917Y039980D01*
X038913Y039965D01*
X038911Y039949D01*
X037890Y039888D02*
X037890Y040480D01*
X040914Y040480D01*
X040914Y039888D01*
X040485Y039949D02*
X040567Y038866D01*
X040485Y038866D01*
X040383Y039806D01*
X040179Y039806D01*
X040076Y038866D01*
X039995Y038866D01*
X040097Y039949D01*
X040101Y039968D01*
X040107Y039987D01*
X040117Y040004D01*
X040129Y040020D01*
X040144Y040033D01*
X040161Y040044D01*
X040179Y040051D01*
X040403Y040051D02*
X040421Y040044D01*
X040438Y040033D01*
X040453Y040020D01*
X040465Y040004D01*
X040475Y039987D01*
X040481Y039968D01*
X040485Y039949D01*
X040403Y040051D02*
X040366Y040060D01*
X040329Y040066D01*
X040291Y040068D01*
X040253Y040066D01*
X040216Y040060D01*
X040179Y040051D01*
X040914Y038773D02*
X040914Y037864D01*
X040916Y037880D01*
X040920Y037895D01*
X040928Y037910D01*
X040938Y037922D01*
X040950Y037932D01*
X040965Y037940D01*
X040980Y037944D01*
X040996Y037946D01*
X041057Y037946D01*
X041677Y038077D02*
X042127Y038077D01*
X041677Y037777D01*
X042127Y037777D01*
X042127Y037620D02*
X042127Y037470D01*
X042127Y037545D02*
X041677Y037545D01*
X041677Y037470D02*
X041677Y037620D01*
X041677Y037310D02*
X042127Y037310D01*
X042127Y037010D02*
X041677Y037010D01*
X041827Y037160D01*
X041677Y037310D01*
X040587Y036945D02*
X040587Y036802D01*
X040587Y036781D02*
X040199Y036781D01*
X040199Y036802D02*
X040199Y037537D01*
X040117Y037742D02*
X038687Y037742D01*
X038687Y037741D02*
X038671Y037743D01*
X038656Y037747D01*
X038641Y037755D01*
X038629Y037765D01*
X038619Y037777D01*
X038611Y037792D01*
X038607Y037807D01*
X038605Y037823D01*
X038607Y037843D01*
X038613Y037862D01*
X038622Y037880D01*
X038635Y037895D01*
X038650Y037908D01*
X038668Y037917D01*
X038687Y037923D01*
X038707Y037925D01*
X038707Y037926D02*
X038707Y037926D01*
X040097Y037926D01*
X040097Y037925D02*
X040117Y037923D01*
X040136Y037917D01*
X040154Y037908D01*
X040169Y037895D01*
X040182Y037880D01*
X040191Y037862D01*
X040197Y037843D01*
X040199Y037823D01*
X040199Y037823D01*
X040197Y037807D01*
X040193Y037792D01*
X040185Y037777D01*
X040175Y037765D01*
X040163Y037755D01*
X040148Y037747D01*
X040133Y037743D01*
X040117Y037741D01*
X039729Y038273D02*
X039729Y038273D01*
X038605Y037537D02*
X038605Y036802D01*
X038605Y036781D02*
X038217Y036781D01*
X038217Y036802D02*
X038217Y036945D01*
X041677Y038237D02*
X041677Y038387D01*
X041677Y038312D02*
X042127Y038312D01*
X042127Y038237D02*
X042127Y038387D01*
X042052Y038544D02*
X042127Y038619D01*
X042127Y038769D01*
X042052Y038844D01*
X041677Y038844D01*
X041752Y039005D02*
X041827Y039005D01*
X041902Y039080D01*
X041902Y039230D01*
X041977Y039305D01*
X042052Y039305D01*
X042127Y039230D01*
X042127Y039080D01*
X042052Y039005D01*
X041752Y039005D02*
X041677Y039080D01*
X041677Y039230D01*
X041752Y039305D01*
X041677Y039465D02*
X041677Y039690D01*
X041752Y039765D01*
X041827Y039765D01*
X041902Y039690D01*
X041902Y039465D01*
X042127Y039465D02*
X041677Y039465D01*
X041902Y039690D02*
X041977Y039765D01*
X042052Y039765D01*
X042127Y039690D01*
X042127Y039465D01*
X042052Y038544D02*
X041677Y038544D01*
X045841Y038926D02*
X050532Y038926D01*
X051529Y037014D02*
X051979Y037014D01*
X051979Y036864D02*
X051979Y037164D01*
X051679Y036864D02*
X051529Y037014D01*
X051679Y036707D02*
X051679Y036557D01*
X051604Y036632D02*
X051904Y036632D01*
X051979Y036707D01*
X051679Y036398D02*
X051679Y036323D01*
X051829Y036173D01*
X051979Y036173D02*
X051679Y036173D01*
X051754Y036013D02*
X051979Y036013D01*
X051979Y035788D01*
X051904Y035713D01*
X051829Y035788D01*
X051829Y036013D01*
X051754Y036013D02*
X051679Y035938D01*
X051679Y035788D01*
X051679Y035552D02*
X051979Y035552D01*
X051979Y035327D01*
X051904Y035252D01*
X051679Y035252D01*
X051679Y027715D02*
X051754Y027640D01*
X051829Y027715D01*
X051904Y027715D01*
X051979Y027640D01*
X051979Y027490D01*
X051904Y027415D01*
X051979Y027258D02*
X051904Y027183D01*
X051604Y027183D01*
X051679Y027108D02*
X051679Y027258D01*
X051604Y027415D02*
X051529Y027490D01*
X051529Y027640D01*
X051604Y027715D01*
X051679Y027715D01*
X051754Y027640D02*
X051754Y027565D01*
X051679Y026949D02*
X051679Y026874D01*
X051829Y026724D01*
X051979Y026724D02*
X051679Y026724D01*
X051754Y026564D02*
X051979Y026564D01*
X051979Y026339D01*
X051904Y026264D01*
X051829Y026339D01*
X051829Y026564D01*
X051754Y026564D02*
X051679Y026489D01*
X051679Y026339D01*
X051679Y026104D02*
X051979Y026104D01*
X051979Y025878D01*
X051904Y025803D01*
X051679Y025803D01*
X036774Y016658D02*
X036674Y016658D01*
X036624Y016608D01*
X035724Y016608D01*
X035674Y016658D01*
X035574Y016658D01*
X035724Y016008D02*
X036624Y016008D01*
X036674Y015958D01*
X036774Y015958D01*
X036774Y015674D02*
X036674Y015674D01*
X036624Y015624D01*
X035724Y015624D01*
X035674Y015674D01*
X035574Y015674D01*
X035574Y015958D02*
X035674Y015958D01*
X035724Y016008D01*
X035724Y015024D02*
X036624Y015024D01*
X036674Y014974D01*
X036774Y014974D01*
X036774Y014689D02*
X036674Y014689D01*
X036624Y014639D01*
X035724Y014639D01*
X035674Y014689D01*
X035574Y014689D01*
X035574Y014974D02*
X035674Y014974D01*
X035724Y015024D01*
X035724Y014039D02*
X036624Y014039D01*
X036674Y013989D01*
X036774Y013989D01*
X036774Y013705D02*
X036674Y013705D01*
X036624Y013655D01*
X035724Y013655D01*
X035674Y013705D01*
X035574Y013705D01*
X035574Y013989D02*
X035674Y013989D01*
X035724Y014039D01*
X035724Y013055D02*
X036624Y013055D01*
X036674Y013005D01*
X036774Y013005D01*
X035724Y013055D02*
X035674Y013005D01*
X035574Y013005D01*
X035731Y008920D02*
X035674Y008863D01*
X035674Y008750D01*
X035731Y008693D01*
X035788Y008693D01*
X035844Y008750D01*
X035844Y008920D01*
X035731Y008920D02*
X035958Y008920D01*
X036014Y008863D01*
X036014Y008750D01*
X035958Y008693D01*
X036014Y008561D02*
X035901Y008447D01*
X035901Y008504D02*
X035901Y008334D01*
X036014Y008334D02*
X035674Y008334D01*
X035674Y008504D01*
X035731Y008561D01*
X035844Y008561D01*
X035901Y008504D01*
X035539Y008737D02*
X035489Y008687D01*
X035489Y007787D01*
X035539Y007737D01*
X035539Y007637D01*
X034889Y007787D02*
X034889Y008687D01*
X034839Y008737D01*
X034839Y008837D01*
X035539Y008837D02*
X035539Y008737D01*
X034889Y007787D02*
X034839Y007737D01*
X034839Y007637D01*
X033290Y006570D02*
X033290Y002020D01*
X037138Y002020D01*
X037138Y002729D01*
X036183Y002729D01*
X036183Y005861D01*
X037138Y005861D01*
X037138Y006570D01*
X033290Y006570D01*
X032414Y006570D02*
X028565Y006570D01*
X028565Y002020D01*
X032414Y002020D01*
X032414Y002729D01*
X031459Y002729D01*
X031459Y005861D01*
X032414Y005861D01*
X032414Y006570D01*
X032414Y005861D02*
X032414Y002729D01*
X033539Y001582D02*
X033464Y001507D01*
X033464Y001357D01*
X033539Y001282D01*
X033765Y001282D01*
X033765Y001207D02*
X033765Y001582D01*
X033539Y001582D01*
X033925Y001507D02*
X034000Y001582D01*
X034150Y001582D01*
X034225Y001507D01*
X034225Y001432D01*
X033925Y001432D01*
X033925Y001357D02*
X033925Y001507D01*
X033925Y001357D02*
X034000Y001282D01*
X034150Y001282D01*
X034385Y001282D02*
X034385Y001582D01*
X034610Y001582D01*
X034685Y001507D01*
X034685Y001282D01*
X034846Y001507D02*
X035146Y001507D01*
X035071Y001282D02*
X035071Y001732D01*
X034846Y001507D01*
X033765Y001207D02*
X033690Y001132D01*
X033614Y001132D01*
X030421Y001357D02*
X030346Y001282D01*
X030196Y001282D01*
X030121Y001357D01*
X029961Y001282D02*
X029961Y001507D01*
X029886Y001582D01*
X029661Y001582D01*
X029661Y001282D01*
X029501Y001432D02*
X029200Y001432D01*
X029200Y001507D02*
X029275Y001582D01*
X029426Y001582D01*
X029501Y001507D01*
X029501Y001432D01*
X029426Y001282D02*
X029275Y001282D01*
X029200Y001357D01*
X029200Y001507D01*
X029040Y001582D02*
X029040Y001207D01*
X028965Y001132D01*
X028890Y001132D01*
X028815Y001282D02*
X029040Y001282D01*
X028815Y001282D02*
X028740Y001357D01*
X028740Y001507D01*
X028815Y001582D01*
X029040Y001582D01*
X030121Y001657D02*
X030196Y001732D01*
X030346Y001732D01*
X030421Y001657D01*
X030421Y001582D01*
X030346Y001507D01*
X030421Y001432D01*
X030421Y001357D01*
X030346Y001507D02*
X030271Y001507D01*
X027689Y002020D02*
X023841Y002020D01*
X023841Y006570D01*
X027689Y006570D01*
X027689Y005861D01*
X026735Y005861D01*
X026735Y002729D01*
X027689Y002729D01*
X027689Y005861D01*
X026091Y007637D02*
X026091Y007737D01*
X026041Y007787D01*
X026041Y008687D01*
X026091Y008737D01*
X026091Y008837D01*
X026225Y008920D02*
X026282Y008920D01*
X026509Y008693D01*
X026566Y008693D01*
X026566Y008561D02*
X026452Y008447D01*
X026452Y008504D02*
X026452Y008334D01*
X026566Y008334D02*
X026225Y008334D01*
X026225Y008504D01*
X026282Y008561D01*
X026395Y008561D01*
X026452Y008504D01*
X026225Y008693D02*
X026225Y008920D01*
X025441Y008687D02*
X025441Y007787D01*
X025391Y007737D01*
X025391Y007637D01*
X025441Y008687D02*
X025391Y008737D01*
X025391Y008837D01*
X022965Y006570D02*
X019117Y006570D01*
X019117Y002020D01*
X022965Y002020D01*
X022965Y002729D01*
X022010Y002729D01*
X022010Y005861D01*
X022965Y005861D01*
X022965Y006570D01*
X022965Y005861D02*
X022965Y002729D01*
X024091Y001582D02*
X024016Y001507D01*
X024016Y001357D01*
X024091Y001282D01*
X024316Y001282D01*
X024316Y001207D02*
X024316Y001582D01*
X024091Y001582D01*
X024476Y001507D02*
X024551Y001582D01*
X024701Y001582D01*
X024776Y001507D01*
X024776Y001432D01*
X024476Y001432D01*
X024476Y001357D02*
X024476Y001507D01*
X024476Y001357D02*
X024551Y001282D01*
X024701Y001282D01*
X024936Y001282D02*
X024936Y001582D01*
X025162Y001582D01*
X025237Y001507D01*
X025237Y001282D01*
X025397Y001282D02*
X025697Y001582D01*
X025697Y001657D01*
X025622Y001732D01*
X025472Y001732D01*
X025397Y001657D01*
X025397Y001282D02*
X025697Y001282D01*
X024316Y001207D02*
X024241Y001132D01*
X024166Y001132D01*
X020973Y001282D02*
X020672Y001282D01*
X020822Y001282D02*
X020822Y001732D01*
X020672Y001582D01*
X020512Y001507D02*
X020512Y001282D01*
X020512Y001507D02*
X020437Y001582D01*
X020212Y001582D01*
X020212Y001282D01*
X020052Y001432D02*
X019752Y001432D01*
X019752Y001507D02*
X019827Y001582D01*
X019977Y001582D01*
X020052Y001507D01*
X020052Y001432D01*
X019977Y001282D02*
X019827Y001282D01*
X019752Y001357D01*
X019752Y001507D01*
X019591Y001582D02*
X019366Y001582D01*
X019291Y001507D01*
X019291Y001357D01*
X019366Y001282D01*
X019591Y001282D01*
X019591Y001207D02*
X019591Y001582D01*
X019591Y001207D02*
X019516Y001132D01*
X019441Y001132D01*
X018241Y002729D02*
X018241Y005861D01*
X020666Y007637D02*
X020666Y007737D01*
X020716Y007787D01*
X020716Y008687D01*
X020666Y008737D01*
X020666Y008837D01*
X021316Y008687D02*
X021316Y007787D01*
X021366Y007737D01*
X021366Y007637D01*
X021501Y008334D02*
X021501Y008504D01*
X021558Y008561D01*
X021671Y008561D01*
X021728Y008504D01*
X021728Y008334D01*
X021841Y008334D02*
X021501Y008334D01*
X021728Y008447D02*
X021841Y008561D01*
X021784Y008693D02*
X021728Y008693D01*
X021671Y008750D01*
X021671Y008863D01*
X021728Y008920D01*
X021784Y008920D01*
X021841Y008863D01*
X021841Y008750D01*
X021784Y008693D01*
X021671Y008750D02*
X021614Y008693D01*
X021558Y008693D01*
X021501Y008750D01*
X021501Y008863D01*
X021558Y008920D01*
X021614Y008920D01*
X021671Y008863D01*
X021366Y008837D02*
X021366Y008737D01*
X021316Y008687D01*
X027689Y002729D02*
X027689Y002020D01*
X030115Y007637D02*
X030115Y007737D01*
X030165Y007787D01*
X030165Y008687D01*
X030115Y008737D01*
X030115Y008837D01*
X030765Y008687D02*
X030765Y007787D01*
X030815Y007737D01*
X030815Y007637D01*
X030950Y008334D02*
X030950Y008504D01*
X031006Y008561D01*
X031120Y008561D01*
X031177Y008504D01*
X031177Y008334D01*
X031290Y008334D02*
X030950Y008334D01*
X031177Y008447D02*
X031290Y008561D01*
X031233Y008693D02*
X031290Y008750D01*
X031290Y008863D01*
X031233Y008920D01*
X031177Y008920D01*
X031120Y008863D01*
X031120Y008693D01*
X031233Y008693D01*
X031120Y008693D02*
X031006Y008806D01*
X030950Y008920D01*
X030815Y008837D02*
X030815Y008737D01*
X030765Y008687D01*
X037138Y005861D02*
X037138Y002729D01*
X038014Y002020D02*
X041863Y002020D01*
X041863Y002729D01*
X040908Y002729D01*
X040908Y005861D01*
X041863Y005861D01*
X041863Y006570D01*
X038014Y006570D01*
X038014Y002020D01*
X038102Y001657D02*
X038102Y001357D01*
X038177Y001282D01*
X038334Y001357D02*
X038409Y001282D01*
X038559Y001282D01*
X038634Y001357D01*
X038634Y001507D01*
X038559Y001582D01*
X038409Y001582D01*
X038334Y001507D01*
X038334Y001357D01*
X038177Y001582D02*
X038027Y001582D01*
X037867Y001507D02*
X037792Y001582D01*
X037642Y001582D01*
X037566Y001507D01*
X037566Y001357D01*
X037642Y001282D01*
X037792Y001282D01*
X037867Y001357D01*
X037867Y001507D01*
X037406Y001507D02*
X037406Y001282D01*
X037256Y001282D02*
X037256Y001507D01*
X037331Y001582D01*
X037406Y001507D01*
X037256Y001507D02*
X037181Y001582D01*
X037106Y001582D01*
X037106Y001282D01*
X038794Y001282D02*
X038794Y001582D01*
X038794Y001432D02*
X038944Y001582D01*
X039019Y001582D01*
X039178Y001507D02*
X039253Y001582D01*
X039478Y001582D01*
X039478Y001732D02*
X039478Y001282D01*
X039253Y001282D01*
X039178Y001357D01*
X039178Y001507D01*
X039638Y001582D02*
X039638Y001282D01*
X039638Y001432D02*
X039788Y001582D01*
X039863Y001582D01*
X040022Y001582D02*
X040097Y001582D01*
X040097Y001282D01*
X040022Y001282D02*
X040172Y001282D01*
X040479Y001282D02*
X040329Y001582D01*
X040097Y001732D02*
X040097Y001807D01*
X040629Y001582D02*
X040479Y001282D01*
X040789Y001357D02*
X040789Y001507D01*
X040864Y001582D01*
X041014Y001582D01*
X041089Y001507D01*
X041089Y001432D01*
X040789Y001432D01*
X040789Y001357D02*
X040864Y001282D01*
X041014Y001282D01*
X041250Y001282D02*
X041250Y001582D01*
X041400Y001582D02*
X041475Y001582D01*
X041400Y001582D02*
X041250Y001432D01*
X041633Y001582D02*
X041783Y001732D01*
X041783Y001282D01*
X041633Y001282D02*
X041934Y001282D01*
X042421Y001282D02*
X042421Y001582D01*
X042496Y001582D01*
X042571Y001507D01*
X042646Y001582D01*
X042721Y001507D01*
X042721Y001282D01*
X042571Y001282D02*
X042571Y001507D01*
X042881Y001507D02*
X042881Y001357D01*
X042957Y001282D01*
X043107Y001282D01*
X043182Y001357D01*
X043182Y001507D01*
X043107Y001582D01*
X042957Y001582D01*
X042881Y001507D01*
X043342Y001582D02*
X043492Y001582D01*
X043417Y001657D02*
X043417Y001357D01*
X043492Y001282D01*
X043649Y001357D02*
X043724Y001282D01*
X043874Y001282D01*
X043949Y001357D01*
X043949Y001507D01*
X043874Y001582D01*
X043724Y001582D01*
X043649Y001507D01*
X043649Y001357D01*
X044109Y001432D02*
X044259Y001582D01*
X044334Y001582D01*
X044493Y001507D02*
X044568Y001582D01*
X044793Y001582D01*
X044793Y001732D02*
X044793Y001282D01*
X044568Y001282D01*
X044493Y001357D01*
X044493Y001507D01*
X044109Y001582D02*
X044109Y001282D01*
X044953Y001282D02*
X044953Y001582D01*
X044953Y001432D02*
X045103Y001582D01*
X045178Y001582D01*
X045337Y001582D02*
X045412Y001582D01*
X045412Y001282D01*
X045337Y001282D02*
X045487Y001282D01*
X045794Y001282D02*
X045944Y001582D01*
X046104Y001507D02*
X046179Y001582D01*
X046329Y001582D01*
X046404Y001507D01*
X046404Y001432D01*
X046104Y001432D01*
X046104Y001357D02*
X046104Y001507D01*
X046104Y001357D02*
X046179Y001282D01*
X046329Y001282D01*
X046565Y001282D02*
X046565Y001582D01*
X046715Y001582D02*
X046790Y001582D01*
X046715Y001582D02*
X046565Y001432D01*
X046948Y001282D02*
X047249Y001582D01*
X047249Y001657D01*
X047173Y001732D01*
X047023Y001732D01*
X046948Y001657D01*
X046948Y001282D02*
X047249Y001282D01*
X047414Y001652D02*
X051262Y001652D01*
X051262Y009320D01*
X047414Y009320D01*
X047414Y008611D01*
X048369Y008611D01*
X048369Y002361D01*
X047414Y002361D01*
X047414Y001652D01*
X047414Y002361D02*
X047414Y008611D01*
X047224Y009608D02*
X047224Y009909D01*
X047374Y009909D02*
X047449Y009909D01*
X047374Y009909D02*
X047224Y009759D01*
X047064Y009834D02*
X047064Y009684D01*
X046989Y009608D01*
X046764Y009608D01*
X046764Y009458D02*
X046764Y009909D01*
X046989Y009909D01*
X047064Y009834D01*
X047608Y009834D02*
X047608Y009684D01*
X047683Y009608D01*
X047833Y009608D01*
X047908Y009684D01*
X047908Y009834D01*
X047833Y009909D01*
X047683Y009909D01*
X047608Y009834D01*
X048068Y009834D02*
X048068Y009684D01*
X048143Y009608D01*
X048369Y009608D01*
X048369Y009533D02*
X048369Y009909D01*
X048143Y009909D01*
X048068Y009834D01*
X048218Y009458D02*
X048293Y009458D01*
X048369Y009533D01*
X048529Y009608D02*
X048529Y009909D01*
X048529Y009759D02*
X048679Y009909D01*
X048754Y009909D01*
X048987Y009909D02*
X049138Y009909D01*
X049213Y009834D01*
X049213Y009608D01*
X048987Y009608D01*
X048912Y009684D01*
X048987Y009759D01*
X049213Y009759D01*
X049373Y009909D02*
X049373Y009608D01*
X049523Y009608D02*
X049523Y009834D01*
X049598Y009909D01*
X049673Y009834D01*
X049673Y009608D01*
X049833Y009608D02*
X049833Y009909D01*
X049908Y009909D01*
X049983Y009834D01*
X050058Y009909D01*
X050133Y009834D01*
X050133Y009608D01*
X049983Y009608D02*
X049983Y009834D01*
X050294Y009834D02*
X050294Y009684D01*
X050369Y009608D01*
X050519Y009608D01*
X050594Y009759D02*
X050294Y009759D01*
X050294Y009834D02*
X050369Y009909D01*
X050519Y009909D01*
X050594Y009834D01*
X050594Y009759D01*
X050754Y009759D02*
X050904Y009909D01*
X050979Y009909D01*
X050754Y009909D02*
X050754Y009608D01*
X049523Y009834D02*
X049448Y009909D01*
X049373Y009909D01*
X049861Y011274D02*
X049861Y011724D01*
X050086Y011724D01*
X050161Y011649D01*
X050161Y011499D01*
X050086Y011424D01*
X049861Y011424D01*
X050011Y011424D02*
X050161Y011274D01*
X050321Y011349D02*
X050321Y011649D01*
X050396Y011724D01*
X050546Y011724D01*
X050621Y011649D01*
X050621Y011349D02*
X050546Y011274D01*
X050396Y011274D01*
X050321Y011349D01*
X046587Y006570D02*
X042739Y006570D01*
X042739Y002020D01*
X046587Y002020D01*
X046587Y002729D01*
X045632Y002729D01*
X045632Y005861D01*
X046587Y005861D01*
X046587Y006570D01*
X046587Y005861D02*
X046587Y002729D01*
X045412Y001807D02*
X045412Y001732D01*
X045644Y001582D02*
X045794Y001282D01*
X041863Y002729D02*
X041863Y005861D01*
X033083Y017170D02*
X032783Y017170D01*
X032708Y017245D01*
X032708Y017395D01*
X032783Y017470D01*
X032858Y017631D02*
X032708Y017781D01*
X033158Y017781D01*
X033158Y017631D02*
X033158Y017931D01*
X033083Y018091D02*
X032783Y018391D01*
X033083Y018391D01*
X033158Y018316D01*
X033158Y018166D01*
X033083Y018091D01*
X032783Y018091D01*
X032708Y018166D01*
X032708Y018316D01*
X032783Y018391D01*
X032371Y018316D02*
X032296Y018391D01*
X031996Y018391D01*
X031921Y018316D01*
X031921Y018166D01*
X031996Y018091D01*
X032071Y018091D01*
X032146Y018166D01*
X032146Y018391D01*
X032371Y018316D02*
X032371Y018166D01*
X032296Y018091D01*
X032296Y017931D02*
X032371Y017856D01*
X032371Y017706D01*
X032296Y017631D01*
X031996Y017631D01*
X031921Y017706D01*
X031921Y017856D01*
X031996Y017931D01*
X033083Y017470D02*
X033158Y017395D01*
X033158Y017245D01*
X033083Y017170D01*
X017246Y001657D02*
X017171Y001732D01*
X017020Y001732D01*
X016945Y001657D01*
X016789Y001582D02*
X016638Y001582D01*
X016714Y001657D02*
X016714Y001357D01*
X016789Y001282D01*
X016945Y001282D02*
X017246Y001582D01*
X017246Y001657D01*
X017246Y001282D02*
X016945Y001282D01*
X016478Y001282D02*
X016478Y001582D01*
X016178Y001582D02*
X016178Y001357D01*
X016253Y001282D01*
X016478Y001282D01*
X016018Y001357D02*
X016018Y001507D01*
X015943Y001582D01*
X015793Y001582D01*
X015718Y001507D01*
X015718Y001357D01*
X015793Y001282D01*
X015943Y001282D01*
X016018Y001357D01*
X015558Y001357D02*
X015483Y001282D01*
X015332Y001282D01*
X015257Y001357D01*
X015102Y001357D02*
X015102Y001282D01*
X015027Y001282D01*
X015027Y001357D01*
X015102Y001357D01*
X014867Y001357D02*
X014792Y001282D01*
X014642Y001282D01*
X014567Y001357D01*
X014717Y001507D02*
X014792Y001507D01*
X014867Y001432D01*
X014867Y001357D01*
X014792Y001507D02*
X014867Y001582D01*
X014867Y001657D01*
X014792Y001732D01*
X014642Y001732D01*
X014567Y001657D01*
X015257Y001657D02*
X015332Y001732D01*
X015483Y001732D01*
X015558Y001657D01*
X015558Y001582D01*
X015483Y001507D01*
X015558Y001432D01*
X015558Y001357D01*
X015483Y001507D02*
X015407Y001507D01*
X037890Y040480D02*
X037890Y040480D01*
D11*
X028999Y026344D02*
X029001Y026364D01*
X029007Y026382D01*
X029016Y026400D01*
X029028Y026415D01*
X029043Y026427D01*
X029061Y026436D01*
X029079Y026442D01*
X029099Y026444D01*
X029119Y026442D01*
X029137Y026436D01*
X029155Y026427D01*
X029170Y026415D01*
X029182Y026400D01*
X029191Y026382D01*
X029197Y026364D01*
X029199Y026344D01*
X029197Y026324D01*
X029191Y026306D01*
X029182Y026288D01*
X029170Y026273D01*
X029155Y026261D01*
X029137Y026252D01*
X029119Y026246D01*
X029099Y026244D01*
X029079Y026246D01*
X029061Y026252D01*
X029043Y026261D01*
X029028Y026273D01*
X029016Y026288D01*
X029007Y026306D01*
X029001Y026324D01*
X028999Y026344D01*
D12*
X029439Y022954D02*
X029649Y022954D01*
X029719Y022884D01*
X029719Y022744D01*
X029649Y022674D01*
X029439Y022674D01*
X029439Y022534D02*
X029439Y022954D01*
X029899Y022884D02*
X029899Y022814D01*
X029969Y022744D01*
X030109Y022744D01*
X030179Y022674D01*
X030179Y022604D01*
X030109Y022534D01*
X029969Y022534D01*
X029899Y022604D01*
X029899Y022884D02*
X029969Y022954D01*
X030109Y022954D01*
X030179Y022884D01*
X030360Y022744D02*
X030360Y022604D01*
X030430Y022534D01*
X030570Y022534D01*
X030640Y022604D01*
X030640Y022744D01*
X030570Y022814D01*
X030430Y022814D01*
X030360Y022744D01*
X030820Y022884D02*
X030820Y022604D01*
X030890Y022534D01*
X031030Y022534D01*
X031100Y022604D01*
X031100Y022884D02*
X031030Y022954D01*
X030890Y022954D01*
X030820Y022884D01*
X031741Y022954D02*
X031741Y022534D01*
X031741Y022674D02*
X031951Y022674D01*
X032021Y022744D01*
X032021Y022884D01*
X031951Y022954D01*
X031741Y022954D01*
X031881Y022674D02*
X032021Y022534D01*
X032201Y022604D02*
X032271Y022534D01*
X032411Y022534D01*
X032481Y022604D01*
X032481Y022744D01*
X032411Y022814D01*
X032271Y022814D01*
X032201Y022744D01*
X032201Y022604D01*
X032662Y022604D02*
X032732Y022534D01*
X032942Y022534D01*
X033122Y022534D02*
X033122Y022954D01*
X032942Y022814D02*
X032732Y022814D01*
X032662Y022744D01*
X032662Y022604D01*
X033122Y022674D02*
X033332Y022814D01*
X033506Y022744D02*
X033576Y022814D01*
X033786Y022814D01*
X033716Y022674D02*
X033576Y022674D01*
X033506Y022744D01*
X033506Y022534D02*
X033716Y022534D01*
X033786Y022604D01*
X033716Y022674D01*
X033332Y022534D02*
X033122Y022674D01*
X014931Y029891D02*
X014933Y029917D01*
X014939Y029943D01*
X014948Y029967D01*
X014961Y029990D01*
X014977Y030011D01*
X014996Y030029D01*
X015017Y030045D01*
X015041Y030057D01*
X015065Y030065D01*
X015091Y030070D01*
X015118Y030071D01*
X015144Y030068D01*
X015169Y030061D01*
X015193Y030051D01*
X015216Y030037D01*
X015236Y030021D01*
X015253Y030001D01*
X015268Y029979D01*
X015279Y029955D01*
X015287Y029930D01*
X015291Y029904D01*
X015291Y029878D01*
X015287Y029852D01*
X015279Y029827D01*
X015268Y029803D01*
X015253Y029781D01*
X015236Y029761D01*
X015216Y029745D01*
X015193Y029731D01*
X015169Y029721D01*
X015144Y029714D01*
X015118Y029711D01*
X015091Y029712D01*
X015065Y029717D01*
X015041Y029725D01*
X015017Y029737D01*
X014996Y029753D01*
X014977Y029771D01*
X014961Y029792D01*
X014948Y029815D01*
X014939Y029839D01*
X014933Y029865D01*
X014931Y029891D01*
X014931Y038552D02*
X014933Y038578D01*
X014939Y038604D01*
X014948Y038628D01*
X014961Y038651D01*
X014977Y038672D01*
X014996Y038690D01*
X015017Y038706D01*
X015041Y038718D01*
X015065Y038726D01*
X015091Y038731D01*
X015118Y038732D01*
X015144Y038729D01*
X015169Y038722D01*
X015193Y038712D01*
X015216Y038698D01*
X015236Y038682D01*
X015253Y038662D01*
X015268Y038640D01*
X015279Y038616D01*
X015287Y038591D01*
X015291Y038565D01*
X015291Y038539D01*
X015287Y038513D01*
X015279Y038488D01*
X015268Y038464D01*
X015253Y038442D01*
X015236Y038422D01*
X015216Y038406D01*
X015193Y038392D01*
X015169Y038382D01*
X015144Y038375D01*
X015118Y038372D01*
X015091Y038373D01*
X015065Y038378D01*
X015041Y038386D01*
X015017Y038398D01*
X014996Y038414D01*
X014977Y038432D01*
X014961Y038453D01*
X014948Y038476D01*
X014939Y038500D01*
X014933Y038526D01*
X014931Y038552D01*
X025111Y038887D02*
X025132Y038899D01*
X025151Y038914D01*
X025169Y038931D01*
X025183Y038951D01*
X025195Y038973D01*
X025203Y038996D01*
X025208Y039020D01*
X025210Y039044D01*
X025208Y039068D01*
X025203Y039092D01*
X025195Y039115D01*
X025183Y039137D01*
X025169Y039157D01*
X025151Y039174D01*
X025132Y039189D01*
X025111Y039201D01*
X035229Y039201D02*
X035208Y039189D01*
X035189Y039174D01*
X035171Y039157D01*
X035157Y039137D01*
X035145Y039115D01*
X035137Y039092D01*
X035132Y039068D01*
X035130Y039044D01*
X035132Y039020D01*
X035137Y038996D01*
X035145Y038973D01*
X035157Y038951D01*
X035171Y038931D01*
X035189Y038914D01*
X035208Y038899D01*
X035229Y038887D01*
X003513Y038552D02*
X003515Y038578D01*
X003521Y038604D01*
X003530Y038628D01*
X003543Y038651D01*
X003559Y038672D01*
X003578Y038690D01*
X003599Y038706D01*
X003623Y038718D01*
X003647Y038726D01*
X003673Y038731D01*
X003700Y038732D01*
X003726Y038729D01*
X003751Y038722D01*
X003775Y038712D01*
X003798Y038698D01*
X003818Y038682D01*
X003835Y038662D01*
X003850Y038640D01*
X003861Y038616D01*
X003869Y038591D01*
X003873Y038565D01*
X003873Y038539D01*
X003869Y038513D01*
X003861Y038488D01*
X003850Y038464D01*
X003835Y038442D01*
X003818Y038422D01*
X003798Y038406D01*
X003775Y038392D01*
X003751Y038382D01*
X003726Y038375D01*
X003700Y038372D01*
X003673Y038373D01*
X003647Y038378D01*
X003623Y038386D01*
X003599Y038398D01*
X003578Y038414D01*
X003559Y038432D01*
X003543Y038453D01*
X003530Y038476D01*
X003521Y038500D01*
X003515Y038526D01*
X003513Y038552D01*
X003513Y029891D02*
X003515Y029917D01*
X003521Y029943D01*
X003530Y029967D01*
X003543Y029990D01*
X003559Y030011D01*
X003578Y030029D01*
X003599Y030045D01*
X003623Y030057D01*
X003647Y030065D01*
X003673Y030070D01*
X003700Y030071D01*
X003726Y030068D01*
X003751Y030061D01*
X003775Y030051D01*
X003798Y030037D01*
X003818Y030021D01*
X003835Y030001D01*
X003850Y029979D01*
X003861Y029955D01*
X003869Y029930D01*
X003873Y029904D01*
X003873Y029878D01*
X003869Y029852D01*
X003861Y029827D01*
X003850Y029803D01*
X003835Y029781D01*
X003818Y029761D01*
X003798Y029745D01*
X003775Y029731D01*
X003751Y029721D01*
X003726Y029714D01*
X003700Y029711D01*
X003673Y029712D01*
X003647Y029717D01*
X003623Y029725D01*
X003599Y029737D01*
X003578Y029753D01*
X003559Y029771D01*
X003543Y029792D01*
X003530Y029815D01*
X003521Y029839D01*
X003515Y029865D01*
X003513Y029891D01*
D13*
X015298Y016855D02*
X015281Y016853D01*
X015264Y016849D01*
X015248Y016842D01*
X015234Y016832D01*
X015221Y016819D01*
X015211Y016805D01*
X015204Y016789D01*
X015200Y016772D01*
X015198Y016755D01*
X015198Y016255D02*
X015200Y016238D01*
X015204Y016221D01*
X015211Y016205D01*
X015221Y016191D01*
X015234Y016178D01*
X015248Y016168D01*
X015264Y016161D01*
X015281Y016157D01*
X015298Y016155D01*
X015298Y015674D02*
X015281Y015672D01*
X015264Y015668D01*
X015248Y015661D01*
X015234Y015651D01*
X015221Y015638D01*
X015211Y015624D01*
X015204Y015608D01*
X015200Y015591D01*
X015198Y015574D01*
X015198Y015074D02*
X015200Y015057D01*
X015204Y015040D01*
X015211Y015024D01*
X015221Y015010D01*
X015234Y014997D01*
X015248Y014987D01*
X015264Y014980D01*
X015281Y014976D01*
X015298Y014974D01*
X016498Y014974D02*
X016515Y014976D01*
X016532Y014980D01*
X016548Y014987D01*
X016562Y014997D01*
X016575Y015010D01*
X016585Y015024D01*
X016592Y015040D01*
X016596Y015057D01*
X016598Y015074D01*
X016598Y015574D02*
X016596Y015591D01*
X016592Y015608D01*
X016585Y015624D01*
X016575Y015638D01*
X016562Y015651D01*
X016548Y015661D01*
X016532Y015668D01*
X016515Y015672D01*
X016498Y015674D01*
X016498Y016155D02*
X016515Y016157D01*
X016532Y016161D01*
X016548Y016168D01*
X016562Y016178D01*
X016575Y016191D01*
X016585Y016205D01*
X016592Y016221D01*
X016596Y016238D01*
X016598Y016255D01*
X016598Y016755D02*
X016596Y016772D01*
X016592Y016789D01*
X016585Y016805D01*
X016575Y016819D01*
X016562Y016832D01*
X016548Y016842D01*
X016532Y016849D01*
X016515Y016853D01*
X016498Y016855D01*
X020766Y008937D02*
X020749Y008935D01*
X020732Y008931D01*
X020716Y008924D01*
X020702Y008914D01*
X020689Y008901D01*
X020679Y008887D01*
X020672Y008871D01*
X020668Y008854D01*
X020666Y008837D01*
X021266Y008937D02*
X021283Y008935D01*
X021300Y008931D01*
X021316Y008924D01*
X021330Y008914D01*
X021343Y008901D01*
X021353Y008887D01*
X021360Y008871D01*
X021364Y008854D01*
X021366Y008837D01*
X021366Y007637D02*
X021364Y007620D01*
X021360Y007603D01*
X021353Y007587D01*
X021343Y007573D01*
X021330Y007560D01*
X021316Y007550D01*
X021300Y007543D01*
X021283Y007539D01*
X021266Y007537D01*
X020766Y007537D02*
X020749Y007539D01*
X020732Y007543D01*
X020716Y007550D01*
X020702Y007560D01*
X020689Y007573D01*
X020679Y007587D01*
X020672Y007603D01*
X020668Y007620D01*
X020666Y007637D01*
X025391Y007637D02*
X025393Y007620D01*
X025397Y007603D01*
X025404Y007587D01*
X025414Y007573D01*
X025427Y007560D01*
X025441Y007550D01*
X025457Y007543D01*
X025474Y007539D01*
X025491Y007537D01*
X025991Y007537D02*
X026008Y007539D01*
X026025Y007543D01*
X026041Y007550D01*
X026055Y007560D01*
X026068Y007573D01*
X026078Y007587D01*
X026085Y007603D01*
X026089Y007620D01*
X026091Y007637D01*
X026091Y008837D02*
X026089Y008854D01*
X026085Y008871D01*
X026078Y008887D01*
X026068Y008901D01*
X026055Y008914D01*
X026041Y008924D01*
X026025Y008931D01*
X026008Y008935D01*
X025991Y008937D01*
X025491Y008937D02*
X025474Y008935D01*
X025457Y008931D01*
X025441Y008924D01*
X025427Y008914D01*
X025414Y008901D01*
X025404Y008887D01*
X025397Y008871D01*
X025393Y008854D01*
X025391Y008837D01*
X030115Y008837D02*
X030117Y008854D01*
X030121Y008871D01*
X030128Y008887D01*
X030138Y008901D01*
X030151Y008914D01*
X030165Y008924D01*
X030181Y008931D01*
X030198Y008935D01*
X030215Y008937D01*
X030715Y008937D02*
X030732Y008935D01*
X030749Y008931D01*
X030765Y008924D01*
X030779Y008914D01*
X030792Y008901D01*
X030802Y008887D01*
X030809Y008871D01*
X030813Y008854D01*
X030815Y008837D01*
X030815Y007637D02*
X030813Y007620D01*
X030809Y007603D01*
X030802Y007587D01*
X030792Y007573D01*
X030779Y007560D01*
X030765Y007550D01*
X030749Y007543D01*
X030732Y007539D01*
X030715Y007537D01*
X030215Y007537D02*
X030198Y007539D01*
X030181Y007543D01*
X030165Y007550D01*
X030151Y007560D01*
X030138Y007573D01*
X030128Y007587D01*
X030121Y007603D01*
X030117Y007620D01*
X030115Y007637D01*
X034839Y007637D02*
X034841Y007620D01*
X034845Y007603D01*
X034852Y007587D01*
X034862Y007573D01*
X034875Y007560D01*
X034889Y007550D01*
X034905Y007543D01*
X034922Y007539D01*
X034939Y007537D01*
X035439Y007537D02*
X035456Y007539D01*
X035473Y007543D01*
X035489Y007550D01*
X035503Y007560D01*
X035516Y007573D01*
X035526Y007587D01*
X035533Y007603D01*
X035537Y007620D01*
X035539Y007637D01*
X035539Y008837D02*
X035537Y008854D01*
X035533Y008871D01*
X035526Y008887D01*
X035516Y008901D01*
X035503Y008914D01*
X035489Y008924D01*
X035473Y008931D01*
X035456Y008935D01*
X035439Y008937D01*
X034939Y008937D02*
X034922Y008935D01*
X034905Y008931D01*
X034889Y008924D01*
X034875Y008914D01*
X034862Y008901D01*
X034852Y008887D01*
X034845Y008871D01*
X034841Y008854D01*
X034839Y008837D01*
X035574Y013005D02*
X035557Y013007D01*
X035540Y013011D01*
X035524Y013018D01*
X035510Y013028D01*
X035497Y013041D01*
X035487Y013055D01*
X035480Y013071D01*
X035476Y013088D01*
X035474Y013105D01*
X035474Y013605D02*
X035476Y013622D01*
X035480Y013639D01*
X035487Y013655D01*
X035497Y013669D01*
X035510Y013682D01*
X035524Y013692D01*
X035540Y013699D01*
X035557Y013703D01*
X035574Y013705D01*
X035574Y013989D02*
X035557Y013991D01*
X035540Y013995D01*
X035524Y014002D01*
X035510Y014012D01*
X035497Y014025D01*
X035487Y014039D01*
X035480Y014055D01*
X035476Y014072D01*
X035474Y014089D01*
X035474Y014589D02*
X035476Y014606D01*
X035480Y014623D01*
X035487Y014639D01*
X035497Y014653D01*
X035510Y014666D01*
X035524Y014676D01*
X035540Y014683D01*
X035557Y014687D01*
X035574Y014689D01*
X035574Y014974D02*
X035557Y014976D01*
X035540Y014980D01*
X035524Y014987D01*
X035510Y014997D01*
X035497Y015010D01*
X035487Y015024D01*
X035480Y015040D01*
X035476Y015057D01*
X035474Y015074D01*
X035474Y015574D02*
X035476Y015591D01*
X035480Y015608D01*
X035487Y015624D01*
X035497Y015638D01*
X035510Y015651D01*
X035524Y015661D01*
X035540Y015668D01*
X035557Y015672D01*
X035574Y015674D01*
X035574Y015958D02*
X035557Y015960D01*
X035540Y015964D01*
X035524Y015971D01*
X035510Y015981D01*
X035497Y015994D01*
X035487Y016008D01*
X035480Y016024D01*
X035476Y016041D01*
X035474Y016058D01*
X035474Y016558D02*
X035476Y016575D01*
X035480Y016592D01*
X035487Y016608D01*
X035497Y016622D01*
X035510Y016635D01*
X035524Y016645D01*
X035540Y016652D01*
X035557Y016656D01*
X035574Y016658D01*
X036774Y016658D02*
X036791Y016656D01*
X036808Y016652D01*
X036824Y016645D01*
X036838Y016635D01*
X036851Y016622D01*
X036861Y016608D01*
X036868Y016592D01*
X036872Y016575D01*
X036874Y016558D01*
X036874Y016058D02*
X036872Y016041D01*
X036868Y016024D01*
X036861Y016008D01*
X036851Y015994D01*
X036838Y015981D01*
X036824Y015971D01*
X036808Y015964D01*
X036791Y015960D01*
X036774Y015958D01*
X036774Y015674D02*
X036791Y015672D01*
X036808Y015668D01*
X036824Y015661D01*
X036838Y015651D01*
X036851Y015638D01*
X036861Y015624D01*
X036868Y015608D01*
X036872Y015591D01*
X036874Y015574D01*
X036874Y015074D02*
X036872Y015057D01*
X036868Y015040D01*
X036861Y015024D01*
X036851Y015010D01*
X036838Y014997D01*
X036824Y014987D01*
X036808Y014980D01*
X036791Y014976D01*
X036774Y014974D01*
X036774Y014689D02*
X036791Y014687D01*
X036808Y014683D01*
X036824Y014676D01*
X036838Y014666D01*
X036851Y014653D01*
X036861Y014639D01*
X036868Y014623D01*
X036872Y014606D01*
X036874Y014589D01*
X036874Y014089D02*
X036872Y014072D01*
X036868Y014055D01*
X036861Y014039D01*
X036851Y014025D01*
X036838Y014012D01*
X036824Y014002D01*
X036808Y013995D01*
X036791Y013991D01*
X036774Y013989D01*
X036774Y013705D02*
X036791Y013703D01*
X036808Y013699D01*
X036824Y013692D01*
X036838Y013682D01*
X036851Y013669D01*
X036861Y013655D01*
X036868Y013639D01*
X036872Y013622D01*
X036874Y013605D01*
X036874Y013105D02*
X036872Y013088D01*
X036868Y013071D01*
X036861Y013055D01*
X036851Y013041D01*
X036838Y013028D01*
X036824Y013018D01*
X036808Y013011D01*
X036791Y013007D01*
X036774Y013005D01*
X043296Y029763D02*
X043298Y029789D01*
X043304Y029815D01*
X043313Y029840D01*
X043326Y029863D01*
X043342Y029884D01*
X043361Y029902D01*
X043383Y029918D01*
X043406Y029930D01*
X043431Y029938D01*
X043457Y029943D01*
X043484Y029944D01*
X043510Y029941D01*
X043535Y029934D01*
X043560Y029924D01*
X043582Y029910D01*
X043603Y029893D01*
X043620Y029874D01*
X043635Y029852D01*
X043646Y029828D01*
X043654Y029802D01*
X043658Y029776D01*
X043658Y029750D01*
X043654Y029724D01*
X043646Y029698D01*
X043635Y029674D01*
X043620Y029652D01*
X043603Y029633D01*
X043582Y029616D01*
X043560Y029602D01*
X043535Y029592D01*
X043510Y029585D01*
X043484Y029582D01*
X043457Y029583D01*
X043431Y029588D01*
X043406Y029596D01*
X043383Y029608D01*
X043361Y029624D01*
X043342Y029642D01*
X043326Y029663D01*
X043313Y029686D01*
X043304Y029711D01*
X043298Y029737D01*
X043296Y029763D01*
X038689Y034015D02*
X038687Y033998D01*
X038683Y033981D01*
X038676Y033965D01*
X038666Y033951D01*
X038653Y033938D01*
X038639Y033928D01*
X038623Y033921D01*
X038606Y033917D01*
X038589Y033915D01*
X038089Y033915D02*
X038072Y033917D01*
X038055Y033921D01*
X038039Y033928D01*
X038025Y033938D01*
X038012Y033951D01*
X038002Y033965D01*
X037995Y033981D01*
X037991Y033998D01*
X037989Y034015D01*
X037989Y035215D02*
X037991Y035232D01*
X037995Y035249D01*
X038002Y035265D01*
X038012Y035279D01*
X038025Y035292D01*
X038039Y035302D01*
X038055Y035309D01*
X038072Y035313D01*
X038089Y035315D01*
X038589Y035315D02*
X038606Y035313D01*
X038623Y035309D01*
X038639Y035302D01*
X038653Y035292D01*
X038666Y035279D01*
X038676Y035265D01*
X038683Y035249D01*
X038687Y035232D01*
X038689Y035215D01*
X036677Y033684D02*
X036675Y033701D01*
X036671Y033718D01*
X036664Y033734D01*
X036654Y033748D01*
X036641Y033761D01*
X036627Y033771D01*
X036611Y033778D01*
X036594Y033782D01*
X036577Y033784D01*
X036677Y033184D02*
X036675Y033167D01*
X036671Y033150D01*
X036664Y033134D01*
X036654Y033120D01*
X036641Y033107D01*
X036627Y033097D01*
X036611Y033090D01*
X036594Y033086D01*
X036577Y033084D01*
X036577Y032603D02*
X036594Y032601D01*
X036611Y032597D01*
X036627Y032590D01*
X036641Y032580D01*
X036654Y032567D01*
X036664Y032553D01*
X036671Y032537D01*
X036675Y032520D01*
X036677Y032503D01*
X036677Y032003D02*
X036675Y031986D01*
X036671Y031969D01*
X036664Y031953D01*
X036654Y031939D01*
X036641Y031926D01*
X036627Y031916D01*
X036611Y031909D01*
X036594Y031905D01*
X036577Y031903D01*
X036577Y031422D02*
X036594Y031420D01*
X036611Y031416D01*
X036627Y031409D01*
X036641Y031399D01*
X036654Y031386D01*
X036664Y031372D01*
X036671Y031356D01*
X036675Y031339D01*
X036677Y031322D01*
X036677Y030822D02*
X036675Y030805D01*
X036671Y030788D01*
X036664Y030772D01*
X036654Y030758D01*
X036641Y030745D01*
X036627Y030735D01*
X036611Y030728D01*
X036594Y030724D01*
X036577Y030722D01*
X035377Y030722D02*
X035360Y030724D01*
X035343Y030728D01*
X035327Y030735D01*
X035313Y030745D01*
X035300Y030758D01*
X035290Y030772D01*
X035283Y030788D01*
X035279Y030805D01*
X035277Y030822D01*
X035277Y031322D02*
X035279Y031339D01*
X035283Y031356D01*
X035290Y031372D01*
X035300Y031386D01*
X035313Y031399D01*
X035327Y031409D01*
X035343Y031416D01*
X035360Y031420D01*
X035377Y031422D01*
X035377Y031903D02*
X035360Y031905D01*
X035343Y031909D01*
X035327Y031916D01*
X035313Y031926D01*
X035300Y031939D01*
X035290Y031953D01*
X035283Y031969D01*
X035279Y031986D01*
X035277Y032003D01*
X035277Y032503D02*
X035279Y032520D01*
X035283Y032537D01*
X035290Y032553D01*
X035300Y032567D01*
X035313Y032580D01*
X035327Y032590D01*
X035343Y032597D01*
X035360Y032601D01*
X035377Y032603D01*
X035377Y033084D02*
X035360Y033086D01*
X035343Y033090D01*
X035327Y033097D01*
X035313Y033107D01*
X035300Y033120D01*
X035290Y033134D01*
X035283Y033150D01*
X035279Y033167D01*
X035277Y033184D01*
X035277Y033684D02*
X035279Y033701D01*
X035283Y033718D01*
X035290Y033734D01*
X035300Y033748D01*
X035313Y033761D01*
X035327Y033771D01*
X035343Y033778D01*
X035360Y033782D01*
X035377Y033784D01*
X003771Y015787D02*
X003773Y015840D01*
X003779Y015893D01*
X003789Y015945D01*
X003803Y015996D01*
X003820Y016046D01*
X003841Y016095D01*
X003866Y016142D01*
X003894Y016187D01*
X003926Y016230D01*
X003961Y016270D01*
X003998Y016307D01*
X004038Y016342D01*
X004081Y016374D01*
X004126Y016402D01*
X004173Y016427D01*
X004222Y016448D01*
X004272Y016465D01*
X004323Y016479D01*
X004375Y016489D01*
X004428Y016495D01*
X004481Y016497D01*
X004534Y016495D01*
X004587Y016489D01*
X004639Y016479D01*
X004690Y016465D01*
X004740Y016448D01*
X004789Y016427D01*
X004836Y016402D01*
X004881Y016374D01*
X004924Y016342D01*
X004964Y016307D01*
X005001Y016270D01*
X005036Y016230D01*
X005068Y016187D01*
X005096Y016142D01*
X005121Y016095D01*
X005142Y016046D01*
X005159Y015996D01*
X005173Y015945D01*
X005183Y015893D01*
X005189Y015840D01*
X005191Y015787D01*
X005189Y015734D01*
X005183Y015681D01*
X005173Y015629D01*
X005159Y015578D01*
X005142Y015528D01*
X005121Y015479D01*
X005096Y015432D01*
X005068Y015387D01*
X005036Y015344D01*
X005001Y015304D01*
X004964Y015267D01*
X004924Y015232D01*
X004881Y015200D01*
X004836Y015172D01*
X004789Y015147D01*
X004740Y015126D01*
X004690Y015109D01*
X004639Y015095D01*
X004587Y015085D01*
X004534Y015079D01*
X004481Y015077D01*
X004428Y015079D01*
X004375Y015085D01*
X004323Y015095D01*
X004272Y015109D01*
X004222Y015126D01*
X004173Y015147D01*
X004126Y015172D01*
X004081Y015200D01*
X004038Y015232D01*
X003998Y015267D01*
X003961Y015304D01*
X003926Y015344D01*
X003894Y015387D01*
X003866Y015432D01*
X003841Y015479D01*
X003820Y015528D01*
X003803Y015578D01*
X003789Y015629D01*
X003779Y015681D01*
X003773Y015734D01*
X003771Y015787D01*
X007774Y007362D02*
X007757Y007360D01*
X007740Y007356D01*
X007724Y007349D01*
X007710Y007339D01*
X007697Y007326D01*
X007687Y007312D01*
X007680Y007296D01*
X007676Y007279D01*
X007674Y007262D01*
X008274Y007362D02*
X008291Y007360D01*
X008308Y007356D01*
X008324Y007349D01*
X008338Y007339D01*
X008351Y007326D01*
X008361Y007312D01*
X008368Y007296D01*
X008372Y007279D01*
X008374Y007262D01*
X008374Y006062D02*
X008372Y006045D01*
X008368Y006028D01*
X008361Y006012D01*
X008351Y005998D01*
X008338Y005985D01*
X008324Y005975D01*
X008308Y005968D01*
X008291Y005964D01*
X008274Y005962D01*
X007774Y005962D02*
X007757Y005964D01*
X007740Y005968D01*
X007724Y005975D01*
X007710Y005985D01*
X007697Y005998D01*
X007687Y006012D01*
X007680Y006028D01*
X007676Y006045D01*
X007674Y006062D01*
D14*
X005481Y010712D03*
X004481Y010712D03*
X003481Y010712D03*
D15*
X003715Y012422D02*
X003610Y012527D01*
X003610Y012632D01*
X003715Y012737D01*
X003926Y012737D01*
X004031Y012632D01*
X004031Y012527D01*
X003926Y012422D01*
X003715Y012422D01*
X003715Y012737D02*
X003610Y012842D01*
X003610Y012947D01*
X003715Y013052D01*
X003926Y013052D01*
X004031Y012947D01*
X004031Y012842D01*
X003926Y012737D01*
X004255Y012947D02*
X004360Y013052D01*
X004570Y013052D01*
X004675Y012947D01*
X004255Y012527D01*
X004360Y012422D01*
X004570Y012422D01*
X004675Y012527D01*
X004675Y012947D01*
X004899Y013052D02*
X004899Y012737D01*
X005110Y012842D01*
X005215Y012842D01*
X005320Y012737D01*
X005320Y012527D01*
X005215Y012422D01*
X005004Y012422D01*
X004899Y012527D01*
X004899Y013052D02*
X005320Y013052D01*
X004510Y013422D02*
X004090Y013422D01*
X004300Y013422D02*
X004300Y014052D01*
X004090Y013842D01*
X003866Y013947D02*
X003761Y014052D01*
X003550Y014052D01*
X003445Y013947D01*
X003445Y013527D01*
X003550Y013422D01*
X003761Y013422D01*
X003866Y013527D01*
X003386Y013052D02*
X003386Y012947D01*
X002966Y012527D01*
X002966Y012422D01*
X002966Y013052D02*
X003386Y013052D01*
X003226Y013422D02*
X003016Y013422D01*
X003121Y013422D02*
X003121Y014052D01*
X003016Y014052D02*
X003226Y014052D01*
X004255Y012947D02*
X004255Y012527D01*
X039569Y028616D02*
X039674Y028511D01*
X039884Y028511D01*
X039989Y028616D01*
X039989Y029142D01*
X040213Y029036D02*
X040213Y028931D01*
X040318Y028826D01*
X040529Y028826D01*
X040634Y028721D01*
X040634Y028616D01*
X040529Y028511D01*
X040318Y028511D01*
X040213Y028616D01*
X040213Y029036D02*
X040318Y029142D01*
X040529Y029142D01*
X040634Y029036D01*
X040858Y029142D02*
X041173Y029142D01*
X041278Y029036D01*
X041278Y028931D01*
X041173Y028826D01*
X040858Y028826D01*
X040858Y028511D02*
X041173Y028511D01*
X041278Y028616D01*
X041278Y028721D01*
X041173Y028826D01*
X041502Y028616D02*
X041608Y028511D01*
X041818Y028511D01*
X041923Y028616D01*
X041923Y029142D01*
X042147Y028931D02*
X042147Y028511D01*
X042147Y028826D02*
X042567Y028826D01*
X042567Y028931D02*
X042567Y028511D01*
X042792Y028511D02*
X042792Y029142D01*
X043107Y029142D01*
X043212Y029036D01*
X043212Y028826D01*
X043107Y028721D01*
X042792Y028721D01*
X043002Y028721D02*
X043212Y028511D01*
X043646Y028511D02*
X043646Y029142D01*
X043436Y029142D02*
X043856Y029142D01*
X042567Y028931D02*
X042357Y029142D01*
X042147Y028931D01*
X041502Y029142D02*
X041502Y028616D01*
X040858Y028511D02*
X040858Y029142D01*
X039569Y029142D02*
X039569Y028616D01*
D16*
X025263Y038375D02*
X025209Y038375D01*
X025236Y038375D02*
X025236Y038455D01*
X025209Y038429D01*
D17*
X008172Y004241D03*
D18*
X007876Y004241D03*
D19*
X008024Y004241D03*
X034264Y013355D03*
X034264Y014339D03*
X034264Y015324D03*
X034264Y016308D03*
D20*
X034264Y016456D03*
X034264Y016160D03*
X034264Y015176D03*
X034264Y014487D03*
X034264Y013503D03*
X034264Y013207D03*
D21*
X034264Y014192D03*
X034264Y015471D03*
D22*
X033949Y030924D03*
X033949Y031219D03*
X033949Y032105D03*
D23*
X033949Y031072D03*
D24*
X033949Y032400D03*
D25*
X033949Y032253D03*
M02*
