%
M48
M72
T01C0.0236
T02C0.0320
T03C0.0354
T04C0.0394
T05C0.0400
T06C0.0433
T07C0.0669
T08C0.0787
T09C0.1300
%
T01
X1430Y4398
X6449Y9418
X9894Y10501
X10780Y9024
X13733Y10206
X13733Y10796
X13733Y11387
X13733Y11977
X13733Y12568
X15996Y12174
X16685Y11977
X17473Y11190
X18260Y10304
X18654Y9910
X18162Y9418
X17768Y9812
X17276Y9320
X17670Y8926
X19146Y10402
X18752Y10796
X19244Y11288
X19638Y10894
X20130Y11387
X19737Y11780
X20229Y12272
X20622Y11879
X21115Y12371
X20721Y12765
X21213Y13257
X21607Y12863
X23772Y13158
X24559Y13355
X25347Y13552
X25150Y12765
X23969Y13946
X22394Y14930
X22000Y15520
X24067Y17292
X23575Y17784
X23083Y18276
X22493Y18276
X22394Y19654
X20426Y20048
X18063Y19654
X17473Y19654
X16882Y19654
X16882Y19064
X16882Y18473
X17473Y18473
X18063Y18473
X18063Y19064
X17473Y19064
X13437Y19950
X15898Y23985
X17473Y23985
X19048Y23985
X23181Y23591
X23772Y23591
X24363Y23591
X25150Y24182
X26823Y24182
X26134Y22410
X24166Y21229
X25741Y20245
X25544Y19457
X26134Y19261
X27119Y19457
X28103Y19457
X28496Y20442
X27512Y18080
X28103Y17489
X27906Y16702
X27315Y17292
X28693Y16898
X29284Y16308
X29087Y15520
X28496Y16111
X29874Y15717
X32040Y16308
X36174Y18867
X36961Y18867
X37748Y18867
X37355Y19654
X36567Y19654
X35780Y19654
X34796Y21229
X37552Y25166
X37158Y27331
X38044Y28217
X38634Y28808
X39225Y29398
X39815Y29989
X37650Y29595
X36666Y29300
X41981Y31564
X43457Y32253
X44737Y33434
X43752Y34517
X41882Y35009
X40701Y35402
X39126Y35402
X39520Y34221
X35780Y35206
X35189Y35206
X35189Y35796
X35189Y36387
X35189Y36977
X35780Y36977
X35780Y36387
X35780Y35796
X35780Y37568
X35189Y37568
X32433Y35894
X32827Y35304
X32926Y34615
X33221Y34024
X30662Y35501
X29087Y35501
X24067Y37666
X23280Y39241
X19441Y37765
X17867Y37765
X16793Y38482
X15898Y37765
X13339Y35206
X12355Y35796
X11567Y36387
X12355Y34615
X11567Y34024
X15898Y31859
X17867Y31859
X19441Y31859
X19048Y29103
X17473Y29103
X15898Y29103
X11370Y27528
X11370Y26938
X11370Y26347
X11370Y25757
X11370Y25166
X11850Y24307
X7630Y24772
X5768Y23537
X4087Y23198
X4874Y25166
X6252Y26544
X6102Y27843
X4481Y27135
X7630Y29103
X4921Y34050
X5957Y35304
X4183Y36866
X6082Y37888
X5161Y39010
X3842Y39464
X7128Y39090
X1331Y31072
X940Y24527
X2709Y21426
X3595Y19950
X4776Y19950
X4776Y19064
X3595Y19064
X2414Y19064
X1430Y18080
X1430Y16898
X1430Y15619
X1430Y14536
X1430Y13552
X1430Y12666
X1430Y11583
X1430Y10599
X5957Y19064
X7040Y19064
X5957Y19950
X18457Y14536
X19244Y14536
X24559Y16800
X26725Y13552
X27512Y13355
X28496Y12961
X38437Y13552
X45524Y11780
X52020Y12371
X52315Y15028
X52020Y18178
X44343Y21918
X43851Y21229
X41784Y21623
X41784Y22213
X41193Y22213
X41193Y21623
X40603Y21623
X40603Y22213
X40603Y22804
X41193Y22804
X41784Y22804
X45819Y29891
X47394Y29891
X52315Y29300
X52020Y33926
X50347Y39536
X49756Y39536
X49166Y39536
X48575Y39536
X47985Y39536
X47394Y39536
X46804Y39536
X46213Y39536
X45622Y39536
X45032Y39536
X43949Y38946
X43359Y38946
X43359Y38355
X43949Y38355
X43949Y37765
X43359Y37765
X43359Y37174
X43949Y37174
X28300Y29891
X27611Y31269
X25937Y30678
X25937Y29891
X25937Y29103
X25937Y28316
X25937Y27528
X52315Y24674
X52315Y8237
T02
X37174Y13355
X37174Y14339
X37174Y15324
X37174Y16308
X35174Y16308
X35174Y15324
X35174Y14339
X35174Y13355
X35189Y9237
X35189Y7237
X30465Y7237
X30465Y9237
X25741Y9237
X25741Y7237
X21016Y7237
X21016Y9237
X16898Y15324
X16898Y16505
X14898Y16505
X14898Y15324
X8024Y7662
X8024Y5662
X34977Y31072
X34977Y32253
X34977Y33434
X36977Y33434
X36977Y32253
X36977Y31072
X38339Y33615
X38339Y35615
T03
X38536Y38150
X40268Y38150
X34894Y38650
X34107Y38650
X34107Y39438
X34894Y39438
X33319Y39438
X32532Y39438
X32532Y38650
X33319Y38650
X31744Y38650
X30957Y38650
X30957Y39438
X31744Y39438
X30170Y39438
X30170Y38650
X29382Y38650
X28595Y38650
X28595Y39438
X29382Y39438
X27807Y39438
X27020Y39438
X27020Y38650
X27807Y38650
X26233Y38650
X25445Y38650
X25445Y39438
X26233Y39438
T04
X4481Y5520
X6370Y4300
X4481Y3119
T05
X4481Y9887
X5481Y9887
X3481Y9887
T06
X47756Y13749
X48756Y13749
X49756Y13749
X49756Y14749
X48756Y14749
X47756Y14749
X47756Y15749
X48756Y15749
X49756Y15749
X49756Y16749
X48756Y16749
X47756Y16749
X47756Y17749
X48756Y17749
X49756Y17749
X49756Y18749
X48756Y18749
X47756Y18749
T07
X47402Y22804
X48961Y22804
X50520Y22804
X45843Y22804
X45843Y27528
X47402Y27528
X48961Y27528
X50520Y27528
X50520Y32253
X48961Y32253
X47402Y32253
X45843Y32253
X45843Y36977
X47402Y36977
X48961Y36977
X50520Y36977
X49363Y8599
X49363Y7040
X49363Y5481
X49363Y3922
X49363Y2363
X44638Y2741
X44638Y4300
X44638Y5859
X39914Y5859
X39914Y4300
X39914Y2741
X35189Y2741
X35189Y4300
X35189Y5859
X30465Y5859
X30465Y4300
X30465Y2741
X25741Y2741
X25741Y4300
X25741Y5859
X21016Y5859
X21016Y4300
X21016Y2741
X16292Y2741
X16292Y4300
X16292Y5859
X11567Y5859
X11567Y4300
X11567Y2741
T08
X1331Y1938
X1331Y20639
X1331Y39339
X52512Y39339
X52512Y20639
X52512Y1938
T09
X4481Y15787
M30
